<?xml version="1.0" standalone="no"?>
 <!DOCTYPE svg PUBLIC "-//W3C//DTD SVG 1.1//EN" 
 "http://www.w3.org/Graphics/SVG/1.1/DTD/svg11.dtd"> 
<svg xmlns="http://www.w3.org/2000/svg" version="1.1" 
    width="8.54964cm" height="3.69062cm" viewBox="0 0 33660 14530 ">
<title>SVG Picture created as weather_station-B_SilkS.svg date 2015/04/13 21:23:06 </title>
  <desc>Picture generated by PCBNEW </desc>
<g style="fill:#000000; fill-opacity:1;stroke:#000000; stroke-opacity:1;
stroke-linecap:round; stroke-linejoin:round; "
 transform="translate(0 0) scale(1 1)">
</g>
<g style="fill:#C2C200; fill-opacity:0.0; 
stroke:#C2C200; stroke-width:39.3701; stroke-opacity:1; 
stroke-linecap:round; stroke-linejoin:round;">
<circle cx="18249.7" cy="13512.2" r="536.493" /> 
<circle cx="9149.69" cy="1162.24" r="501.224" /> 
<circle cx="1019.69" cy="8232.24" r="501.598" /> 
<circle cx="32639.7" cy="13507.2" r="500.4" /> 
<circle cx="32639.7" cy="1167.24" r="500.025" /> 
<path d="M33644 162
L29319 162
" />
<path d="M33644 14512
L33644 162
" />
<path d="M1314 14512
L33644 14512
" />
<path d="M1314 14512
L1289 14512
" />
<path d="M19 14512
L1314 14512
" />
<path d="M19 14477
L19 14512
" />
<path d="M49 162
L19 162
" />
<path d="M19 162
L19 14507
" />
<path d="M1609 162
L24 162
" />
<path d="M1609 1977
L1609 162
" />
<path d="M1609 2017
L1609 1977
" />
<path d="M4729 162
L4734 162
" />
<path d="M4729 1967
L4729 162
" />
<path d="M4729 2002
L4729 1967
" />
<path d="M29074 162
L4729 162
" />
<path d="M29104 162
L29074 162
" />
<path d="M29104 162
L29329 162
" />
<path d="M4729 2017
L4729 2002
" />
<path d="M1609 2037
L1609 2012
" />
<path d="M4469 2292
L1894 2292
" />
<path d="M4469.69 2292.24 A270.185 270.185 0.0 0 0 4729.69 2012.24 " />
<path d="M1609.69 2032.24 A270.185 270.185 0.0 0 0 1889.69 2292.24 " />
</g>
<g style="fill:#840084; fill-opacity:0.0; 
stroke:#840084; stroke-width:49.2126; stroke-opacity:1; 
stroke-linecap:round; stroke-linejoin:round;">
<path d="M17718 3376
L17521 3376
L17521 3423
L17530 3451
L17549 3470
L17568 3480
L17605 3489
L17633 3489
L17671 3480
L17690 3470
L17708 3451
L17718 3423
L17718 3376
" />
<path d="M17521 3555
L17521 3676
L17596 3611
L17596 3639
L17605 3658
L17615 3667
L17633 3676
L17680 3676
L17699 3667
L17708 3658
L17718 3639
L17718 3583
L17708 3564
L17699 3555
" />
<path d="M18899 9776
L18702 9776
L18702 9823
L18711 9851
L18730 9870
L18749 9880
L18786 9889
L18814 9889
L18852 9880
L18871 9870
L18889 9851
L18899 9823
L18899 9776
" />
<path d="M18768 10058
L18899 10058
" />
<path d="M18693 10011
L18833 9964
L18833 10086
" />
</g>
<g style="fill:#840084; fill-opacity:0.0; 
stroke:#840084; stroke-width:120; stroke-opacity:1; 
stroke-linecap:round; stroke-linejoin:round;">
<path d="M18219 5022
L18219 4722
" />
<path d="M18219 4722
L17819 4722
" />
<path d="M17819 4722
L17819 2322
" />
<path d="M17819 2322
L18219 2322
" />
<path d="M18219 2322
L18219 2022
" />
<path d="M18219 2322
L18619 2322
" />
<path d="M18619 2322
L18619 4722
" />
<path d="M18619 4722
L18219 4722
" />
<path d="M17819 4522
L18619 4522
" />
<path d="M18619 4422
L17819 4422
" />
<path d="M18219 8422
L18219 8722
" />
<path d="M18219 8722
L18619 8722
" />
<path d="M18619 8722
L18619 11122
" />
<path d="M18619 11122
L18219 11122
" />
<path d="M18219 11122
L18219 11422
" />
<path d="M18219 11122
L17819 11122
" />
<path d="M17819 11122
L17819 8722
" />
<path d="M17819 8722
L18219 8722
" />
<path d="M18619 8922
L17819 8922
" />
<path d="M17819 9022
L18619 9022
" />
</g>
<g style="fill:#840000; fill-opacity:0.0; 
stroke:#840000; stroke-width:39.3701; stroke-opacity:1; 
stroke-linecap:round; stroke-linejoin:round;">
</g>
<g style="fill:#840000; fill-opacity:1.0; 
stroke:#840000; stroke-width:39.3701; stroke-opacity:1; 
stroke-linecap:round; stroke-linejoin:round;">
<polyline style="fill-rule:evenodd;"
points="17944,4746
18495,4746
18495,5297
17944,5297
17944,4746
" /> 
<circle cx="18219.7" cy="2022.24" r="275.591" /> 
<polyline style="fill-rule:evenodd;"
points="18495,8697
17944,8697
17944,8146
18495,8146
18495,8697
" /> 
<circle cx="18219.7" cy="11422.2" r="275.591" /> 
</g> 
</svg>
