<?xml version="1.0" standalone="no"?>
 <!DOCTYPE svg PUBLIC "-//W3C//DTD SVG 1.1//EN" 
 "http://www.w3.org/Graphics/SVG/1.1/DTD/svg11.dtd"> 
<svg xmlns="http://www.w3.org/2000/svg" version="1.1" 
    width="6.34746cm" height="2.94132cm" viewBox="0 0 24990 11580 ">
<title>SVG Picture created as weather_station-In1_Cu.svg date 2015/04/19 11:02:50 </title>
  <desc>Picture generated by PCBNEW </desc>
<g style="fill:#000000; fill-opacity:1;stroke:#000000; stroke-opacity:1;
stroke-linecap:round; stroke-linejoin:round; "
 transform="translate(0 0) scale(1 1)">
</g>
<g style="fill:#C2C200; fill-opacity:0.0; 
stroke:#C2C200; stroke-width:39.3701; stroke-opacity:1; 
stroke-linecap:round; stroke-linejoin:round;">
<path d="M1322 3899
L1322 10904
" />
<path d="M1322 769
L1327 769
" />
<path d="M1332 769
L1322 769
" />
<path d="M1322 769
L1332 769
" />
<path d="M1322 19
L1322 769
" />
<path d="M3137 3899
L1322 3899
" />
<path d="M3132 769
L1322 769
" />
<path d="M3502 3534
L3502 1134
" />
<path d="M3137.95 3899.69 A365 365 0.0 0 0 3502.95 3534.69 " />
<path d="M3502.95 1134.69 A365 365 0.0 0 0 3137.95 769.685 " />
<path d="M1842 10904
L1827 10904
" />
<path d="M1322 10904
L1842 10904
" />
<path d="M1322 10889
L1322 10904
" />
<path d="M1912 10904
L1922 10904
" />
<path d="M1827 10904
L1912 10904
" />
<path d="M24837 10904
L1827 10904
" />
<path d="M24837 10724
L24837 10904
" />
<path d="M24572 10904
L24592 10904
" />
<path d="M24837 1439
L24837 10729
" />
<path d="M24837 1454
L24837 1374
" />
<path d="M24837 1404
L24837 1454
" />
<path d="M24837 19
L24477 19
" />
<path d="M24837 29
L24837 19
" />
<path d="M24837 1354
L24837 29
" />
<path d="M24837 1359
L24837 1394
" />
<path d="M24837 1394
L24837 1359
" />
<path d="M2222 19
L24487 19
" />
<path d="M1322 19
L2217 19
" />
</g>
<g style="fill:#840000; fill-opacity:0.0; 
stroke:#840000; stroke-width:39.3701; stroke-opacity:1; 
stroke-linecap:round; stroke-linejoin:round;">
</g>
<g style="fill:#840000; fill-opacity:1.0; 
stroke:#840000; stroke-width:39.3701; stroke-opacity:1; 
stroke-linecap:round; stroke-linejoin:round;">
<polyline style="fill-rule:evenodd;"
points="17308,3084
17308,3845
16547,3845
16547,3084
17308,3084
" /> 
</g>
<g style="fill:#840000; fill-opacity:1.0; 
stroke:#840000; stroke-width:800; stroke-opacity:1; 
stroke-linecap:round; stroke-linejoin:round;">
</g>
<g style="fill:#840000; fill-opacity:0.0; 
stroke:#840000; stroke-width:800; stroke-opacity:1; 
stroke-linecap:round; stroke-linejoin:round;">
<path d="M15927 3464
L15927 3464
" />
</g>
<g style="fill:#840000; fill-opacity:0.0; 
stroke:#840000; stroke-width:39.3701; stroke-opacity:1; 
stroke-linecap:round; stroke-linejoin:round;">
</g>
<g style="fill:#840000; fill-opacity:1.0; 
stroke:#840000; stroke-width:39.3701; stroke-opacity:1; 
stroke-linecap:round; stroke-linejoin:round;">
<circle cx="6673.34" cy="6444.69" r="541.339" /> 
<circle cx="4822.95" cy="6444.69" r="541.339" /> 
<circle cx="2972.55" cy="6444.69" r="541.339" /> 
<circle cx="7423.34" cy="10196.7" r="541.339" /> 
<circle cx="2222.55" cy="10196.7" r="541.339" /> 
</g>
<g style="fill:#840000; fill-opacity:1.0; 
stroke:#840000; stroke-width:393.701; stroke-opacity:1; 
stroke-linecap:round; stroke-linejoin:round;">
</g>
<g style="fill:#840000; fill-opacity:0.0; 
stroke:#840000; stroke-width:393.701; stroke-opacity:1; 
stroke-linecap:round; stroke-linejoin:round;">
<path d="M1856 4283
L2329 4283
" />
<path d="M1856 385
L2329 385
" />
<path d="M3470 4283
L3864 4283
" />
<path d="M3470 385
L3864 385
" />
</g>
<g style="fill:#840000; fill-opacity:0.0; 
stroke:#840000; stroke-width:39.3701; stroke-opacity:1; 
stroke-linecap:round; stroke-linejoin:round;">
</g>
<g style="fill:#840000; fill-opacity:1.0; 
stroke:#840000; stroke-width:39.3701; stroke-opacity:1; 
stroke-linecap:round; stroke-linejoin:round;">
<circle cx="8982.95" cy="2224.69" r="216.535" /> 
<circle cx="8982.95" cy="1224.69" r="216.535" /> 
<polyline style="fill-rule:evenodd;"
points="14577,3969
15128,3969
15128,4520
14577,4520
14577,3969
" /> 
<circle cx="14852.9" cy="1244.69" r="275.591" /> 
<polyline style="fill-rule:evenodd;"
points="15533,7755
14982,7755
14982,7204
15533,7204
15533,7755
" /> 
<circle cx="15257.9" cy="10479.7" r="275.591" /> 
<circle cx="13677.1" cy="5079.69" r="196.85" /> 
<circle cx="14562.9" cy="5079.69" r="196.85" /> 
<circle cx="15448.8" cy="5079.69" r="196.85" /> 
<circle cx="13697.1" cy="6779.69" r="196.85" /> 
<circle cx="14582.9" cy="6779.69" r="196.85" /> 
<circle cx="15468.8" cy="6779.69" r="196.85" /> 
<circle cx="24322.9" cy="9099.69" r="196.85" /> 
<circle cx="24322.9" cy="8599.69" r="196.85" /> 
<circle cx="24322.9" cy="8099.69" r="196.85" /> 
<polyline style="fill-rule:evenodd;"
points="24519,7796
24126,7796
24126,7402
24519,7402
24519,7796
" /> 
<circle cx="24317.9" cy="6684.69" r="196.85" /> 
<circle cx="24317.9" cy="6184.69" r="196.85" /> 
<circle cx="24317.9" cy="5684.69" r="196.85" /> 
<polyline style="fill-rule:evenodd;"
points="24514,5381
24121,5381
24121,4987
24514,4987
24514,5381
" /> 
<circle cx="21772.9" cy="10384.7" r="196.85" /> 
<circle cx="22272.9" cy="10384.7" r="196.85" /> 
<circle cx="22772.9" cy="10384.7" r="196.85" /> 
<circle cx="23272.9" cy="10384.7" r="196.85" /> 
<circle cx="23772.9" cy="10384.7" r="196.85" /> 
<polyline style="fill-rule:evenodd;"
points="24076,10581
24076,10187
24469,10187
24469,10581
24076,10581
" /> 
<circle cx="16852.9" cy="10379.7" r="196.85" /> 
<circle cx="17352.9" cy="10379.7" r="196.85" /> 
<circle cx="17852.9" cy="10379.7" r="196.85" /> 
<polyline style="fill-rule:evenodd;"
points="18156,10576
18156,10182
18549,10182
18549,10576
18156,10576
" /> 
<circle cx="19362.9" cy="534.685" r="196.85" /> 
<circle cx="18862.9" cy="534.685" r="196.85" /> 
<circle cx="18362.9" cy="534.685" r="196.85" /> 
<circle cx="17862.9" cy="534.685" r="196.85" /> 
<circle cx="17362.9" cy="534.685" r="196.85" /> 
<circle cx="16862.9" cy="534.685" r="196.85" /> 
<circle cx="16362.9" cy="534.685" r="196.85" /> 
<circle cx="15862.9" cy="534.685" r="196.85" /> 
<polyline style="fill-rule:evenodd;"
points="15559,337
15559,731
15166,731
15166,337
15559,337
" /> 
<polyline style="fill-rule:evenodd;"
points="12272,3840
12272,3079
13033,3079
13033,3840
12272,3840
" /> 
</g>
<g style="fill:#840000; fill-opacity:1.0; 
stroke:#840000; stroke-width:800; stroke-opacity:1; 
stroke-linecap:round; stroke-linejoin:round;">
</g>
<g style="fill:#840000; fill-opacity:0.0; 
stroke:#840000; stroke-width:800; stroke-opacity:1; 
stroke-linecap:round; stroke-linejoin:round;">
<path d="M13652 3459
L13652 3459
" />
</g>
<g style="fill:#840000; fill-opacity:0.0; 
stroke:#840000; stroke-width:39.3701; stroke-opacity:1; 
stroke-linecap:round; stroke-linejoin:round;">
</g>
<g style="fill:#840000; fill-opacity:1.0; 
stroke:#840000; stroke-width:39.3701; stroke-opacity:1; 
stroke-linecap:round; stroke-linejoin:round;">
<polyline style="fill-rule:evenodd;"
points="17668,8014
17668,8775
16907,8775
16907,8014
17668,8014
" /> 
</g>
<g style="fill:#840000; fill-opacity:1.0; 
stroke:#840000; stroke-width:800; stroke-opacity:1; 
stroke-linecap:round; stroke-linejoin:round;">
</g>
<g style="fill:#840000; fill-opacity:0.0; 
stroke:#840000; stroke-width:800; stroke-opacity:1; 
stroke-linecap:round; stroke-linejoin:round;">
<path d="M16287 8394
L16287 8394
" />
</g>
<g style="fill:#840000; fill-opacity:0.0; 
stroke:#840000; stroke-width:39.3701; stroke-opacity:1; 
stroke-linecap:round; stroke-linejoin:round;">
</g>
<g style="fill:#840000; fill-opacity:1.0; 
stroke:#840000; stroke-width:39.3701; stroke-opacity:1; 
stroke-linecap:round; stroke-linejoin:round;">
<polyline style="fill-rule:evenodd;"
points="12717,8785
12717,8024
13478,8024
13478,8785
12717,8785
" /> 
</g>
<g style="fill:#840000; fill-opacity:1.0; 
stroke:#840000; stroke-width:800; stroke-opacity:1; 
stroke-linecap:round; stroke-linejoin:round;">
</g>
<g style="fill:#840000; fill-opacity:0.0; 
stroke:#840000; stroke-width:800; stroke-opacity:1; 
stroke-linecap:round; stroke-linejoin:round;">
<path d="M14097 8404
L14097 8404
" />
</g>
<g style="fill:#C2C2C2; fill-opacity:0.0; 
stroke:#C2C2C2; stroke-width:39.3701; stroke-opacity:1; 
stroke-linecap:round; stroke-linejoin:round;">
</g>
<g style="fill:#C2C2C2; fill-opacity:1.0; 
stroke:#C2C2C2; stroke-width:39.3701; stroke-opacity:1; 
stroke-linecap:round; stroke-linejoin:round;">
<circle cx="8222.95" cy="9424.69" r="155.315" /> 
<circle cx="7777.95" cy="9429.69" r="80.315" /> 
<circle cx="9497.95" cy="9244.69" r="80.315" /> 
<circle cx="9152.95" cy="9244.69" r="80.315" /> 
<circle cx="9147.95" cy="8694.69" r="80.315" /> 
<circle cx="9322.95" cy="8969.69" r="80.315" /> 
<circle cx="9497.95" cy="8694.69" r="80.315" /> 
<circle cx="10092.9" cy="6664.69" r="80.315" /> 
<circle cx="9747.95" cy="6664.69" r="80.315" /> 
<circle cx="9747.95" cy="6114.69" r="80.315" /> 
<circle cx="9922.95" cy="6389.69" r="80.315" /> 
<circle cx="10092.9" cy="6114.69" r="80.315" /> 
<circle cx="20557.9" cy="1974.69" r="80.315" /> 
<circle cx="20372.9" cy="1789.69" r="80.315" /> 
<circle cx="20497.9" cy="7349.69" r="80.315" /> 
<circle cx="19572.9" cy="8519.69" r="80.315" /> 
<circle cx="19782.9" cy="8309.69" r="80.315" /> 
<circle cx="19572.9" cy="8784.69" r="80.315" /> 
<circle cx="21902.9" cy="8764.69" r="80.315" /> 
<circle cx="21632.9" cy="8489.69" r="80.315" /> 
<circle cx="21632.9" cy="8764.69" r="80.315" /> 
<circle cx="21902.9" cy="8489.69" r="80.315" /> 
<circle cx="18682.9" cy="8999.69" r="155.315" /> 
<circle cx="18682.9" cy="9409.69" r="155.315" /> 
<circle cx="22787.9" cy="2834.69" r="80.315" /> 
<circle cx="22527.9" cy="3094.69" r="80.315" /> 
<circle cx="20162.9" cy="4329.69" r="80.315" /> 
<circle cx="20662.9" cy="3829.69" r="80.315" /> 
<circle cx="21162.9" cy="4329.69" r="80.315" /> 
<circle cx="20662.9" cy="4829.69" r="80.315" /> 
<circle cx="21162.9" cy="4829.69" r="155.315" /> 
<circle cx="20162.9" cy="4829.69" r="155.315" /> 
<circle cx="20162.9" cy="3829.69" r="155.315" /> 
<circle cx="20662.9" cy="4329.69" r="155.315" /> 
<circle cx="21162.9" cy="3829.69" r="155.315" /> 
<circle cx="5962.95" cy="2229.69" r="155.315" /> 
<circle cx="4822.95" cy="904.685" r="155.315" /> 
<circle cx="4832.95" cy="494.685" r="155.315" /> 
<circle cx="5247.95" cy="494.685" r="155.315" /> 
<circle cx="5247.95" cy="904.685" r="155.315" /> 
<circle cx="5972.95" cy="1819.69" r="155.315" /> 
<circle cx="6832.95" cy="4269.69" r="155.315" /> 
<circle cx="6367.95" cy="4269.69" r="155.315" /> 
<circle cx="9607.95" cy="4959.69" r="155.315" /> 
<circle cx="9607.95" cy="4584.69" r="155.315" /> 
<circle cx="9982.95" cy="4584.69" r="155.315" /> 
<circle cx="9982.95" cy="4959.69" r="155.315" /> 
<circle cx="9042.95" cy="6309.69" r="80.315" /> 
<circle cx="8887.95" cy="6154.69" r="80.315" /> 
<circle cx="8887.95" cy="6459.65" r="80.315" /> 
<circle cx="8672.95" cy="6459.65" r="80.315" /> 
<circle cx="8672.95" cy="6154.69" r="80.315" /> 
<circle cx="10752.9" cy="6469.69" r="80.315" /> 
<circle cx="10967.9" cy="6469.69" r="80.315" /> 
<circle cx="10192.9" cy="9049.69" r="80.315" /> 
<circle cx="10347.9" cy="8894.73" r="80.315" /> 
<circle cx="10347.9" cy="9204.65" r="80.315" /> 
<circle cx="8452.95" cy="8889.69" r="80.315" /> 
<circle cx="8222.95" cy="8889.69" r="80.315" /> 
<circle cx="10572.9" cy="8897.41" r="80.315" /> 
<circle cx="10572.9" cy="9204.65" r="80.315" /> 
<circle cx="10967.9" cy="6049.69" r="155.315" /> 
<circle cx="9922.95" cy="9794.69" r="80.315" /> 
<circle cx="9922.95" cy="10044.7" r="80.315" /> 
<circle cx="11107.9" cy="10044.7" r="80.315" /> 
<circle cx="11522.9" cy="10459.7" r="80.315" /> 
<circle cx="11522.9" cy="10044.7" r="80.315" /> 
<circle cx="11222.9" cy="4064.69" r="155.315" /> 
<circle cx="10787.9" cy="4064.69" r="155.315" /> 
<circle cx="11222.9" cy="3629.69" r="155.315" /> 
<circle cx="10787.9" cy="3629.69" r="155.315" /> 
<circle cx="8167.95" cy="7994.69" r="155.315" /> 
<circle cx="8587.95" cy="7994.69" r="155.315" /> 
<circle cx="10642.9" cy="7359.69" r="155.315" /> 
<circle cx="11057.9" cy="7359.69" r="155.315" /> 
<circle cx="23327.9" cy="5074.69" r="155.315" /> 
<circle cx="23327.9" cy="4629.69" r="155.315" /> 
<circle cx="22722.9" cy="2289.69" r="155.315" /> 
<circle cx="22987.9" cy="2024.69" r="155.315" /> 
<circle cx="21547.9" cy="904.685" r="155.315" /> 
<circle cx="21547.9" cy="529.685" r="155.315" /> 
<circle cx="18347.9" cy="2504.69" r="80.315" /> 
<circle cx="18347.9" cy="2284.69" r="80.315" /> 
<circle cx="21532.9" cy="9204.69" r="155.315" /> 
<circle cx="21537.9" cy="9589.69" r="155.315" /> 
<circle cx="19192.9" cy="5924.69" r="80.315" /> 
<circle cx="19467.9" cy="5924.69" r="80.315" /> 
<circle cx="19192.9" cy="6194.69" r="80.315" /> 
<circle cx="19257.9" cy="10429.7" r="155.315" /> 
<circle cx="19677.9" cy="10429.7" r="155.315" /> 
<circle cx="19257.9" cy="10009.7" r="155.315" /> 
<circle cx="19677.9" cy="10009.7" r="155.315" /> 
<circle cx="20732.9" cy="6949.69" r="80.315" /> 
<circle cx="21122.9" cy="7319.69" r="80.315" /> 
<circle cx="20927.9" cy="7139.69" r="80.315" /> 
<circle cx="19692.9" cy="7379.69" r="80.315" /> 
<circle cx="19692.9" cy="7839.69" r="80.315" /> 
<circle cx="19692.9" cy="7614.69" r="80.315" /> 
<circle cx="10172.9" cy="10174.7" r="80.315" /> 
<circle cx="10372.9" cy="10044.7" r="80.315" /> 
<circle cx="10642.9" cy="10044.7" r="80.315" /> 
<circle cx="19402.9" cy="2944.69" r="80.315" /> 
<circle cx="19247.9" cy="2729.69" r="80.315" /> 
<circle cx="18662.9" cy="3149.69" r="80.315" /> 
<circle cx="21837.9" cy="3144.69" r="80.315" /> 
<circle cx="12552.9" cy="5934.69" r="80.315" /> 
<circle cx="9442.95" cy="6979.69" r="80.315" /> 
</g>
<g style="fill:#C2C200; fill-opacity:1.0; 
stroke:#C2C200; stroke-width:100; stroke-opacity:1; 
stroke-linecap:round; stroke-linejoin:round;">
<polyline style="fill-rule:evenodd;"
points="24568,9929
24489,9913
24056,9913
23961,9931
23936,9947
23866,9918
23680,9918
23522,9983
23366,9918
23180,9918
23022,9983
22866,9918
22680,9918
22522,9983
22366,9918
22188,9918
22188,3075
22134,2946
22036,2848
21907,2794
21768,2794
21639,2847
21541,2946
21488,3074
21487,3213
21541,3342
21639,3441
21768,3494
21907,3494
22035,3441
22134,3343
22187,3214
22188,3075
22188,9918
22180,9918
22022,9983
21866,9918
21810,9918
21898,9830
21962,9674
21963,9505
21915,9391
21957,9289
21958,9120
21893,8964
21774,8844
21617,8779
21473,8779
21473,7250
21419,7121
21321,7023
21245,6991
21224,6941
21126,6843
21055,6813
21029,6751
20931,6653
20802,6599
20663,6599
20534,6652
20436,6751
20383,6879
20382,7018
20436,7147
20534,7246
20605,7275
20631,7337
20729,7436
20805,7467
20826,7517
20924,7616
21053,7669
21192,7669
21320,7616
21419,7518
21472,7389
21473,7250
21473,8779
21448,8779
21292,8844
21172,8963
21108,9119
21107,9288
21155,9403
21113,9504
21112,9673
21177,9830
21296,9949
21453,10014
21483,10014
21377,10120
21306,10291
21306,10477
21371,10635
20052,10635
20102,10514
20103,10345
20050,10219
20102,10094
20103,9925
20043,9780
20043,7770
20025,7727
20042,7684
20043,7545
20023,7497
20042,7449
20043,7310
19989,7181
19891,7083
19818,7052
19818,5855
19764,5726
19753,5714
19753,2875
19699,2746
19601,2648
19591,2643
19544,2531
19446,2433
19317,2379
19178,2379
19049,2432
18951,2531
18898,2659
18897,2798
18951,2927
19049,3026
19059,3030
19106,3142
19204,3241
19333,3294
19472,3294
19600,3241
19699,3143
19752,3014
19753,2875
19753,5714
19666,5628
19537,5574
19398,5574
19330,5602
19262,5574
19123,5574
19013,5620
19013,3080
18959,2951
18861,2853
18732,2799
18593,2799
18464,2852
18366,2951
18313,3079
18312,3218
18366,3347
18464,3446
18593,3499
18732,3499
18860,3446
18959,3348
19012,3219
19013,3080
19013,5620
18994,5627
18896,5726
18843,5854
18842,5993
18870,6059
18843,6124
18842,6263
18896,6392
18994,6491
19123,6544
19262,6544
19390,6491
19489,6393
19538,6274
19665,6221
19764,6123
19817,5994
19818,5855
19818,7052
19762,7029
19623,7029
19494,7082
19396,7181
19343,7309
19342,7448
19362,7497
19343,7544
19342,7683
19360,7727
19343,7769
19342,7908
19396,8037
19494,8136
19623,8189
19762,8189
19890,8136
19989,8038
20042,7909
20043,7770
20043,9780
20038,9769
19919,9649
19762,9584
19593,9584
19467,9636
19342,9584
19173,9584
19017,9649
18897,9768
18833,9924
18832,10093
18884,10219
18833,10344
18832,10513
18882,10635
18816,10635
18824,10596
18824,10163
18805,10067
18750,9984
18667,9927
18569,9908
18136,9908
18041,9926
18016,9942
17946,9913
17937,9913
17937,8844
17937,8744
17937,8507
17937,8282
17937,8044
17937,7944
17899,7853
17829,7782
17815,7776
17815,6177
17702,5904
17577,5780
17577,3914
17577,3814
17577,3577
17577,3352
17577,3114
17577,3014
17539,2923
17469,2852
17377,2814
17040,2814
16977,2877
16977,3414
17515,3414
17577,3352
17577,3577
17515,3514
16977,3514
16977,4052
17040,4114
17377,4114
17469,4076
17539,4006
17577,3914
17577,5780
17493,5696
17221,5582
16926,5582
16877,5602
16877,4052
16877,3514
16870,3514
16870,3414
16877,3414
16877,2877
16815,2814
16478,2814
16386,2852
16316,2923
16307,2943
16189,2864
15940,2814
15915,2814
15666,2864
15455,3005
15314,3215
15265,3464
15314,3713
15455,3924
15666,4065
15915,4114
15940,4114
16189,4065
16307,3986
16316,4006
16386,4076
16478,4114
16815,4114
16877,4052
16877,5602
16653,5695
16444,5903
16331,6176
16330,6471
16443,6744
16652,6953
16924,7066
17219,7066
17492,6954
17701,6745
17814,6472
17815,6177
17815,7776
17737,7744
17400,7744
17337,7807
17337,8344
17875,8344
17937,8282
17937,8507
17875,8444
17337,8444
17337,8982
17400,9044
17737,9044
17829,9006
17899,8936
17937,8844
17937,9913
17760,9913
17602,9978
17446,9913
17260,9913
17237,9922
17237,8982
17237,8444
17230,8444
17230,8344
17237,8344
17237,7807
17175,7744
16838,7744
16746,7782
16676,7853
16667,7873
16549,7794
16300,7744
16275,7744
16026,7794
15935,7855
15935,6687
15915,6638
15915,4987
15844,4815
15713,4684
15541,4613
15388,4613
15403,4539
15403,3949
15384,3854
15329,3770
15246,3714
15148,3694
14557,3694
14462,3713
14378,3768
14322,3851
14315,3885
14315,3459
14266,3210
14125,3000
13914,2859
13665,2809
13640,2809
13391,2859
13272,2938
13234,2880
13151,2824
13052,2804
12252,2804
12157,2823
12073,2878
12017,2961
11998,3059
11998,3859
12016,3955
12071,4038
12154,4094
12252,4114
13052,4114
13148,4096
13232,4041
13272,3980
13391,4060
13640,4109
13665,4109
13914,4060
14125,3919
14266,3708
14315,3459
14315,3885
14302,3949
14302,4539
14321,4635
14341,4666
14299,4683
14167,4815
14120,4929
14072,4815
13941,4684
13770,4613
13584,4613
13413,4683
13281,4815
13210,4986
13210,5172
13281,5343
13412,5474
13583,5546
13769,5546
13941,5475
14072,5344
14120,5229
14167,5343
14298,5474
14469,5546
14655,5546
14826,5475
14958,5344
15005,5229
15053,5343
15184,5474
15355,5546
15541,5546
15712,5475
15844,5344
15915,5172
15915,4987
15915,6638
15864,6515
15733,6384
15561,6313
15376,6313
15204,6383
15073,6515
15025,6629
14978,6515
14847,6384
14676,6313
14490,6313
14319,6383
14187,6515
14140,6629
14092,6515
13961,6384
13790,6313
13604,6313
13433,6383
13301,6515
13230,6686
13230,6872
13301,7043
13432,7174
13603,7246
13789,7246
13961,7175
14092,7044
14140,6929
14187,7043
14318,7174
14489,7246
14675,7246
14707,7232
14707,7774
14726,7870
14781,7954
14864,8010
14962,8029
15553,8029
15648,8011
15732,7956
15788,7873
15808,7774
15808,7184
15794,7113
15864,7044
15935,6872
15935,6687
15935,7855
15815,7935
15674,8145
15625,8394
15674,8643
15815,8854
16026,8995
16275,9044
16300,9044
16549,8995
16667,8916
16676,8936
16746,9006
16838,9044
17175,9044
17237,8982
17237,9922
17102,9978
16946,9913
16760,9913
16589,9983
16457,10115
16386,10286
16386,10472
16453,10635
15783,10635
15803,10588
15803,10371
15720,10171
15567,10017
15366,9934
15149,9934
14949,10017
14795,10170
14760,10255
14760,8404
14711,8155
14570,7945
14359,7804
14110,7754
14085,7754
13836,7804
13717,7883
13679,7825
13596,7769
13497,7749
12903,7749
12903,5865
12849,5736
12751,5638
12622,5584
12483,5584
12354,5637
12256,5736
12203,5864
12202,6003
12256,6132
12354,6231
12483,6284
12622,6284
12750,6231
12849,6133
12902,6004
12903,5865
12903,7749
12697,7749
12602,7768
12518,7823
12462,7906
12443,8004
12443,8804
12461,8900
12516,8983
12599,9039
12697,9059
13497,9059
13593,9041
13677,8986
13717,8925
13836,9005
14085,9054
14110,9054
14359,9005
14570,8864
14711,8653
14760,8404
14760,10255
14712,10370
14712,10587
14732,10635
11137,10635
11137,6639
11137,6309
10592,6309
10592,6639
11137,6639
11137,10635
10993,10635
10993,9975
10939,9846
10841,9748
10712,9694
10573,9694
10507,9721
10442,9694
10307,9694
10307,6874
10307,5904
9537,5904
9537,6640
9512,6629
9474,6629
9474,2291
9469,2211
9469,1128
9395,949
9258,812
9080,738
8886,738
8707,812
8570,948
8496,1127
8496,1320
8570,1499
8707,1636
8885,1710
9079,1710
9258,1637
9394,1500
9469,1321
9469,1128
9469,2211
9462,2098
9411,1975
9322,1955
9251,2026
9251,1885
9232,1796
9049,1733
8856,1745
8733,1796
8713,1885
8982,2153
9251,1885
9251,2026
9053,2224
9322,2493
9411,2474
9474,2291
9474,6629
9373,6629
9251,6679
9251,2564
8982,2295
8912,2366
8912,2224
8643,1955
8554,1975
8491,2158
8503,2351
8554,2474
8643,2493
8912,2224
8912,2366
8713,2564
8733,2653
8916,2715
9109,2704
9232,2653
9251,2564
9251,6679
9244,6682
9146,6781
9093,6909
9092,7048
9146,7177
9244,7276
9373,7329
9512,7329
9640,7276
9739,7178
9792,7049
9793,6910
9778,6874
10307,6874
10307,9694
10303,9694
10174,9747
10093,9828
9974,9877
9876,9976
9823,10104
9822,10243
9876,10372
9974,10471
10103,10524
10242,10524
10370,10471
10451,10390
10507,10367
10573,10394
10712,10394
10840,10341
10939,10243
10992,10114
10993,9975
10993,10635
9707,10635
9707,9454
9707,8484
8937,8484
8937,9454
9707,9454
9707,10635
8622,10635
8622,9059
8622,8719
8032,8719
8032,8994
8032,9059
8622,9059
8622,10635
8119,10635
8234,10358
8234,10036
8111,9737
7883,9509
7585,9385
7484,9385
7484,6284
7361,5985
7133,5757
6835,5633
6512,5633
6214,5756
5986,5984
5862,6282
5862,6605
5985,6903
6213,7131
6511,7255
6833,7255
7132,7132
7360,6904
7484,6606
7484,6284
7484,9385
7262,9385
6964,9508
6736,9736
6612,10034
6612,10357
6726,10635
5634,10635
5634,6284
5510,5985
5282,5757
4984,5633
4662,5633
4364,5756
4135,5984
4012,6282
4011,6605
4134,6903
4362,7131
4660,7255
4983,7255
5281,7132
5510,6904
5633,6606
5634,6284
5634,10635
3783,10635
3783,6284
3660,5985
3432,5757
3134,5633
2811,5633
2513,5756
2285,5984
2161,6282
2161,6605
2284,6903
2512,7131
2810,7255
3133,7255
3431,7132
3659,6904
3783,6606
3783,6284
3783,10635
2918,10635
3033,10358
3033,10036
2910,9737
2682,9509
2384,9385
2061,9385
1763,9508
1592,9679
1592,4643
1672,4696
1843,4730
2342,4730
2513,4696
2658,4599
2755,4454
2789,4283
2766,4169
3034,4169
3011,4283
3045,4454
3142,4599
3287,4696
3458,4730
3877,4730
4048,4696
4193,4599
4290,4454
4324,4283
4290,4112
4193,3967
4048,3870
3877,3836
3691,3836
3699,3824
3739,3726
3767,3587
3767,3560
3772,3534
3772,1134
3767,1108
3767,1082
3739,942
3699,845
3691,832
3877,832
4048,798
4193,701
4290,556
4324,385
4304,289
14897,289
14891,318
14891,699
14744,699
14544,782
14390,935
14307,1135
14307,1352
14390,1553
14543,1706
14744,1789
14960,1790
15161,1707
15314,1553
15398,1353
15398,1136
15344,1006
15579,1006
15674,987
15698,971
15769,1001
15955,1001
16113,936
16269,1001
16455,1001
16613,936
16769,1001
16955,1001
17113,936
17269,1001
17455,1001
17613,936
17769,1001
17955,1001
18113,936
18269,1001
18455,1001
18613,936
18769,1001
18955,1001
19113,936
19269,1001
19455,1001
19626,930
19758,799
19829,627
19829,442
19766,289
23112,289
23112,2813
22597,3328
22597,3854
22192,3854
22192,4444
24568,4444
24568,4720
24534,4713
24101,4713
24006,4731
23922,4786
23866,4869
23846,4968
23846,5401
23865,5496
23880,5520
23851,5591
23851,5777
23916,5934
23851,6091
23851,6277
23916,6434
23851,6591
23851,6777
23922,6948
24053,7079
24181,7133
24156,7133
24056,7133
23964,7171
23894,7241
23856,7333
23856,7487
23918,7549
24272,7549
24272,7541
24372,7541
24372,7549
24380,7549
24380,7633
24230,7633
24190,7649
23918,7649
23856,7712
23856,7865
23885,7936
23856,8006
23856,8192
23921,8349
23856,8506
23856,8692
23921,8849
23856,9006
23856,9192
23927,9363
24058,9494
24229,9566
24415,9566
24568,9503
24568,9929
" /> 
</g>
<g style="fill:#FFFFFF; fill-opacity:1.0; 
stroke:#FFFFFF; stroke-width:39.3701; stroke-opacity:1; 
stroke-linecap:round; stroke-linejoin:round;">
<circle cx="8222.95" cy="9424.69" r="105.315" /> 
<circle cx="7777.95" cy="9429.69" r="45.315" /> 
<circle cx="9497.95" cy="9244.69" r="45.315" /> 
<circle cx="9152.95" cy="9244.69" r="45.315" /> 
<circle cx="9147.95" cy="8694.69" r="45.315" /> 
<circle cx="9322.95" cy="8969.69" r="45.315" /> 
<circle cx="9497.95" cy="8694.69" r="45.315" /> 
<circle cx="10092.9" cy="6664.69" r="45.315" /> 
<circle cx="9747.95" cy="6664.69" r="45.315" /> 
<circle cx="9747.95" cy="6114.69" r="45.315" /> 
<circle cx="9922.95" cy="6389.69" r="45.315" /> 
<circle cx="10092.9" cy="6114.69" r="45.315" /> 
<circle cx="20557.9" cy="1974.69" r="45.315" /> 
<circle cx="20372.9" cy="1789.69" r="45.315" /> 
<circle cx="20497.9" cy="7349.69" r="45.315" /> 
<circle cx="19572.9" cy="8519.69" r="45.315" /> 
<circle cx="19782.9" cy="8309.69" r="45.315" /> 
<circle cx="19572.9" cy="8784.69" r="45.315" /> 
<circle cx="21902.9" cy="8764.69" r="45.315" /> 
<circle cx="21632.9" cy="8489.69" r="45.315" /> 
<circle cx="21632.9" cy="8764.69" r="45.315" /> 
<circle cx="21902.9" cy="8489.69" r="45.315" /> 
<circle cx="18682.9" cy="8999.69" r="105.315" /> 
<circle cx="18682.9" cy="9409.69" r="105.315" /> 
</g>
<g style="fill:#FFFFFF; fill-opacity:1.0; 
stroke:#FFFFFF; stroke-width:0.0393701; stroke-opacity:1; 
stroke-linecap:round; stroke-linejoin:round;">
<circle cx="22787.9" cy="2834.69" r="-19.6654" /> 
</g>
<g style="fill:#FFFFFF; fill-opacity:1.0; 
stroke:#FFFFFF; stroke-width:39.3701; stroke-opacity:1; 
stroke-linecap:round; stroke-linejoin:round;">
</g>
<g style="fill:#FFFFFF; fill-opacity:1.0; 
stroke:#FFFFFF; stroke-width:0.0393701; stroke-opacity:1; 
stroke-linecap:round; stroke-linejoin:round;">
<circle cx="22527.9" cy="3094.69" r="-19.6654" /> 
</g>
<g style="fill:#FFFFFF; fill-opacity:1.0; 
stroke:#FFFFFF; stroke-width:39.3701; stroke-opacity:1; 
stroke-linecap:round; stroke-linejoin:round;">
</g>
<g style="fill:#FFFFFF; fill-opacity:1.0; 
stroke:#FFFFFF; stroke-width:0.0393701; stroke-opacity:1; 
stroke-linecap:round; stroke-linejoin:round;">
<circle cx="20162.9" cy="4329.69" r="-19.6654" /> 
</g>
<g style="fill:#FFFFFF; fill-opacity:1.0; 
stroke:#FFFFFF; stroke-width:39.3701; stroke-opacity:1; 
stroke-linecap:round; stroke-linejoin:round;">
</g>
<g style="fill:#FFFFFF; fill-opacity:1.0; 
stroke:#FFFFFF; stroke-width:0.0393701; stroke-opacity:1; 
stroke-linecap:round; stroke-linejoin:round;">
<circle cx="20662.9" cy="3829.69" r="-19.6654" /> 
</g>
<g style="fill:#FFFFFF; fill-opacity:1.0; 
stroke:#FFFFFF; stroke-width:39.3701; stroke-opacity:1; 
stroke-linecap:round; stroke-linejoin:round;">
</g>
<g style="fill:#FFFFFF; fill-opacity:1.0; 
stroke:#FFFFFF; stroke-width:0.0393701; stroke-opacity:1; 
stroke-linecap:round; stroke-linejoin:round;">
<circle cx="21162.9" cy="4329.69" r="-19.6654" /> 
</g>
<g style="fill:#FFFFFF; fill-opacity:1.0; 
stroke:#FFFFFF; stroke-width:39.3701; stroke-opacity:1; 
stroke-linecap:round; stroke-linejoin:round;">
</g>
<g style="fill:#FFFFFF; fill-opacity:1.0; 
stroke:#FFFFFF; stroke-width:0.0393701; stroke-opacity:1; 
stroke-linecap:round; stroke-linejoin:round;">
<circle cx="20662.9" cy="4829.69" r="-19.6654" /> 
</g>
<g style="fill:#FFFFFF; fill-opacity:1.0; 
stroke:#FFFFFF; stroke-width:39.3701; stroke-opacity:1; 
stroke-linecap:round; stroke-linejoin:round;">
<circle cx="21162.9" cy="4829.69" r="105.315" /> 
<circle cx="20162.9" cy="4829.69" r="105.315" /> 
<circle cx="20162.9" cy="3829.69" r="105.315" /> 
<circle cx="20662.9" cy="4329.69" r="105.315" /> 
<circle cx="21162.9" cy="3829.69" r="105.315" /> 
<circle cx="5962.95" cy="2229.69" r="105.315" /> 
<circle cx="4822.95" cy="904.685" r="105.315" /> 
<circle cx="4832.95" cy="494.685" r="105.315" /> 
<circle cx="5247.95" cy="494.685" r="105.315" /> 
<circle cx="5247.95" cy="904.685" r="105.315" /> 
<circle cx="5972.95" cy="1819.69" r="105.315" /> 
<circle cx="6832.95" cy="4269.69" r="105.315" /> 
<circle cx="6367.95" cy="4269.69" r="105.315" /> 
<circle cx="9607.95" cy="4959.69" r="105.315" /> 
<circle cx="9607.95" cy="4584.69" r="105.315" /> 
<circle cx="9982.95" cy="4584.69" r="105.315" /> 
<circle cx="9982.95" cy="4959.69" r="105.315" /> 
<circle cx="9042.95" cy="6309.69" r="45.315" /> 
<circle cx="8887.95" cy="6154.69" r="45.315" /> 
<circle cx="8887.95" cy="6459.65" r="45.315" /> 
<circle cx="8672.95" cy="6459.65" r="45.315" /> 
<circle cx="8672.95" cy="6154.69" r="45.315" /> 
<circle cx="10752.9" cy="6469.69" r="45.315" /> 
<circle cx="10967.9" cy="6469.69" r="45.315" /> 
<circle cx="10192.9" cy="9049.69" r="45.315" /> 
<circle cx="10347.9" cy="8894.73" r="45.315" /> 
<circle cx="10347.9" cy="9204.65" r="45.315" /> 
<circle cx="8452.95" cy="8889.69" r="45.315" /> 
<circle cx="8222.95" cy="8889.69" r="45.315" /> 
<circle cx="10572.9" cy="8897.41" r="45.315" /> 
<circle cx="10572.9" cy="9204.65" r="45.315" /> 
<circle cx="10967.9" cy="6049.69" r="105.315" /> 
<circle cx="9922.95" cy="9794.69" r="45.315" /> 
<circle cx="9922.95" cy="10044.7" r="45.315" /> 
<circle cx="11107.9" cy="10044.7" r="45.315" /> 
<circle cx="11522.9" cy="10459.7" r="45.315" /> 
<circle cx="11522.9" cy="10044.7" r="45.315" /> 
<circle cx="11222.9" cy="4064.69" r="105.315" /> 
<circle cx="10787.9" cy="4064.69" r="105.315" /> 
<circle cx="11222.9" cy="3629.69" r="105.315" /> 
<circle cx="10787.9" cy="3629.69" r="105.315" /> 
<circle cx="8167.95" cy="7994.69" r="105.315" /> 
<circle cx="8587.95" cy="7994.69" r="105.315" /> 
<circle cx="10642.9" cy="7359.69" r="105.315" /> 
<circle cx="11057.9" cy="7359.69" r="105.315" /> 
<circle cx="23327.9" cy="5074.69" r="105.315" /> 
<circle cx="23327.9" cy="4629.69" r="105.315" /> 
<circle cx="22722.9" cy="2289.69" r="105.315" /> 
<circle cx="22987.9" cy="2024.69" r="105.315" /> 
<circle cx="21547.9" cy="904.685" r="105.315" /> 
<circle cx="21547.9" cy="529.685" r="105.315" /> 
<circle cx="18347.9" cy="2504.69" r="45.315" /> 
<circle cx="18347.9" cy="2284.69" r="45.315" /> 
<circle cx="21532.9" cy="9204.69" r="105.315" /> 
<circle cx="21537.9" cy="9589.69" r="105.315" /> 
<circle cx="19192.9" cy="5924.69" r="45.315" /> 
<circle cx="19467.9" cy="5924.69" r="45.315" /> 
<circle cx="19192.9" cy="6194.69" r="45.315" /> 
<circle cx="19257.9" cy="10429.7" r="105.315" /> 
<circle cx="19677.9" cy="10429.7" r="105.315" /> 
<circle cx="19257.9" cy="10009.7" r="105.315" /> 
<circle cx="19677.9" cy="10009.7" r="105.315" /> 
</g>
<g style="fill:#FFFFFF; fill-opacity:1.0; 
stroke:#FFFFFF; stroke-width:0.0393701; stroke-opacity:1; 
stroke-linecap:round; stroke-linejoin:round;">
<circle cx="20732.9" cy="6949.69" r="-19.6654" /> 
</g>
<g style="fill:#FFFFFF; fill-opacity:1.0; 
stroke:#FFFFFF; stroke-width:39.3701; stroke-opacity:1; 
stroke-linecap:round; stroke-linejoin:round;">
</g>
<g style="fill:#FFFFFF; fill-opacity:1.0; 
stroke:#FFFFFF; stroke-width:0.0393701; stroke-opacity:1; 
stroke-linecap:round; stroke-linejoin:round;">
<circle cx="21122.9" cy="7319.69" r="-19.6654" /> 
</g>
<g style="fill:#FFFFFF; fill-opacity:1.0; 
stroke:#FFFFFF; stroke-width:39.3701; stroke-opacity:1; 
stroke-linecap:round; stroke-linejoin:round;">
</g>
<g style="fill:#FFFFFF; fill-opacity:1.0; 
stroke:#FFFFFF; stroke-width:0.0393701; stroke-opacity:1; 
stroke-linecap:round; stroke-linejoin:round;">
<circle cx="20927.9" cy="7139.69" r="-19.6654" /> 
</g>
<g style="fill:#FFFFFF; fill-opacity:1.0; 
stroke:#FFFFFF; stroke-width:39.3701; stroke-opacity:1; 
stroke-linecap:round; stroke-linejoin:round;">
</g>
<g style="fill:#FFFFFF; fill-opacity:1.0; 
stroke:#FFFFFF; stroke-width:0.0393701; stroke-opacity:1; 
stroke-linecap:round; stroke-linejoin:round;">
<circle cx="19692.9" cy="7379.69" r="-19.6654" /> 
</g>
<g style="fill:#FFFFFF; fill-opacity:1.0; 
stroke:#FFFFFF; stroke-width:39.3701; stroke-opacity:1; 
stroke-linecap:round; stroke-linejoin:round;">
</g>
<g style="fill:#FFFFFF; fill-opacity:1.0; 
stroke:#FFFFFF; stroke-width:0.0393701; stroke-opacity:1; 
stroke-linecap:round; stroke-linejoin:round;">
<circle cx="19692.9" cy="7839.69" r="-19.6654" /> 
</g>
<g style="fill:#FFFFFF; fill-opacity:1.0; 
stroke:#FFFFFF; stroke-width:39.3701; stroke-opacity:1; 
stroke-linecap:round; stroke-linejoin:round;">
</g>
<g style="fill:#FFFFFF; fill-opacity:1.0; 
stroke:#FFFFFF; stroke-width:0.0393701; stroke-opacity:1; 
stroke-linecap:round; stroke-linejoin:round;">
<circle cx="19692.9" cy="7614.69" r="-19.6654" /> 
</g>
<g style="fill:#FFFFFF; fill-opacity:1.0; 
stroke:#FFFFFF; stroke-width:39.3701; stroke-opacity:1; 
stroke-linecap:round; stroke-linejoin:round;">
<circle cx="10172.9" cy="10174.7" r="45.315" /> 
<circle cx="10372.9" cy="10044.7" r="45.315" /> 
<circle cx="10642.9" cy="10044.7" r="45.315" /> 
<circle cx="19402.9" cy="2944.69" r="45.315" /> 
<circle cx="19247.9" cy="2729.69" r="45.315" /> 
<circle cx="18662.9" cy="3149.69" r="45.315" /> 
<circle cx="21837.9" cy="3144.69" r="45.315" /> 
<circle cx="12552.9" cy="5934.69" r="45.315" /> 
<circle cx="9442.95" cy="6979.69" r="45.315" /> 
<circle cx="17072.9" cy="6324.69" r="472.315" /> 
<circle cx="16927.9" cy="3464.69" r="180.315" /> 
<circle cx="15927.9" cy="3464.69" r="180.315" /> 
<circle cx="6673.34" cy="6444.69" r="344.488" /> 
<circle cx="4822.95" cy="6444.69" r="344.488" /> 
<circle cx="2972.55" cy="6444.69" r="344.488" /> 
<circle cx="7423.34" cy="10196.7" r="344.488" /> 
<circle cx="2222.55" cy="10196.7" r="344.488" /> 
</g>
<g style="fill:#FFFFFF; fill-opacity:1.0; 
stroke:#FFFFFF; stroke-width:236.22; stroke-opacity:1; 
stroke-linecap:round; stroke-linejoin:round;">
</g>
<g style="fill:#FFFFFF; fill-opacity:0.0; 
stroke:#FFFFFF; stroke-width:236.22; stroke-opacity:1; 
stroke-linecap:round; stroke-linejoin:round;">
<path d="M1856 4283
L2329 4283
" />
<path d="M1856 385
L2329 385
" />
<path d="M3490 4283
L3844 4283
" />
<path d="M3490 385
L3844 385
" />
</g>
<g style="fill:#FFFFFF; fill-opacity:0.0; 
stroke:#FFFFFF; stroke-width:39.3701; stroke-opacity:1; 
stroke-linecap:round; stroke-linejoin:round;">
</g>
<g style="fill:#FFFFFF; fill-opacity:1.0; 
stroke:#FFFFFF; stroke-width:39.3701; stroke-opacity:1; 
stroke-linecap:round; stroke-linejoin:round;">
<circle cx="8982.95" cy="2224.69" r="127.953" /> 
<circle cx="8982.95" cy="1224.69" r="127.953" /> 
<circle cx="14852.9" cy="4244.69" r="157.48" /> 
<circle cx="14852.9" cy="1244.69" r="157.48" /> 
<circle cx="15257.9" cy="7479.69" r="157.48" /> 
<circle cx="15257.9" cy="10479.7" r="157.48" /> 
<circle cx="13677.1" cy="5079.69" r="127.953" /> 
<circle cx="14562.9" cy="5079.69" r="127.953" /> 
<circle cx="15448.8" cy="5079.69" r="127.953" /> 
<circle cx="13697.1" cy="6779.69" r="127.953" /> 
<circle cx="14582.9" cy="6779.69" r="127.953" /> 
<circle cx="15468.8" cy="6779.69" r="127.953" /> 
<circle cx="24322.9" cy="9099.69" r="118.11" /> 
<circle cx="24322.9" cy="8599.69" r="118.11" /> 
<circle cx="24322.9" cy="8099.69" r="118.11" /> 
<circle cx="24322.9" cy="7599.69" r="118.11" /> 
<circle cx="24317.9" cy="6684.69" r="118.11" /> 
<circle cx="24317.9" cy="6184.69" r="118.11" /> 
<circle cx="24317.9" cy="5684.69" r="118.11" /> 
<circle cx="24317.9" cy="5184.69" r="118.11" /> 
<circle cx="21772.9" cy="10384.7" r="118.11" /> 
<circle cx="22272.9" cy="10384.7" r="118.11" /> 
<circle cx="22772.9" cy="10384.7" r="118.11" /> 
<circle cx="23272.9" cy="10384.7" r="118.11" /> 
<circle cx="23772.9" cy="10384.7" r="118.11" /> 
<circle cx="24272.9" cy="10384.7" r="118.11" /> 
<circle cx="16852.9" cy="10379.7" r="118.11" /> 
<circle cx="17352.9" cy="10379.7" r="118.11" /> 
<circle cx="17852.9" cy="10379.7" r="118.11" /> 
<circle cx="18352.9" cy="10379.7" r="118.11" /> 
<circle cx="19362.9" cy="534.685" r="118.11" /> 
<circle cx="18862.9" cy="534.685" r="118.11" /> 
<circle cx="18362.9" cy="534.685" r="118.11" /> 
<circle cx="17862.9" cy="534.685" r="118.11" /> 
<circle cx="17362.9" cy="534.685" r="118.11" /> 
<circle cx="16862.9" cy="534.685" r="118.11" /> 
<circle cx="16362.9" cy="534.685" r="118.11" /> 
<circle cx="15862.9" cy="534.685" r="118.11" /> 
<circle cx="15362.9" cy="534.685" r="118.11" /> 
<circle cx="12652.9" cy="3459.69" r="180.315" /> 
<circle cx="13652.9" cy="3459.69" r="180.315" /> 
<circle cx="17287.9" cy="8394.69" r="180.315" /> 
<circle cx="16287.9" cy="8394.69" r="180.315" /> 
<circle cx="13097.9" cy="8404.69" r="180.315" /> 
<circle cx="14097.9" cy="8404.69" r="180.315" /> 
</g> 
</svg>
