<?xml version="1.0" standalone="no"?>
 <!DOCTYPE svg PUBLIC "-//W3C//DTD SVG 1.1//EN" 
 "http://www.w3.org/Graphics/SVG/1.1/DTD/svg11.dtd"> 
<svg xmlns="http://www.w3.org/2000/svg" version="1.1" 
    width="6.34746cm" height="2.94132cm" viewBox="0 0 24990 11580 ">
<title>SVG Picture created as weather_station-F_SilkS.svg date 2015/04/19 11:02:50 </title>
  <desc>Picture generated by PCBNEW </desc>
<g style="fill:#000000; fill-opacity:1;stroke:#000000; stroke-opacity:1;
stroke-linecap:round; stroke-linejoin:round; "
 transform="translate(0 0) scale(1 1)">
</g>
<g style="fill:#C2C200; fill-opacity:0.0; 
stroke:#C2C200; stroke-width:39.3701; stroke-opacity:1; 
stroke-linecap:round; stroke-linejoin:round;">
<path d="M1322 3899
L1322 10904
" />
<path d="M1322 769
L1327 769
" />
<path d="M1332 769
L1322 769
" />
<path d="M1322 769
L1332 769
" />
<path d="M1322 19
L1322 769
" />
<path d="M3137 3899
L1322 3899
" />
<path d="M3132 769
L1322 769
" />
<path d="M3502 3534
L3502 1134
" />
<path d="M3137.95 3899.69 A365 365 0.0 0 0 3502.95 3534.69 " />
<path d="M3502.95 1134.69 A365 365 0.0 0 0 3137.95 769.685 " />
<path d="M1842 10904
L1827 10904
" />
<path d="M1322 10904
L1842 10904
" />
<path d="M1322 10889
L1322 10904
" />
<path d="M1912 10904
L1922 10904
" />
<path d="M1827 10904
L1912 10904
" />
<path d="M24837 10904
L1827 10904
" />
<path d="M24837 10724
L24837 10904
" />
<path d="M24572 10904
L24592 10904
" />
<path d="M24837 1439
L24837 10729
" />
<path d="M24837 1454
L24837 1374
" />
<path d="M24837 1404
L24837 1454
" />
<path d="M24837 19
L24477 19
" />
<path d="M24837 29
L24837 19
" />
<path d="M24837 1354
L24837 29
" />
<path d="M24837 1359
L24837 1394
" />
<path d="M24837 1394
L24837 1359
" />
<path d="M2222 19
L24487 19
" />
<path d="M1322 19
L2217 19
" />
</g>
<g style="fill:#008484; fill-opacity:0.0; 
stroke:#008484; stroke-width:59.0551; stroke-opacity:1; 
stroke-linecap:round; stroke-linejoin:round;">
<path d="M15936 4404
L15992 4422
L16086 4422
L16123 4404
L16142 4385
L16161 4347
L16161 4310
L16142 4272
L16123 4254
L16086 4235
L16011 4216
L15973 4197
L15954 4179
L15936 4141
L15936 4104
L15954 4066
L15973 4047
L16011 4029
L16104 4029
L16161 4047
" />
<path d="M16329 4422
L16329 4029
L16479 4029
L16517 4047
L16536 4066
L16554 4104
L16554 4160
L16536 4197
L16517 4216
L16479 4235
L16329 4235
" />
<path d="M16929 4422
L16704 4422
" />
<path d="M16817 4422
L16817 4029
L16779 4085
L16742 4122
L16704 4141
" />
<path d="M20427 2587
L20427 2827
L20442 2855
L20456 2869
L20484 2883
L20540 2883
L20568 2869
L20582 2855
L20596 2827
L20596 2587
" />
<path d="M20891 2883
L20723 2883
" />
<path d="M20807 2883
L20807 2587
L20779 2630
L20751 2658
L20723 2672
" />
</g>
<g style="fill:#008484; fill-opacity:0.0; 
stroke:#008484; stroke-width:49.2126; stroke-opacity:1; 
stroke-linecap:round; stroke-linejoin:round;">
<path d="M19949 7001
L20109 7001
L20127 6992
L20137 6982
L20146 6964
L20146 6926
L20137 6907
L20127 6898
L20109 6889
L19949 6889
" />
<path d="M19968 6804
L19959 6795
L19949 6776
L19949 6729
L19959 6710
L19968 6701
L19987 6692
L20006 6692
L20034 6701
L20146 6814
L20146 6692
" />
<path d="M20398 1433
L20398 1447
L20384 1473
L20371 1486
L20345 1500
L20318 1500
L20298 1493
L20265 1473
L20245 1453
L20225 1420
L20219 1400
L20219 1374
L20232 1347
L20245 1334
L20272 1321
L20285 1321
" />
<path d="M20338 1268
L20338 1254
L20345 1235
L20378 1201
L20398 1195
L20411 1195
L20431 1201
L20444 1215
L20457 1241
L20457 1400
L20543 1314
" />
<path d="M20471 1135
L20471 1122
L20477 1102
L20510 1069
L20530 1062
L20543 1062
L20563 1069
L20577 1082
L20590 1109
L20590 1268
L20676 1182
" />
<path d="M22020 2577
L21941 2657
" />
<path d="M21980 2617
L21841 2478
L21848 2511
L21848 2538
L21841 2558
" />
<path d="M22000 2319
L21974 2345
L21967 2365
L21967 2379
L21974 2412
L21994 2445
L22047 2498
L22067 2505
L22080 2505
L22100 2498
L22126 2471
L22133 2452
L22133 2438
L22126 2418
L22093 2385
L22073 2379
L22060 2379
L22040 2385
L22013 2412
L22007 2432
L22007 2445
L22013 2465
" />
<path d="M22212 2385
L22073 2246
L22219 2299
L22166 2153
L22305 2292
" />
<path d="M22371 2226
L22232 2087
" />
<path d="M22298 2153
L22378 2074
" />
<path d="M22451 2147
L22312 2007
" />
<path d="M22411 2001
L22484 1928
L22504 2094
L22577 2021
" />
<path d="M18803 5521
L18812 5530
L18821 5558
L18821 5577
L18812 5605
L18793 5624
L18775 5633
L18737 5643
L18709 5643
L18672 5633
L18653 5624
L18634 5605
L18625 5577
L18625 5558
L18634 5530
L18643 5521
" />
<path d="M18821 5333
L18821 5446
" />
<path d="M18821 5389
L18625 5389
L18653 5408
L18672 5427
L18681 5446
" />
<path d="M18625 5268
L18625 5146
L18700 5211
L18700 5183
L18709 5165
L18718 5155
L18737 5146
L18784 5146
L18803 5155
L18812 5165
L18821 5183
L18821 5240
L18812 5258
L18803 5268
" />
<path d="M4560 9924
L4588 9933
L4635 9933
L4654 9924
L4663 9914
L4672 9896
L4672 9877
L4663 9858
L4654 9849
L4635 9839
L4597 9830
L4579 9821
L4569 9811
L4560 9793
L4560 9774
L4569 9755
L4579 9746
L4597 9736
L4644 9736
L4672 9746
" />
<path d="M4738 9736
L4785 9933
L4822 9793
L4860 9933
L4907 9736
" />
<path d="M5085 9933
L4972 9933
" />
<path d="M5029 9933
L5029 9736
L5010 9765
L4991 9783
L4972 9793
" />
</g>
<g style="fill:#008484; fill-opacity:0.0; 
stroke:#008484; stroke-width:59.0551; stroke-opacity:1; 
stroke-linecap:round; stroke-linejoin:round;">
<path d="M2726 8721
L3091 8721
L2894 8946
L2979 8946
L3035 8974
L3063 9002
L3091 9058
L3091 9199
L3063 9255
L3035 9283
L2979 9311
L2810 9311
L2754 9283
L2726 9255
" />
<path d="M4654 8777
L4682 8749
L4738 8721
L4879 8721
L4935 8749
L4963 8777
L4991 8833
L4991 8890
L4963 8974
L4626 9311
L4991 9311
" />
<path d="M6891 9311
L6554 9311
" />
<path d="M6722 9311
L6722 8721
L6666 8805
L6610 8861
L6554 8890
" />
</g>
<g style="fill:#008484; fill-opacity:0.0; 
stroke:#008484; stroke-width:49.2126; stroke-opacity:1; 
stroke-linecap:round; stroke-linejoin:round;">
<path d="M22533 3775
L22561 3784
L22570 3794
L22580 3813
L22580 3841
L22570 3859
L22561 3869
L22542 3878
L22467 3878
L22467 3681
L22533 3681
L22552 3691
L22561 3700
L22570 3719
L22570 3738
L22561 3756
L22552 3766
L22533 3775
L22467 3775
" />
<path d="M22767 3878
L22655 3878
" />
<path d="M22711 3878
L22711 3681
L22692 3710
L22673 3728
L22655 3738
" />
</g>
<g style="fill:#008484; fill-opacity:0.0; 
stroke:#008484; stroke-width:59.0551; stroke-opacity:1; 
stroke-linecap:round; stroke-linejoin:round;">
<path d="M9679 2034
L9698 1977
L9717 1959
L9754 1940
L9811 1940
L9848 1959
L9867 1977
L9886 2015
L9886 2165
L9492 2165
L9492 2034
L9511 1996
L9529 1977
L9567 1959
L9604 1959
L9642 1977
L9661 1996
L9679 2034
L9679 2165
" />
<path d="M9492 1827
L9492 1602
" />
<path d="M9886 1715
L9492 1715
" />
<path d="M9886 1265
L9886 1490
" />
<path d="M9886 1377
L9492 1377
L9548 1415
L9586 1452
L9604 1490
" />
<path d="M8441 2877
L8441 3018
L8146 3018
" />
<path d="M8441 2779
L8244 2779
" />
<path d="M8146 2779
L8160 2793
L8174 2779
L8160 2765
L8146 2779
L8174 2779
" />
<path d="M8441 2638
L8146 2638
L8146 2526
L8160 2498
L8174 2483
L8202 2469
L8244 2469
L8272 2483
L8286 2498
L8300 2526
L8300 2638
" />
<path d="M8441 2301
L8427 2329
L8413 2343
L8385 2357
L8300 2357
L8272 2343
L8258 2329
L8244 2301
L8244 2258
L8258 2230
L8272 2216
L8300 2202
L8385 2202
L8413 2216
L8427 2230
L8441 2258
L8441 2301
" />
<path d="M8286 1752
L8300 1710
L8314 1696
L8343 1682
L8385 1682
L8413 1696
L8427 1710
L8441 1738
L8441 1851
L8146 1851
L8146 1752
L8160 1724
L8174 1710
L8202 1696
L8230 1696
L8258 1710
L8272 1724
L8286 1752
L8286 1851
" />
<path d="M8441 1429
L8286 1429
L8258 1443
L8244 1471
L8244 1527
L8258 1555
" />
<path d="M8427 1429
L8441 1457
L8441 1527
L8427 1555
L8399 1570
L8371 1570
L8343 1555
L8329 1527
L8329 1457
L8314 1429
" />
<path d="M8244 1330
L8244 1218
" />
<path d="M8146 1288
L8399 1288
L8427 1274
L8441 1246
L8441 1218
" />
<path d="M8244 1162
L8244 1049
" />
<path d="M8146 1120
L8399 1120
L8427 1106
L8441 1077
L8441 1049
" />
<path d="M8427 838
L8441 866
L8441 923
L8427 951
L8399 965
L8286 965
L8258 951
L8244 923
L8244 866
L8258 838
L8286 824
L8314 824
L8343 965
" />
<path d="M8441 698
L8244 698
" />
<path d="M8300 698
L8272 684
L8258 670
L8244 642
L8244 613
" />
<path d="M8244 543
L8441 473
" />
<path d="M8244 402
L8441 473
L8511 501
L8525 515
L8539 543
" />
</g>
<g style="fill:#008484; fill-opacity:0.0; 
stroke:#008484; stroke-width:49.2126; stroke-opacity:1; 
stroke-linecap:round; stroke-linejoin:round;">
<path d="M19225 9374
L19215 9384
L19187 9393
L19168 9393
L19140 9384
L19122 9365
L19112 9346
L19103 9309
L19103 9281
L19112 9243
L19122 9225
L19140 9206
L19168 9196
L19187 9196
L19215 9206
L19225 9215
" />
<path d="M19412 9393
L19300 9393
" />
<path d="M19356 9393
L19356 9196
L19337 9225
L19318 9243
L19300 9253
" />
<path d="M21480 7909
L21470 7919
L21442 7928
L21423 7928
L21395 7919
L21377 7900
L21367 7881
L21358 7844
L21358 7816
L21367 7778
L21377 7760
L21395 7741
L21423 7731
L21442 7731
L21470 7741
L21480 7750
" />
<path d="M21555 7750
L21564 7741
L21583 7731
L21630 7731
L21648 7741
L21658 7750
L21667 7769
L21667 7788
L21658 7816
L21545 7928
L21667 7928
" />
<path d="M9983 7392
L9992 7401
L10001 7429
L10001 7448
L9992 7476
L9973 7495
L9955 7504
L9917 7514
L9889 7514
L9852 7504
L9833 7495
L9814 7476
L9805 7448
L9805 7429
L9814 7401
L9823 7392
" />
<path d="M9805 7326
L9805 7205
L9880 7270
L9880 7242
L9889 7223
L9898 7214
L9917 7205
L9964 7205
L9983 7214
L9992 7223
L10001 7242
L10001 7298
L9992 7317
L9983 7326
" />
<path d="M19118 7202
L19127 7211
L19136 7239
L19136 7258
L19127 7286
L19108 7305
L19090 7314
L19052 7324
L19024 7324
L18987 7314
L18968 7305
L18949 7286
L18940 7258
L18940 7239
L18949 7211
L18958 7202
" />
<path d="M19005 7033
L19136 7033
" />
<path d="M18930 7080
L19071 7127
L19071 7005
" />
<path d="M19118 8082
L19127 8091
L19136 8119
L19136 8138
L19127 8166
L19108 8185
L19090 8194
L19052 8204
L19024 8204
L18987 8194
L18968 8185
L18949 8166
L18940 8138
L18940 8119
L18949 8091
L18958 8082
" />
<path d="M18940 7904
L18940 7998
L19033 8007
L19024 7998
L19015 7979
L19015 7932
L19024 7913
L19033 7904
L19052 7895
L19099 7895
L19118 7904
L19127 7913
L19136 7932
L19136 7979
L19127 7998
L19118 8007
" />
<path d="M9383 8027
L9392 8036
L9401 8064
L9401 8083
L9392 8111
L9373 8130
L9355 8139
L9317 8149
L9289 8149
L9252 8139
L9233 8130
L9214 8111
L9205 8083
L9205 8064
L9214 8036
L9223 8027
" />
<path d="M9205 7961
L9205 7830
L9401 7915
" />
<path d="M9978 5452
L9987 5461
L9996 5489
L9996 5508
L9987 5536
L9968 5555
L9950 5564
L9912 5574
L9884 5574
L9847 5564
L9828 5555
L9809 5536
L9800 5508
L9800 5489
L9809 5461
L9818 5452
" />
<path d="M9884 5340
L9875 5358
L9865 5368
L9847 5377
L9837 5377
L9818 5368
L9809 5358
L9800 5340
L9800 5302
L9809 5283
L9818 5274
L9837 5265
L9847 5265
L9865 5274
L9875 5283
L9884 5302
L9884 5340
L9893 5358
L9903 5368
L9922 5377
L9959 5377
L9978 5368
L9987 5358
L9996 5340
L9996 5302
L9987 5283
L9978 5274
L9959 5265
L9922 5265
L9903 5274
L9893 5283
L9884 5302
" />
<path d="M9393 10061
L9402 10070
L9411 10098
L9411 10117
L9402 10145
L9383 10164
L9365 10173
L9327 10183
L9299 10183
L9262 10173
L9243 10164
L9224 10145
L9215 10117
L9215 10098
L9224 10070
L9233 10061
" />
<path d="M9411 9873
L9411 9986
" />
<path d="M9411 9929
L9215 9929
L9243 9948
L9262 9967
L9271 9986
" />
<path d="M9411 9686
L9411 9798
" />
<path d="M9411 9742
L9215 9742
L9243 9761
L9262 9780
L9271 9798
" />
<path d="M18936 2844
L18927 2854
L18898 2863
L18880 2863
L18852 2854
L18833 2835
L18823 2816
L18814 2779
L18814 2751
L18823 2713
L18833 2695
L18852 2676
L18880 2666
L18898 2666
L18927 2676
L18936 2685
" />
<path d="M19123 2863
L19011 2863
" />
<path d="M19067 2863
L19067 2666
L19048 2695
L19030 2713
L19011 2723
" />
<path d="M19198 2685
L19208 2676
L19226 2666
L19273 2666
L19292 2676
L19301 2685
L19311 2704
L19311 2723
L19301 2751
L19189 2863
L19311 2863
" />
<path d="M11641 3834
L11632 3844
L11603 3853
L11585 3853
L11557 3844
L11538 3825
L11528 3806
L11519 3769
L11519 3741
L11528 3703
L11538 3685
L11557 3666
L11585 3656
L11603 3656
L11632 3666
L11641 3675
" />
<path d="M11828 3853
L11716 3853
" />
<path d="M11772 3853
L11772 3656
L11753 3685
L11735 3703
L11716 3713
" />
<path d="M11997 3722
L11997 3853
" />
<path d="M11950 3647
L11903 3788
L12025 3788
" />
<path d="M22763 2378
L22763 2392
L22749 2418
L22736 2431
L22710 2445
L22683 2445
L22663 2438
L22630 2418
L22610 2398
L22590 2365
L22584 2345
L22584 2319
L22597 2292
L22610 2279
L22637 2266
L22650 2266
" />
<path d="M22908 2259
L22829 2339
" />
<path d="M22869 2299
L22730 2160
L22736 2193
L22736 2219
L22730 2239
" />
<path d="M22895 1994
L22829 2060
L22889 2133
L22889 2120
L22895 2100
L22928 2067
L22948 2060
L22962 2060
L22981 2067
L23015 2100
L23021 2120
L23021 2133
L23015 2153
L22981 2186
L22962 2193
L22948 2193
" />
<path d="M23341 4699
L23332 4709
L23303 4718
L23285 4718
L23257 4709
L23238 4690
L23228 4671
L23219 4634
L23219 4606
L23228 4568
L23238 4550
L23257 4531
L23285 4521
L23303 4521
L23332 4531
L23341 4540
" />
<path d="M23528 4718
L23416 4718
" />
<path d="M23472 4718
L23472 4521
L23453 4550
L23435 4568
L23416 4578
" />
<path d="M23697 4521
L23660 4521
L23641 4531
L23631 4540
L23613 4568
L23603 4606
L23603 4681
L23613 4699
L23622 4709
L23641 4718
L23678 4718
L23697 4709
L23706 4699
L23716 4681
L23716 4634
L23706 4615
L23697 4606
L23678 4596
L23641 4596
L23622 4606
L23613 4615
L23603 4634
" />
<path d="M20308 1824
L20295 1824
L20268 1811
L20255 1798
L20242 1771
L20242 1745
L20249 1725
L20268 1692
L20288 1672
L20322 1652
L20341 1645
L20368 1645
L20394 1659
L20408 1672
L20421 1698
L20421 1712
" />
<path d="M20428 1970
L20348 1891
" />
<path d="M20388 1930
L20527 1791
L20494 1798
L20467 1798
L20447 1791
" />
<path d="M20613 1877
L20706 1970
L20507 2050
" />
<path d="M23336 5149
L23327 5159
L23298 5168
L23280 5168
L23252 5159
L23233 5140
L23223 5121
L23214 5084
L23214 5056
L23223 5018
L23233 5000
L23252 4981
L23280 4971
L23298 4971
L23327 4981
L23336 4990
" />
<path d="M23523 5168
L23411 5168
" />
<path d="M23467 5168
L23467 4971
L23448 5000
L23430 5018
L23411 5028
" />
<path d="M23636 5056
L23617 5046
L23608 5037
L23598 5018
L23598 5009
L23608 4990
L23617 4981
L23636 4971
L23673 4971
L23692 4981
L23701 4990
L23711 5009
L23711 5018
L23701 5037
L23692 5046
L23673 5056
L23636 5056
L23617 5065
L23608 5074
L23598 5093
L23598 5131
L23608 5149
L23617 5159
L23636 5168
L23673 5168
L23692 5159
L23701 5149
L23711 5131
L23711 5093
L23701 5074
L23692 5065
L23673 5056
" />
<path d="M10878 10586
L10887 10595
L10896 10623
L10896 10642
L10887 10670
L10868 10689
L10850 10698
L10812 10708
L10784 10708
L10747 10698
L10728 10689
L10709 10670
L10700 10642
L10700 10623
L10709 10595
L10718 10586
" />
<path d="M10896 10398
L10896 10511
" />
<path d="M10896 10454
L10700 10454
L10728 10473
L10747 10492
L10756 10511
" />
<path d="M10896 10305
L10896 10267
L10887 10248
L10878 10239
L10850 10220
L10812 10211
L10737 10211
L10718 10220
L10709 10230
L10700 10248
L10700 10286
L10709 10305
L10718 10314
L10737 10323
L10784 10323
L10803 10314
L10812 10305
L10822 10286
L10822 10248
L10812 10230
L10803 10220
L10784 10211
" />
<path d="M12066 8184
L12057 8194
L12028 8203
L12010 8203
L11982 8194
L11963 8175
L11953 8156
L11944 8119
L11944 8091
L11953 8053
L11963 8035
L11982 8016
L12010 8006
L12028 8006
L12057 8016
L12066 8025
" />
<path d="M12141 8025
L12150 8016
L12169 8006
L12216 8006
L12235 8016
L12244 8025
L12253 8044
L12253 8063
L12244 8091
L12132 8203
L12253 8203
" />
<path d="M12375 8006
L12394 8006
L12413 8016
L12422 8025
L12431 8044
L12441 8081
L12441 8128
L12431 8166
L12422 8184
L12413 8194
L12394 8203
L12375 8203
L12356 8194
L12347 8184
L12338 8166
L12328 8128
L12328 8081
L12338 8044
L12347 8025
L12356 8016
L12375 8006
" />
<path d="M22313 1154
L22300 1154
L22273 1141
L22260 1128
L22247 1101
L22247 1075
L22254 1055
L22273 1022
L22293 1002
L22327 982
L22346 975
L22373 975
L22399 989
L22413 1002
L22426 1028
L22426 1042
" />
<path d="M22479 1095
L22492 1095
L22512 1101
L22545 1135
L22552 1154
L22552 1168
L22545 1188
L22532 1201
L22505 1214
L22346 1214
L22433 1300
" />
<path d="M22565 1433
L22486 1353
" />
<path d="M22525 1393
L22665 1254
L22631 1260
L22605 1260
L22585 1254
" />
<path d="M23116 3549
L23107 3559
L23078 3568
L23060 3568
L23032 3559
L23013 3540
L23003 3521
L22994 3484
L22994 3456
L23003 3418
L23013 3400
L23032 3381
L23060 3371
L23078 3371
L23107 3381
L23116 3390
" />
<path d="M23191 3390
L23200 3381
L23219 3371
L23266 3371
L23285 3381
L23294 3390
L23303 3409
L23303 3428
L23294 3456
L23182 3568
L23303 3568
" />
<path d="M23369 3371
L23491 3371
L23425 3446
L23453 3446
L23472 3456
L23481 3465
L23491 3484
L23491 3531
L23481 3549
L23472 3559
L23453 3568
L23397 3568
L23378 3559
L23369 3549
" />
<path d="M18216 2594
L18207 2604
L18178 2613
L18160 2613
L18132 2604
L18113 2585
L18103 2566
L18094 2529
L18094 2501
L18103 2463
L18113 2445
L18132 2426
L18160 2416
L18178 2416
L18207 2426
L18216 2435
" />
<path d="M18291 2435
L18300 2426
L18319 2416
L18366 2416
L18385 2426
L18394 2435
L18403 2454
L18403 2473
L18394 2501
L18282 2613
L18403 2613
" />
<path d="M18572 2482
L18572 2613
" />
<path d="M18525 2407
L18478 2548
L18600 2548
" />
<path d="M8220 6393
L8126 6393
L8126 6196
" />
<path d="M8388 6393
L8276 6393
" />
<path d="M8332 6393
L8332 6196
L8313 6225
L8295 6243
L8276 6253
" />
<path d="M10850 9138
L10756 9138
L10756 8941
" />
<path d="M10906 8960
L10915 8951
L10934 8941
L10981 8941
L11000 8951
L11009 8960
L11018 8979
L11018 8998
L11009 9026
L10897 9138
L11018 9138
" />
<path d="M11050 5008
L10956 5008
L10956 4811
" />
<path d="M11097 4811
L11218 4811
L11153 4886
L11181 4886
L11200 4896
L11209 4905
L11218 4924
L11218 4971
L11209 4989
L11200 4999
L11181 5008
L11125 5008
L11106 4999
L11097 4989
" />
<path d="M10020 10243
L9926 10243
L9926 10046
" />
<path d="M10170 10112
L10170 10243
" />
<path d="M10123 10037
L10076 10178
L10198 10178
" />
</g>
<g style="fill:#008484; fill-opacity:0.0; 
stroke:#008484; stroke-width:59.0551; stroke-opacity:1; 
stroke-linecap:round; stroke-linejoin:round;">
<path d="M13145 2020
L13145 2207
L12751 2207
" />
<path d="M12751 1701
L12751 1889
L12938 1907
L12920 1889
L12901 1851
L12901 1757
L12920 1720
L12938 1701
L12976 1682
L13070 1682
L13107 1701
L13126 1720
L13145 1757
L13145 1851
L13126 1889
L13107 1907
" />
<path d="M12157 2845
L12157 2601
L12307 2732
L12307 2676
L12326 2638
L12344 2620
L12382 2601
L12476 2601
L12513 2620
L12532 2638
L12551 2676
L12551 2788
L12532 2826
L12513 2845
" />
<path d="M12157 2470
L12157 2226
L12307 2357
L12307 2301
L12326 2264
L12344 2245
L12382 2226
L12476 2226
L12513 2245
L12532 2264
L12551 2301
L12551 2414
L12532 2451
L12513 2470
" />
<path d="M12157 1982
L12157 1945
L12176 1907
L12194 1889
L12232 1870
L12307 1851
L12401 1851
L12476 1870
L12513 1889
L12532 1907
L12551 1945
L12551 1982
L12532 2020
L12513 2039
L12476 2057
L12401 2076
L12307 2076
L12232 2057
L12194 2039
L12176 2020
L12157 1982
" />
<path d="M12288 1514
L12551 1514
" />
<path d="M12288 1682
L12494 1682
L12532 1664
L12551 1626
L12551 1570
L12532 1532
L12513 1514
" />
<path d="M12551 1326
L12157 1326
" />
<path d="M12344 1326
L12344 1101
" />
<path d="M12551 1101
L12157 1101
" />
<path d="M13560 9975
L13560 10162
L13166 10162
" />
<path d="M13166 9675
L13166 9750
L13185 9787
L13203 9806
L13260 9844
L13335 9862
L13485 9862
L13522 9844
L13541 9825
L13560 9787
L13560 9712
L13541 9675
L13522 9656
L13485 9637
L13391 9637
L13353 9656
L13335 9675
L13316 9712
L13316 9787
L13335 9825
L13353 9844
L13391 9862
" />
<path d="M12572 10800
L12572 10556
L12722 10687
L12722 10631
L12741 10593
L12759 10575
L12797 10556
L12891 10556
L12928 10575
L12947 10593
L12966 10631
L12966 10743
L12947 10781
L12928 10800
" />
<path d="M12572 10425
L12572 10181
L12722 10312
L12722 10256
L12741 10219
L12759 10200
L12797 10181
L12891 10181
L12928 10200
L12947 10219
L12966 10256
L12966 10369
L12947 10406
L12928 10425
" />
<path d="M12572 9937
L12572 9900
L12591 9862
L12609 9844
L12647 9825
L12722 9806
L12816 9806
L12891 9825
L12928 9844
L12947 9862
L12966 9900
L12966 9937
L12947 9975
L12928 9994
L12891 10012
L12816 10031
L12722 10031
L12647 10012
L12609 9994
L12591 9975
L12572 9937
" />
<path d="M12703 9469
L12966 9469
" />
<path d="M12703 9637
L12909 9637
L12947 9619
L12966 9581
L12966 9525
L12947 9487
L12928 9469
" />
<path d="M12966 9281
L12572 9281
" />
<path d="M12759 9281
L12759 9056
" />
<path d="M12966 9056
L12572 9056
" />
</g>
<g style="fill:#008484; fill-opacity:0.0; 
stroke:#008484; stroke-width:49.2126; stroke-opacity:1; 
stroke-linecap:round; stroke-linejoin:round;">
<path d="M18465 3963
L18371 3963
L18371 3766
" />
<path d="M18512 3766
L18643 3766
L18558 3963
" />
<path d="M17920 3008
L17826 3008
L17826 2811
" />
<path d="M18013 2896
L17995 2886
L17985 2877
L17976 2858
L17976 2849
L17985 2830
L17995 2821
L18013 2811
L18051 2811
L18070 2821
L18079 2830
L18088 2849
L18088 2858
L18079 2877
L18070 2886
L18051 2896
L18013 2896
L17995 2905
L17985 2914
L17976 2933
L17976 2971
L17985 2989
L17995 2999
L18013 3008
L18051 3008
L18070 2999
L18079 2989
L18088 2971
L18088 2933
L18079 2914
L18070 2905
L18051 2896
" />
</g>
<g style="fill:#008484; fill-opacity:0.0; 
stroke:#008484; stroke-width:59.0551; stroke-opacity:1; 
stroke-linecap:round; stroke-linejoin:round;">
<path d="M13831 5676
L13888 5695
L13906 5714
L13925 5751
L13925 5807
L13906 5845
L13888 5864
L13850 5882
L13700 5882
L13700 5489
L13831 5489
L13869 5507
L13888 5526
L13906 5564
L13906 5601
L13888 5639
L13869 5657
L13831 5676
L13700 5676
" />
<path d="M14094 5882
L14094 5489
L14187 5489
L14244 5507
L14281 5545
L14300 5582
L14319 5657
L14319 5714
L14300 5789
L14281 5826
L14244 5864
L14187 5882
L14094 5882
" />
<path d="M14694 5882
L14469 5882
" />
<path d="M14581 5882
L14581 5489
L14544 5545
L14506 5582
L14469 5601
" />
<path d="M14825 5489
L15069 5489
L14937 5639
L14994 5639
L15031 5657
L15050 5676
L15069 5714
L15069 5807
L15050 5845
L15031 5864
L14994 5882
L14881 5882
L14844 5864
L14825 5845
" />
<path d="M15425 5489
L15237 5489
L15219 5676
L15237 5657
L15275 5639
L15369 5639
L15406 5657
L15425 5676
L15444 5714
L15444 5807
L15425 5845
L15406 5864
L15369 5882
L15275 5882
L15237 5864
L15219 5845
" />
<path d="M13851 6181
L13908 6200
L13926 6219
L13945 6256
L13945 6312
L13926 6350
L13908 6369
L13870 6387
L13720 6387
L13720 5994
L13851 5994
L13889 6012
L13908 6031
L13926 6069
L13926 6106
L13908 6144
L13889 6162
L13851 6181
L13720 6181
" />
<path d="M14114 6387
L14114 5994
L14207 5994
L14264 6012
L14301 6050
L14320 6087
L14339 6162
L14339 6219
L14320 6294
L14301 6331
L14264 6369
L14207 6387
L14114 6387
" />
<path d="M14714 6387
L14489 6387
" />
<path d="M14601 6387
L14601 5994
L14564 6050
L14526 6087
L14489 6106
" />
<path d="M14845 5994
L15089 5994
L14957 6144
L15014 6144
L15051 6162
L15070 6181
L15089 6219
L15089 6312
L15070 6350
L15051 6369
L15014 6387
L14901 6387
L14864 6369
L14845 6350
" />
<path d="M15445 5994
L15257 5994
L15239 6181
L15257 6162
L15295 6144
L15389 6144
L15426 6162
L15445 6181
L15464 6219
L15464 6312
L15445 6350
L15426 6369
L15389 6387
L15295 6387
L15257 6369
L15239 6350
" />
</g>
<g style="fill:#008484; fill-opacity:0.0; 
stroke:#008484; stroke-width:49.2126; stroke-opacity:1; 
stroke-linecap:round; stroke-linejoin:round;">
<path d="M10625 5008
L10559 4914
" />
<path d="M10512 5008
L10512 4811
L10587 4811
L10606 4821
L10615 4830
L10625 4849
L10625 4877
L10615 4896
L10606 4905
L10587 4914
L10512 4914
" />
<path d="M10793 4877
L10793 5008
" />
<path d="M10746 4802
L10700 4943
L10821 4943
" />
<path d="M8645 10548
L8579 10454
" />
<path d="M8532 10548
L8532 10351
L8607 10351
L8626 10361
L8635 10370
L8645 10389
L8645 10417
L8635 10436
L8626 10445
L8607 10454
L8532 10454
" />
<path d="M8813 10351
L8776 10351
L8757 10361
L8748 10370
L8729 10398
L8720 10436
L8720 10511
L8729 10529
L8738 10539
L8757 10548
L8795 10548
L8813 10539
L8823 10529
L8832 10511
L8832 10464
L8823 10445
L8813 10436
L8795 10426
L8757 10426
L8738 10436
L8729 10445
L8720 10464
" />
<path d="M12950 5468
L12884 5374
" />
<path d="M12837 5468
L12837 5271
L12912 5271
L12931 5281
L12940 5290
L12950 5309
L12950 5337
L12940 5356
L12931 5365
L12912 5374
L12837 5374
" />
<path d="M13015 5271
L13146 5271
L13062 5468
" />
<path d="M13041 4417
L12948 4483
" />
<path d="M13041 4529
L12845 4529
L12845 4454
L12854 4436
L12863 4426
L12882 4417
L12910 4417
L12929 4426
L12938 4436
L12948 4454
L12948 4529
" />
<path d="M12929 4305
L12920 4323
L12910 4333
L12892 4342
L12882 4342
L12863 4333
L12854 4323
L12845 4305
L12845 4267
L12854 4248
L12863 4239
L12882 4230
L12892 4230
L12910 4239
L12920 4248
L12929 4267
L12929 4305
L12938 4323
L12948 4333
L12967 4342
L13004 4342
L13023 4333
L13032 4323
L13041 4305
L13041 4267
L13032 4248
L13023 4239
L13004 4230
L12967 4230
L12948 4239
L12938 4248
L12929 4267
" />
<path d="M16316 2647
L16223 2713
" />
<path d="M16316 2759
L16120 2759
L16120 2684
L16129 2666
L16138 2656
L16157 2647
L16185 2647
L16204 2656
L16213 2666
L16223 2684
L16223 2759
" />
<path d="M16316 2553
L16316 2516
L16307 2497
L16298 2488
L16270 2469
L16232 2460
L16157 2460
L16138 2469
L16129 2478
L16120 2497
L16120 2535
L16129 2553
L16138 2563
L16157 2572
L16204 2572
L16223 2563
L16232 2553
L16242 2535
L16242 2497
L16232 2478
L16223 2469
L16204 2460
" />
<path d="M12856 6578
L12790 6484
" />
<path d="M12743 6578
L12743 6381
L12818 6381
L12837 6391
L12847 6400
L12856 6419
L12856 6447
L12847 6466
L12837 6475
L12818 6484
L12743 6484
" />
<path d="M13043 6578
L12931 6578
" />
<path d="M12987 6578
L12987 6381
L12968 6410
L12950 6428
L12931 6438
" />
<path d="M13165 6381
L13184 6381
L13203 6391
L13212 6400
L13221 6419
L13231 6456
L13231 6503
L13221 6541
L13212 6559
L13203 6569
L13184 6578
L13165 6578
L13146 6569
L13137 6559
L13128 6541
L13118 6503
L13118 6456
L13128 6419
L13137 6400
L13146 6391
L13165 6381
" />
<path d="M13486 7651
L13393 7716
" />
<path d="M13486 7763
L13290 7763
L13290 7688
L13299 7669
L13308 7660
L13327 7651
L13355 7651
L13374 7660
L13383 7669
L13393 7688
L13393 7763
" />
<path d="M13486 7463
L13486 7576
" />
<path d="M13486 7519
L13290 7519
L13318 7538
L13337 7557
L13346 7576
" />
<path d="M13486 7276
L13486 7388
" />
<path d="M13486 7332
L13290 7332
L13318 7351
L13337 7370
L13346 7388
" />
<path d="M16681 9431
L16588 9496
" />
<path d="M16681 9543
L16485 9543
L16485 9468
L16494 9449
L16503 9440
L16522 9431
L16550 9431
L16569 9440
L16578 9449
L16588 9468
L16588 9543
" />
<path d="M16681 9243
L16681 9356
" />
<path d="M16681 9299
L16485 9299
L16513 9318
L16532 9337
L16541 9356
" />
<path d="M16503 9168
L16494 9159
L16485 9140
L16485 9093
L16494 9075
L16503 9065
L16522 9056
L16541 9056
L16569 9065
L16681 9178
L16681 9056
" />
<path d="M24204 1229
L24204 1323
" />
<path d="M24138 1126
L24204 1229
L24269 1126
" />
<path d="M24438 1323
L24326 1323
" />
<path d="M24382 1323
L24382 1126
L24363 1155
L24344 1173
L24326 1183
" />
<path d="M23698 2524
L23689 2515
L23680 2496
L23680 2449
L23689 2430
L23698 2421
L23717 2412
L23736 2412
L23764 2421
L23876 2533
L23876 2412
" />
<path d="M23745 2243
L23876 2243
" />
<path d="M23670 2290
L23811 2337
L23811 2215
" />
<path d="M23680 2046
L23680 2140
L23773 2149
L23764 2140
L23755 2121
L23755 2074
L23764 2055
L23773 2046
L23792 2037
L23839 2037
L23858 2046
L23867 2055
L23876 2074
L23876 2121
L23867 2140
L23858 2149
" />
<path d="M23680 1915
L23680 1896
L23689 1877
L23698 1868
L23717 1859
L23755 1849
L23802 1849
L23839 1859
L23858 1868
L23867 1877
L23876 1896
L23876 1915
L23867 1934
L23858 1943
L23839 1952
L23802 1962
L23755 1962
L23717 1952
L23698 1943
L23689 1934
L23680 1915
" />
<path d="M23820 1774
L23820 1680
" />
<path d="M23876 1793
L23680 1727
L23876 1662
" />
<path d="M23680 1624
L23680 1512
" />
<path d="M23876 1568
L23680 1568
" />
<path d="M23876 1343
L23876 1455
" />
<path d="M23876 1399
L23680 1399
L23708 1418
L23727 1437
L23736 1455
" />
<path d="M23764 1230
L23755 1249
L23745 1259
L23727 1268
L23717 1268
L23698 1259
L23689 1249
L23680 1230
L23680 1193
L23689 1174
L23698 1165
L23717 1155
L23727 1155
L23745 1165
L23755 1174
L23764 1193
L23764 1230
L23773 1249
L23783 1259
L23802 1268
L23839 1268
L23858 1259
L23867 1249
L23876 1230
L23876 1193
L23867 1174
L23858 1165
L23839 1155
L23802 1155
L23783 1165
L23773 1174
L23764 1193
" />
<path d="M23820 1080
L23820 987
" />
<path d="M23876 1099
L23680 1034
L23876 968
" />
<path d="M23876 799
L23876 912
" />
<path d="M23876 856
L23680 856
L23708 874
L23727 893
L23736 912
" />
<path d="M23680 677
L23680 659
L23689 640
L23698 631
L23717 621
L23755 612
L23802 612
L23839 621
L23858 631
L23867 640
L23876 659
L23876 677
L23867 696
L23858 706
L23839 715
L23802 724
L23755 724
L23717 715
L23698 706
L23689 696
L23680 677
" />
<path d="M23680 490
L23680 471
L23689 452
L23698 443
L23717 434
L23755 424
L23802 424
L23839 434
L23858 443
L23867 452
L23876 471
L23876 490
L23867 509
L23858 518
L23839 527
L23802 537
L23755 537
L23717 527
L23698 518
L23689 509
L23680 490
" />
<path d="M20376 9863
L20376 10022
L20385 10041
L20395 10050
L20413 10060
L20451 10060
L20470 10050
L20479 10041
L20488 10022
L20488 9863
" />
<path d="M20666 9928
L20666 10060
" />
<path d="M20620 9853
L20573 9994
L20695 9994
" />
<path d="M20440 8074
L20599 8074
L20618 8065
L20627 8055
L20636 8037
L20636 7999
L20627 7980
L20618 7971
L20599 7962
L20440 7962
" />
<path d="M20440 7887
L20440 7765
L20515 7830
L20515 7802
L20524 7784
L20533 7774
L20552 7765
L20599 7765
L20618 7774
L20627 7784
L20636 7802
L20636 7859
L20627 7877
L20618 7887
" />
</g>
<g style="fill:#008484; fill-opacity:0.0; 
stroke:#008484; stroke-width:29.5276; stroke-opacity:1; 
stroke-linecap:round; stroke-linejoin:round;">
<path d="M9197 5625
L9197 5720
L9203 5731
L9209 5737
L9220 5743
L9242 5743
L9254 5737
L9259 5731
L9265 5720
L9265 5625
" />
<path d="M9377 5625
L9321 5625
L9316 5681
L9321 5675
L9332 5670
L9361 5670
L9372 5675
L9377 5681
L9383 5692
L9383 5720
L9377 5731
L9372 5737
L9361 5743
L9332 5743
L9321 5737
L9316 5731
" />
<path d="M9842 9605
L9842 9700
L9848 9711
L9854 9717
L9865 9723
L9887 9723
L9899 9717
L9904 9711
L9910 9700
L9910 9605
" />
<path d="M9955 9605
L10034 9605
L9983 9723
" />
</g>
<g style="fill:#008484; fill-opacity:0.0; 
stroke:#008484; stroke-width:49.2126; stroke-opacity:1; 
stroke-linecap:round; stroke-linejoin:round;">
<path d="M11496 5324
L11487 5334
L11458 5343
L11440 5343
L11412 5334
L11393 5315
L11383 5296
L11374 5259
L11374 5231
L11383 5193
L11393 5175
L11412 5156
L11440 5146
L11458 5146
L11487 5156
L11496 5165
" />
<path d="M11683 5343
L11571 5343
" />
<path d="M11627 5343
L11627 5146
L11608 5175
L11590 5193
L11571 5203
" />
<path d="M11805 5146
L11824 5146
L11843 5156
L11852 5165
L11861 5184
L11871 5221
L11871 5268
L11861 5306
L11852 5324
L11843 5334
L11824 5343
L11805 5343
L11786 5334
L11777 5324
L11768 5306
L11758 5268
L11758 5221
L11768 5184
L11777 5165
L11786 5156
L11805 5146
" />
<path d="M20832 6325
L20720 6305
" />
<path d="M20753 6405
L20614 6266
L20667 6213
L20687 6206
L20700 6206
L20720 6213
L20740 6232
L20746 6252
L20746 6266
L20740 6285
L20687 6338
" />
<path d="M20965 6193
L20885 6272
" />
<path d="M20925 6232
L20786 6093
L20793 6126
L20793 6153
L20786 6173
" />
<path d="M19194 6018
L19128 5924
" />
<path d="M19081 6018
L19081 5821
L19156 5821
L19175 5831
L19185 5840
L19194 5859
L19194 5887
L19185 5906
L19175 5915
L19156 5924
L19081 5924
" />
<path d="M19381 6018
L19269 6018
" />
<path d="M19325 6018
L19325 5821
L19306 5850
L19288 5868
L19269 5878
" />
<path d="M19447 5821
L19569 5821
L19503 5896
L19531 5896
L19550 5906
L19559 5915
L19569 5934
L19569 5981
L19559 5999
L19550 6009
L19531 6018
L19475 6018
L19456 6009
L19447 5999
" />
<path d="M19025 6426
L18959 6333
" />
<path d="M18912 6426
L18912 6229
L18987 6229
L19006 6239
L19016 6248
L19025 6267
L19025 6295
L19016 6314
L19006 6323
L18987 6333
L18912 6333
" />
<path d="M19212 6426
L19100 6426
" />
<path d="M19156 6426
L19156 6229
L19137 6258
L19119 6276
L19100 6286
" />
<path d="M19381 6295
L19381 6426
" />
<path d="M19334 6220
L19287 6361
L19409 6361
" />
<path d="M23931 8494
L23735 8494
L23735 8419
L23744 8401
L23753 8391
L23772 8382
L23800 8382
L23819 8391
L23828 8401
L23838 8419
L23838 8494
" />
<path d="M23931 8195
L23931 8307
" />
<path d="M23931 8251
L23735 8251
L23763 8270
L23782 8288
L23791 8307
" />
<path d="M23921 6079
L23725 6079
L23725 6004
L23734 5986
L23743 5976
L23762 5967
L23790 5967
L23809 5976
L23818 5986
L23828 6004
L23828 6079
" />
<path d="M23743 5892
L23734 5883
L23725 5864
L23725 5817
L23734 5798
L23743 5789
L23762 5780
L23781 5780
L23809 5789
L23921 5901
L23921 5780
" />
<path d="M22872 9998
L22872 9801
L22947 9801
L22966 9811
L22975 9820
L22985 9839
L22985 9867
L22975 9886
L22966 9895
L22947 9904
L22872 9904
" />
<path d="M23050 9801
L23172 9801
L23106 9876
L23135 9876
L23153 9886
L23163 9895
L23172 9914
L23172 9961
L23163 9979
L23153 9989
L23135 9998
L23078 9998
L23060 9989
L23050 9979
" />
<path d="M17457 9993
L17457 9796
L17532 9796
L17551 9806
L17560 9815
L17570 9834
L17570 9862
L17560 9881
L17551 9890
L17532 9899
L17457 9899
" />
<path d="M17738 9862
L17738 9993
" />
<path d="M17691 9787
L17645 9928
L17766 9928
" />
<path d="M17227 1143
L17227 946
L17302 946
L17321 956
L17330 965
L17340 984
L17340 1012
L17330 1031
L17321 1040
L17302 1049
L17227 1049
" />
<path d="M17518 946
L17424 946
L17415 1040
L17424 1031
L17443 1021
L17490 1021
L17508 1031
L17518 1040
L17527 1059
L17527 1106
L17518 1124
L17508 1134
L17490 1143
L17443 1143
L17424 1134
L17415 1124
" />
</g>
<g style="fill:#008484; fill-opacity:0.0; 
stroke:#008484; stroke-width:59.0551; stroke-opacity:1; 
stroke-linecap:round; stroke-linejoin:round;">
<path d="M14627 3921
L14646 3865
L14646 3771
L14627 3734
L14608 3715
L14571 3696
L14533 3696
L14496 3715
L14477 3734
L14458 3771
L14439 3846
L14421 3884
L14402 3902
L14364 3921
L14327 3921
L14289 3902
L14271 3884
L14252 3846
L14252 3752
L14271 3696
" />
<path d="M14646 3527
L14252 3527
L14252 3377
L14271 3340
L14289 3321
L14327 3302
L14383 3302
L14421 3321
L14439 3340
L14458 3377
L14458 3527
" />
<path d="M14289 3152
L14271 3134
L14252 3096
L14252 3002
L14271 2965
L14289 2946
L14327 2927
L14364 2927
L14421 2946
L14646 3171
L14646 2927
" />
<path d="M16301 7799
L16357 7817
L16451 7817
L16488 7799
L16507 7780
L16526 7742
L16526 7705
L16507 7667
L16488 7649
L16451 7630
L16376 7611
L16338 7592
L16319 7574
L16301 7536
L16301 7499
L16319 7461
L16338 7442
L16376 7424
L16469 7424
L16526 7442
" />
<path d="M16694 7817
L16694 7424
L16844 7424
L16882 7442
L16901 7461
L16919 7499
L16919 7555
L16901 7592
L16882 7611
L16844 7630
L16694 7630
" />
<path d="M17051 7424
L17294 7424
L17163 7574
L17219 7574
L17257 7592
L17276 7611
L17294 7649
L17294 7742
L17276 7780
L17257 7799
L17219 7817
L17107 7817
L17069 7799
L17051 7780
" />
<path d="M15052 8881
L15071 8825
L15071 8731
L15052 8694
L15033 8675
L14996 8656
L14958 8656
L14921 8675
L14902 8694
L14883 8731
L14864 8806
L14846 8844
L14827 8862
L14789 8881
L14752 8881
L14714 8862
L14696 8844
L14677 8806
L14677 8712
L14696 8656
" />
<path d="M15071 8487
L14677 8487
L14677 8337
L14696 8300
L14714 8281
L14752 8262
L14808 8262
L14846 8281
L14864 8300
L14883 8337
L14883 8487
" />
<path d="M14808 7925
L15071 7925
" />
<path d="M14658 8019
L14939 8112
L14939 7869
" />
<path d="M16427 3964
L16427 2964
" />
<path d="M17427 3964
L17427 2964
" />
<path d="M17427 2964
L16427 2964
" />
<path d="M16427 2964
L15427 2964
" />
<path d="M15427 2964
L15427 3964
" />
<path d="M15427 3964
L17427 3964
" />
<path d="M21844 3148
L21647 3148
" />
<path d="M21844 3148
L21844 3345
" />
<path d="M21844 5510
L21647 5510
" />
<path d="M21844 5510
L21844 5313
" />
<path d="M19481 5510
L19678 5510
" />
<path d="M19481 5510
L19481 5313
" />
</g>
<g style="fill:#008484; fill-opacity:0.0; 
stroke:#008484; stroke-width:39.3701; stroke-opacity:1; 
stroke-linecap:round; stroke-linejoin:round;">
<circle cx="19600" cy="3266.69" r="55.6776" /> 
</g>
<g style="fill:#008484; fill-opacity:0.0; 
stroke:#008484; stroke-width:59.0551; stroke-opacity:1; 
stroke-linecap:round; stroke-linejoin:round;">
<path d="M19481 3148
L19678 3148
" />
<path d="M19481 3148
L19481 3345
" />
<path d="M20293 7048
L20293 7087
" />
<path d="M20293 6851
L20293 6890
" />
<path d="M19782 6674
L19782 6635
" />
<path d="M19782 6635
L20293 6635
" />
<path d="M20293 6635
L20293 6674
" />
<path d="M19782 6890
L19782 6851
" />
<path d="M19782 7087
L19782 7048
" />
<path d="M19782 7304
L19782 7264
" />
<path d="M19782 7264
L19782 7304
" />
<path d="M19782 7304
L20293 7304
" />
<path d="M20293 7304
L20293 7264
" />
<path d="M21014 1379
L21156 1238
" />
<path d="M21156 1238
L20944 1026
" />
<path d="M20944 1026
L20802 1167
" />
<path d="M20873 1521
L20732 1662
" />
<path d="M20732 1662
L20519 1450
" />
<path d="M20519 1450
L20661 1309
" />
<path d="M21271 2079
L21173 2176
" />
<path d="M21173 2176
L20784 1787
" />
<path d="M20784 1787
L21146 1425
" />
<path d="M21146 1425
L21299 1578
" />
<path d="M21271 2079
L21354 2163
" />
<path d="M21326 1550
L21299 1578
" />
<path d="M21883 2107
L21855 2135
" />
<path d="M21828 1522
L21911 1606
" />
<path d="M19182 5294
L19182 5094
" />
<path d="M19182 5094
L18882 5094
" />
<path d="M18882 5094
L18882 5294
" />
<path d="M19182 5494
L19182 5694
" />
<path d="M19182 5694
L18882 5694
" />
<path d="M18882 5694
L18882 5494
" />
</g>
<g style="fill:#008484; fill-opacity:0.0; 
stroke:#008484; stroke-width:100; stroke-opacity:1; 
stroke-linecap:round; stroke-linejoin:round;">
<path d="M6222 7644
L6222 7544
" />
<path d="M6222 7544
L7122 7544
" />
<path d="M7122 7544
L7122 7644
" />
<path d="M7122 7644
L7022 7644
" />
<path d="M7022 7644
L7022 8544
" />
<path d="M7022 8544
L7122 8544
" />
<path d="M7122 8544
L6922 8544
" />
<path d="M6922 8544
L6922 7644
" />
<path d="M6922 7644
L7022 7644
" />
<path d="M7022 7644
L6822 7644
" />
<path d="M6822 7644
L6822 8544
" />
<path d="M6822 8544
L6922 8544
" />
<path d="M6922 8544
L6722 8544
" />
<path d="M6722 8544
L6722 7644
" />
<path d="M6722 7644
L6622 7644
" />
<path d="M6622 7644
L6622 8544
" />
<path d="M6622 8544
L6522 8544
" />
<path d="M6522 8544
L6522 7644
" />
<path d="M6522 7644
L6422 7644
" />
<path d="M6422 7644
L6422 8544
" />
<path d="M6422 8544
L6722 8544
" />
<path d="M6722 8544
L6722 7644
" />
<path d="M6722 7644
L6822 7644
" />
<path d="M6822 7644
L6522 7644
" />
<path d="M6522 7644
L6322 7644
" />
<path d="M6322 7644
L6322 8544
" />
<path d="M6322 8544
L6422 8544
" />
<path d="M6422 8544
L6222 8544
" />
<path d="M6222 8544
L6222 7644
" />
<path d="M6222 7644
L6322 7644
" />
<path d="M6322 7644
L6222 7644
" />
<path d="M7122 8544
L7122 7644
" />
</g>
<g style="fill:#008484; fill-opacity:0.0; 
stroke:#008484; stroke-width:59.0551; stroke-opacity:1; 
stroke-linecap:round; stroke-linejoin:round;">
<path d="M7222 8644
L7222 7444
" />
<path d="M7222 7444
L2422 7444
" />
<path d="M2422 7444
L2422 8644
" />
<path d="M2422 8644
L7222 8644
" />
<path d="M22534 4337
L22494 4337
" />
<path d="M22731 4337
L22691 4337
" />
<path d="M22691 4022
L22731 4022
" />
<path d="M22494 4022
L22534 4022
" />
<path d="M22297 4022
L22337 4022
" />
<path d="M22297 4337
L22337 4337
" />
<path d="M22927 4337
L22888 4337
" />
<path d="M22927 4022
L22888 4022
" />
<path d="M22849 4140
L22849 4219
" />
<path d="M22849 4219
L22770 4219
" />
<path d="M22770 4219
L22770 4140
" />
<path d="M22770 4140
L22809 4140
" />
<path d="M22809 4140
L22809 4179
" />
<path d="M22809 4179
L22809 4140
" />
<path d="M22809 4140
L22849 4140
" />
<path d="M22927 4022
L22927 4337
" />
<path d="M22297 4022
L22297 4337
" />
<path d="M8057 224
L8057 3224
" />
<path d="M8057 3224
L10332 3224
" />
<path d="M10332 3224
L10332 224
" />
<path d="M10332 224
L8057 224
" />
<path d="M19507 8849
L19507 9749
" />
<path d="M19507 9749
L19007 9749
" />
<path d="M19007 9749
L19007 8849
" />
<path d="M19007 8849
L19507 8849
" />
<path d="M21262 8289
L21262 7389
" />
<path d="M21262 7389
L21762 7389
" />
<path d="M21762 7389
L21762 8289
" />
<path d="M21762 8289
L21262 8289
" />
<path d="M9462 7109
L10362 7109
" />
<path d="M10362 7109
L10362 7609
" />
<path d="M10362 7609
L9462 7609
" />
<path d="M9462 7609
L9462 7109
" />
<path d="M19497 7419
L18597 7419
" />
<path d="M18597 7419
L18597 6919
" />
<path d="M18597 6919
L19497 6919
" />
<path d="M19497 6919
L19497 7419
" />
<path d="M18597 7799
L19497 7799
" />
<path d="M19497 7799
L19497 8299
" />
<path d="M19497 8299
L18597 8299
" />
<path d="M18597 8299
L18597 7799
" />
<path d="M9762 8244
L8862 8244
" />
<path d="M8862 8244
L8862 7744
" />
<path d="M8862 7744
L9762 7744
" />
<path d="M9762 7744
L9762 8244
" />
<path d="M10357 5664
L9457 5664
" />
<path d="M9457 5664
L9457 5164
" />
<path d="M9457 5164
L10357 5164
" />
<path d="M10357 5164
L10357 5664
" />
<path d="M8872 9684
L9772 9684
" />
<path d="M9772 9684
L9772 10184
" />
<path d="M9772 10184
L8872 10184
" />
<path d="M8872 10184
L8872 9684
" />
<path d="M18912 3329
L18912 3529
" />
<path d="M18912 3529
L19212 3529
" />
<path d="M19212 3529
L19212 3329
" />
<path d="M18912 3129
L18912 2929
" />
<path d="M18912 2929
L19212 2929
" />
<path d="M19212 2929
L19212 3129
" />
<path d="M12017 3314
L12017 4214
" />
<path d="M12017 4214
L11517 4214
" />
<path d="M11517 4214
L11517 3314
" />
<path d="M11517 3314
L12017 3314
" />
<path d="M22176 2624
L22034 2765
" />
<path d="M22034 2765
L22247 2977
" />
<path d="M22247 2977
L22388 2836
" />
<path d="M22317 2482
L22459 2341
" />
<path d="M22459 2341
L22671 2553
" />
<path d="M22671 2553
L22529 2694
" />
<path d="M22917 4779
L23117 4779
" />
<path d="M23117 4779
L23117 4479
" />
<path d="M23117 4479
L22917 4479
" />
<path d="M22717 4779
L22517 4779
" />
<path d="M22517 4779
L22517 4479
" />
<path d="M22517 4479
L22717 4479
" />
<path d="M20862 2491
L21004 2632
" />
<path d="M21004 2632
L21216 2420
" />
<path d="M21216 2420
L21074 2279
" />
<path d="M20721 2350
L20579 2208
" />
<path d="M20579 2208
L20791 1996
" />
<path d="M20791 1996
L20933 2137
" />
<path d="M22712 4929
L22512 4929
" />
<path d="M22512 4929
L22512 5229
" />
<path d="M22512 5229
L22712 5229
" />
<path d="M22912 4929
L23112 4929
" />
<path d="M23112 4929
L23112 5229
" />
<path d="M23112 5229
L22912 5229
" />
<path d="M10357 10209
L11257 10209
" />
<path d="M11257 10209
L11257 10709
" />
<path d="M11257 10709
L10357 10709
" />
<path d="M10357 10709
L10357 10209
" />
<path d="M11942 8564
L11942 7664
" />
<path d="M11942 7664
L12442 7664
" />
<path d="M12442 7664
L12442 8564
" />
<path d="M12442 8564
L11942 8564
" />
<path d="M22192 1581
L22333 1722
" />
<path d="M22333 1722
L22545 1510
" />
<path d="M22545 1510
L22404 1369
" />
<path d="M22051 1439
L21909 1298
" />
<path d="M21909 1298
L22121 1086
" />
<path d="M22121 1086
L22263 1227
" />
<path d="M22532 3319
L22332 3319
" />
<path d="M22332 3319
L22332 3619
" />
<path d="M22332 3619
L22532 3619
" />
<path d="M22732 3319
L22932 3319
" />
<path d="M22932 3319
L22932 3619
" />
<path d="M22932 3619
L22732 3619
" />
<path d="M18197 3074
L18197 3274
" />
<path d="M18197 3274
L18497 3274
" />
<path d="M18497 3274
L18497 3074
" />
<path d="M18197 2874
L18197 2674
" />
<path d="M18197 2674
L18497 2674
" />
<path d="M18497 2674
L18497 2874
" />
<path d="M11232 5284
L11232 5084
" />
<path d="M11232 5084
L10932 5084
" />
<path d="M10932 5084
L10932 5284
" />
<path d="M11232 5484
L11232 5684
" />
<path d="M11232 5684
L10932 5684
" />
<path d="M10932 5684
L10932 5484
" />
<path d="M9792 10309
L9592 10309
" />
<path d="M9592 10309
L9592 10609
" />
<path d="M9592 10609
L9792 10609
" />
<path d="M9992 10309
L10192 10309
" />
<path d="M10192 10309
L10192 10609
" />
<path d="M10192 10609
L9992 10609
" />
<circle cx="13972.9" cy="1104.69" r="70.7106" /> 
<path d="M12072 1154
L11422 1154
" />
<path d="M11422 1154
L11422 2754
" />
<path d="M11422 2754
L12072 2754
" />
<path d="M13272 2754
L13922 2754
" />
<path d="M13922 2754
L13922 1154
" />
<path d="M13922 1154
L13272 1154
" />
<circle cx="14387.9" cy="9059.69" r="70.7106" /> 
<path d="M12487 9109
L11837 9109
" />
<path d="M11837 9109
L11837 10709
" />
<path d="M11837 10709
L12487 10709
" />
<path d="M13687 10709
L14337 10709
" />
<path d="M14337 10709
L14337 9109
" />
<path d="M14337 9109
L13687 9109
" />
<path d="M18597 3699
L18797 3699
" />
<path d="M18797 3699
L18797 3399
" />
<path d="M18797 3399
L18597 3399
" />
<path d="M18397 3699
L18197 3699
" />
<path d="M18197 3699
L18197 3399
" />
<path d="M18197 3399
L18397 3399
" />
<path d="M17797 3474
L17797 3674
" />
<path d="M17797 3674
L18097 3674
" />
<path d="M18097 3674
L18097 3474
" />
<path d="M17797 3274
L17797 3074
" />
<path d="M17797 3074
L18097 3074
" />
<path d="M18097 3074
L18097 3274
" />
<path d="M15787 5404
L13337 5404
" />
<path d="M13337 5404
L13337 4754
" />
<path d="M13337 4754
L15787 4754
" />
<path d="M15787 4754
L15787 5404
" />
<path d="M15807 7104
L13357 7104
" />
<path d="M13357 7104
L13357 6454
" />
<path d="M13357 6454
L15807 6454
" />
<path d="M15807 6454
L15807 7104
" />
<path d="M10812 5284
L10812 5084
" />
<path d="M10812 5084
L10512 5084
" />
<path d="M10512 5084
L10512 5284
" />
<path d="M10812 5484
L10812 5684
" />
<path d="M10812 5684
L10512 5684
" />
<path d="M10512 5684
L10512 5484
" />
<path d="M9297 10609
L9497 10609
" />
<path d="M9497 10609
L9497 10309
" />
<path d="M9497 10309
L9297 10309
" />
<path d="M9097 10609
L8897 10609
" />
<path d="M8897 10609
L8897 10309
" />
<path d="M8897 10309
L9097 10309
" />
<path d="M13232 4929
L13232 5829
" />
<path d="M13232 5829
L12732 5829
" />
<path d="M12732 5829
L12732 4929
" />
<path d="M12732 4929
L13232 4929
" />
<path d="M12502 4134
L13402 4134
" />
<path d="M13402 4134
L13402 4634
" />
<path d="M13402 4634
L12502 4634
" />
<path d="M12502 4634
L12502 4134
" />
<path d="M16677 2864
L15777 2864
" />
<path d="M15777 2864
L15777 2364
" />
<path d="M15777 2364
L16677 2364
" />
<path d="M16677 2364
L16677 2864
" />
<path d="M12732 6939
L12732 6039
" />
<path d="M12732 6039
L13232 6039
" />
<path d="M13232 6039
L13232 6939
" />
<path d="M13232 6939
L12732 6939
" />
<path d="M12947 7274
L13847 7274
" />
<path d="M13847 7274
L13847 7774
" />
<path d="M13847 7774
L12947 7774
" />
<path d="M12947 7774
L12947 7274
" />
<path d="M17042 9554
L16142 9554
" />
<path d="M16142 9554
L16142 9054
" />
<path d="M16142 9054
L17042 9054
" />
<path d="M17042 9054
L17042 9554
" />
<path d="M24317 1707
L24317 1490
" />
<path d="M24317 1490
L24278 1490
" />
<path d="M24278 1490
L24278 1707
" />
<path d="M24278 1707
L24317 1707
" />
</g>
<g style="fill:#008484; fill-opacity:0.0; 
stroke:#008484; stroke-width:39.3701; stroke-opacity:1; 
stroke-linecap:round; stroke-linejoin:round;">
<path d="M24002 742
L24002 1726
" />
<path d="M24593 1726
L24593 742
" />
</g>
<g style="fill:#008484; fill-opacity:0.0; 
stroke:#008484; stroke-width:59.0551; stroke-opacity:1; 
stroke-linecap:round; stroke-linejoin:round;">
<path d="M19935 9793
L19935 9715
" />
<path d="M19935 9793
L21116 9793
" />
<path d="M21116 9793
L21116 9715
" />
<path d="M19935 8612
L19935 8691
" />
<path d="M21116 8612
L21116 8701
" />
<path d="M19935 8612
L21116 8612
" />
</g>
<g style="fill:#008484; fill-opacity:0.0; 
stroke:#008484; stroke-width:9.84252; stroke-opacity:1; 
stroke-linecap:round; stroke-linejoin:round;">
<circle cx="20424.5" cy="8298.7" r="40.5819" /> 
</g>
<g style="fill:#008484; fill-opacity:0.0; 
stroke:#008484; stroke-width:29.5276; stroke-opacity:1; 
stroke-linecap:round; stroke-linejoin:round;">
<path d="M20916 7708
L20916 7629
" />
<path d="M20916 7964
L20916 7885
" />
<path d="M20916 8219
L20916 8141
" />
<path d="M20129 8397
L20129 8416
" />
<path d="M20129 8416
L20916 8416
" />
<path d="M20916 8416
L20916 8397
" />
<path d="M20129 8141
L20129 8219
" />
<path d="M20129 7885
L20129 7964
" />
<path d="M20129 7629
L20129 7708
" />
<path d="M20916 7432
L20916 7452
" />
<path d="M20916 7432
L20129 7432
" />
<path d="M20129 7432
L20129 7452
" />
</g>
<g style="fill:#008484; fill-opacity:0.0; 
stroke:#008484; stroke-width:59.0551; stroke-opacity:1; 
stroke-linecap:round; stroke-linejoin:round;">
<path d="M9332 5917
L9332 5799
" />
<path d="M9332 5799
L10513 5799
" />
<path d="M10513 5799
L10513 5917
" />
<path d="M9332 6980
L9332 6862
" />
<path d="M9332 6980
L10513 6980
" />
<path d="M10513 6980
L10513 6862
" />
<path d="M9913 9442
L9913 9560
" />
<path d="M9913 9560
L8732 9560
" />
<path d="M8732 9560
L8732 9442
" />
<path d="M9913 8379
L9913 8497
" />
<path d="M9913 8379
L8732 8379
" />
<path d="M8732 8379
L8732 8497
" />
<path d="M11372 5704
L11372 4804
" />
<path d="M11372 4804
L11872 4804
" />
<path d="M11872 4804
L11872 5704
" />
<path d="M11872 5704
L11372 5704
" />
<path d="M20492 6681
L20634 6822
" />
<path d="M20634 6822
L20846 6610
" />
<path d="M20846 6610
L20704 6469
" />
<path d="M20351 6540
L20209 6398
" />
<path d="M20209 6398
L20421 6186
" />
<path d="M20421 6186
L20563 6327
" />
<path d="M19845 5779
L19645 5779
" />
<path d="M19645 5779
L19645 6079
" />
<path d="M19645 6079
L19845 6079
" />
<path d="M20045 5779
L20245 5779
" />
<path d="M20245 5779
L20245 6079
" />
<path d="M20245 6079
L20045 6079
" />
<path d="M19675 6204
L19475 6204
" />
<path d="M19475 6204
L19475 6504
" />
<path d="M19475 6504
L19675 6504
" />
<path d="M19875 6204
L20075 6204
" />
<path d="M20075 6204
L20075 6504
" />
<path d="M20075 6504
L19875 6504
" />
</g>
<g style="fill:#008484; fill-opacity:0.0; 
stroke:#008484; stroke-width:50; stroke-opacity:1; 
stroke-linecap:round; stroke-linejoin:round;">
<path d="M24022 7849
L24622 7849
" />
</g>
<g style="fill:#008484; fill-opacity:0.0; 
stroke:#008484; stroke-width:100; stroke-opacity:1; 
stroke-linecap:round; stroke-linejoin:round;">
<path d="M24022 9449
L24622 9449
" />
<path d="M24622 9449
L24622 7249
" />
<path d="M24622 7249
L24022 7249
" />
<path d="M24022 7249
L24022 9449
" />
</g>
<g style="fill:#008484; fill-opacity:0.0; 
stroke:#008484; stroke-width:50; stroke-opacity:1; 
stroke-linecap:round; stroke-linejoin:round;">
<path d="M24017 5434
L24617 5434
" />
</g>
<g style="fill:#008484; fill-opacity:0.0; 
stroke:#008484; stroke-width:100; stroke-opacity:1; 
stroke-linecap:round; stroke-linejoin:round;">
<path d="M24017 7034
L24617 7034
" />
<path d="M24617 7034
L24617 4834
" />
<path d="M24617 4834
L24017 4834
" />
<path d="M24017 4834
L24017 7034
" />
</g>
<g style="fill:#008484; fill-opacity:0.0; 
stroke:#008484; stroke-width:50; stroke-opacity:1; 
stroke-linecap:round; stroke-linejoin:round;">
<path d="M24022 10084
L24022 10684
" />
</g>
<g style="fill:#008484; fill-opacity:0.0; 
stroke:#008484; stroke-width:100; stroke-opacity:1; 
stroke-linecap:round; stroke-linejoin:round;">
<path d="M21422 10084
L21422 10684
" />
<path d="M21422 10684
L24622 10684
" />
<path d="M24622 10684
L24622 10084
" />
<path d="M24622 10084
L21422 10084
" />
</g>
<g style="fill:#008484; fill-opacity:0.0; 
stroke:#008484; stroke-width:50; stroke-opacity:1; 
stroke-linecap:round; stroke-linejoin:round;">
<path d="M18102 10079
L18102 10679
" />
</g>
<g style="fill:#008484; fill-opacity:0.0; 
stroke:#008484; stroke-width:100; stroke-opacity:1; 
stroke-linecap:round; stroke-linejoin:round;">
<path d="M16502 10079
L16502 10679
" />
<path d="M16502 10679
L18702 10679
" />
<path d="M18702 10679
L18702 10079
" />
<path d="M18702 10079
L16502 10079
" />
</g>
<g style="fill:#008484; fill-opacity:0.0; 
stroke:#008484; stroke-width:50; stroke-opacity:1; 
stroke-linecap:round; stroke-linejoin:round;">
<path d="M15612 259
L15612 784
" />
</g>
<g style="fill:#008484; fill-opacity:0.0; 
stroke:#008484; stroke-width:100; stroke-opacity:1; 
stroke-linecap:round; stroke-linejoin:round;">
<path d="M19637 809
L19637 259
" />
<path d="M19637 259
L15087 259
" />
<path d="M15087 259
L15087 809
" />
<path d="M15087 809
L19637 809
" />
</g>
<g style="fill:#008484; fill-opacity:0.0; 
stroke:#008484; stroke-width:59.0551; stroke-opacity:1; 
stroke-linecap:round; stroke-linejoin:round;">
<path d="M13152 2959
L13152 3959
" />
<path d="M12152 2959
L12152 3959
" />
<path d="M12152 3959
L13152 3959
" />
<path d="M13152 3959
L14152 3959
" />
<path d="M14152 3959
L14152 2959
" />
<path d="M14152 2959
L12152 2959
" />
<path d="M16787 8894
L16787 7894
" />
<path d="M17787 8894
L17787 7894
" />
<path d="M17787 7894
L16787 7894
" />
<path d="M16787 7894
L15787 7894
" />
<path d="M15787 7894
L15787 8894
" />
<path d="M15787 8894
L17787 8894
" />
<path d="M13597 7904
L13597 8904
" />
<path d="M12597 7904
L12597 8904
" />
<path d="M12597 8904
L13597 8904
" />
<path d="M13597 8904
L14597 8904
" />
<path d="M14597 8904
L14597 7904
" />
<path d="M14597 7904
L12597 7904
" />
</g>
<g style="fill:#840000; fill-opacity:0.0; 
stroke:#840000; stroke-width:39.3701; stroke-opacity:1; 
stroke-linecap:round; stroke-linejoin:round;">
</g>
<g style="fill:#840000; fill-opacity:1.0; 
stroke:#840000; stroke-width:39.3701; stroke-opacity:1; 
stroke-linecap:round; stroke-linejoin:round;">
<polyline style="fill-rule:evenodd;"
points="17308,3084
17308,3845
16547,3845
16547,3084
17308,3084
" /> 
</g>
<g style="fill:#840000; fill-opacity:1.0; 
stroke:#840000; stroke-width:800; stroke-opacity:1; 
stroke-linecap:round; stroke-linejoin:round;">
</g>
<g style="fill:#840000; fill-opacity:0.0; 
stroke:#840000; stroke-width:800; stroke-opacity:1; 
stroke-linecap:round; stroke-linejoin:round;">
<path d="M15927 3464
L15927 3464
" />
</g>
<g style="fill:#840000; fill-opacity:0.0; 
stroke:#840000; stroke-width:39.3701; stroke-opacity:1; 
stroke-linecap:round; stroke-linejoin:round;">
</g>
<g style="fill:#840000; fill-opacity:1.0; 
stroke:#840000; stroke-width:39.3701; stroke-opacity:1; 
stroke-linecap:round; stroke-linejoin:round;">
<circle cx="6673.34" cy="6444.69" r="541.339" /> 
<circle cx="4822.95" cy="6444.69" r="541.339" /> 
<circle cx="2972.55" cy="6444.69" r="541.339" /> 
<circle cx="7423.34" cy="10196.7" r="541.339" /> 
<circle cx="2222.55" cy="10196.7" r="541.339" /> 
<circle cx="8982.95" cy="2224.69" r="216.535" /> 
<circle cx="8982.95" cy="1224.69" r="216.535" /> 
<circle cx="13677.1" cy="5079.69" r="196.85" /> 
<circle cx="14562.9" cy="5079.69" r="196.85" /> 
<circle cx="15448.8" cy="5079.69" r="196.85" /> 
<circle cx="13697.1" cy="6779.69" r="196.85" /> 
<circle cx="14582.9" cy="6779.69" r="196.85" /> 
<circle cx="15468.8" cy="6779.69" r="196.85" /> 
<circle cx="24322.9" cy="9099.69" r="196.85" /> 
<circle cx="24322.9" cy="8599.69" r="196.85" /> 
<circle cx="24322.9" cy="8099.69" r="196.85" /> 
<polyline style="fill-rule:evenodd;"
points="24519,7796
24126,7796
24126,7402
24519,7402
24519,7796
" /> 
<circle cx="24317.9" cy="6684.69" r="196.85" /> 
<circle cx="24317.9" cy="6184.69" r="196.85" /> 
<circle cx="24317.9" cy="5684.69" r="196.85" /> 
<polyline style="fill-rule:evenodd;"
points="24514,5381
24121,5381
24121,4987
24514,4987
24514,5381
" /> 
<circle cx="21772.9" cy="10384.7" r="196.85" /> 
<circle cx="22272.9" cy="10384.7" r="196.85" /> 
<circle cx="22772.9" cy="10384.7" r="196.85" /> 
<circle cx="23272.9" cy="10384.7" r="196.85" /> 
<circle cx="23772.9" cy="10384.7" r="196.85" /> 
<polyline style="fill-rule:evenodd;"
points="24076,10581
24076,10187
24469,10187
24469,10581
24076,10581
" /> 
<circle cx="16852.9" cy="10379.7" r="196.85" /> 
<circle cx="17352.9" cy="10379.7" r="196.85" /> 
<circle cx="17852.9" cy="10379.7" r="196.85" /> 
<polyline style="fill-rule:evenodd;"
points="18156,10576
18156,10182
18549,10182
18549,10576
18156,10576
" /> 
<circle cx="19362.9" cy="534.685" r="196.85" /> 
<circle cx="18862.9" cy="534.685" r="196.85" /> 
<circle cx="18362.9" cy="534.685" r="196.85" /> 
<circle cx="17862.9" cy="534.685" r="196.85" /> 
<circle cx="17362.9" cy="534.685" r="196.85" /> 
<circle cx="16862.9" cy="534.685" r="196.85" /> 
<circle cx="16362.9" cy="534.685" r="196.85" /> 
<circle cx="15862.9" cy="534.685" r="196.85" /> 
<polyline style="fill-rule:evenodd;"
points="15559,337
15559,731
15166,731
15166,337
15559,337
" /> 
<polyline style="fill-rule:evenodd;"
points="12272,3840
12272,3079
13033,3079
13033,3840
12272,3840
" /> 
</g>
<g style="fill:#840000; fill-opacity:1.0; 
stroke:#840000; stroke-width:800; stroke-opacity:1; 
stroke-linecap:round; stroke-linejoin:round;">
</g>
<g style="fill:#840000; fill-opacity:0.0; 
stroke:#840000; stroke-width:800; stroke-opacity:1; 
stroke-linecap:round; stroke-linejoin:round;">
<path d="M13652 3459
L13652 3459
" />
</g>
<g style="fill:#840000; fill-opacity:0.0; 
stroke:#840000; stroke-width:39.3701; stroke-opacity:1; 
stroke-linecap:round; stroke-linejoin:round;">
</g>
<g style="fill:#840000; fill-opacity:1.0; 
stroke:#840000; stroke-width:39.3701; stroke-opacity:1; 
stroke-linecap:round; stroke-linejoin:round;">
<polyline style="fill-rule:evenodd;"
points="17668,8014
17668,8775
16907,8775
16907,8014
17668,8014
" /> 
</g>
<g style="fill:#840000; fill-opacity:1.0; 
stroke:#840000; stroke-width:800; stroke-opacity:1; 
stroke-linecap:round; stroke-linejoin:round;">
</g>
<g style="fill:#840000; fill-opacity:0.0; 
stroke:#840000; stroke-width:800; stroke-opacity:1; 
stroke-linecap:round; stroke-linejoin:round;">
<path d="M16287 8394
L16287 8394
" />
</g>
<g style="fill:#840000; fill-opacity:0.0; 
stroke:#840000; stroke-width:39.3701; stroke-opacity:1; 
stroke-linecap:round; stroke-linejoin:round;">
</g>
<g style="fill:#840000; fill-opacity:1.0; 
stroke:#840000; stroke-width:39.3701; stroke-opacity:1; 
stroke-linecap:round; stroke-linejoin:round;">
<polyline style="fill-rule:evenodd;"
points="12717,8785
12717,8024
13478,8024
13478,8785
12717,8785
" /> 
</g>
<g style="fill:#840000; fill-opacity:1.0; 
stroke:#840000; stroke-width:800; stroke-opacity:1; 
stroke-linecap:round; stroke-linejoin:round;">
</g>
<g style="fill:#840000; fill-opacity:0.0; 
stroke:#840000; stroke-width:800; stroke-opacity:1; 
stroke-linecap:round; stroke-linejoin:round;">
<path d="M14097 8404
L14097 8404
" />
</g> 
</svg>
