<?xml version="1.0" standalone="no"?>
 <!DOCTYPE svg PUBLIC "-//W3C//DTD SVG 1.1//EN" 
 "http://www.w3.org/Graphics/SVG/1.1/DTD/svg11.dtd"> 
<svg xmlns="http://www.w3.org/2000/svg" version="1.1" 
    width="6.34746cm" height="2.94132cm" viewBox="0 0 24990 11580 ">
<title>SVG Picture created as weather_station-F_Cu.svg date 2015/04/19 11:02:50 </title>
  <desc>Picture generated by PCBNEW </desc>
<g style="fill:#000000; fill-opacity:1;stroke:#000000; stroke-opacity:1;
stroke-linecap:round; stroke-linejoin:round; "
 transform="translate(0 0) scale(1 1)">
</g>
<g style="fill:#C2C200; fill-opacity:0.0; 
stroke:#C2C200; stroke-width:39.3701; stroke-opacity:1; 
stroke-linecap:round; stroke-linejoin:round;">
<path d="M1322 3899
L1322 10904
" />
<path d="M1322 769
L1327 769
" />
<path d="M1332 769
L1322 769
" />
<path d="M1322 769
L1332 769
" />
<path d="M1322 19
L1322 769
" />
<path d="M3137 3899
L1322 3899
" />
<path d="M3132 769
L1322 769
" />
<path d="M3502 3534
L3502 1134
" />
<path d="M3137.95 3899.69 A365 365 0.0 0 0 3502.95 3534.69 " />
<path d="M3502.95 1134.69 A365 365 0.0 0 0 3137.95 769.685 " />
<path d="M1842 10904
L1827 10904
" />
<path d="M1322 10904
L1842 10904
" />
<path d="M1322 10889
L1322 10904
" />
<path d="M1912 10904
L1922 10904
" />
<path d="M1827 10904
L1912 10904
" />
<path d="M24837 10904
L1827 10904
" />
<path d="M24837 10724
L24837 10904
" />
<path d="M24572 10904
L24592 10904
" />
<path d="M24837 1439
L24837 10729
" />
<path d="M24837 1454
L24837 1374
" />
<path d="M24837 1404
L24837 1454
" />
<path d="M24837 19
L24477 19
" />
<path d="M24837 29
L24837 19
" />
<path d="M24837 1354
L24837 29
" />
<path d="M24837 1359
L24837 1394
" />
<path d="M24837 1394
L24837 1359
" />
<path d="M2222 19
L24487 19
" />
<path d="M1322 19
L2217 19
" />
</g>
<g style="fill:#840000; fill-opacity:0.0; 
stroke:#840000; stroke-width:39.3701; stroke-opacity:1; 
stroke-linecap:round; stroke-linejoin:round;">
</g>
<g style="fill:#840000; fill-opacity:1.0; 
stroke:#840000; stroke-width:39.3701; stroke-opacity:1; 
stroke-linecap:round; stroke-linejoin:round;">
<polyline style="fill-rule:evenodd;"
points="17308,3084
17308,3845
16547,3845
16547,3084
17308,3084
" /> 
</g>
<g style="fill:#840000; fill-opacity:1.0; 
stroke:#840000; stroke-width:800; stroke-opacity:1; 
stroke-linecap:round; stroke-linejoin:round;">
</g>
<g style="fill:#840000; fill-opacity:0.0; 
stroke:#840000; stroke-width:800; stroke-opacity:1; 
stroke-linecap:round; stroke-linejoin:round;">
<path d="M15927 3464
L15927 3464
" />
</g>
<g style="fill:#840000; fill-opacity:0.0; 
stroke:#840000; stroke-width:39.3701; stroke-opacity:1; 
stroke-linecap:round; stroke-linejoin:round;">
</g>
<g style="fill:#840000; fill-opacity:1.0; 
stroke:#840000; stroke-width:39.3701; stroke-opacity:1; 
stroke-linecap:round; stroke-linejoin:round;">
<polyline style="fill-rule:evenodd;"
points="19344,5176
19619,5176
19619,5215
19344,5215
19344,5176
" /> 
<polyline style="fill-rule:evenodd;"
points="19344,5018
19619,5018
19619,5058
19344,5058
19344,5018
" /> 
<polyline style="fill-rule:evenodd;"
points="19344,4861
19619,4861
19619,4900
19344,4900
19344,4861
" /> 
<polyline style="fill-rule:evenodd;"
points="19344,4703
19619,4703
19619,4743
19344,4743
19344,4703
" /> 
<polyline style="fill-rule:evenodd;"
points="19344,4546
19619,4546
19619,4585
19344,4585
19344,4546
" /> 
<polyline style="fill-rule:evenodd;"
points="19344,4388
19619,4388
19619,4428
19344,4428
19344,4388
" /> 
<polyline style="fill-rule:evenodd;"
points="19344,3443
19619,3443
19619,3483
19344,3483
19344,3443
" /> 
<polyline style="fill-rule:evenodd;"
points="19344,3601
19619,3601
19619,3640
19344,3640
19344,3601
" /> 
<polyline style="fill-rule:evenodd;"
points="19344,3758
19619,3758
19619,3798
19344,3798
19344,3758
" /> 
<polyline style="fill-rule:evenodd;"
points="19344,3916
19619,3916
19619,3955
19344,3955
19344,3916
" /> 
<polyline style="fill-rule:evenodd;"
points="19344,4073
19619,4073
19619,4113
19344,4113
19344,4073
" /> 
<polyline style="fill-rule:evenodd;"
points="19344,4231
19619,4231
19619,4270
19344,4270
19344,4231
" /> 
<polyline style="fill-rule:evenodd;"
points="20564,5648
20564,5372
20603,5372
20603,5648
20564,5648
" /> 
<polyline style="fill-rule:evenodd;"
points="20407,5648
20407,5372
20446,5372
20446,5648
20407,5648
" /> 
<polyline style="fill-rule:evenodd;"
points="20249,5648
20249,5372
20288,5372
20288,5648
20249,5648
" /> 
<polyline style="fill-rule:evenodd;"
points="20092,5648
20092,5372
20131,5372
20131,5648
20092,5648
" /> 
<polyline style="fill-rule:evenodd;"
points="19934,5648
19934,5372
19973,5372
19973,5648
19934,5648
" /> 
<polyline style="fill-rule:evenodd;"
points="19777,5648
19777,5372
19816,5372
19816,5648
19777,5648
" /> 
<polyline style="fill-rule:evenodd;"
points="20722,5648
20722,5372
20761,5372
20761,5648
20722,5648
" /> 
<polyline style="fill-rule:evenodd;"
points="20879,5648
20879,5372
20918,5372
20918,5648
20879,5648
" /> 
<polyline style="fill-rule:evenodd;"
points="21036,5648
21036,5372
21076,5372
21076,5648
21036,5648
" /> 
<polyline style="fill-rule:evenodd;"
points="21194,5648
21194,5372
21233,5372
21233,5648
21194,5648
" /> 
<polyline style="fill-rule:evenodd;"
points="21351,5648
21351,5372
21391,5372
21391,5648
21351,5648
" /> 
<polyline style="fill-rule:evenodd;"
points="21509,5648
21509,5372
21548,5372
21548,5648
21509,5648
" /> 
<polyline style="fill-rule:evenodd;"
points="21981,4428
21706,4428
21706,4388
21981,4388
21981,4428
" /> 
<polyline style="fill-rule:evenodd;"
points="21981,4585
21706,4585
21706,4546
21981,4546
21981,4585
" /> 
<polyline style="fill-rule:evenodd;"
points="21981,4743
21706,4743
21706,4703
21981,4703
21981,4743
" /> 
<polyline style="fill-rule:evenodd;"
points="21981,4900
21706,4900
21706,4861
21981,4861
21981,4900
" /> 
<polyline style="fill-rule:evenodd;"
points="21981,5058
21706,5058
21706,5018
21981,5018
21981,5058
" /> 
<polyline style="fill-rule:evenodd;"
points="21981,5215
21706,5215
21706,5176
21981,5176
21981,5215
" /> 
<polyline style="fill-rule:evenodd;"
points="21981,4270
21706,4270
21706,4231
21981,4231
21981,4270
" /> 
<polyline style="fill-rule:evenodd;"
points="21981,4113
21706,4113
21706,4073
21981,4073
21981,4113
" /> 
<polyline style="fill-rule:evenodd;"
points="21981,3955
21706,3955
21706,3916
21981,3916
21981,3955
" /> 
<polyline style="fill-rule:evenodd;"
points="21981,3798
21706,3798
21706,3758
21981,3758
21981,3798
" /> 
<polyline style="fill-rule:evenodd;"
points="21981,3640
21706,3640
21706,3601
21981,3601
21981,3640
" /> 
<polyline style="fill-rule:evenodd;"
points="21981,3483
21706,3483
21706,3443
21981,3443
21981,3483
" /> 
<polyline style="fill-rule:evenodd;"
points="21509,3286
21509,3010
21548,3010
21548,3286
21509,3286
" /> 
<polyline style="fill-rule:evenodd;"
points="21351,3286
21351,3010
21391,3010
21391,3286
21351,3286
" /> 
<polyline style="fill-rule:evenodd;"
points="21194,3286
21194,3010
21233,3010
21233,3286
21194,3286
" /> 
<polyline style="fill-rule:evenodd;"
points="21036,3286
21036,3010
21076,3010
21076,3286
21036,3286
" /> 
<polyline style="fill-rule:evenodd;"
points="20879,3286
20879,3010
20918,3010
20918,3286
20879,3286
" /> 
<polyline style="fill-rule:evenodd;"
points="20722,3286
20722,3010
20761,3010
20761,3286
20722,3286
" /> 
<polyline style="fill-rule:evenodd;"
points="19777,5215
19777,3443
21548,3443
21548,5215
19777,5215
" /> 
<polyline style="fill-rule:evenodd;"
points="19777,3286
19777,3010
19816,3010
19816,3286
19777,3286
" /> 
<polyline style="fill-rule:evenodd;"
points="19934,3286
19934,3010
19973,3010
19973,3286
19934,3286
" /> 
<polyline style="fill-rule:evenodd;"
points="20092,3286
20092,3010
20131,3010
20131,3286
20092,3286
" /> 
<polyline style="fill-rule:evenodd;"
points="20249,3286
20249,3010
20288,3010
20288,3286
20249,3286
" /> 
<polyline style="fill-rule:evenodd;"
points="20407,3286
20407,3010
20446,3010
20446,3286
20407,3286
" /> 
<polyline style="fill-rule:evenodd;"
points="20564,3286
20564,3010
20603,3010
20603,3286
20564,3286
" /> 
<polyline style="fill-rule:evenodd;"
points="20352,7196
20234,7196
20234,7137
20352,7137
20352,7196
" /> 
<polyline style="fill-rule:evenodd;"
points="20352,6999
20234,6999
20234,6940
20352,6940
20352,6999
" /> 
<polyline style="fill-rule:evenodd;"
points="20352,6802
20234,6802
20234,6743
20352,6743
20352,6802
" /> 
<polyline style="fill-rule:evenodd;"
points="19841,6802
19722,6802
19722,6743
19841,6743
19841,6802
" /> 
<polyline style="fill-rule:evenodd;"
points="19841,6999
19722,6999
19722,6940
19841,6940
19841,6999
" /> 
<polyline style="fill-rule:evenodd;"
points="19841,7196
19722,7196
19722,7137
19841,7137
19841,7196
" /> 
<polyline style="fill-rule:evenodd;"
points="20935,1108
21074,1247
20991,1330
20852,1191
20935,1108
" /> 
<polyline style="fill-rule:evenodd;"
points="20685,1358
20824,1497
20740,1580
20601,1441
20685,1358
" /> 
<polyline style="fill-rule:evenodd;"
points="21730,1870
22009,1592
22315,1898
22036,2176
21730,1870
" /> 
<polyline style="fill-rule:evenodd;"
points="21340,2260
21619,1982
21925,2288
21647,2566
21340,2260
" /> 
<polyline style="fill-rule:evenodd;"
points="20867,1787
21146,1508
21452,1815
21173,2093
20867,1787
" /> 
<polyline style="fill-rule:evenodd;"
points="21257,1397
21535,1119
21841,1425
21563,1703
21257,1397
" /> 
<polyline style="fill-rule:evenodd;"
points="18934,5158
19131,5158
19131,5276
18934,5276
18934,5158
" /> 
<polyline style="fill-rule:evenodd;"
points="18934,5512
19131,5512
19131,5630
18934,5630
18934,5512
" /> 
<circle cx="6673.34" cy="6444.69" r="541.339" /> 
<circle cx="4822.95" cy="6444.69" r="541.339" /> 
<circle cx="2972.55" cy="6444.69" r="541.339" /> 
<circle cx="7423.34" cy="10196.7" r="541.339" /> 
<circle cx="2222.55" cy="10196.7" r="541.339" /> 
</g>
<g style="fill:#840000; fill-opacity:1.0; 
stroke:#840000; stroke-width:393.701; stroke-opacity:1; 
stroke-linecap:round; stroke-linejoin:round;">
</g>
<g style="fill:#840000; fill-opacity:0.0; 
stroke:#840000; stroke-width:393.701; stroke-opacity:1; 
stroke-linecap:round; stroke-linejoin:round;">
<path d="M1856 4283
L2329 4283
" />
<path d="M1856 385
L2329 385
" />
<path d="M3470 4283
L3864 4283
" />
<path d="M3470 385
L3864 385
" />
</g>
<g style="fill:#840000; fill-opacity:0.0; 
stroke:#840000; stroke-width:39.3701; stroke-opacity:1; 
stroke-linecap:round; stroke-linejoin:round;">
</g>
<g style="fill:#840000; fill-opacity:1.0; 
stroke:#840000; stroke-width:39.3701; stroke-opacity:1; 
stroke-linecap:round; stroke-linejoin:round;">
<polyline style="fill-rule:evenodd;"
points="22790,4051
22790,3992
22829,3992
22829,4051
22790,4051
" /> 
<polyline style="fill-rule:evenodd;"
points="22593,4051
22593,3992
22632,3992
22632,4051
22593,4051
" /> 
<polyline style="fill-rule:evenodd;"
points="22396,4051
22396,3992
22435,3992
22435,4051
22396,4051
" /> 
<polyline style="fill-rule:evenodd;"
points="22396,4366
22396,4307
22435,4307
22435,4366
22396,4366
" /> 
<polyline style="fill-rule:evenodd;"
points="22593,4366
22593,4307
22632,4307
22632,4366
22593,4366
" /> 
<polyline style="fill-rule:evenodd;"
points="22790,4366
22790,4307
22829,4307
22829,4366
22790,4366
" /> 
<circle cx="8982.95" cy="2224.69" r="216.535" /> 
<circle cx="8982.95" cy="1224.69" r="216.535" /> 
<polyline style="fill-rule:evenodd;"
points="19052,8894
19463,8894
19463,9105
19052,9105
19052,8894
" /> 
<polyline style="fill-rule:evenodd;"
points="19052,9494
19463,9494
19463,9705
19052,9705
19052,9494
" /> 
<polyline style="fill-rule:evenodd;"
points="21718,8245
21307,8245
21307,8034
21718,8034
21718,8245
" /> 
<polyline style="fill-rule:evenodd;"
points="21718,7645
21307,7645
21307,7434
21718,7434
21718,7645
" /> 
<polyline style="fill-rule:evenodd;"
points="9507,7565
9507,7154
9718,7154
9718,7565
9507,7565
" /> 
<polyline style="fill-rule:evenodd;"
points="10107,7565
10107,7154
10318,7154
10318,7565
10107,7565
" /> 
<polyline style="fill-rule:evenodd;"
points="19453,6964
19453,7375
19242,7375
19242,6964
19453,6964
" /> 
<polyline style="fill-rule:evenodd;"
points="18853,6964
18853,7375
18642,7375
18642,6964
18853,6964
" /> 
<polyline style="fill-rule:evenodd;"
points="18642,8255
18642,7844
18853,7844
18853,8255
18642,8255
" /> 
<polyline style="fill-rule:evenodd;"
points="19242,8255
19242,7844
19453,7844
19453,8255
19242,8255
" /> 
<polyline style="fill-rule:evenodd;"
points="9718,7789
9718,8200
9507,8200
9507,7789
9718,7789
" /> 
<polyline style="fill-rule:evenodd;"
points="9118,7789
9118,8200
8907,8200
8907,7789
9118,7789
" /> 
<polyline style="fill-rule:evenodd;"
points="10313,5209
10313,5620
10102,5620
10102,5209
10313,5209
" /> 
<polyline style="fill-rule:evenodd;"
points="9713,5209
9713,5620
9502,5620
9502,5209
9713,5209
" /> 
<polyline style="fill-rule:evenodd;"
points="8917,10140
8917,9729
9128,9729
9128,10140
8917,10140
" /> 
<polyline style="fill-rule:evenodd;"
points="9517,10140
9517,9729
9728,9729
9728,10140
9517,10140
" /> 
<polyline style="fill-rule:evenodd;"
points="19161,3465
18964,3465
18964,3347
19161,3347
19161,3465
" /> 
<polyline style="fill-rule:evenodd;"
points="19161,3111
18964,3111
18964,2993
19161,2993
19161,3111
" /> 
<polyline style="fill-rule:evenodd;"
points="11562,3359
11973,3359
11973,3570
11562,3570
11562,3359
" /> 
<polyline style="fill-rule:evenodd;"
points="11562,3959
11973,3959
11973,4170
11562,4170
11562,3959
" /> 
<polyline style="fill-rule:evenodd;"
points="22255,2895
22116,2756
22200,2673
22339,2812
22255,2895
" /> 
<polyline style="fill-rule:evenodd;"
points="22506,2645
22367,2506
22450,2423
22589,2562
22506,2645
" /> 
<polyline style="fill-rule:evenodd;"
points="23053,4531
23053,4728
22936,4728
22936,4531
23053,4531
" /> 
<polyline style="fill-rule:evenodd;"
points="22699,4531
22699,4728
22582,4728
22582,4531
22699,4531
" /> 
<polyline style="fill-rule:evenodd;"
points="21134,2411
20995,2550
20911,2467
21051,2328
21134,2411
" /> 
<polyline style="fill-rule:evenodd;"
points="20883,2161
20744,2300
20661,2217
20800,2078
20883,2161
" /> 
<polyline style="fill-rule:evenodd;"
points="22577,5178
22577,4981
22694,4981
22694,5178
22577,5178
" /> 
<polyline style="fill-rule:evenodd;"
points="22931,5178
22931,4981
23048,4981
23048,5178
22931,5178
" /> 
<polyline style="fill-rule:evenodd;"
points="10402,10665
10402,10254
10613,10254
10613,10665
10402,10665
" /> 
<polyline style="fill-rule:evenodd;"
points="11002,10665
11002,10254
11213,10254
11213,10665
11002,10665
" /> 
<polyline style="fill-rule:evenodd;"
points="12398,8520
11987,8520
11987,8309
12398,8309
12398,8520
" /> 
<polyline style="fill-rule:evenodd;"
points="12398,7920
11987,7920
11987,7709
12398,7709
12398,7920
" /> 
<polyline style="fill-rule:evenodd;"
points="22464,1501
22325,1640
22241,1557
22380,1418
22464,1501
" /> 
<polyline style="fill-rule:evenodd;"
points="22213,1251
22074,1390
21991,1307
22130,1168
22213,1251
" /> 
<polyline style="fill-rule:evenodd;"
points="22397,3568
22397,3371
22514,3371
22514,3568
22397,3568
" /> 
<polyline style="fill-rule:evenodd;"
points="22751,3568
22751,3371
22868,3371
22868,3568
22751,3568
" /> 
<polyline style="fill-rule:evenodd;"
points="18446,3210
18249,3210
18249,3092
18446,3092
18446,3210
" /> 
<polyline style="fill-rule:evenodd;"
points="18446,2856
18249,2856
18249,2738
18446,2738
18446,2856
" /> 
<polyline style="fill-rule:evenodd;"
points="14577,3969
15128,3969
15128,4520
14577,4520
14577,3969
" /> 
<circle cx="14852.9" cy="1244.69" r="275.591" /> 
<polyline style="fill-rule:evenodd;"
points="15533,7755
14982,7755
14982,7204
15533,7204
15533,7755
" /> 
<circle cx="15257.9" cy="10479.7" r="275.591" /> 
<polyline style="fill-rule:evenodd;"
points="7544,5536
8961,5536
8961,5970
7544,5970
7544,5536
" /> 
<polyline style="fill-rule:evenodd;"
points="7544,6639
8961,6639
8961,7072
7544,7072
7544,6639
" /> 
<polyline style="fill-rule:evenodd;"
points="11591,9817
10174,9817
10174,9384
11591,9384
11591,9817
" /> 
<polyline style="fill-rule:evenodd;"
points="11591,8715
10174,8715
10174,8281
11591,8281
11591,8715
" /> 
<polyline style="fill-rule:evenodd;"
points="10984,5148
11181,5148
11181,5266
10984,5266
10984,5148
" /> 
<polyline style="fill-rule:evenodd;"
points="10984,5502
11181,5502
11181,5620
10984,5620
10984,5502
" /> 
<polyline style="fill-rule:evenodd;"
points="9657,10558
9657,10361
9774,10361
9774,10558
9657,10558
" /> 
<polyline style="fill-rule:evenodd;"
points="10011,10558
10011,10361
10128,10361
10128,10558
10011,10558
" /> 
<polyline style="fill-rule:evenodd;"
points="13828,1224
13828,2685
13317,2685
13317,1224
13828,1224
" /> 
<polyline style="fill-rule:evenodd;"
points="12028,1224
12028,2685
11517,2685
11517,1224
12028,1224
" /> 
<polyline style="fill-rule:evenodd;"
points="14243,9179
14243,10640
13732,10640
13732,9179
14243,9179
" /> 
<polyline style="fill-rule:evenodd;"
points="12443,9179
12443,10640
11932,10640
11932,9179
12443,9179
" /> 
<polyline style="fill-rule:evenodd;"
points="18733,3451
18733,3648
18616,3648
18616,3451
18733,3451
" /> 
<polyline style="fill-rule:evenodd;"
points="18379,3451
18379,3648
18262,3648
18262,3451
18379,3451
" /> 
<polyline style="fill-rule:evenodd;"
points="18046,3610
17849,3610
17849,3492
18046,3492
18046,3610
" /> 
<polyline style="fill-rule:evenodd;"
points="18046,3256
17849,3256
17849,3138
18046,3138
18046,3256
" /> 
<circle cx="13677.1" cy="5079.69" r="196.85" /> 
<circle cx="14562.9" cy="5079.69" r="196.85" /> 
<circle cx="15448.8" cy="5079.69" r="196.85" /> 
<circle cx="13697.1" cy="6779.69" r="196.85" /> 
<circle cx="14582.9" cy="6779.69" r="196.85" /> 
<circle cx="15468.8" cy="6779.69" r="196.85" /> 
<polyline style="fill-rule:evenodd;"
points="10564,5148
10761,5148
10761,5266
10564,5266
10564,5148
" /> 
<polyline style="fill-rule:evenodd;"
points="10564,5502
10761,5502
10761,5620
10564,5620
10564,5502
" /> 
<polyline style="fill-rule:evenodd;"
points="9433,10361
9433,10558
9316,10558
9316,10361
9433,10361
" /> 
<polyline style="fill-rule:evenodd;"
points="9079,10361
9079,10558
8962,10558
8962,10361
9079,10361
" /> 
<polyline style="fill-rule:evenodd;"
points="12777,4974
13188,4974
13188,5185
12777,5185
12777,4974
" /> 
<polyline style="fill-rule:evenodd;"
points="12777,5574
13188,5574
13188,5785
12777,5785
12777,5574
" /> 
<polyline style="fill-rule:evenodd;"
points="12547,4590
12547,4179
12758,4179
12758,4590
12547,4590
" /> 
<polyline style="fill-rule:evenodd;"
points="13147,4590
13147,4179
13358,4179
13358,4590
13147,4590
" /> 
<polyline style="fill-rule:evenodd;"
points="16633,2409
16633,2820
16422,2820
16422,2409
16633,2409
" /> 
<polyline style="fill-rule:evenodd;"
points="16033,2409
16033,2820
15822,2820
15822,2409
16033,2409
" /> 
<polyline style="fill-rule:evenodd;"
points="13188,6895
12777,6895
12777,6684
13188,6684
13188,6895
" /> 
<polyline style="fill-rule:evenodd;"
points="13188,6295
12777,6295
12777,6084
13188,6084
13188,6295
" /> 
<polyline style="fill-rule:evenodd;"
points="12992,7730
12992,7319
13203,7319
13203,7730
12992,7730
" /> 
<polyline style="fill-rule:evenodd;"
points="13592,7730
13592,7319
13803,7319
13803,7730
13592,7730
" /> 
<polyline style="fill-rule:evenodd;"
points="16998,9099
16998,9510
16787,9510
16787,9099
16998,9099
" /> 
<polyline style="fill-rule:evenodd;"
points="16398,9099
16398,9510
16187,9510
16187,9099
16398,9099
" /> 
<polyline style="fill-rule:evenodd;"
points="24593,2041
24002,2041
24002,1766
24593,1766
24593,2041
" /> 
<polyline style="fill-rule:evenodd;"
points="24593,703
24002,703
24002,427
24593,427
24593,703
" /> 
<polyline style="fill-rule:evenodd;"
points="20959,8849
20959,8770
21254,8770
21254,8849
20959,8849
" /> 
<polyline style="fill-rule:evenodd;"
points="20959,9045
20959,8967
21254,8967
21254,9045
20959,9045
" /> 
<polyline style="fill-rule:evenodd;"
points="20959,9242
20959,9164
21254,9164
21254,9242
20959,9242
" /> 
<polyline style="fill-rule:evenodd;"
points="20959,9439
20959,9360
21254,9360
21254,9439
20959,9439
" /> 
<polyline style="fill-rule:evenodd;"
points="20959,9636
20959,9557
21254,9557
21254,9636
20959,9636
" /> 
<polyline style="fill-rule:evenodd;"
points="19797,9636
19797,9557
20093,9557
20093,9636
19797,9636
" /> 
<polyline style="fill-rule:evenodd;"
points="19797,9439
19797,9360
20093,9360
20093,9439
19797,9439
" /> 
<polyline style="fill-rule:evenodd;"
points="19797,9242
19797,9164
20093,9164
20093,9242
19797,9242
" /> 
<polyline style="fill-rule:evenodd;"
points="19797,9045
19797,8967
20093,8967
20093,9045
19797,9045
" /> 
<polyline style="fill-rule:evenodd;"
points="19797,8849
19797,8770
20093,8770
20093,8849
19797,8849
" /> 
<circle cx="20112.9" cy="8809.69" r="39.3701" /> 
<circle cx="20112.9" cy="9006.54" r="39.3701" /> 
<circle cx="20112.9" cy="9203.39" r="39.3701" /> 
<circle cx="20112.9" cy="9400.24" r="39.3701" /> 
<circle cx="20112.9" cy="9597.09" r="39.3701" /> 
<circle cx="20939.7" cy="9597.09" r="39.3701" /> 
<circle cx="20939.7" cy="9400.24" r="39.3701" /> 
<circle cx="20939.7" cy="9203.39" r="39.3701" /> 
<circle cx="20939.7" cy="9006.54" r="39.3701" /> 
<circle cx="20939.7" cy="8809.69" r="39.3701" /> 
<polyline style="fill-rule:evenodd;"
points="20270,9695
20270,8711
20782,8711
20782,9695
20270,9695
" /> 
<polyline style="fill-rule:evenodd;"
points="20759,8357
20759,8259
21015,8259
21015,8357
20759,8357
" /> 
<polyline style="fill-rule:evenodd;"
points="20759,8101
20759,8003
21015,8003
21015,8101
20759,8101
" /> 
<polyline style="fill-rule:evenodd;"
points="20759,7590
20759,7491
21015,7491
21015,7590
20759,7590
" /> 
<polyline style="fill-rule:evenodd;"
points="20759,7845
20759,7747
21015,7747
21015,7845
20759,7845
" /> 
<polyline style="fill-rule:evenodd;"
points="20030,7845
20030,7747
20286,7747
20286,7845
20030,7845
" /> 
<polyline style="fill-rule:evenodd;"
points="20030,7590
20030,7491
20286,7491
20286,7590
20030,7590
" /> 
<polyline style="fill-rule:evenodd;"
points="20030,8101
20030,8003
20286,8003
20286,8101
20030,8101
" /> 
<polyline style="fill-rule:evenodd;"
points="20030,8357
20030,8259
20286,8259
20286,8357
20030,8357
" /> 
<polyline style="fill-rule:evenodd;"
points="9470,6015
9273,6015
9273,5976
9470,5976
9470,6015
" /> 
<polyline style="fill-rule:evenodd;"
points="9470,6173
9273,6173
9273,6133
9470,6133
9470,6173
" /> 
<polyline style="fill-rule:evenodd;"
points="9470,6330
9273,6330
9273,6291
9470,6291
9470,6330
" /> 
<polyline style="fill-rule:evenodd;"
points="9470,6488
9273,6488
9273,6448
9470,6448
9470,6488
" /> 
<polyline style="fill-rule:evenodd;"
points="9470,6645
9273,6645
9273,6606
9470,6606
9470,6645
" /> 
<polyline style="fill-rule:evenodd;"
points="9470,6803
9273,6803
9273,6763
9470,6763
9470,6803
" /> 
<polyline style="fill-rule:evenodd;"
points="10572,6803
10375,6803
10375,6763
10572,6763
10572,6803
" /> 
<polyline style="fill-rule:evenodd;"
points="10572,6645
10375,6645
10375,6606
10572,6606
10572,6645
" /> 
<polyline style="fill-rule:evenodd;"
points="10572,6488
10375,6488
10375,6448
10572,6448
10572,6488
" /> 
<polyline style="fill-rule:evenodd;"
points="10572,6330
10375,6330
10375,6291
10572,6291
10572,6330
" /> 
<polyline style="fill-rule:evenodd;"
points="10572,6173
10375,6173
10375,6133
10572,6133
10572,6173
" /> 
<polyline style="fill-rule:evenodd;"
points="10572,6015
10375,6015
10375,5976
10572,5976
10572,6015
" /> 
<polyline style="fill-rule:evenodd;"
points="10233,6803
9611,6803
9611,5976
10233,5976
10233,6803
" /> 
<polyline style="fill-rule:evenodd;"
points="9775,9343
9972,9343
9972,9383
9775,9383
9775,9343
" /> 
<polyline style="fill-rule:evenodd;"
points="9775,9186
9972,9186
9972,9225
9775,9225
9775,9186
" /> 
<polyline style="fill-rule:evenodd;"
points="9775,9028
9972,9028
9972,9068
9775,9068
9775,9028
" /> 
<polyline style="fill-rule:evenodd;"
points="9775,8871
9972,8871
9972,8910
9775,8910
9775,8871
" /> 
<polyline style="fill-rule:evenodd;"
points="9775,8713
9972,8713
9972,8753
9775,8753
9775,8713
" /> 
<polyline style="fill-rule:evenodd;"
points="9775,8556
9972,8556
9972,8595
9775,8595
9775,8556
" /> 
<polyline style="fill-rule:evenodd;"
points="8673,8556
8870,8556
8870,8595
8673,8595
8673,8556
" /> 
<polyline style="fill-rule:evenodd;"
points="8673,8713
8870,8713
8870,8753
8673,8753
8673,8713
" /> 
<polyline style="fill-rule:evenodd;"
points="8673,8871
8870,8871
8870,8910
8673,8910
8673,8871
" /> 
<polyline style="fill-rule:evenodd;"
points="8673,9028
8870,9028
8870,9068
8673,9068
8673,9028
" /> 
<polyline style="fill-rule:evenodd;"
points="8673,9186
8870,9186
8870,9225
8673,9225
8673,9186
" /> 
<polyline style="fill-rule:evenodd;"
points="8673,9343
8870,9343
8870,9383
8673,9383
8673,9343
" /> 
<polyline style="fill-rule:evenodd;"
points="9011,8556
9633,8556
9633,9383
9011,9383
9011,8556
" /> 
<polyline style="fill-rule:evenodd;"
points="11828,5660
11417,5660
11417,5449
11828,5449
11828,5660
" /> 
<polyline style="fill-rule:evenodd;"
points="11828,5060
11417,5060
11417,4849
11828,4849
11828,5060
" /> 
<polyline style="fill-rule:evenodd;"
points="20764,6601
20625,6740
20541,6657
20681,6518
20764,6601
" /> 
<polyline style="fill-rule:evenodd;"
points="20513,6351
20374,6490
20291,6407
20430,6268
20513,6351
" /> 
<polyline style="fill-rule:evenodd;"
points="19710,6028
19710,5831
19827,5831
19827,6028
19710,6028
" /> 
<polyline style="fill-rule:evenodd;"
points="20064,6028
20064,5831
20181,5831
20181,6028
20064,6028
" /> 
<polyline style="fill-rule:evenodd;"
points="19540,6453
19540,6256
19657,6256
19657,6453
19540,6453
" /> 
<polyline style="fill-rule:evenodd;"
points="19894,6453
19894,6256
20011,6256
20011,6453
19894,6453
" /> 
<circle cx="24322.9" cy="9099.69" r="196.85" /> 
<circle cx="24322.9" cy="8599.69" r="196.85" /> 
<circle cx="24322.9" cy="8099.69" r="196.85" /> 
<polyline style="fill-rule:evenodd;"
points="24519,7796
24126,7796
24126,7402
24519,7402
24519,7796
" /> 
<circle cx="24317.9" cy="6684.69" r="196.85" /> 
<circle cx="24317.9" cy="6184.69" r="196.85" /> 
<circle cx="24317.9" cy="5684.69" r="196.85" /> 
<polyline style="fill-rule:evenodd;"
points="24514,5381
24121,5381
24121,4987
24514,4987
24514,5381
" /> 
<circle cx="21772.9" cy="10384.7" r="196.85" /> 
<circle cx="22272.9" cy="10384.7" r="196.85" /> 
<circle cx="22772.9" cy="10384.7" r="196.85" /> 
<circle cx="23272.9" cy="10384.7" r="196.85" /> 
<circle cx="23772.9" cy="10384.7" r="196.85" /> 
<polyline style="fill-rule:evenodd;"
points="24076,10581
24076,10187
24469,10187
24469,10581
24076,10581
" /> 
<circle cx="16852.9" cy="10379.7" r="196.85" /> 
<circle cx="17352.9" cy="10379.7" r="196.85" /> 
<circle cx="17852.9" cy="10379.7" r="196.85" /> 
<polyline style="fill-rule:evenodd;"
points="18156,10576
18156,10182
18549,10182
18549,10576
18156,10576
" /> 
<circle cx="19362.9" cy="534.685" r="196.85" /> 
<circle cx="18862.9" cy="534.685" r="196.85" /> 
<circle cx="18362.9" cy="534.685" r="196.85" /> 
<circle cx="17862.9" cy="534.685" r="196.85" /> 
<circle cx="17362.9" cy="534.685" r="196.85" /> 
<circle cx="16862.9" cy="534.685" r="196.85" /> 
<circle cx="16362.9" cy="534.685" r="196.85" /> 
<circle cx="15862.9" cy="534.685" r="196.85" /> 
<polyline style="fill-rule:evenodd;"
points="15559,337
15559,731
15166,731
15166,337
15559,337
" /> 
<polyline style="fill-rule:evenodd;"
points="12272,3840
12272,3079
13033,3079
13033,3840
12272,3840
" /> 
</g>
<g style="fill:#840000; fill-opacity:1.0; 
stroke:#840000; stroke-width:800; stroke-opacity:1; 
stroke-linecap:round; stroke-linejoin:round;">
</g>
<g style="fill:#840000; fill-opacity:0.0; 
stroke:#840000; stroke-width:800; stroke-opacity:1; 
stroke-linecap:round; stroke-linejoin:round;">
<path d="M13652 3459
L13652 3459
" />
</g>
<g style="fill:#840000; fill-opacity:0.0; 
stroke:#840000; stroke-width:39.3701; stroke-opacity:1; 
stroke-linecap:round; stroke-linejoin:round;">
</g>
<g style="fill:#840000; fill-opacity:1.0; 
stroke:#840000; stroke-width:39.3701; stroke-opacity:1; 
stroke-linecap:round; stroke-linejoin:round;">
<polyline style="fill-rule:evenodd;"
points="17668,8014
17668,8775
16907,8775
16907,8014
17668,8014
" /> 
</g>
<g style="fill:#840000; fill-opacity:1.0; 
stroke:#840000; stroke-width:800; stroke-opacity:1; 
stroke-linecap:round; stroke-linejoin:round;">
</g>
<g style="fill:#840000; fill-opacity:0.0; 
stroke:#840000; stroke-width:800; stroke-opacity:1; 
stroke-linecap:round; stroke-linejoin:round;">
<path d="M16287 8394
L16287 8394
" />
</g>
<g style="fill:#840000; fill-opacity:0.0; 
stroke:#840000; stroke-width:39.3701; stroke-opacity:1; 
stroke-linecap:round; stroke-linejoin:round;">
</g>
<g style="fill:#840000; fill-opacity:1.0; 
stroke:#840000; stroke-width:39.3701; stroke-opacity:1; 
stroke-linecap:round; stroke-linejoin:round;">
<polyline style="fill-rule:evenodd;"
points="12717,8785
12717,8024
13478,8024
13478,8785
12717,8785
" /> 
</g>
<g style="fill:#840000; fill-opacity:1.0; 
stroke:#840000; stroke-width:800; stroke-opacity:1; 
stroke-linecap:round; stroke-linejoin:round;">
</g>
<g style="fill:#840000; fill-opacity:0.0; 
stroke:#840000; stroke-width:800; stroke-opacity:1; 
stroke-linecap:round; stroke-linejoin:round;">
<path d="M14097 8404
L14097 8404
" />
</g>
<g style="fill:#C2C2C2; fill-opacity:0.0; 
stroke:#C2C2C2; stroke-width:39.3701; stroke-opacity:1; 
stroke-linecap:round; stroke-linejoin:round;">
</g>
<g style="fill:#C2C2C2; fill-opacity:1.0; 
stroke:#C2C2C2; stroke-width:39.3701; stroke-opacity:1; 
stroke-linecap:round; stroke-linejoin:round;">
<circle cx="8222.95" cy="9424.69" r="155.315" /> 
<circle cx="7777.95" cy="9429.69" r="80.315" /> 
<circle cx="9497.95" cy="9244.69" r="80.315" /> 
<circle cx="9152.95" cy="9244.69" r="80.315" /> 
<circle cx="9147.95" cy="8694.69" r="80.315" /> 
<circle cx="9322.95" cy="8969.69" r="80.315" /> 
<circle cx="9497.95" cy="8694.69" r="80.315" /> 
<circle cx="10092.9" cy="6664.69" r="80.315" /> 
<circle cx="9747.95" cy="6664.69" r="80.315" /> 
<circle cx="9747.95" cy="6114.69" r="80.315" /> 
<circle cx="9922.95" cy="6389.69" r="80.315" /> 
<circle cx="10092.9" cy="6114.69" r="80.315" /> 
<circle cx="20557.9" cy="1974.69" r="80.315" /> 
<circle cx="20372.9" cy="1789.69" r="80.315" /> 
<circle cx="20497.9" cy="7349.69" r="80.315" /> 
<circle cx="19572.9" cy="8519.69" r="80.315" /> 
<circle cx="19782.9" cy="8309.69" r="80.315" /> 
<circle cx="19572.9" cy="8784.69" r="80.315" /> 
<circle cx="21902.9" cy="8764.69" r="80.315" /> 
<circle cx="21632.9" cy="8489.69" r="80.315" /> 
<circle cx="21632.9" cy="8764.69" r="80.315" /> 
<circle cx="21902.9" cy="8489.69" r="80.315" /> 
<circle cx="18682.9" cy="8999.69" r="155.315" /> 
<circle cx="18682.9" cy="9409.69" r="155.315" /> 
<circle cx="22787.9" cy="2834.69" r="80.315" /> 
<circle cx="22527.9" cy="3094.69" r="80.315" /> 
<circle cx="20162.9" cy="4329.69" r="80.315" /> 
<circle cx="20662.9" cy="3829.69" r="80.315" /> 
<circle cx="21162.9" cy="4329.69" r="80.315" /> 
<circle cx="20662.9" cy="4829.69" r="80.315" /> 
<circle cx="21162.9" cy="4829.69" r="155.315" /> 
<circle cx="20162.9" cy="4829.69" r="155.315" /> 
<circle cx="20162.9" cy="3829.69" r="155.315" /> 
<circle cx="20662.9" cy="4329.69" r="155.315" /> 
<circle cx="21162.9" cy="3829.69" r="155.315" /> 
<circle cx="5962.95" cy="2229.69" r="155.315" /> 
<circle cx="4822.95" cy="904.685" r="155.315" /> 
<circle cx="4832.95" cy="494.685" r="155.315" /> 
<circle cx="5247.95" cy="494.685" r="155.315" /> 
<circle cx="5247.95" cy="904.685" r="155.315" /> 
<circle cx="5972.95" cy="1819.69" r="155.315" /> 
<circle cx="6832.95" cy="4269.69" r="155.315" /> 
<circle cx="6367.95" cy="4269.69" r="155.315" /> 
<circle cx="9607.95" cy="4959.69" r="155.315" /> 
<circle cx="9607.95" cy="4584.69" r="155.315" /> 
<circle cx="9982.95" cy="4584.69" r="155.315" /> 
<circle cx="9982.95" cy="4959.69" r="155.315" /> 
<circle cx="9042.95" cy="6309.69" r="80.315" /> 
<circle cx="8887.95" cy="6154.69" r="80.315" /> 
<circle cx="8887.95" cy="6459.65" r="80.315" /> 
<circle cx="8672.95" cy="6459.65" r="80.315" /> 
<circle cx="8672.95" cy="6154.69" r="80.315" /> 
<circle cx="10752.9" cy="6469.69" r="80.315" /> 
<circle cx="10967.9" cy="6469.69" r="80.315" /> 
<circle cx="10192.9" cy="9049.69" r="80.315" /> 
<circle cx="10347.9" cy="8894.73" r="80.315" /> 
<circle cx="10347.9" cy="9204.65" r="80.315" /> 
<circle cx="8452.95" cy="8889.69" r="80.315" /> 
<circle cx="8222.95" cy="8889.69" r="80.315" /> 
<circle cx="10572.9" cy="8897.41" r="80.315" /> 
<circle cx="10572.9" cy="9204.65" r="80.315" /> 
<circle cx="10967.9" cy="6049.69" r="155.315" /> 
<circle cx="9922.95" cy="9794.69" r="80.315" /> 
<circle cx="9922.95" cy="10044.7" r="80.315" /> 
<circle cx="11107.9" cy="10044.7" r="80.315" /> 
<circle cx="11522.9" cy="10459.7" r="80.315" /> 
<circle cx="11522.9" cy="10044.7" r="80.315" /> 
<circle cx="11222.9" cy="4064.69" r="155.315" /> 
<circle cx="10787.9" cy="4064.69" r="155.315" /> 
<circle cx="11222.9" cy="3629.69" r="155.315" /> 
<circle cx="10787.9" cy="3629.69" r="155.315" /> 
<circle cx="8167.95" cy="7994.69" r="155.315" /> 
<circle cx="8587.95" cy="7994.69" r="155.315" /> 
<circle cx="10642.9" cy="7359.69" r="155.315" /> 
<circle cx="11057.9" cy="7359.69" r="155.315" /> 
<circle cx="23327.9" cy="5074.69" r="155.315" /> 
<circle cx="23327.9" cy="4629.69" r="155.315" /> 
<circle cx="22722.9" cy="2289.69" r="155.315" /> 
<circle cx="22987.9" cy="2024.69" r="155.315" /> 
<circle cx="21547.9" cy="904.685" r="155.315" /> 
<circle cx="21547.9" cy="529.685" r="155.315" /> 
<circle cx="18347.9" cy="2504.69" r="80.315" /> 
<circle cx="18347.9" cy="2284.69" r="80.315" /> 
<circle cx="21532.9" cy="9204.69" r="155.315" /> 
<circle cx="21537.9" cy="9589.69" r="155.315" /> 
<circle cx="19192.9" cy="5924.69" r="80.315" /> 
<circle cx="19467.9" cy="5924.69" r="80.315" /> 
<circle cx="19192.9" cy="6194.69" r="80.315" /> 
<circle cx="19257.9" cy="10429.7" r="155.315" /> 
<circle cx="19677.9" cy="10429.7" r="155.315" /> 
<circle cx="19257.9" cy="10009.7" r="155.315" /> 
<circle cx="19677.9" cy="10009.7" r="155.315" /> 
<circle cx="20732.9" cy="6949.69" r="80.315" /> 
<circle cx="21122.9" cy="7319.69" r="80.315" /> 
<circle cx="20927.9" cy="7139.69" r="80.315" /> 
<circle cx="19692.9" cy="7379.69" r="80.315" /> 
<circle cx="19692.9" cy="7839.69" r="80.315" /> 
<circle cx="19692.9" cy="7614.69" r="80.315" /> 
<circle cx="10172.9" cy="10174.7" r="80.315" /> 
<circle cx="10372.9" cy="10044.7" r="80.315" /> 
<circle cx="10642.9" cy="10044.7" r="80.315" /> 
<circle cx="19402.9" cy="2944.69" r="80.315" /> 
<circle cx="19247.9" cy="2729.69" r="80.315" /> 
<circle cx="18662.9" cy="3149.69" r="80.315" /> 
<circle cx="21837.9" cy="3144.69" r="80.315" /> 
<circle cx="12552.9" cy="5934.69" r="80.315" /> 
<circle cx="9442.95" cy="6979.69" r="80.315" /> 
</g>
<g style="fill:#840000; fill-opacity:1.0; 
stroke:#840000; stroke-width:606.299; stroke-opacity:1; 
stroke-linecap:round; stroke-linejoin:round;">
</g>
<g style="fill:#840000; fill-opacity:0.0; 
stroke:#840000; stroke-width:606.299; stroke-opacity:1; 
stroke-linecap:round; stroke-linejoin:round;">
<path d="M23678 4022
L23470 4022
" />
<path d="M24005 4022
L23678 4022
" />
<path d="M24297 2048
L24297 3729
" />
<path d="M24297 3729
L24005 4022
" />
</g>
<g style="fill:#840000; fill-opacity:0.0; 
stroke:#840000; stroke-width:500; stroke-opacity:1; 
stroke-linecap:round; stroke-linejoin:round;">
<path d="M23199 4022
L23678 4022
" />
</g>
<g style="fill:#840000; fill-opacity:0.0; 
stroke:#840000; stroke-width:60; stroke-opacity:1; 
stroke-linecap:round; stroke-linejoin:round;">
<path d="M23115 4022
L23199 4022
" />
<path d="M23074 4022
L23115 4022
" />
<path d="M23199 4022
L23470 4022
" />
</g>
<g style="fill:#840000; fill-opacity:0.0; 
stroke:#840000; stroke-width:400; stroke-opacity:1; 
stroke-linecap:round; stroke-linejoin:round;">
<path d="M23115 4022
L23470 4022
" />
</g>
<g style="fill:#840000; fill-opacity:0.0; 
stroke:#840000; stroke-width:300; stroke-opacity:1; 
stroke-linecap:round; stroke-linejoin:round;">
<path d="M23020 4022
L23199 4022
" />
</g>
<g style="fill:#840000; fill-opacity:0.0; 
stroke:#840000; stroke-width:100; stroke-opacity:1; 
stroke-linecap:round; stroke-linejoin:round;">
<path d="M22959 4022
L23020 4022
" />
</g>
<g style="fill:#840000; fill-opacity:0.0; 
stroke:#840000; stroke-width:60; stroke-opacity:1; 
stroke-linecap:round; stroke-linejoin:round;">
<path d="M22876 4022
L23074 4022
" />
</g>
<g style="fill:#840000; fill-opacity:0.0; 
stroke:#840000; stroke-width:100; stroke-opacity:1; 
stroke-linecap:round; stroke-linejoin:round;">
<path d="M22876 4022
L22959 4022
" />
</g>
<g style="fill:#840000; fill-opacity:0.0; 
stroke:#840000; stroke-width:200; stroke-opacity:1; 
stroke-linecap:round; stroke-linejoin:round;">
<path d="M22959 4022
L23074 4022
" />
</g>
<g style="fill:#840000; fill-opacity:0.0; 
stroke:#840000; stroke-width:60; stroke-opacity:1; 
stroke-linecap:round; stroke-linejoin:round;">
<path d="M22809 4022
L22876 4022
" />
<path d="M22809 4022
L22809 4022
" />
<path d="M22809 3469
L22809 4022
" />
<path d="M21633 2274
L21633 1934
" />
<path d="M21549 1756
L21549 1411
" />
<path d="M21592 1799
L21549 1756
" />
<path d="M21592 1824
L21592 1799
" />
<path d="M21592 1894
L21592 1824
" />
<path d="M21633 1934
L21592 1894
" />
<path d="M21607 2249
L21633 2274
" />
<path d="M8222 9424
L7782 9424
" />
<path d="M8593 9048
L8222 9419
" />
<path d="M8771 9048
L8593 9048
" />
<path d="M8222 9419
L8222 9424
" />
<path d="M7782 9424
L7777 9429
" />
<path d="M9497 9244
L9322 9069
" />
<path d="M9322 9069
L9322 8969
" />
<path d="M9152 9244
L9322 9074
" />
<path d="M9147 8694
L9322 8869
" />
<path d="M9322 8869
L9322 8969
" />
<path d="M9497 8694
L9322 8869
" />
<path d="M10092 6664
L9922 6494
" />
<path d="M9747 6664
L9922 6489
" />
<path d="M9747 6114
L9922 6289
" />
<path d="M9922 6284
L9922 6389
" />
<path d="M10092 6114
L9922 6284
" />
<path d="M20372 1789
L20557 1974
" />
<path d="M20557 1974
L20772 2189
" />
<path d="M20293 6969
L20372 6969
" />
<path d="M20497 7094
L20497 7349
" />
<path d="M20372 6969
L20497 7094
" />
<path d="M19572 8784
L19572 8884
" />
<path d="M19572 8884
L19457 8999
" />
<path d="M19457 8999
L19257 8999
" />
<path d="M19572 8519
L19572 8784
" />
<path d="M20237 8308
L19784 8308
" />
<path d="M19784 8308
L19782 8309
" />
<path d="M19572 8519
L19782 8309
" />
<path d="M21902 8489
L21902 8764
" />
<path d="M21632 8764
L21632 8489
" />
<path d="M21512 8369
L21632 8489
" />
<path d="M21512 8369
L21512 8139
" />
<path d="M21902 8764
L21632 8764
" />
<path d="M18682 9409
L18682 8999
" />
<path d="M18682 8999
L19257 8999
" />
</g>
<g style="fill:#840000; fill-opacity:0.0; 
stroke:#840000; stroke-width:100; stroke-opacity:1; 
stroke-linecap:round; stroke-linejoin:round;">
<path d="M22787 2834
L22778 2834
" />
<path d="M22527 3094
L22787 2834
" />
<path d="M22778 2834
L22478 2534
" />
<path d="M22455 3469
L22455 3166
" />
<path d="M22455 3166
L22527 3094
" />
<path d="M20162 4329
L20662 4329
" />
<path d="M20662 3829
L20662 4329
" />
<path d="M21162 4329
L20662 4329
" />
<path d="M20662 4829
L20662 4329
" />
<path d="M21162 4829
L20662 4329
" />
<path d="M20162 4829
L20662 4329
" />
<path d="M20162 3829
L20662 4329
" />
<path d="M21162 3829
L20662 4329
" />
</g>
<g style="fill:#840000; fill-opacity:0.0; 
stroke:#840000; stroke-width:60; stroke-opacity:1; 
stroke-linecap:round; stroke-linejoin:round;">
<path d="M21052 4099
L21012 4099
" />
<path d="M21082 1099
L20963 1219
" />
<path d="M21549 1411
L21237 1099
" />
<path d="M21237 1099
L21082 1099
" />
<path d="M22018 1194
L22102 1279
" />
<path d="M21549 1411
L21766 1194
" />
<path d="M21766 1194
L22018 1194
" />
<path d="M21425 8052
L21512 8139
" />
<path d="M20965 8052
L21425 8052
" />
</g>
<g style="fill:#840000; fill-opacity:0.0; 
stroke:#840000; stroke-width:100; stroke-opacity:1; 
stroke-linecap:round; stroke-linejoin:round;">
<path d="M9607 5414
L9607 4959
" />
<path d="M9607 5414
L9607 4584
" />
<path d="M9607 4584
L9982 4584
" />
<path d="M9982 4584
L9982 4959
" />
</g>
<g style="fill:#840000; fill-opacity:0.0; 
stroke:#840000; stroke-width:60; stroke-opacity:1; 
stroke-linecap:round; stroke-linejoin:round;">
<path d="M9044 6310
L9042 6309
" />
<path d="M9371 6310
L9044 6310
" />
<path d="M9042 6309
L8887 6154
" />
<path d="M9037 6309
L8887 6459
" />
<path d="M9042 6309
L9037 6309
" />
<path d="M8887 6459
L8672 6459
" />
<path d="M8887 6154
L8672 6154
" />
<path d="M10474 6625
L10474 6468
" />
<path d="M10751 6468
L10752 6469
" />
<path d="M10474 6468
L10751 6468
" />
<path d="M10966 6468
L10967 6469
" />
<path d="M10474 6468
L10966 6468
" />
<path d="M10191 9048
L10192 9049
" />
<path d="M9874 9048
L10191 9048
" />
<path d="M10192 9049
L10347 8894
" />
<path d="M10192 9049
L10192 9049
" />
<path d="M10192 9049
L10347 9204
" />
<path d="M8771 8733
L8771 8890
" />
<path d="M8454 8890
L8452 8889
" />
<path d="M8771 8890
L8454 8890
" />
<path d="M8452 8889
L8222 8889
" />
<path d="M10567 8894
L10572 8899
" />
<path d="M10347 8894
L10567 8894
" />
<path d="M10347 9204
L10572 9204
" />
<path d="M10706 6310
L10967 6049
" />
<path d="M10474 6310
L10706 6310
" />
<path d="M9782 9934
L9922 9794
" />
<path d="M9622 9934
L9782 9934
" />
<path d="M9812 9934
L9922 10044
" />
<path d="M9622 9934
L9812 9934
" />
<path d="M11107 10459
L11107 10044
" />
<path d="M11107 10459
L11522 10459
" />
<path d="M11522 10459
L11522 10044
" />
</g>
<g style="fill:#840000; fill-opacity:0.0; 
stroke:#840000; stroke-width:200; stroke-opacity:1; 
stroke-linecap:round; stroke-linejoin:round;">
<path d="M16892 8789
L17287 8394
" />
<path d="M16892 9304
L16892 8789
" />
<path d="M16527 3064
L16927 3464
" />
<path d="M16527 2614
L16527 3064
" />
<path d="M11622 4209
L11767 4064
" />
<path d="M11622 4954
L11622 4209
" />
</g>
<g style="fill:#840000; fill-opacity:0.0; 
stroke:#840000; stroke-width:60; stroke-opacity:1; 
stroke-linecap:round; stroke-linejoin:round;">
<path d="M11767 4064
L11222 4064
" />
<path d="M10787 3629
L11222 3629
" />
<path d="M11222 3629
L11222 4064
" />
<path d="M10787 4064
L10787 3629
" />
<path d="M8587 7994
L9012 7994
" />
<path d="M8167 7994
L8587 7994
" />
<path d="M10212 7359
L10642 7359
" />
<path d="M10642 7359
L11057 7359
" />
</g>
<g style="fill:#840000; fill-opacity:0.0; 
stroke:#840000; stroke-width:200; stroke-opacity:1; 
stroke-linecap:round; stroke-linejoin:round;">
<path d="M10642 7359
L10212 7359
" />
<path d="M12192 7574
L11977 7359
" />
<path d="M11977 7359
L10642 7359
" />
<path d="M12192 7814
L12192 7574
" />
</g>
<g style="fill:#840000; fill-opacity:0.0; 
stroke:#840000; stroke-width:100; stroke-opacity:1; 
stroke-linecap:round; stroke-linejoin:round;">
<path d="M19938 8999
L19257 8999
" />
<path d="M19945 9006
L19938 8999
" />
<path d="M19945 9203
L19945 9006
" />
<path d="M19945 9400
L19945 9203
" />
</g>
<g style="fill:#840000; fill-opacity:0.0; 
stroke:#840000; stroke-width:300; stroke-opacity:1; 
stroke-linecap:round; stroke-linejoin:round;">
<path d="M18747 8049
L18747 7169
" />
<path d="M18742 8054
L18747 8049
" />
<path d="M18742 8484
L18742 8054
" />
<path d="M19257 8999
L18742 8484
" />
</g>
<g style="fill:#840000; fill-opacity:0.0; 
stroke:#840000; stroke-width:200; stroke-opacity:1; 
stroke-linecap:round; stroke-linejoin:round;">
<path d="M18747 5856
L19032 5571
" />
<path d="M18747 7169
L18747 5856
" />
</g>
<g style="fill:#840000; fill-opacity:0.0; 
stroke:#840000; stroke-width:60; stroke-opacity:1; 
stroke-linecap:round; stroke-linejoin:round;">
<path d="M21922 3778
L21922 3935
" />
<path d="M22247 3469
L22455 3469
" />
<path d="M22182 3534
L22247 3469
" />
<path d="M22182 3735
L22182 3534
" />
<path d="M22140 3778
L22182 3735
" />
<path d="M21922 3778
L22140 3778
" />
<path d="M22612 3912
L22612 4022
" />
<path d="M22455 3647
L22612 3804
" />
<path d="M22612 3804
L22612 3912
" />
<path d="M22455 3469
L22455 3647
" />
<path d="M22809 4444
L22994 4629
" />
<path d="M22809 4337
L22809 4444
" />
<path d="M22994 5074
L22989 5079
" />
<path d="M22994 4629
L22994 5074
" />
<path d="M23322 5079
L23327 5074
" />
<path d="M22989 5079
L23322 5079
" />
<path d="M22994 4629
L23327 4629
" />
<path d="M22722 2289
L22987 2024
" />
<path d="M22478 2534
L22722 2289
" />
<path d="M21547 904
L21547 529
" />
<path d="M21549 1411
L21549 906
" />
<path d="M21549 906
L21547 904
" />
</g>
<g style="fill:#840000; fill-opacity:0.0; 
stroke:#840000; stroke-width:100; stroke-opacity:1; 
stroke-linecap:round; stroke-linejoin:round;">
<path d="M18807 2797
L18347 2797
" />
<path d="M19062 3052
L18807 2797
" />
<path d="M18347 2797
L18347 2504
" />
<path d="M18347 2504
L18347 2284
" />
</g>
<g style="fill:#840000; fill-opacity:0.0; 
stroke:#840000; stroke-width:60; stroke-opacity:1; 
stroke-linecap:round; stroke-linejoin:round;">
<path d="M19796 5372
L19797 5370
" />
<path d="M19796 5589
L19796 5372
" />
<path d="M19797 5194
L20662 4329
" />
<path d="M19797 5370
L19797 5194
" />
<path d="M21705 3935
L21704 3934
" />
<path d="M21922 3935
L21705 3935
" />
<path d="M21008 3934
L20662 4279
" />
<path d="M20662 4279
L20662 4329
" />
<path d="M21704 3934
L21008 3934
" />
<path d="M22344 4093
L22416 4022
" />
<path d="M21922 4093
L22344 4093
" />
<path d="M22329 4250
L22416 4337
" />
<path d="M21922 4250
L22329 4250
" />
<path d="M22502 4629
L22640 4629
" />
<path d="M22140 4408
L22361 4629
" />
<path d="M22361 4629
L22502 4629
" />
<path d="M21922 4408
L22140 4408
" />
<path d="M22612 4601
L22640 4629
" />
<path d="M22612 4337
L22612 4601
" />
<path d="M21537 9203
L21537 9589
" />
<path d="M21107 9203
L21537 9203
" />
<path d="M21537 9203
L21531 9203
" />
<path d="M21531 9203
L21532 9204
" />
<path d="M19192 5924
L19192 6194
" />
<path d="M19768 5929
L19472 5929
" />
<path d="M19472 5929
L19467 5924
" />
<path d="M19192 5924
L19467 5924
" />
<path d="M19677 10429
L19257 10429
" />
<path d="M19677 10009
L19677 10429
" />
<path d="M19257 10009
L19677 10009
" />
<path d="M19257 10014
L19257 10009
" />
<path d="M19257 9599
L19257 10014
" />
<path d="M20732 6949
L20732 6709
" />
<path d="M20922 7139
L20732 6949
" />
<path d="M21122 7319
L21107 7319
" />
<path d="M21342 7539
L21122 7319
" />
<path d="M21107 7319
L20927 7139
" />
<path d="M20927 7139
L20922 7139
" />
<path d="M20732 6709
L20653 6629
" />
<path d="M21512 7539
L21342 7539
" />
<path d="M19692 7379
L19692 7255
" />
</g>
<g style="fill:#840000; fill-opacity:0.0; 
stroke:#840000; stroke-width:100; stroke-opacity:1; 
stroke-linecap:round; stroke-linejoin:round;">
<path d="M19692 7614
L19692 7839
" />
<path d="M19482 8049
L19692 7839
" />
<path d="M19347 8049
L19482 8049
" />
<path d="M19692 7379
L19692 7614
" />
</g>
<g style="fill:#840000; fill-opacity:0.0; 
stroke:#840000; stroke-width:60; stroke-opacity:1; 
stroke-linecap:round; stroke-linejoin:round;">
<path d="M19692 7255
L19782 7166
" />
</g>
<g style="fill:#840000; fill-opacity:0.0; 
stroke:#840000; stroke-width:100; stroke-opacity:1; 
stroke-linecap:round; stroke-linejoin:round;">
<path d="M10069 10459
L10507 10459
" />
</g>
<g style="fill:#840000; fill-opacity:0.0; 
stroke:#840000; stroke-width:60; stroke-opacity:1; 
stroke-linecap:round; stroke-linejoin:round;">
<path d="M21364 8628
L21044 8308
" />
<path d="M21364 8976
L21364 8628
" />
<path d="M21334 9006
L21364 8976
" />
<path d="M21044 8308
L20965 8308
" />
<path d="M21107 9006
L21334 9006
" />
</g>
<g style="fill:#840000; fill-opacity:0.0; 
stroke:#840000; stroke-width:100; stroke-opacity:1; 
stroke-linecap:round; stroke-linejoin:round;">
<path d="M19260 9597
L19257 9599
" />
<path d="M19945 9597
L19260 9597
" />
<path d="M19350 8052
L19347 8049
" />
<path d="M20237 8052
L19350 8052
" />
<path d="M19347 7169
L19347 8049
" />
</g>
<g style="fill:#840000; fill-opacity:0.0; 
stroke:#840000; stroke-width:60; stroke-opacity:1; 
stroke-linecap:round; stroke-linejoin:round;">
<path d="M19351 7166
L19347 7169
" />
<path d="M19782 7166
L19351 7166
" />
<path d="M19782 7166
L19782 6969
" />
<path d="M19598 6099
L19768 5929
" />
<path d="M19598 6354
L19598 6099
" />
</g>
<g style="fill:#840000; fill-opacity:0.0; 
stroke:#840000; stroke-width:100; stroke-opacity:1; 
stroke-linecap:round; stroke-linejoin:round;">
<path d="M19347 6844
L19347 7169
" />
<path d="M19347 6427
L19347 6844
" />
<path d="M19420 6354
L19347 6427
" />
<path d="M19598 6354
L19420 6354
" />
</g>
<g style="fill:#840000; fill-opacity:0.0; 
stroke:#840000; stroke-width:60; stroke-opacity:1; 
stroke-linecap:round; stroke-linejoin:round;">
<path d="M19054 5195
L19032 5217
" />
<path d="M19403 5195
L19054 5195
" />
<path d="M19521 5195
L19403 5195
" />
<path d="M19622 5297
L19521 5195
" />
<path d="M19622 5744
L19622 5297
" />
<path d="M19768 5890
L19622 5744
" />
<path d="M19768 5929
L19768 5890
" />
<path d="M20967 7539
L20965 7540
" />
<path d="M21512 7539
L20967 7539
" />
<path d="M20965 7540
L20965 7796
" />
<path d="M20772 6749
L20653 6629
" />
<path d="M21512 7539
L21512 7314
" />
<path d="M21512 7314
L20947 6749
" />
<path d="M20947 6749
L20772 6749
" />
<path d="M21107 9203
L21107 9006
" />
<path d="M21107 9006
L20939 9006
" />
<path d="M20939 9006
L20939 9203
" />
<path d="M20939 9203
L21107 9203
" />
<path d="M10069 10277
L10172 10174
" />
<path d="M10069 10459
L10069 10277
" />
<path d="M10507 10179
L10372 10044
" />
<path d="M10507 10459
L10507 10179
" />
<path d="M10507 10179
L10642 10044
" />
<path d="M19346 3406
L19403 3463
" />
<path d="M19062 3406
L19346 3406
" />
<path d="M19403 2944
L19402 2944
" />
<path d="M19403 3463
L19403 2944
" />
</g>
<g style="fill:#840000; fill-opacity:0.0; 
stroke:#840000; stroke-width:100; stroke-opacity:1; 
stroke-linecap:round; stroke-linejoin:round;">
<path d="M19402 2884
L19247 2729
" />
<path d="M19402 2944
L19402 2884
" />
</g>
<g style="fill:#840000; fill-opacity:0.0; 
stroke:#840000; stroke-width:200; stroke-opacity:1; 
stroke-linecap:round; stroke-linejoin:round;">
<path d="M6673 7238
L6673 6444
" />
<path d="M6794 7359
L6673 7238
" />
<path d="M9452 7359
L6794 7359
" />
<path d="M9612 7359
L9452 7359
" />
<path d="M9612 7994
L9612 7359
" />
</g>
<g style="fill:#840000; fill-opacity:0.0; 
stroke:#840000; stroke-width:60; stroke-opacity:1; 
stroke-linecap:round; stroke-linejoin:round;">
<path d="M9452 7304
L9452 7359
" />
<path d="M9507 7359
L9452 7304
" />
<path d="M9522 7359
L9507 7359
" />
<path d="M9181 6625
L9127 6679
" />
<path d="M9127 6679
L9127 6964
" />
<path d="M9127 6964
L9522 7359
" />
<path d="M9371 6625
L9181 6625
" />
<path d="M10474 6882
L10377 6979
" />
<path d="M10474 6783
L10474 6882
" />
<path d="M9612 7259
L9612 7359
" />
<path d="M9892 6979
L9612 7259
" />
<path d="M10377 6979
L9892 6979
" />
</g>
<g style="fill:#840000; fill-opacity:0.0; 
stroke:#840000; stroke-width:100; stroke-opacity:1; 
stroke-linecap:round; stroke-linejoin:round;">
<path d="M9867 8249
L9612 7994
" />
<path d="M9867 8569
L9867 8249
" />
<path d="M9874 8575
L9867 8569
" />
<path d="M9874 8733
L9874 8575
" />
<path d="M8771 8425
L8837 8359
" />
<path d="M8837 8359
L9722 8359
" />
<path d="M9722 8359
L9874 8510
" />
<path d="M9874 8510
L9874 8575
" />
<path d="M8771 8575
L8771 8425
" />
</g>
<g style="fill:#840000; fill-opacity:0.0; 
stroke:#840000; stroke-width:60; stroke-opacity:1; 
stroke-linecap:round; stroke-linejoin:round;">
<path d="M10474 6153
L10474 5995
" />
<path d="M10474 5750
L10662 5561
" />
<path d="M10474 5995
L10474 5750
" />
<path d="M10354 5561
L10207 5414
" />
<path d="M10662 5561
L10354 5561
" />
<path d="M10207 5699
L10142 5764
" />
<path d="M10207 5414
L10207 5699
" />
<path d="M10142 5764
L9437 5764
" />
<path d="M9371 5830
L9371 5995
" />
<path d="M9437 5764
L9371 5830
" />
</g>
<g style="fill:#840000; fill-opacity:0.0; 
stroke:#840000; stroke-width:100; stroke-opacity:1; 
stroke-linecap:round; stroke-linejoin:round;">
<path d="M11615 5561
L11622 5554
" />
<path d="M11082 5561
L11615 5561
" />
</g>
<g style="fill:#840000; fill-opacity:0.0; 
stroke:#840000; stroke-width:200; stroke-opacity:1; 
stroke-linecap:round; stroke-linejoin:round;">
<path d="M12407 4874
L12652 4629
" />
<path d="M12402 4874
L12407 4874
" />
<path d="M12652 4629
L12652 4384
" />
<path d="M11722 5554
L12402 4874
" />
<path d="M12652 4059
L12652 3459
" />
<path d="M12652 4624
L12652 4059
" />
<path d="M11722 5554
L12652 4624
" />
<path d="M11622 5554
L11722 5554
" />
<path d="M12652 3459
L11772 3459
" />
<path d="M11772 3459
L11767 3464
" />
<path d="M11772 1954
L11772 3459
" />
<path d="M12202 8404
L13097 8404
" />
<path d="M12187 8419
L12202 8404
" />
<path d="M12187 9909
L12187 8419
" />
<path d="M13097 7524
L13097 8404
" />
<path d="M12772 7524
L13097 7524
" />
<path d="M11622 6374
L12772 7524
" />
<path d="M11622 5554
L11622 6374
" />
</g>
<g style="fill:#840000; fill-opacity:0.0; 
stroke:#840000; stroke-width:60; stroke-opacity:1; 
stroke-linecap:round; stroke-linejoin:round;">
<path d="M9022 9614
L9022 9934
" />
<path d="M8771 9363
L9022 9614
" />
<path d="M8771 9205
L8771 9363
" />
<path d="M9623 9614
L9022 9614
" />
<path d="M9874 9363
L9623 9614
" />
<path d="M9874 9363
L9874 9363
" />
</g>
<g style="fill:#840000; fill-opacity:0.0; 
stroke:#840000; stroke-width:100; stroke-opacity:1; 
stroke-linecap:round; stroke-linejoin:round;">
<path d="M9022 10457
L9020 10459
" />
<path d="M9022 9934
L9022 10457
" />
<path d="M17947 3197
L18074 3197
" />
<path d="M18120 3151
L18347 3151
" />
<path d="M18074 3197
L18120 3151
" />
</g>
<g style="fill:#840000; fill-opacity:0.0; 
stroke:#840000; stroke-width:60; stroke-opacity:1; 
stroke-linecap:round; stroke-linejoin:round;">
<path d="M18660 3151
L18662 3149
" />
<path d="M18347 3151
L18660 3151
" />
<path d="M21837 3378
L21922 3463
" />
<path d="M21837 3144
L21837 3378
" />
<path d="M22197 2784
L21837 3144
" />
<path d="M22227 2784
L22197 2784
" />
<path d="M21922 3621
L21922 3463
" />
<path d="M21214 2630
L21023 2439
" />
<path d="M21214 3227
L21214 2630
" />
<path d="M22122 4565
L22517 4961
" />
<path d="M21922 4565
L22122 4565
" />
<path d="M22517 4961
L22635 5079
" />
<path d="M21529 3227
L21529 2848
" />
<path d="M22052 2324
L22052 1914
" />
<path d="M21529 2848
L22052 2324
" />
<path d="M22052 1914
L22022 1884
" />
<path d="M22352 1554
L22022 1884
" />
<path d="M22352 1529
L22352 1554
" />
<path d="M21159 2107
L21159 1801
" />
<path d="M21159 2254
L21159 2107
" />
<path d="M21371 2466
L21159 2254
" />
<path d="M21371 3227
L21371 2466
" />
<path d="M21044 1801
L20712 1469
" />
<path d="M21159 1801
L21044 1801
" />
</g>
<g style="fill:#840000; fill-opacity:0.0; 
stroke:#840000; stroke-width:200; stroke-opacity:1; 
stroke-linecap:round; stroke-linejoin:round;">
<path d="M14852 4789
L14562 5079
" />
<path d="M14852 4244
L14852 4789
" />
<path d="M13652 2034
L13572 1954
" />
<path d="M13652 3459
L13652 2034
" />
<path d="M14142 1954
L14852 1244
" />
<path d="M13572 1954
L14142 1954
" />
<path d="M15257 7454
L14582 6779
" />
<path d="M15257 7479
L15257 7454
" />
<path d="M14557 10479
L13987 9909
" />
<path d="M15257 10479
L14557 10479
" />
<path d="M13987 8514
L14097 8404
" />
<path d="M13987 9909
L13987 8514
" />
</g>
<g style="fill:#840000; fill-opacity:0.0; 
stroke:#840000; stroke-width:60; stroke-opacity:1; 
stroke-linecap:round; stroke-linejoin:round;">
<path d="M8836 5758
L8352 5758
" />
<path d="M9193 6153
L9004 5964
" />
<path d="M9371 6153
L9193 6153
" />
<path d="M9004 5964
L9004 5906
" />
<path d="M8851 5753
L8252 5753
" />
<path d="M9004 5906
L8851 5753
" />
<path d="M8841 6860
L8352 6860
" />
<path d="M8836 6855
L8252 6855
" />
<path d="M9007 6684
L8836 6855
" />
<path d="M9007 6629
L9007 6684
" />
<path d="M9169 6468
L9007 6629
" />
<path d="M9371 6468
L9169 6468
" />
<path d="M10399 9600
L10882 9600
" />
<path d="M10004 9205
L10399 9600
" />
<path d="M9874 9205
L10004 9205
" />
<path d="M10394 8498
L10882 8498
" />
<path d="M10001 8890
L10394 8498
" />
<path d="M9874 8890
L10001 8890
" />
</g>
<g style="fill:#840000; fill-opacity:0.0; 
stroke:#840000; stroke-width:100; stroke-opacity:1; 
stroke-linecap:round; stroke-linejoin:round;">
<path d="M10662 5207
L11082 5207
" />
<path d="M9374 10459
L9715 10459
" />
</g>
<g style="fill:#840000; fill-opacity:0.0; 
stroke:#840000; stroke-width:60; stroke-opacity:1; 
stroke-linecap:round; stroke-linejoin:round;">
<path d="M18746 3621
L18674 3549
" />
<path d="M19403 3621
L18746 3621
" />
</g>
<g style="fill:#840000; fill-opacity:0.0; 
stroke:#840000; stroke-width:100; stroke-opacity:1; 
stroke-linecap:round; stroke-linejoin:round;">
<path d="M18318 3551
L18320 3549
" />
<path d="M17947 3551
L18318 3551
" />
</g>
<g style="fill:#840000; fill-opacity:0.0; 
stroke:#840000; stroke-width:200; stroke-opacity:1; 
stroke-linecap:round; stroke-linejoin:round;">
<path d="M13252 4655
L13252 4384
" />
<path d="M13677 5079
L13252 4655
" />
<path d="M12982 5079
L13677 5079
" />
</g>
<g style="fill:#840000; fill-opacity:0.0; 
stroke:#840000; stroke-width:60; stroke-opacity:1; 
stroke-linecap:round; stroke-linejoin:round;">
<path d="M19403 3778
L18919 3778
" />
<path d="M18919 3778
L18917 3779
" />
<path d="M18917 3779
L17762 3779
" />
<path d="M17762 3779
L17532 4009
" />
<path d="M16462 5079
L15448 5079
" />
<path d="M17532 4009
L16462 5079
" />
</g>
<g style="fill:#840000; fill-opacity:0.0; 
stroke:#840000; stroke-width:200; stroke-opacity:1; 
stroke-linecap:round; stroke-linejoin:round;">
<path d="M15927 2614
L15927 3464
" />
<path d="M15927 3464
L15927 4074
" />
<path d="M15448 4553
L15448 5079
" />
<path d="M15927 4074
L15448 4553
" />
<path d="M13688 6789
L12982 6789
" />
<path d="M13697 6780
L13688 6789
" />
<path d="M13697 7524
L13697 6780
" />
</g>
<g style="fill:#840000; fill-opacity:0.0; 
stroke:#840000; stroke-width:60; stroke-opacity:1; 
stroke-linecap:round; stroke-linejoin:round;">
<path d="M17840 4408
L15468 6779
" />
<path d="M19403 4408
L17840 4408
" />
</g>
<g style="fill:#840000; fill-opacity:0.0; 
stroke:#840000; stroke-width:200; stroke-opacity:1; 
stroke-linecap:round; stroke-linejoin:round;">
<path d="M16287 7594
L16287 8394
" />
<path d="M15472 6779
L16287 7594
" />
<path d="M15468 6779
L15472 6779
" />
<path d="M16287 9299
L16292 9304
" />
<path d="M16287 8394
L16287 9299
" />
</g>
<g style="fill:#840000; fill-opacity:0.0; 
stroke:#840000; stroke-width:60; stroke-opacity:1; 
stroke-linecap:round; stroke-linejoin:round;">
<path d="M20324 6301
L20402 6379
" />
<path d="M20291 6268
L20324 6301
" />
<path d="M20291 5611
L20291 6268
" />
<path d="M20269 5589
L20291 5611
" />
<path d="M20293 6488
L20293 6772
" />
<path d="M20402 6379
L20293 6488
" />
<path d="M20402 6379
L20402 6379
" />
<path d="M13267 5679
L12982 5679
" />
<path d="M16032 5679
L13267 5679
" />
<path d="M17776 3935
L16032 5679
" />
<path d="M19403 3935
L17776 3935
" />
<path d="M15862 6189
L12982 6189
" />
<path d="M17800 4250
L15862 6189
" />
<path d="M19403 4250
L17800 4250
" />
<path d="M20237 7540
L20314 7540
" />
<path d="M21107 8603
L21107 8809
" />
<path d="M21062 8559
L21107 8603
" />
<path d="M20682 8559
L21062 8559
" />
<path d="M20587 8464
L20682 8559
" />
<path d="M20587 7814
L20587 8464
" />
<path d="M20314 7540
L20587 7814
" />
<path d="M20155 7166
L20293 7166
" />
<path d="M20122 7134
L20155 7166
" />
<path d="M20122 5929
L20122 7134
" />
<path d="M20293 7484
L20237 7540
" />
<path d="M20293 7166
L20293 7484
" />
<path d="M21082 8809
L21107 8809
" />
<path d="M20111 5918
L20122 5929
" />
<path d="M20111 5589
L20111 5918
" />
<path d="M21107 8809
L20939 8809
" />
<path d="M20237 7796
L19989 7796
" />
<path d="M19931 6772
L19782 6772
" />
<path d="M19957 6799
L19931 6772
" />
<path d="M19957 7299
L19957 6799
" />
<path d="M19912 7344
L19957 7299
" />
<path d="M19912 7719
L19912 7344
" />
<path d="M19989 7796
L19912 7719
" />
<path d="M20237 7796
L20329 7796
" />
<path d="M19945 8602
L19945 8809
" />
<path d="M19987 8559
L19945 8602
" />
<path d="M20377 8559
L19987 8559
" />
<path d="M20457 8479
L20377 8559
" />
<path d="M20457 7924
L20457 8479
" />
<path d="M20329 7796
L20457 7924
" />
<path d="M19952 6601
L19782 6772
" />
<path d="M19952 6354
L19952 6601
" />
<path d="M19954 6353
L19952 6354
" />
<path d="M19954 5589
L19954 6353
" />
<path d="M15945 5936
L12555 5936
" />
<path d="M12555 5936
L12552 5934
" />
<path d="M9442 6979
L9371 6908
" />
<path d="M9371 6908
L9371 6783
" />
<path d="M19403 4093
L17788 4093
" />
<path d="M17250 4631
L15975 5906
" />
<path d="M17788 4093
L17250 4631
" />
<path d="M15975 5906
L15945 5936
" />
<path d="M24237 8599
L24322 8599
" />
<path d="M21371 5733
L22872 7234
" />
<path d="M22872 7234
L22873 7234
" />
<path d="M22873 7234
L24237 8599
" />
<path d="M21371 5589
L21371 5733
" />
<path d="M21529 5707
L21529 5589
" />
<path d="M23921 8099
L21529 5707
" />
<path d="M24322 8099
L23921 8099
" />
<path d="M21922 5239
L22388 5704
" />
<path d="M22388 5704
L23612 5704
" />
<path d="M23612 5704
L23982 6074
" />
<path d="M23982 6074
L23982 6349
" />
<path d="M23982 6349
L24317 6684
" />
<path d="M21922 5195
L21922 5239
" />
<path d="M22081 5038
L22227 5184
" />
<path d="M22227 5184
L22227 5374
" />
<path d="M22227 5374
L22437 5584
" />
<path d="M22437 5584
L23717 5584
" />
<path d="M23717 5584
L24317 6184
" />
<path d="M21922 5038
L22081 5038
" />
<path d="M22347 5134
L22347 5319
" />
<path d="M22094 4880
L22347 5134
" />
<path d="M21922 4880
L22094 4880
" />
<path d="M22462 5434
L22457 5429
" />
<path d="M22347 5319
L22462 5434
" />
<path d="M24122 5684
L24317 5684
" />
<path d="M22463 5434
L22492 5464
" />
<path d="M22492 5464
L23902 5464
" />
<path d="M23902 5464
L24122 5684
" />
<path d="M22462 5434
L22463 5434
" />
<path d="M22467 5269
L22542 5344
" />
<path d="M22467 5080
L22467 5269
" />
<path d="M22109 4723
L22467 5080
" />
<path d="M21922 4723
L22109 4723
" />
<path d="M24041 5184
L24317 5184
" />
<path d="M23881 5344
L24041 5184
" />
<path d="M22542 5344
L23881 5344
" />
<path d="M20426 5807
L22141 7521
" />
<path d="M22141 7521
L22141 10016
" />
<path d="M22141 10016
L21772 10384
" />
<path d="M20426 5589
L20426 5807
" />
<path d="M22272 10078
L22272 10384
" />
<path d="M22272 7483
L22272 10078
" />
<path d="M20584 5794
L22272 7483
" />
<path d="M20584 5589
L20584 5794
" />
<path d="M20741 5782
L22392 7433
" />
<path d="M22392 7433
L22392 10004
" />
<path d="M22392 10004
L22772 10384
" />
<path d="M20741 5589
L20741 5782
" />
<path d="M20899 5770
L22512 7384
" />
<path d="M22512 7384
L22512 9624
" />
<path d="M22512 9624
L23272 10384
" />
<path d="M20899 5589
L20899 5770
" />
<path d="M21056 5758
L22632 7334
" />
<path d="M22632 7334
L22632 9244
" />
<path d="M22632 9244
L23772 10384
" />
<path d="M21056 5589
L21056 5758
" />
<path d="M21214 5745
L22752 7284
" />
<path d="M22752 7284
L22752 8864
" />
<path d="M22752 8864
L24272 10384
" />
<path d="M21214 5589
L21214 5745
" />
<path d="M18827 4565
L19403 4565
" />
<path d="M17992 5400
L18827 4565
" />
<path d="M17992 9239
L17992 5400
" />
<path d="M16852 10379
L17992 9239
" />
<path d="M17437 10054
L17352 10139
" />
<path d="M17352 10139
L17352 10379
" />
<path d="M17603 10054
L17437 10054
" />
<path d="M18112 9544
L17603 10054
" />
<path d="M18112 5449
L18112 9544
" />
<path d="M18839 4723
L18112 5449
" />
<path d="M19403 4723
L18839 4723
" />
<path d="M17852 9974
L17852 10379
" />
<path d="M18232 9594
L17852 9974
" />
<path d="M18232 5499
L18232 9594
" />
<path d="M18851 4880
L18232 5499
" />
<path d="M19403 4880
L18851 4880
" />
<path d="M18352 10103
L18352 10379
" />
<path d="M18352 5549
L18352 10103
" />
<path d="M18863 5038
L18352 5549
" />
<path d="M19403 5038
L18863 5038
" />
<path d="M21056 3227
L21056 2828
" />
<path d="M19362 1134
L19362 534
" />
<path d="M21056 2828
L19362 1134
" />
<path d="M20899 2840
L18882 824
" />
<path d="M20899 3227
L20899 2840
" />
<path d="M18882 824
L18882 824
" />
<path d="M18862 804
L18862 534
" />
<path d="M18882 824
L18862 804
" />
<path d="M18657 829
L18362 534
" />
<path d="M18718 829
L18657 829
" />
<path d="M18833 944
L18832 944
" />
<path d="M18832 944
L18718 829
" />
<path d="M20741 2852
L18833 944
" />
<path d="M20741 3227
L20741 2852
" />
<path d="M18668 949
L18608 949
" />
<path d="M18783 1064
L18668 949
" />
<path d="M18783 1064
L18783 1064
" />
<path d="M20584 2865
L18783 1064
" />
<path d="M20584 3227
L20584 2865
" />
<path d="M18277 949
L17862 534
" />
<path d="M18608 949
L18277 949
" />
<path d="M20426 3227
L20426 2877
" />
<path d="M20426 2877
L18733 1184
" />
<path d="M18012 1184
L17362 534
" />
<path d="M18733 1184
L18012 1184
" />
<path d="M20269 3227
L20269 2889
" />
<path d="M17632 1304
L17079 751
" />
<path d="M18684 1304
L17632 1304
" />
<path d="M17079 751
L16862 534
" />
<path d="M20269 2889
L18684 1304
" />
<path d="M20111 3227
L20111 2901
" />
<path d="M17252 1424
L16579 751
" />
<path d="M16579 751
L16362 534
" />
<path d="M18634 1424
L17252 1424
" />
<path d="M20111 2901
L18634 1424
" />
<path d="M19954 3227
L19954 2914
" />
<path d="M16079 751
L15862 534
" />
<path d="M16872 1544
L16079 751
" />
<path d="M18584 1544
L16872 1544
" />
<path d="M19954 2914
L18584 1544
" />
<path d="M19796 3227
L19796 3009
" />
<path d="M19796 3227
L19796 2926
" />
<path d="M19796 2926
L18534 1664
" />
<path d="M15362 811
L15362 534
" />
<path d="M16216 1664
L15362 811
" />
<path d="M18534 1664
L16216 1664
" />
</g>
<g style="fill:#840000; fill-opacity:1.0; 
stroke:#840000; stroke-width:39.3701; stroke-opacity:1; 
stroke-linecap:round; stroke-linejoin:round;">
<polyline style="fill-rule:evenodd;"
points="10828,5831
10823,5833
10752,5905
10713,5998
10713,6025
10661,6025
10661,6018
10661,5973
10661,5942
10657,5932
10657,5692
10657,5567
10492,5567
10475,5584
10475,5654
10485,5679
10505,5699
10531,5709
10558,5709
10640,5709
10657,5692
10657,5932
10651,5917
10631,5897
10606,5886
10578,5886
10496,5886
10479,5904
10479,5990
10644,5990
10661,5973
10661,6018
10644,6001
10479,6001
10479,6009
10468,6009
10468,6001
10460,6001
10460,5990
10468,5990
10468,5904
10451,5886
10402,5886
10402,5653
10402,5625
10402,5437
10385,5420
10213,5420
10213,5691
10230,5709
10346,5709
10372,5698
10392,5679
10402,5653
10402,5886
10369,5886
10342,5886
10337,5888
10337,5870
9508,5870
9508,5888
9503,5886
9476,5886
9394,5886
9377,5904
9377,5990
9384,5990
9384,6001
9377,6001
9377,6009
9366,6009
9366,6001
9358,6001
9358,5990
9366,5990
9366,5904
9349,5886
9267,5886
9239,5886
9214,5897
9207,5904
9207,5719
9475,5719
9482,5720
9732,5720
9740,5719
10032,5719
10032,5687
10043,5698
10069,5709
10185,5709
10202,5691
10202,5420
10194,5420
10194,5409
10202,5409
10202,5401
10213,5401
10213,5409
10385,5409
10402,5391
10402,5223
10468,5439
10490,5439
10485,5443
10475,5469
10475,5538
10492,5556
10657,5556
10657,5548
10668,5548
10668,5556
10676,5556
10676,5567
10668,5567
10668,5692
10685,5709
10767,5709
10794,5709
10820,5699
10828,5691
10828,5831
" /> 
<polyline style="fill-rule:evenodd;"
points="10038,8233
10032,8262
10032,8478
10031,8477
10006,8466
9978,8466
9896,8466
9879,8484
9879,8570
9887,8570
9887,8581
9879,8581
9879,8641
9879,8667
9879,8728
9887,8728
9887,8729
9860,8729
9860,8728
9868,8728
9868,8667
9868,8641
9868,8581
9860,8581
9860,8570
9868,8570
9868,8484
9851,8466
9807,8466
9807,8233
9807,8205
9807,8017
9790,8000
9618,8000
9618,8271
9635,8289
9751,8289
9777,8278
9797,8259
9807,8233
9807,8466
9769,8466
9751,8466
9740,8450
9700,8424
9653,8414
8992,8414
8946,8423
8906,8449
8894,8466
8876,8466
8794,8466
8777,8484
8777,8570
8784,8570
8784,8572
8758,8572
8758,8570
8766,8570
8766,8484
8749,8466
8667,8466
8639,8466
8617,8476
8617,8299
8797,8299
8801,8305
8840,8332
8887,8341
9137,8341
9183,8332
9223,8306
9228,8299
9442,8299
9442,8272
9448,8278
9474,8289
9590,8289
9607,8271
9607,8000
9599,8000
9599,7989
9607,7989
9607,7981
9618,7981
9618,7989
9790,7989
9807,7971
9807,7783
9807,7755
9797,7730
9781,7714
10038,7714
10038,8233
" /> 
<polyline style="fill-rule:evenodd;"
points="21803,7390
21797,7375
21777,7355
21751,7345
21724,7345
21535,7345
21518,7362
21518,7534
21526,7534
21526,7545
21518,7545
21518,7552
21507,7552
21507,7545
21507,7534
21507,7362
21490,7345
21301,7345
21274,7345
21248,7355
21228,7375
21218,7400
21218,7516
21235,7534
21507,7534
21507,7545
21235,7545
21218,7562
21218,7675
21213,7675
21104,7819
21104,7819
21104,7773
21104,7741
21104,7713
21093,7688
21074,7668
21093,7649
21104,7623
21104,7595
21104,7563
21104,7518
21104,7485
21104,7458
21093,7432
21074,7412
21048,7402
20909,7402
20892,7419
20892,7535
21087,7535
21104,7518
21104,7563
21087,7546
20892,7546
20892,7661
20899,7668
20892,7675
20892,7791
21087,7791
21104,7773
21104,7819
21087,7802
20892,7802
20892,7809
20881,7809
20881,7802
20873,7802
20873,7791
20881,7791
20881,7675
20875,7668
20881,7661
20881,7546
20873,7546
20873,7535
20881,7535
20881,7419
20864,7402
20861,7402
20861,6615
20861,6588
20851,6562
20801,6513
20777,6513
20660,6629
20749,6718
20773,6718
20831,6660
20851,6641
20861,6615
20861,7402
20741,7402
20741,6750
20741,6726
20653,6637
20536,6753
20536,6778
20585,6827
20611,6838
20639,6838
20664,6827
20684,6808
20741,6750
20741,7402
20725,7402
20700,7412
20688,7424
20687,7291
20600,7061
20599,7052
20599,7052
20595,7047
20595,7047
20469,6711
20504,6746
20528,6746
20645,6629
20640,6624
20647,6616
20653,6622
20769,6505
20769,6481
20720,6431
20694,6421
20674,6421
20736,6358
20772,6322
21803,7352
21803,7390
" /> 
</g>
<g style="fill:#FFFFFF; fill-opacity:1.0; 
stroke:#FFFFFF; stroke-width:39.3701; stroke-opacity:1; 
stroke-linecap:round; stroke-linejoin:round;">
<circle cx="8222.95" cy="9424.69" r="105.315" /> 
<circle cx="7777.95" cy="9429.69" r="45.315" /> 
<circle cx="9497.95" cy="9244.69" r="45.315" /> 
<circle cx="9152.95" cy="9244.69" r="45.315" /> 
<circle cx="9147.95" cy="8694.69" r="45.315" /> 
<circle cx="9322.95" cy="8969.69" r="45.315" /> 
<circle cx="9497.95" cy="8694.69" r="45.315" /> 
<circle cx="10092.9" cy="6664.69" r="45.315" /> 
<circle cx="9747.95" cy="6664.69" r="45.315" /> 
<circle cx="9747.95" cy="6114.69" r="45.315" /> 
<circle cx="9922.95" cy="6389.69" r="45.315" /> 
<circle cx="10092.9" cy="6114.69" r="45.315" /> 
<circle cx="20557.9" cy="1974.69" r="45.315" /> 
<circle cx="20372.9" cy="1789.69" r="45.315" /> 
<circle cx="20497.9" cy="7349.69" r="45.315" /> 
<circle cx="19572.9" cy="8519.69" r="45.315" /> 
<circle cx="19782.9" cy="8309.69" r="45.315" /> 
<circle cx="19572.9" cy="8784.69" r="45.315" /> 
<circle cx="21902.9" cy="8764.69" r="45.315" /> 
<circle cx="21632.9" cy="8489.69" r="45.315" /> 
<circle cx="21632.9" cy="8764.69" r="45.315" /> 
<circle cx="21902.9" cy="8489.69" r="45.315" /> 
<circle cx="18682.9" cy="8999.69" r="105.315" /> 
<circle cx="18682.9" cy="9409.69" r="105.315" /> 
</g>
<g style="fill:#FFFFFF; fill-opacity:1.0; 
stroke:#FFFFFF; stroke-width:0.0393701; stroke-opacity:1; 
stroke-linecap:round; stroke-linejoin:round;">
<circle cx="22787.9" cy="2834.69" r="-19.6654" /> 
</g>
<g style="fill:#FFFFFF; fill-opacity:1.0; 
stroke:#FFFFFF; stroke-width:39.3701; stroke-opacity:1; 
stroke-linecap:round; stroke-linejoin:round;">
</g>
<g style="fill:#FFFFFF; fill-opacity:1.0; 
stroke:#FFFFFF; stroke-width:0.0393701; stroke-opacity:1; 
stroke-linecap:round; stroke-linejoin:round;">
<circle cx="22527.9" cy="3094.69" r="-19.6654" /> 
</g>
<g style="fill:#FFFFFF; fill-opacity:1.0; 
stroke:#FFFFFF; stroke-width:39.3701; stroke-opacity:1; 
stroke-linecap:round; stroke-linejoin:round;">
</g>
<g style="fill:#FFFFFF; fill-opacity:1.0; 
stroke:#FFFFFF; stroke-width:0.0393701; stroke-opacity:1; 
stroke-linecap:round; stroke-linejoin:round;">
<circle cx="20162.9" cy="4329.69" r="-19.6654" /> 
</g>
<g style="fill:#FFFFFF; fill-opacity:1.0; 
stroke:#FFFFFF; stroke-width:39.3701; stroke-opacity:1; 
stroke-linecap:round; stroke-linejoin:round;">
</g>
<g style="fill:#FFFFFF; fill-opacity:1.0; 
stroke:#FFFFFF; stroke-width:0.0393701; stroke-opacity:1; 
stroke-linecap:round; stroke-linejoin:round;">
<circle cx="20662.9" cy="3829.69" r="-19.6654" /> 
</g>
<g style="fill:#FFFFFF; fill-opacity:1.0; 
stroke:#FFFFFF; stroke-width:39.3701; stroke-opacity:1; 
stroke-linecap:round; stroke-linejoin:round;">
</g>
<g style="fill:#FFFFFF; fill-opacity:1.0; 
stroke:#FFFFFF; stroke-width:0.0393701; stroke-opacity:1; 
stroke-linecap:round; stroke-linejoin:round;">
<circle cx="21162.9" cy="4329.69" r="-19.6654" /> 
</g>
<g style="fill:#FFFFFF; fill-opacity:1.0; 
stroke:#FFFFFF; stroke-width:39.3701; stroke-opacity:1; 
stroke-linecap:round; stroke-linejoin:round;">
</g>
<g style="fill:#FFFFFF; fill-opacity:1.0; 
stroke:#FFFFFF; stroke-width:0.0393701; stroke-opacity:1; 
stroke-linecap:round; stroke-linejoin:round;">
<circle cx="20662.9" cy="4829.69" r="-19.6654" /> 
</g>
<g style="fill:#FFFFFF; fill-opacity:1.0; 
stroke:#FFFFFF; stroke-width:39.3701; stroke-opacity:1; 
stroke-linecap:round; stroke-linejoin:round;">
<circle cx="21162.9" cy="4829.69" r="105.315" /> 
<circle cx="20162.9" cy="4829.69" r="105.315" /> 
<circle cx="20162.9" cy="3829.69" r="105.315" /> 
<circle cx="20662.9" cy="4329.69" r="105.315" /> 
<circle cx="21162.9" cy="3829.69" r="105.315" /> 
<circle cx="5962.95" cy="2229.69" r="105.315" /> 
<circle cx="4822.95" cy="904.685" r="105.315" /> 
<circle cx="4832.95" cy="494.685" r="105.315" /> 
<circle cx="5247.95" cy="494.685" r="105.315" /> 
<circle cx="5247.95" cy="904.685" r="105.315" /> 
<circle cx="5972.95" cy="1819.69" r="105.315" /> 
<circle cx="6832.95" cy="4269.69" r="105.315" /> 
<circle cx="6367.95" cy="4269.69" r="105.315" /> 
<circle cx="9607.95" cy="4959.69" r="105.315" /> 
<circle cx="9607.95" cy="4584.69" r="105.315" /> 
<circle cx="9982.95" cy="4584.69" r="105.315" /> 
<circle cx="9982.95" cy="4959.69" r="105.315" /> 
<circle cx="9042.95" cy="6309.69" r="45.315" /> 
<circle cx="8887.95" cy="6154.69" r="45.315" /> 
<circle cx="8887.95" cy="6459.65" r="45.315" /> 
<circle cx="8672.95" cy="6459.65" r="45.315" /> 
<circle cx="8672.95" cy="6154.69" r="45.315" /> 
<circle cx="10752.9" cy="6469.69" r="45.315" /> 
<circle cx="10967.9" cy="6469.69" r="45.315" /> 
<circle cx="10192.9" cy="9049.69" r="45.315" /> 
<circle cx="10347.9" cy="8894.73" r="45.315" /> 
<circle cx="10347.9" cy="9204.65" r="45.315" /> 
<circle cx="8452.95" cy="8889.69" r="45.315" /> 
<circle cx="8222.95" cy="8889.69" r="45.315" /> 
<circle cx="10572.9" cy="8897.41" r="45.315" /> 
<circle cx="10572.9" cy="9204.65" r="45.315" /> 
<circle cx="10967.9" cy="6049.69" r="105.315" /> 
<circle cx="9922.95" cy="9794.69" r="45.315" /> 
<circle cx="9922.95" cy="10044.7" r="45.315" /> 
<circle cx="11107.9" cy="10044.7" r="45.315" /> 
<circle cx="11522.9" cy="10459.7" r="45.315" /> 
<circle cx="11522.9" cy="10044.7" r="45.315" /> 
<circle cx="11222.9" cy="4064.69" r="105.315" /> 
<circle cx="10787.9" cy="4064.69" r="105.315" /> 
<circle cx="11222.9" cy="3629.69" r="105.315" /> 
<circle cx="10787.9" cy="3629.69" r="105.315" /> 
<circle cx="8167.95" cy="7994.69" r="105.315" /> 
<circle cx="8587.95" cy="7994.69" r="105.315" /> 
<circle cx="10642.9" cy="7359.69" r="105.315" /> 
<circle cx="11057.9" cy="7359.69" r="105.315" /> 
<circle cx="23327.9" cy="5074.69" r="105.315" /> 
<circle cx="23327.9" cy="4629.69" r="105.315" /> 
<circle cx="22722.9" cy="2289.69" r="105.315" /> 
<circle cx="22987.9" cy="2024.69" r="105.315" /> 
<circle cx="21547.9" cy="904.685" r="105.315" /> 
<circle cx="21547.9" cy="529.685" r="105.315" /> 
<circle cx="18347.9" cy="2504.69" r="45.315" /> 
<circle cx="18347.9" cy="2284.69" r="45.315" /> 
<circle cx="21532.9" cy="9204.69" r="105.315" /> 
<circle cx="21537.9" cy="9589.69" r="105.315" /> 
<circle cx="19192.9" cy="5924.69" r="45.315" /> 
<circle cx="19467.9" cy="5924.69" r="45.315" /> 
<circle cx="19192.9" cy="6194.69" r="45.315" /> 
<circle cx="19257.9" cy="10429.7" r="105.315" /> 
<circle cx="19677.9" cy="10429.7" r="105.315" /> 
<circle cx="19257.9" cy="10009.7" r="105.315" /> 
<circle cx="19677.9" cy="10009.7" r="105.315" /> 
</g>
<g style="fill:#FFFFFF; fill-opacity:1.0; 
stroke:#FFFFFF; stroke-width:0.0393701; stroke-opacity:1; 
stroke-linecap:round; stroke-linejoin:round;">
<circle cx="20732.9" cy="6949.69" r="-19.6654" /> 
</g>
<g style="fill:#FFFFFF; fill-opacity:1.0; 
stroke:#FFFFFF; stroke-width:39.3701; stroke-opacity:1; 
stroke-linecap:round; stroke-linejoin:round;">
</g>
<g style="fill:#FFFFFF; fill-opacity:1.0; 
stroke:#FFFFFF; stroke-width:0.0393701; stroke-opacity:1; 
stroke-linecap:round; stroke-linejoin:round;">
<circle cx="21122.9" cy="7319.69" r="-19.6654" /> 
</g>
<g style="fill:#FFFFFF; fill-opacity:1.0; 
stroke:#FFFFFF; stroke-width:39.3701; stroke-opacity:1; 
stroke-linecap:round; stroke-linejoin:round;">
</g>
<g style="fill:#FFFFFF; fill-opacity:1.0; 
stroke:#FFFFFF; stroke-width:0.0393701; stroke-opacity:1; 
stroke-linecap:round; stroke-linejoin:round;">
<circle cx="20927.9" cy="7139.69" r="-19.6654" /> 
</g>
<g style="fill:#FFFFFF; fill-opacity:1.0; 
stroke:#FFFFFF; stroke-width:39.3701; stroke-opacity:1; 
stroke-linecap:round; stroke-linejoin:round;">
</g>
<g style="fill:#FFFFFF; fill-opacity:1.0; 
stroke:#FFFFFF; stroke-width:0.0393701; stroke-opacity:1; 
stroke-linecap:round; stroke-linejoin:round;">
<circle cx="19692.9" cy="7379.69" r="-19.6654" /> 
</g>
<g style="fill:#FFFFFF; fill-opacity:1.0; 
stroke:#FFFFFF; stroke-width:39.3701; stroke-opacity:1; 
stroke-linecap:round; stroke-linejoin:round;">
</g>
<g style="fill:#FFFFFF; fill-opacity:1.0; 
stroke:#FFFFFF; stroke-width:0.0393701; stroke-opacity:1; 
stroke-linecap:round; stroke-linejoin:round;">
<circle cx="19692.9" cy="7839.69" r="-19.6654" /> 
</g>
<g style="fill:#FFFFFF; fill-opacity:1.0; 
stroke:#FFFFFF; stroke-width:39.3701; stroke-opacity:1; 
stroke-linecap:round; stroke-linejoin:round;">
</g>
<g style="fill:#FFFFFF; fill-opacity:1.0; 
stroke:#FFFFFF; stroke-width:0.0393701; stroke-opacity:1; 
stroke-linecap:round; stroke-linejoin:round;">
<circle cx="19692.9" cy="7614.69" r="-19.6654" /> 
</g>
<g style="fill:#FFFFFF; fill-opacity:1.0; 
stroke:#FFFFFF; stroke-width:39.3701; stroke-opacity:1; 
stroke-linecap:round; stroke-linejoin:round;">
<circle cx="10172.9" cy="10174.7" r="45.315" /> 
<circle cx="10372.9" cy="10044.7" r="45.315" /> 
<circle cx="10642.9" cy="10044.7" r="45.315" /> 
<circle cx="19402.9" cy="2944.69" r="45.315" /> 
<circle cx="19247.9" cy="2729.69" r="45.315" /> 
<circle cx="18662.9" cy="3149.69" r="45.315" /> 
<circle cx="21837.9" cy="3144.69" r="45.315" /> 
<circle cx="12552.9" cy="5934.69" r="45.315" /> 
<circle cx="9442.95" cy="6979.69" r="45.315" /> 
<circle cx="17072.9" cy="6324.69" r="472.315" /> 
<circle cx="16927.9" cy="3464.69" r="180.315" /> 
<circle cx="15927.9" cy="3464.69" r="180.315" /> 
<circle cx="6673.34" cy="6444.69" r="344.488" /> 
<circle cx="4822.95" cy="6444.69" r="344.488" /> 
<circle cx="2972.55" cy="6444.69" r="344.488" /> 
<circle cx="7423.34" cy="10196.7" r="344.488" /> 
<circle cx="2222.55" cy="10196.7" r="344.488" /> 
</g>
<g style="fill:#FFFFFF; fill-opacity:1.0; 
stroke:#FFFFFF; stroke-width:236.22; stroke-opacity:1; 
stroke-linecap:round; stroke-linejoin:round;">
</g>
<g style="fill:#FFFFFF; fill-opacity:0.0; 
stroke:#FFFFFF; stroke-width:236.22; stroke-opacity:1; 
stroke-linecap:round; stroke-linejoin:round;">
<path d="M1856 4283
L2329 4283
" />
<path d="M1856 385
L2329 385
" />
<path d="M3490 4283
L3844 4283
" />
<path d="M3490 385
L3844 385
" />
</g>
<g style="fill:#FFFFFF; fill-opacity:0.0; 
stroke:#FFFFFF; stroke-width:39.3701; stroke-opacity:1; 
stroke-linecap:round; stroke-linejoin:round;">
</g>
<g style="fill:#FFFFFF; fill-opacity:1.0; 
stroke:#FFFFFF; stroke-width:39.3701; stroke-opacity:1; 
stroke-linecap:round; stroke-linejoin:round;">
<circle cx="8982.95" cy="2224.69" r="127.953" /> 
<circle cx="8982.95" cy="1224.69" r="127.953" /> 
<circle cx="14852.9" cy="4244.69" r="157.48" /> 
<circle cx="14852.9" cy="1244.69" r="157.48" /> 
<circle cx="15257.9" cy="7479.69" r="157.48" /> 
<circle cx="15257.9" cy="10479.7" r="157.48" /> 
<circle cx="13677.1" cy="5079.69" r="127.953" /> 
<circle cx="14562.9" cy="5079.69" r="127.953" /> 
<circle cx="15448.8" cy="5079.69" r="127.953" /> 
<circle cx="13697.1" cy="6779.69" r="127.953" /> 
<circle cx="14582.9" cy="6779.69" r="127.953" /> 
<circle cx="15468.8" cy="6779.69" r="127.953" /> 
<circle cx="24322.9" cy="9099.69" r="118.11" /> 
<circle cx="24322.9" cy="8599.69" r="118.11" /> 
<circle cx="24322.9" cy="8099.69" r="118.11" /> 
<circle cx="24322.9" cy="7599.69" r="118.11" /> 
<circle cx="24317.9" cy="6684.69" r="118.11" /> 
<circle cx="24317.9" cy="6184.69" r="118.11" /> 
<circle cx="24317.9" cy="5684.69" r="118.11" /> 
<circle cx="24317.9" cy="5184.69" r="118.11" /> 
<circle cx="21772.9" cy="10384.7" r="118.11" /> 
<circle cx="22272.9" cy="10384.7" r="118.11" /> 
<circle cx="22772.9" cy="10384.7" r="118.11" /> 
<circle cx="23272.9" cy="10384.7" r="118.11" /> 
<circle cx="23772.9" cy="10384.7" r="118.11" /> 
<circle cx="24272.9" cy="10384.7" r="118.11" /> 
<circle cx="16852.9" cy="10379.7" r="118.11" /> 
<circle cx="17352.9" cy="10379.7" r="118.11" /> 
<circle cx="17852.9" cy="10379.7" r="118.11" /> 
<circle cx="18352.9" cy="10379.7" r="118.11" /> 
<circle cx="19362.9" cy="534.685" r="118.11" /> 
<circle cx="18862.9" cy="534.685" r="118.11" /> 
<circle cx="18362.9" cy="534.685" r="118.11" /> 
<circle cx="17862.9" cy="534.685" r="118.11" /> 
<circle cx="17362.9" cy="534.685" r="118.11" /> 
<circle cx="16862.9" cy="534.685" r="118.11" /> 
<circle cx="16362.9" cy="534.685" r="118.11" /> 
<circle cx="15862.9" cy="534.685" r="118.11" /> 
<circle cx="15362.9" cy="534.685" r="118.11" /> 
<circle cx="12652.9" cy="3459.69" r="180.315" /> 
<circle cx="13652.9" cy="3459.69" r="180.315" /> 
<circle cx="17287.9" cy="8394.69" r="180.315" /> 
<circle cx="16287.9" cy="8394.69" r="180.315" /> 
<circle cx="13097.9" cy="8404.69" r="180.315" /> 
<circle cx="14097.9" cy="8404.69" r="180.315" /> 
</g> 
</svg>
