<?xml version="1.0" standalone="no"?>
 <!DOCTYPE svg PUBLIC "-//W3C//DTD SVG 1.1//EN" 
 "http://www.w3.org/Graphics/SVG/1.1/DTD/svg11.dtd"> 
<svg xmlns="http://www.w3.org/2000/svg" version="1.1" 
    width="6.34746cm" height="2.94132cm" viewBox="0 0 24990 11580 ">
<title>SVG Picture created as weather_station-B_SilkS.svg date 2015/04/19 11:02:50 </title>
  <desc>Picture generated by PCBNEW </desc>
<g style="fill:#000000; fill-opacity:1;stroke:#000000; stroke-opacity:1;
stroke-linecap:round; stroke-linejoin:round; "
 transform="translate(0 0) scale(1 1)">
</g>
<g style="fill:#C2C200; fill-opacity:0.0; 
stroke:#C2C200; stroke-width:39.3701; stroke-opacity:1; 
stroke-linecap:round; stroke-linejoin:round;">
<path d="M1322 3899
L1322 10904
" />
<path d="M1322 769
L1327 769
" />
<path d="M1332 769
L1322 769
" />
<path d="M1322 769
L1332 769
" />
<path d="M1322 19
L1322 769
" />
<path d="M3137 3899
L1322 3899
" />
<path d="M3132 769
L1322 769
" />
<path d="M3502 3534
L3502 1134
" />
<path d="M3137.95 3899.69 A365 365 0.0 0 0 3502.95 3534.69 " />
<path d="M3502.95 1134.69 A365 365 0.0 0 0 3137.95 769.685 " />
<path d="M1842 10904
L1827 10904
" />
<path d="M1322 10904
L1842 10904
" />
<path d="M1322 10889
L1322 10904
" />
<path d="M1912 10904
L1922 10904
" />
<path d="M1827 10904
L1912 10904
" />
<path d="M24837 10904
L1827 10904
" />
<path d="M24837 10724
L24837 10904
" />
<path d="M24572 10904
L24592 10904
" />
<path d="M24837 1439
L24837 10729
" />
<path d="M24837 1454
L24837 1374
" />
<path d="M24837 1404
L24837 1454
" />
<path d="M24837 19
L24477 19
" />
<path d="M24837 29
L24837 19
" />
<path d="M24837 1354
L24837 29
" />
<path d="M24837 1359
L24837 1394
" />
<path d="M24837 1394
L24837 1359
" />
<path d="M2222 19
L24487 19
" />
<path d="M1322 19
L2217 19
" />
</g>
<g style="fill:#840084; fill-opacity:0.0; 
stroke:#840084; stroke-width:49.2126; stroke-opacity:1; 
stroke-linecap:round; stroke-linejoin:round;">
<path d="M7166 1671
L7073 1606
" />
<path d="M7166 1559
L6970 1559
L6970 1634
L6979 1653
L6988 1662
L7007 1671
L7035 1671
L7054 1662
L7063 1653
L7073 1634
L7073 1559
" />
<path d="M6988 1746
L6979 1756
L6970 1774
L6970 1821
L6979 1840
L6988 1849
L7007 1859
L7026 1859
L7054 1849
L7166 1737
L7166 1859
" />
<path d="M3525 4601
L3525 4761
L3516 4779
L3506 4789
L3488 4798
L3450 4798
L3431 4789
L3422 4779
L3413 4761
L3413 4601
" />
<path d="M3328 4789
L3300 4798
L3253 4798
L3235 4789
L3225 4779
L3216 4761
L3216 4742
L3225 4723
L3235 4714
L3253 4704
L3291 4695
L3310 4686
L3319 4676
L3328 4658
L3328 4639
L3319 4620
L3310 4611
L3291 4601
L3244 4601
L3216 4611
" />
<path d="M3066 4695
L3038 4704
L3028 4714
L3019 4733
L3019 4761
L3028 4779
L3038 4789
L3056 4798
L3131 4798
L3131 4601
L3066 4601
L3047 4611
L3038 4620
L3028 4639
L3028 4658
L3038 4676
L3047 4686
L3066 4695
L3131 4695
" />
<path d="M2981 4817
L2831 4817
" />
<path d="M2785 4798
L2785 4601
L2719 4742
L2653 4601
L2653 4798
" />
<path d="M2560 4798
L2560 4601
" />
<path d="M2353 4779
L2363 4789
L2391 4798
L2410 4798
L2438 4789
L2457 4770
L2466 4751
L2475 4714
L2475 4686
L2466 4648
L2457 4630
L2438 4611
L2410 4601
L2391 4601
L2363 4611
L2353 4620
" />
<path d="M2157 4798
L2222 4704
" />
<path d="M2269 4798
L2269 4601
L2194 4601
L2175 4611
L2166 4620
L2157 4639
L2157 4667
L2166 4686
L2175 4695
L2194 4704
L2269 4704
" />
<path d="M2035 4601
L1997 4601
L1978 4611
L1960 4630
L1950 4667
L1950 4733
L1960 4770
L1978 4789
L1997 4798
L2035 4798
L2053 4789
L2072 4770
L2082 4733
L2082 4667
L2072 4630
L2053 4611
L2035 4601
" />
<path d="M2163 1880
L2172 1870
L2181 1842
L2181 1823
L2172 1795
L2153 1776
L2135 1767
L2097 1758
L2069 1758
L2032 1767
L2013 1776
L1994 1795
L1985 1823
L1985 1842
L1994 1870
L2003 1880
" />
<path d="M2050 2048
L2181 2048
" />
<path d="M2050 1964
L2153 1964
L2172 1973
L2181 1992
L2181 2020
L2172 2039
L2163 2048
" />
<path d="M2050 2114
L2050 2189
" />
<path d="M1985 2142
L2153 2142
L2172 2151
L2181 2170
L2181 2189
" />
<path d="M1985 2442
L1985 2479
L1994 2498
L2013 2517
L2050 2526
L2116 2526
L2153 2517
L2172 2498
L2181 2479
L2181 2442
L2172 2423
L2153 2404
L2116 2395
L2050 2395
L2013 2404
L1994 2423
L1985 2442
" />
<path d="M2050 2695
L2181 2695
" />
<path d="M2050 2611
L2153 2611
L2172 2620
L2181 2639
L2181 2667
L2172 2686
L2163 2695
" />
<path d="M2050 2761
L2050 2836
" />
<path d="M1985 2789
L2153 2789
L2172 2798
L2181 2817
L2181 2836
" />
<path d="M2163 2901
L2172 2911
L2181 2901
L2172 2892
L2163 2901
L2181 2901
" />
<path d="M2107 2901
L1994 2892
L1985 2901
L1994 2911
L2107 2901
L1985 2901
" />
<path d="M5985 2989
L5995 2999
L6023 3008
L6041 3008
L6070 2999
L6088 2980
L6098 2961
L6107 2924
L6107 2896
L6098 2858
L6088 2840
L6070 2821
L6041 2811
L6023 2811
L5995 2821
L5985 2830
" />
<path d="M5817 2811
L5854 2811
L5873 2821
L5882 2830
L5901 2858
L5910 2896
L5910 2971
L5901 2989
L5892 2999
L5873 3008
L5835 3008
L5817 2999
L5807 2989
L5798 2971
L5798 2924
L5807 2905
L5817 2896
L5835 2886
L5873 2886
L5892 2896
L5901 2905
L5910 2924
" />
<path d="M5208 1361
L5217 1352
L5226 1324
L5226 1305
L5217 1277
L5198 1258
L5180 1249
L5142 1240
L5114 1240
L5077 1249
L5058 1258
L5039 1277
L5030 1305
L5030 1324
L5039 1352
L5048 1361
" />
<path d="M5226 1455
L5226 1493
L5217 1511
L5208 1521
L5180 1539
L5142 1549
L5067 1549
L5048 1539
L5039 1530
L5030 1511
L5030 1474
L5039 1455
L5048 1446
L5067 1436
L5114 1436
L5133 1446
L5142 1455
L5152 1474
L5152 1511
L5142 1530
L5133 1539
L5114 1549
" />
<path d="M6898 2895
L6898 2698
L6851 2698
L6823 2708
L6804 2727
L6795 2745
L6785 2783
L6785 2811
L6795 2848
L6804 2867
L6823 2886
L6851 2895
L6898 2895
" />
<path d="M6598 2895
L6710 2895
" />
<path d="M6654 2895
L6654 2698
L6673 2727
L6692 2745
L6710 2755
" />
<path d="M7573 2898
L7573 2701
L7526 2701
L7498 2711
L7479 2730
L7470 2748
L7460 2786
L7460 2814
L7470 2851
L7479 2870
L7498 2889
L7526 2898
L7573 2898
" />
<path d="M7385 2720
L7376 2711
L7357 2701
L7310 2701
L7292 2711
L7282 2720
L7273 2739
L7273 2758
L7282 2786
L7395 2898
L7273 2898
" />
<path d="M14941 2599
L14745 2599
L14745 2646
L14754 2674
L14773 2693
L14792 2702
L14829 2711
L14857 2711
L14895 2702
L14913 2693
L14932 2674
L14941 2646
L14941 2599
" />
<path d="M14745 2777
L14745 2899
L14820 2833
L14820 2861
L14829 2880
L14838 2889
L14857 2899
L14904 2899
L14923 2889
L14932 2880
L14941 2861
L14941 2805
L14932 2786
L14923 2777
" />
<path d="M15346 8834
L15150 8834
L15150 8881
L15159 8909
L15178 8928
L15197 8937
L15234 8946
L15262 8946
L15300 8937
L15318 8928
L15337 8909
L15346 8881
L15346 8834
" />
<path d="M15215 9115
L15346 9115
" />
<path d="M15140 9068
L15281 9021
L15281 9143
" />
<path d="M5393 4979
L5393 4913
" />
<path d="M5496 4913
L5300 4913
L5300 5007
" />
<path d="M5496 5185
L5496 5072
" />
<path d="M5496 5129
L5300 5129
L5328 5110
L5347 5091
L5356 5072
" />
</g>
<g style="fill:#840084; fill-opacity:0.0; 
stroke:#840084; stroke-width:59.0551; stroke-opacity:1; 
stroke-linecap:round; stroke-linejoin:round;">
<path d="M4451 4594
L4057 4594
L4057 4744
L4076 4782
L4094 4800
L4132 4819
L4188 4819
L4226 4800
L4244 4782
L4263 4744
L4263 4594
" />
<path d="M4057 4932
L4057 5157
" />
<path d="M4451 5044
L4057 5044
" />
<path d="M4413 5513
L4432 5494
L4451 5438
L4451 5400
L4432 5344
L4394 5307
L4357 5288
L4282 5269
L4226 5269
L4151 5288
L4113 5307
L4076 5344
L4057 5400
L4057 5438
L4076 5494
L4094 5513
" />
</g>
<g style="fill:#840084; fill-opacity:0.0; 
stroke:#840084; stroke-width:49.2126; stroke-opacity:1; 
stroke-linecap:round; stroke-linejoin:round;">
<path d="M7231 3836
L7138 3771
" />
<path d="M7231 3724
L7035 3724
L7035 3799
L7044 3818
L7053 3827
L7072 3836
L7100 3836
L7119 3827
L7128 3818
L7138 3799
L7138 3724
" />
<path d="M7035 3902
L7035 4024
L7110 3958
L7110 3986
L7119 4005
L7128 4014
L7147 4024
L7194 4024
L7213 4014
L7222 4005
L7231 3986
L7231 3930
L7222 3911
L7213 3902
" />
<path d="M6146 3816
L6053 3751
" />
<path d="M6146 3704
L5950 3704
L5950 3779
L5959 3798
L5968 3807
L5987 3816
L6015 3816
L6034 3807
L6043 3798
L6053 3779
L6053 3704
" />
<path d="M5950 3994
L5950 3901
L6043 3891
L6034 3901
L6025 3919
L6025 3966
L6034 3985
L6043 3994
L6062 4004
L6109 4004
L6128 3994
L6137 3985
L6146 3966
L6146 3919
L6137 3901
L6128 3891
" />
</g>
<g style="fill:#840084; fill-opacity:0.0; 
stroke:#840084; stroke-width:59.0551; stroke-opacity:1; 
stroke-linecap:round; stroke-linejoin:round;">
<path d="M5401 2489
L5401 2728
L5386 2756
L5372 2770
L5344 2784
L5288 2784
L5260 2770
L5246 2756
L5232 2728
L5232 2489
" />
<path d="M4965 2489
L5021 2489
L5049 2503
L5063 2517
L5091 2559
L5105 2616
L5105 2728
L5091 2756
L5077 2770
L5049 2784
L4993 2784
L4965 2770
L4951 2756
L4937 2728
L4937 2658
L4951 2630
L4965 2616
L4993 2601
L5049 2601
L5077 2616
L5091 2630
L5105 2658
" />
<path d="M6627 1954
L7527 1954
" />
<path d="M7527 1954
L7527 1454
" />
<path d="M7527 1454
L6627 1454
" />
<path d="M6627 1454
L6627 1954
" />
<path d="M3490 3609
L3490 1059
" />
<path d="M3490.58 1061.85 A316.651 316.651 0.0 0 0 3142.95 779.567 " />
<path d="M1325 779
L3142 779
" />
<path d="M1325 3889
L3142 3889
" />
<path d="M3142.95 3889.8 A316.651 316.651 0.0 0 0 3490.58 3607.52 " />
<path d="M1325 3889
L1325 779
" />
<path d="M6202 3369
L6202 2469
" />
<path d="M6202 2469
L5702 2469
" />
<path d="M5702 2469
L5702 3369
" />
<path d="M5702 3369
L6202 3369
" />
<path d="M5577 1164
L4677 1164
" />
<path d="M4677 1164
L4677 1664
" />
<path d="M4677 1664
L5577 1664
" />
<path d="M5577 1664
L5577 1164
" />
<path d="M6634 2610
L6506 2610
" />
<path d="M6506 2610
L6506 2413
" />
<path d="M6634 2413
L6506 2413
" />
<path d="M6634 2610
L6634 2413
" />
<path d="M6879 2610
L6820 2610
" />
<path d="M6820 2610
L6820 2511
" />
<path d="M6879 2511
L6820 2511
" />
<path d="M6879 2610
L6879 2511
" />
<path d="M6684 2610
L6625 2610
" />
<path d="M6625 2610
L6625 2511
" />
<path d="M6684 2511
L6625 2511
" />
<path d="M6684 2610
L6684 2511
" />
<path d="M6830 2610
L6674 2610
" />
<path d="M6674 2610
L6674 2541
" />
<path d="M6830 2541
L6674 2541
" />
<path d="M6830 2610
L6830 2541
" />
<path d="M6634 3199
L6506 3199
" />
<path d="M6506 3199
L6506 3002
" />
<path d="M6634 3002
L6506 3002
" />
<path d="M6634 3199
L6634 3002
" />
<path d="M6998 3199
L6870 3199
" />
<path d="M6870 3199
L6870 3002
" />
<path d="M6998 3002
L6870 3002
" />
<path d="M6998 3199
L6998 3002
" />
<path d="M6684 3101
L6625 3101
" />
<path d="M6625 3101
L6625 3002
" />
<path d="M6684 3002
L6625 3002
" />
<path d="M6684 3101
L6684 3002
" />
<path d="M6879 3101
L6820 3101
" />
<path d="M6820 3101
L6820 3002
" />
<path d="M6879 3002
L6820 3002
" />
<path d="M6879 3101
L6879 3002
" />
<path d="M6830 3071
L6674 3071
" />
<path d="M6674 3071
L6674 3002
" />
<path d="M6830 3002
L6674 3002
" />
<path d="M6830 3071
L6830 3002
" />
<path d="M6791 2806
L6713 2806
" />
<path d="M6713 2806
L6713 2728
" />
<path d="M6791 2728
L6713 2728
" />
<path d="M6791 2806
L6791 2728
" />
<path d="M6988 2610
L6870 2610
" />
<path d="M6870 2610
L6870 2492
" />
<path d="M6988 2492
L6870 2492
" />
<path d="M6988 2610
L6988 2492
" />
<path d="M6998 2442
L6909 2442
" />
<path d="M6909 2442
L6909 2413
" />
<path d="M6998 2413
L6909 2413
" />
<path d="M6998 2442
L6998 2413
" />
<path d="M6526 2600
L6526 3012
" />
<path d="M6978 3002
L6978 2442
" />
<circle cx="6929.95" cy="2472.69" r="28.2843" /> 
<path d="M6615.95 2413.69 A137 137 0.0 0 0 6889.95 2413.69 " />
<path d="M6889.95 3199.69 A137 137 0.0 0 0 6615.95 3199.69 " />
<path d="M7545 3005
L7673 3005
" />
<path d="M7673 3005
L7673 3202
" />
<path d="M7545 3202
L7673 3202
" />
<path d="M7545 3005
L7545 3202
" />
<path d="M7300 3005
L7359 3005
" />
<path d="M7359 3005
L7359 3104
" />
<path d="M7300 3104
L7359 3104
" />
<path d="M7300 3005
L7300 3104
" />
<path d="M7495 3005
L7554 3005
" />
<path d="M7554 3005
L7554 3104
" />
<path d="M7495 3104
L7554 3104
" />
<path d="M7495 3005
L7495 3104
" />
<path d="M7349 3005
L7505 3005
" />
<path d="M7505 3005
L7505 3074
" />
<path d="M7349 3074
L7505 3074
" />
<path d="M7349 3005
L7349 3074
" />
<path d="M7545 2416
L7673 2416
" />
<path d="M7673 2416
L7673 2613
" />
<path d="M7545 2613
L7673 2613
" />
<path d="M7545 2416
L7545 2613
" />
<path d="M7181 2416
L7309 2416
" />
<path d="M7309 2416
L7309 2613
" />
<path d="M7181 2613
L7309 2613
" />
<path d="M7181 2416
L7181 2613
" />
<path d="M7495 2514
L7554 2514
" />
<path d="M7554 2514
L7554 2613
" />
<path d="M7495 2613
L7554 2613
" />
<path d="M7495 2514
L7495 2613
" />
<path d="M7300 2514
L7359 2514
" />
<path d="M7359 2514
L7359 2613
" />
<path d="M7300 2613
L7359 2613
" />
<path d="M7300 2514
L7300 2613
" />
<path d="M7349 2544
L7505 2544
" />
<path d="M7505 2544
L7505 2613
" />
<path d="M7349 2613
L7505 2613
" />
<path d="M7349 2544
L7349 2613
" />
<path d="M7388 2809
L7466 2809
" />
<path d="M7466 2809
L7466 2887
" />
<path d="M7388 2887
L7466 2887
" />
<path d="M7388 2809
L7388 2887
" />
<path d="M7191 3005
L7309 3005
" />
<path d="M7309 3005
L7309 3123
" />
<path d="M7191 3123
L7309 3123
" />
<path d="M7191 3005
L7191 3123
" />
<path d="M7181 3173
L7270 3173
" />
<path d="M7270 3173
L7270 3202
" />
<path d="M7181 3202
L7270 3202
" />
<path d="M7181 3173
L7181 3202
" />
<path d="M7653 3015
L7653 2603
" />
<path d="M7201 2613
L7201 3173
" />
<circle cx="7250.95" cy="3143.69" r="28.2843" /> 
<path d="M7564.95 3202.69 A137 137 0.0 0 0 7290.95 3202.69 " />
<path d="M7290.95 2416.69 A137 137 0.0 0 0 7564.95 2416.69 " />
</g>
<g style="fill:#840084; fill-opacity:0.0; 
stroke:#840084; stroke-width:120; stroke-opacity:1; 
stroke-linecap:round; stroke-linejoin:round;">
<path d="M14852 4244
L14852 3944
" />
<path d="M14852 3944
L14452 3944
" />
<path d="M14452 3944
L14452 1544
" />
<path d="M14452 1544
L14852 1544
" />
<path d="M14852 1544
L14852 1244
" />
<path d="M14852 1544
L15252 1544
" />
<path d="M15252 1544
L15252 3944
" />
<path d="M15252 3944
L14852 3944
" />
<path d="M14452 3744
L15252 3744
" />
<path d="M15252 3644
L14452 3644
" />
<path d="M15257 7479
L15257 7779
" />
<path d="M15257 7779
L15657 7779
" />
<path d="M15657 7779
L15657 10179
" />
<path d="M15657 10179
L15257 10179
" />
<path d="M15257 10179
L15257 10479
" />
<path d="M15257 10179
L14857 10179
" />
<path d="M14857 10179
L14857 7779
" />
<path d="M14857 7779
L15257 7779
" />
<path d="M15657 7979
L14857 7979
" />
<path d="M14857 8079
L15657 8079
" />
</g>
<g style="fill:#840084; fill-opacity:0.0; 
stroke:#840084; stroke-width:59.0551; stroke-opacity:1; 
stroke-linecap:round; stroke-linejoin:round;">
<circle cx="6382.95" cy="5644.69" r="70.7106" /> 
<path d="M5732 4494
L6332 4494
" />
<path d="M6332 4494
L6332 5594
" />
<path d="M6332 5594
L5732 5594
" />
<path d="M5132 5594
L4532 5594
" />
<path d="M4532 5594
L4532 4494
" />
<path d="M4532 4494
L5132 4494
" />
<path d="M6682 4109
L7582 4109
" />
<path d="M7582 4109
L7582 3609
" />
<path d="M7582 3609
L6682 3609
" />
<path d="M6682 3609
L6682 4109
" />
<path d="M6517 3609
L5617 3609
" />
<path d="M5617 3609
L5617 4109
" />
<path d="M5617 4109
L6517 4109
" />
<path d="M6517 4109
L6517 3609
" />
<path d="M4526 2926
L5589 2926
" />
<path d="M5589 2926
L5589 2414
" />
<path d="M5589 2414
L4526 2414
" />
<path d="M4526 2414
L4526 2926
" />
</g>
<g style="fill:#840000; fill-opacity:0.0; 
stroke:#840000; stroke-width:393.701; stroke-opacity:1; 
stroke-linecap:round; stroke-linejoin:round;">
<path d="M1856 4283
L2329 4283
" />
<path d="M1856 385
L2329 385
" />
<path d="M3470 4283
L3864 4283
" />
<path d="M3470 385
L3864 385
" />
</g>
<g style="fill:#840000; fill-opacity:0.0; 
stroke:#840000; stroke-width:39.3701; stroke-opacity:1; 
stroke-linecap:round; stroke-linejoin:round;">
</g>
<g style="fill:#840000; fill-opacity:1.0; 
stroke:#840000; stroke-width:39.3701; stroke-opacity:1; 
stroke-linecap:round; stroke-linejoin:round;">
<polyline style="fill-rule:evenodd;"
points="14577,3969
15128,3969
15128,4520
14577,4520
14577,3969
" /> 
<circle cx="14852.9" cy="1244.69" r="275.591" /> 
<polyline style="fill-rule:evenodd;"
points="15533,7755
14982,7755
14982,7204
15533,7204
15533,7755
" /> 
<circle cx="15257.9" cy="10479.7" r="275.591" /> 
</g> 
</svg>
