<?xml version="1.0" standalone="no"?>
 <!DOCTYPE svg PUBLIC "-//W3C//DTD SVG 1.1//EN" 
 "http://www.w3.org/Graphics/SVG/1.1/DTD/svg11.dtd"> 
<svg xmlns="http://www.w3.org/2000/svg" version="1.1" 
    width="8.54964cm" height="3.69062cm" viewBox="0 0 33660 14530 ">
<title>SVG Picture created as weather_station-F_SilkS.svg date 2015/04/13 21:23:06 </title>
  <desc>Picture generated by PCBNEW </desc>
<g style="fill:#000000; fill-opacity:1;stroke:#000000; stroke-opacity:1;
stroke-linecap:round; stroke-linejoin:round; "
 transform="translate(0 0) scale(1 1)">
</g>
<g style="fill:#C2C200; fill-opacity:0.0; 
stroke:#C2C200; stroke-width:39.3701; stroke-opacity:1; 
stroke-linecap:round; stroke-linejoin:round;">
<circle cx="18249.7" cy="13512.2" r="536.493" /> 
<circle cx="9149.69" cy="1162.24" r="501.224" /> 
<circle cx="1019.69" cy="8232.24" r="501.598" /> 
<circle cx="32639.7" cy="13507.2" r="500.4" /> 
<circle cx="32639.7" cy="1167.24" r="500.025" /> 
</g>
<g style="fill:#008484; fill-opacity:0.0; 
stroke:#008484; stroke-width:19.685; stroke-opacity:1; 
stroke-linecap:round; stroke-linejoin:round;">
<path d="M7510 10793
L7506 10800
L7506 10812
L7510 10823
L7517 10830
L7525 10834
L7540 10838
L7551 10838
L7566 10834
L7574 10830
L7581 10823
L7585 10812
L7585 10804
L7581 10793
L7577 10789
L7551 10789
L7551 10804
" />
<path d="M7585 10755
L7506 10755
L7585 10710
L7506 10710
" />
<path d="M7585 10673
L7506 10673
L7506 10654
L7510 10643
L7517 10635
L7525 10632
L7540 10628
L7551 10628
L7566 10632
L7574 10635
L7581 10643
L7585 10654
L7585 10673
" />
<path d="M7555 10534
L7555 10474
" />
<path d="M7581 10381
L7585 10369
L7585 10351
L7581 10343
L7577 10339
L7570 10336
L7562 10336
L7555 10339
L7551 10343
L7547 10351
L7544 10366
L7540 10373
L7536 10377
L7529 10381
L7521 10381
L7514 10377
L7510 10373
L7506 10366
L7506 10347
L7510 10336
" />
<path d="M7510 10261
L7506 10268
L7506 10279
L7510 10291
L7517 10298
L7525 10302
L7540 10306
L7551 10306
L7566 10302
L7574 10298
L7581 10291
L7585 10279
L7585 10272
L7581 10261
L7577 10257
L7551 10257
L7551 10272
" />
<path d="M7585 10223
L7506 10223
L7585 10178
L7506 10178
" />
<path d="M7585 10141
L7506 10141
L7506 10122
L7510 10111
L7517 10103
L7525 10099
L7540 10096
L7551 10096
L7566 10099
L7574 10103
L7581 10111
L7585 10122
L7585 10141
" />
</g>
<g style="fill:#C2C200; fill-opacity:0.0; 
stroke:#C2C200; stroke-width:39.3701; stroke-opacity:1; 
stroke-linecap:round; stroke-linejoin:round;">
<path d="M33644 162
L29319 162
" />
<path d="M33644 14512
L33644 162
" />
<path d="M1314 14512
L33644 14512
" />
<path d="M1314 14512
L1289 14512
" />
<path d="M19 14512
L1314 14512
" />
<path d="M19 14477
L19 14512
" />
<path d="M49 162
L19 162
" />
<path d="M19 162
L19 14507
" />
<path d="M1609 162
L24 162
" />
<path d="M1609 1977
L1609 162
" />
<path d="M1609 2017
L1609 1977
" />
<path d="M4729 162
L4734 162
" />
<path d="M4729 1967
L4729 162
" />
<path d="M4729 2002
L4729 1967
" />
<path d="M29074 162
L4729 162
" />
<path d="M29104 162
L29074 162
" />
<path d="M29104 162
L29329 162
" />
<path d="M4729 2017
L4729 2002
" />
<path d="M1609 2037
L1609 2012
" />
<path d="M4469 2292
L1894 2292
" />
<path d="M4469.69 2292.24 A270.185 270.185 0.0 0 0 4729.69 2012.24 " />
<path d="M1609.69 2032.24 A270.185 270.185 0.0 0 0 1889.69 2292.24 " />
</g>
<g style="fill:#008484; fill-opacity:0.0; 
stroke:#008484; stroke-width:59.0551; stroke-opacity:1; 
stroke-linecap:round; stroke-linejoin:round;">
<path d="M20922 8781
L20979 8800
L21072 8800
L21110 8781
L21129 8762
L21147 8725
L21147 8687
L21129 8650
L21110 8631
L21072 8612
L20997 8594
L20960 8575
L20941 8556
L20922 8519
L20922 8481
L20941 8444
L20960 8425
L20997 8406
L21091 8406
L21147 8425
" />
<path d="M21316 8800
L21316 8406
L21466 8406
L21504 8425
L21522 8444
L21541 8481
L21541 8537
L21522 8575
L21504 8594
L21466 8612
L21316 8612
" />
<path d="M21672 8406
L21916 8406
L21785 8556
L21841 8556
L21879 8575
L21897 8594
L21916 8631
L21916 8725
L21897 8762
L21879 8781
L21841 8800
L21729 8800
L21691 8781
L21672 8762
" />
<path d="M20735 10556
L20829 10950
L20904 10669
L20979 10950
L21072 10556
" />
<path d="M21222 10744
L21354 10744
" />
<path d="M21410 10950
L21222 10950
L21222 10556
L21410 10556
" />
<path d="M21560 10931
L21616 10950
L21710 10950
L21747 10931
L21766 10912
L21785 10875
L21785 10837
L21766 10800
L21747 10781
L21710 10762
L21635 10744
L21597 10725
L21579 10706
L21560 10669
L21560 10631
L21579 10594
L21597 10575
L21635 10556
L21729 10556
L21785 10575
" />
<path d="M21897 10556
L22122 10556
" />
<path d="M22010 10950
L22010 10556
" />
</g>
<g style="fill:#008484; fill-opacity:0.0; 
stroke:#008484; stroke-width:49.2126; stroke-opacity:1; 
stroke-linecap:round; stroke-linejoin:round;">
<path d="M5436 2329
L5596 2329
L5614 2320
L5624 2311
L5633 2292
L5633 2254
L5624 2236
L5614 2226
L5596 2217
L5436 2217
" />
<path d="M5624 2133
L5633 2104
L5633 2058
L5624 2039
L5614 2029
L5596 2020
L5577 2020
L5558 2029
L5549 2039
L5539 2058
L5530 2095
L5521 2114
L5511 2123
L5493 2133
L5474 2133
L5455 2123
L5446 2114
L5436 2095
L5436 2048
L5446 2020
" />
<path d="M5530 1870
L5539 1842
L5549 1833
L5568 1823
L5596 1823
L5614 1833
L5624 1842
L5633 1861
L5633 1936
L5436 1936
L5436 1870
L5446 1851
L5455 1842
L5474 1833
L5493 1833
L5511 1842
L5521 1851
L5530 1870
L5530 1936
" />
<path d="M5652 1786
L5652 1636
" />
<path d="M5633 1589
L5436 1589
L5577 1523
L5436 1458
L5633 1458
" />
<path d="M5633 1364
L5436 1364
" />
<path d="M5614 1158
L5624 1167
L5633 1195
L5633 1214
L5624 1242
L5605 1261
L5586 1270
L5549 1280
L5521 1280
L5483 1270
L5465 1261
L5446 1242
L5436 1214
L5436 1195
L5446 1167
L5455 1158
" />
<path d="M5633 961
L5539 1026
" />
<path d="M5633 1073
L5436 1073
L5436 998
L5446 980
L5455 970
L5474 961
L5502 961
L5521 970
L5530 980
L5539 998
L5539 1073
" />
<path d="M5436 839
L5436 802
L5446 783
L5465 764
L5502 755
L5568 755
L5605 764
L5624 783
L5633 802
L5633 839
L5624 858
L5605 877
L5568 886
L5502 886
L5465 877
L5446 858
L5436 839
" />
<path d="M2715 967
L2705 976
L2677 986
L2658 986
L2630 976
L2611 958
L2602 939
L2593 901
L2593 873
L2602 836
L2611 817
L2630 798
L2658 789
L2677 789
L2705 798
L2715 808
" />
<path d="M2883 855
L2883 986
" />
<path d="M2799 855
L2799 958
L2808 976
L2827 986
L2855 986
L2874 976
L2883 967
" />
<path d="M2949 855
L3024 855
" />
<path d="M2977 789
L2977 958
L2986 976
L3005 986
L3024 986
" />
<path d="M3277 789
L3314 789
L3333 798
L3352 817
L3361 855
L3361 920
L3352 958
L3333 976
L3314 986
L3277 986
L3258 976
L3239 958
L3230 920
L3230 855
L3239 817
L3258 798
L3277 789
" />
<path d="M3530 855
L3530 986
" />
<path d="M3446 855
L3446 958
L3455 976
L3474 986
L3502 986
L3521 976
L3530 967
" />
<path d="M3596 855
L3671 855
" />
<path d="M3624 789
L3624 958
L3633 976
L3652 986
L3671 986
" />
<path d="M3736 967
L3746 976
L3736 986
L3727 976
L3736 967
L3736 986
" />
<path d="M3736 911
L3727 798
L3736 789
L3746 798
L3736 911
L3736 789
" />
<path d="M29865 3893
L29893 3902
L29902 3911
L29911 3930
L29911 3958
L29902 3977
L29893 3986
L29874 3996
L29799 3996
L29799 3799
L29865 3799
L29883 3808
L29893 3818
L29902 3836
L29902 3855
L29893 3874
L29883 3883
L29865 3893
L29799 3893
" />
<path d="M30099 3996
L29986 3996
" />
<path d="M30043 3996
L30043 3799
L30024 3827
L30005 3846
L29986 3855
" />
</g>
<g style="fill:#008484; fill-opacity:0.0; 
stroke:#008484; stroke-width:59.0551; stroke-opacity:1; 
stroke-linecap:round; stroke-linejoin:round;">
<path d="M4741 5731
L4760 5675
L4779 5656
L4816 5637
L4872 5637
L4910 5656
L4929 5675
L4947 5712
L4947 5862
L4554 5862
L4554 5731
L4572 5694
L4591 5675
L4629 5656
L4666 5656
L4704 5675
L4722 5694
L4741 5731
L4741 5862
" />
<path d="M4554 5525
L4554 5300
" />
<path d="M4947 5412
L4554 5412
" />
<path d="M4947 4962
L4947 5187
" />
<path d="M4947 5075
L4554 5075
L4610 5112
L4647 5150
L4666 5187
" />
<path d="M6347 6959
L6347 7147
L5954 7147
" />
<path d="M6347 6828
L6085 6828
" />
<path d="M5954 6828
L5972 6847
L5991 6828
L5972 6809
L5954 6828
L5991 6828
" />
<path d="M6347 6640
L5954 6640
L5954 6490
L5972 6453
L5991 6434
L6029 6415
L6085 6415
L6122 6434
L6141 6453
L6160 6490
L6160 6640
" />
<path d="M6347 6190
L6329 6228
L6310 6247
L6272 6265
L6160 6265
L6122 6247
L6104 6228
L6085 6190
L6085 6134
L6104 6097
L6122 6078
L6160 6059
L6272 6059
L6310 6078
L6329 6097
L6347 6134
L6347 6190
" />
<path d="M6141 5459
L6160 5403
L6179 5384
L6216 5366
L6272 5366
L6310 5384
L6329 5403
L6347 5440
L6347 5590
L5954 5590
L5954 5459
L5972 5422
L5991 5403
L6029 5384
L6066 5384
L6104 5403
L6122 5422
L6141 5459
L6141 5590
" />
<path d="M6347 5028
L6141 5028
L6104 5047
L6085 5084
L6085 5159
L6104 5197
" />
<path d="M6329 5028
L6347 5066
L6347 5159
L6329 5197
L6291 5216
L6254 5216
L6216 5197
L6197 5159
L6197 5066
L6179 5028
" />
<path d="M6085 4897
L6085 4747
" />
<path d="M5954 4841
L6291 4841
L6329 4822
L6347 4784
L6347 4747
" />
<path d="M6085 4672
L6085 4522
" />
<path d="M5954 4616
L6291 4616
L6329 4597
L6347 4559
L6347 4522
" />
<path d="M6329 4241
L6347 4278
L6347 4353
L6329 4391
L6291 4409
L6141 4409
L6104 4391
L6085 4353
L6085 4278
L6104 4241
L6141 4222
L6179 4222
L6216 4409
" />
<path d="M6347 4053
L6085 4053
" />
<path d="M6160 4053
L6122 4034
L6104 4016
L6085 3978
L6085 3941
" />
<path d="M6085 3847
L6347 3753
" />
<path d="M6085 3659
L6347 3753
L6441 3791
L6460 3809
L6479 3847
" />
</g>
<g style="fill:#008484; fill-opacity:0.0; 
stroke:#008484; stroke-width:49.2126; stroke-opacity:1; 
stroke-linecap:round; stroke-linejoin:round;">
<path d="M25686 9142
L25677 9151
L25649 9161
L25630 9161
L25602 9151
L25583 9133
L25574 9114
L25565 9076
L25565 9048
L25574 9011
L25583 8992
L25602 8973
L25630 8964
L25649 8964
L25677 8973
L25686 8983
" />
<path d="M25874 9161
L25761 9161
" />
<path d="M25818 9161
L25818 8964
L25799 8992
L25780 9011
L25761 9020
" />
<path d="M27836 9067
L27827 9076
L27799 9086
L27780 9086
L27752 9076
L27733 9058
L27724 9039
L27715 9001
L27715 8973
L27724 8936
L27733 8917
L27752 8898
L27780 8889
L27799 8889
L27827 8898
L27836 8908
" />
<path d="M27911 8908
L27921 8898
L27939 8889
L27986 8889
L28005 8898
L28014 8908
L28024 8926
L28024 8945
L28014 8973
L27902 9086
L28024 9086
" />
<path d="M8711 9867
L8702 9876
L8674 9886
L8655 9886
L8627 9876
L8608 9858
L8599 9839
L8590 9801
L8590 9773
L8599 9736
L8608 9717
L8627 9698
L8655 9689
L8674 9689
L8702 9698
L8711 9708
" />
<path d="M8777 9689
L8899 9689
L8833 9764
L8861 9764
L8880 9773
L8889 9783
L8899 9801
L8899 9848
L8889 9867
L8880 9876
L8861 9886
L8805 9886
L8786 9876
L8777 9867
" />
<path d="M26211 6967
L26202 6976
L26174 6986
L26155 6986
L26127 6976
L26108 6958
L26099 6939
L26090 6901
L26090 6873
L26099 6836
L26108 6817
L26127 6798
L26155 6789
L26174 6789
L26202 6798
L26211 6808
" />
<path d="M26380 6855
L26380 6986
" />
<path d="M26333 6780
L26286 6920
L26408 6920
" />
<path d="M25911 8842
L25902 8851
L25874 8861
L25855 8861
L25827 8851
L25808 8833
L25799 8814
L25790 8776
L25790 8748
L25799 8711
L25808 8692
L25827 8673
L25855 8664
L25874 8664
L25902 8673
L25911 8683
" />
<path d="M26089 8664
L25996 8664
L25986 8758
L25996 8748
L26014 8739
L26061 8739
L26080 8748
L26089 8758
L26099 8776
L26099 8823
L26089 8842
L26080 8851
L26061 8861
L26014 8861
L25996 8851
L25986 8842
" />
<path d="M3561 3967
L3552 3976
L3524 3986
L3505 3986
L3477 3976
L3458 3958
L3449 3939
L3440 3901
L3440 3873
L3449 3836
L3458 3817
L3477 3798
L3505 3789
L3524 3789
L3552 3798
L3561 3808
" />
<path d="M3730 3789
L3693 3789
L3674 3798
L3664 3808
L3646 3836
L3636 3873
L3636 3948
L3646 3967
L3655 3976
L3674 3986
L3711 3986
L3730 3976
L3739 3967
L3749 3948
L3749 3901
L3739 3883
L3730 3873
L3711 3864
L3674 3864
L3655 3873
L3646 3883
L3636 3901
" />
<path d="M10086 10767
L10077 10776
L10049 10786
L10030 10786
L10002 10776
L9983 10758
L9974 10739
L9965 10701
L9965 10673
L9974 10636
L9983 10617
L10002 10598
L10030 10589
L10049 10589
L10077 10598
L10086 10608
" />
<path d="M10152 10589
L10283 10589
L10199 10786
" />
</g>
<g style="fill:#008484; fill-opacity:0.0; 
stroke:#008484; stroke-width:59.0551; stroke-opacity:1; 
stroke-linecap:round; stroke-linejoin:round;">
<path d="M8504 7512
L8485 7531
L8429 7550
L8391 7550
L8335 7531
L8297 7494
L8279 7456
L8260 7381
L8260 7325
L8279 7250
L8297 7212
L8335 7175
L8391 7156
L8429 7156
L8485 7175
L8504 7194
" />
<path d="M8729 7325
L8691 7306
L8672 7287
L8654 7250
L8654 7231
L8672 7194
L8691 7175
L8729 7156
L8804 7156
L8841 7175
L8860 7194
L8879 7231
L8879 7250
L8860 7287
L8841 7306
L8804 7325
L8729 7325
L8691 7344
L8672 7362
L8654 7400
L8654 7475
L8672 7512
L8691 7531
L8729 7550
L8804 7550
L8841 7531
L8860 7512
L8879 7475
L8879 7400
L8860 7362
L8841 7344
L8804 7325
" />
</g>
<g style="fill:#008484; fill-opacity:0.0; 
stroke:#008484; stroke-width:49.2126; stroke-opacity:1; 
stroke-linecap:round; stroke-linejoin:round;">
<path d="M3761 6717
L3752 6726
L3724 6736
L3705 6736
L3677 6726
L3658 6708
L3649 6689
L3640 6651
L3640 6623
L3649 6586
L3658 6567
L3677 6548
L3705 6539
L3724 6539
L3752 6548
L3761 6558
" />
<path d="M3855 6736
L3893 6736
L3911 6726
L3921 6717
L3939 6689
L3949 6651
L3949 6576
L3939 6558
L3930 6548
L3911 6539
L3874 6539
L3855 6548
L3846 6558
L3836 6576
L3836 6623
L3846 6642
L3855 6651
L3874 6661
L3911 6661
L3930 6651
L3939 6642
L3949 6623
" />
<path d="M7708 12797
L7698 12806
L7670 12816
L7651 12816
L7623 12806
L7605 12788
L7595 12769
L7586 12731
L7586 12703
L7595 12666
L7605 12647
L7623 12628
L7651 12619
L7670 12619
L7698 12628
L7708 12638
" />
<path d="M7895 12816
L7783 12816
" />
<path d="M7839 12816
L7839 12619
L7820 12647
L7801 12666
L7783 12675
" />
<path d="M8083 12816
L7970 12816
" />
<path d="M8026 12816
L8026 12619
L8008 12647
L7989 12666
L7970 12675
" />
<path d="M26164 3473
L26174 3483
L26183 3511
L26183 3530
L26174 3558
L26155 3576
L26136 3586
L26099 3595
L26071 3595
L26033 3586
L26015 3576
L25996 3558
L25986 3530
L25986 3511
L25996 3483
L26005 3473
" />
<path d="M26183 3286
L26183 3398
" />
<path d="M26183 3342
L25986 3342
L26015 3361
L26033 3380
L26043 3398
" />
<path d="M26005 3211
L25996 3201
L25986 3183
L25986 3136
L25996 3117
L26005 3108
L26024 3098
L26043 3098
L26071 3108
L26183 3220
L26183 3098
" />
<path d="M26114 5673
L26124 5683
L26133 5711
L26133 5730
L26124 5758
L26105 5776
L26086 5786
L26049 5795
L26021 5795
L25983 5786
L25965 5776
L25946 5758
L25936 5730
L25936 5711
L25946 5683
L25955 5673
" />
<path d="M26133 5486
L26133 5598
" />
<path d="M26133 5542
L25936 5542
L25965 5561
L25983 5580
L25993 5598
" />
<path d="M25936 5420
L25936 5298
L26011 5364
L26011 5336
L26021 5317
L26030 5308
L26049 5298
L26096 5298
L26114 5308
L26124 5317
L26133 5336
L26133 5392
L26124 5411
L26114 5420
" />
<path d="M14664 3048
L14674 3058
L14683 3086
L14683 3105
L14674 3133
L14655 3151
L14636 3161
L14599 3170
L14571 3170
L14533 3161
L14515 3151
L14496 3133
L14486 3105
L14486 3086
L14496 3058
L14505 3048
" />
<path d="M14683 2861
L14683 2973
" />
<path d="M14683 2917
L14486 2917
L14515 2936
L14533 2955
L14543 2973
" />
<path d="M14552 2692
L14683 2692
" />
<path d="M14477 2739
L14618 2786
L14618 2664
" />
<path d="M29664 2623
L29674 2633
L29683 2661
L29683 2680
L29674 2708
L29655 2726
L29636 2736
L29599 2745
L29571 2745
L29533 2736
L29515 2726
L29496 2708
L29486 2680
L29486 2661
L29496 2633
L29505 2623
" />
<path d="M29683 2436
L29683 2548
" />
<path d="M29683 2492
L29486 2492
L29515 2511
L29533 2530
L29543 2548
" />
<path d="M29486 2258
L29486 2351
L29580 2361
L29571 2351
L29561 2333
L29561 2286
L29571 2267
L29580 2258
L29599 2248
L29646 2248
L29664 2258
L29674 2267
L29683 2286
L29683 2333
L29674 2351
L29664 2361
" />
<path d="M30668 4867
L30658 4876
L30630 4886
L30611 4886
L30583 4876
L30565 4858
L30555 4839
L30546 4801
L30546 4773
L30555 4736
L30565 4717
L30583 4698
L30611 4689
L30630 4689
L30658 4698
L30668 4708
" />
<path d="M30855 4886
L30743 4886
" />
<path d="M30799 4886
L30799 4689
L30780 4717
L30761 4736
L30743 4745
" />
<path d="M31024 4689
L30986 4689
L30968 4698
L30958 4708
L30939 4736
L30930 4773
L30930 4848
L30939 4867
L30949 4876
L30968 4886
L31005 4886
L31024 4876
L31033 4867
L31043 4848
L31043 4801
L31033 4783
L31024 4773
L31005 4764
L30968 4764
L30949 4773
L30939 4783
L30930 4801
" />
<path d="M27255 1657
L27242 1657
L27215 1644
L27202 1630
L27189 1604
L27189 1577
L27195 1558
L27215 1524
L27235 1505
L27268 1485
L27288 1478
L27315 1478
L27341 1491
L27354 1505
L27368 1531
L27368 1544
" />
<path d="M27374 1803
L27295 1723
" />
<path d="M27335 1763
L27474 1624
L27441 1630
L27414 1630
L27394 1624
" />
<path d="M27560 1710
L27653 1803
L27454 1882
" />
<path d="M30668 5267
L30658 5276
L30630 5286
L30611 5286
L30583 5276
L30565 5258
L30555 5239
L30546 5201
L30546 5173
L30555 5136
L30565 5117
L30583 5098
L30611 5089
L30630 5089
L30658 5098
L30668 5108
" />
<path d="M30855 5286
L30743 5286
" />
<path d="M30799 5286
L30799 5089
L30780 5117
L30761 5136
L30743 5145
" />
<path d="M30968 5173
L30949 5164
L30939 5155
L30930 5136
L30930 5126
L30939 5108
L30949 5098
L30968 5089
L31005 5089
L31024 5098
L31033 5108
L31043 5126
L31043 5136
L31033 5155
L31024 5164
L31005 5173
L30968 5173
L30949 5183
L30939 5192
L30930 5211
L30930 5248
L30939 5267
L30949 5276
L30968 5286
L31005 5286
L31024 5276
L31033 5267
L31043 5248
L31043 5211
L31033 5192
L31024 5183
L31005 5173
" />
<path d="M10518 12942
L10508 12951
L10480 12961
L10461 12961
L10433 12951
L10415 12933
L10405 12914
L10396 12876
L10396 12848
L10405 12811
L10415 12792
L10433 12773
L10461 12764
L10480 12764
L10508 12773
L10518 12783
" />
<path d="M10705 12961
L10593 12961
" />
<path d="M10649 12961
L10649 12764
L10630 12792
L10611 12811
L10593 12820
" />
<path d="M10799 12961
L10836 12961
L10855 12951
L10864 12942
L10883 12914
L10893 12876
L10893 12801
L10883 12783
L10874 12773
L10855 12764
L10818 12764
L10799 12773
L10789 12783
L10780 12801
L10780 12848
L10789 12867
L10799 12876
L10818 12886
L10855 12886
L10874 12876
L10883 12867
L10893 12848
" />
<path d="M14064 10398
L14074 10408
L14083 10436
L14083 10455
L14074 10483
L14055 10501
L14036 10511
L13999 10520
L13971 10520
L13933 10511
L13915 10501
L13896 10483
L13886 10455
L13886 10436
L13896 10408
L13905 10398
" />
<path d="M13905 10323
L13896 10314
L13886 10295
L13886 10248
L13896 10230
L13905 10220
L13924 10211
L13943 10211
L13971 10220
L14083 10333
L14083 10211
" />
<path d="M13886 10089
L13886 10070
L13896 10051
L13905 10042
L13924 10033
L13961 10023
L14008 10023
L14046 10033
L14064 10042
L14074 10051
L14083 10070
L14083 10089
L14074 10108
L14064 10117
L14046 10126
L14008 10136
L13961 10136
L13924 10126
L13905 10117
L13896 10108
L13886 10089
" />
<path d="M29560 427
L29547 427
L29520 414
L29507 400
L29494 374
L29494 347
L29500 328
L29520 294
L29540 275
L29573 255
L29593 248
L29620 248
L29646 261
L29659 275
L29673 301
L29673 314
" />
<path d="M29726 367
L29739 367
L29759 374
L29792 407
L29799 427
L29799 440
L29792 460
L29779 473
L29752 487
L29593 487
L29679 573
" />
<path d="M29812 705
L29732 626
" />
<path d="M29772 666
L29911 526
L29878 533
L29852 533
L29832 526
" />
<path d="M27555 1357
L27542 1357
L27515 1344
L27502 1330
L27489 1304
L27489 1277
L27495 1258
L27515 1224
L27535 1205
L27568 1185
L27588 1178
L27615 1178
L27641 1191
L27654 1205
L27668 1231
L27668 1244
" />
<path d="M27721 1297
L27734 1297
L27754 1304
L27787 1337
L27794 1357
L27794 1370
L27787 1390
L27774 1403
L27747 1417
L27588 1417
L27674 1503
" />
<path d="M27853 1430
L27867 1430
L27886 1437
L27920 1470
L27926 1490
L27926 1503
L27920 1523
L27906 1536
L27880 1549
L27721 1549
L27807 1635
" />
<path d="M29838 3337
L29828 3346
L29800 3356
L29781 3356
L29753 3346
L29735 3328
L29725 3309
L29716 3271
L29716 3243
L29725 3206
L29735 3187
L29753 3168
L29781 3159
L29800 3159
L29828 3168
L29838 3178
" />
<path d="M29913 3178
L29922 3168
L29941 3159
L29988 3159
L30006 3168
L30016 3178
L30025 3196
L30025 3215
L30016 3243
L29903 3356
L30025 3356
" />
<path d="M30091 3159
L30213 3159
L30147 3234
L30175 3234
L30194 3243
L30203 3253
L30213 3271
L30213 3318
L30203 3337
L30194 3346
L30175 3356
L30119 3356
L30100 3346
L30091 3337
" />
<path d="M25514 2598
L25524 2608
L25533 2636
L25533 2655
L25524 2683
L25505 2701
L25486 2711
L25449 2720
L25421 2720
L25383 2711
L25365 2701
L25346 2683
L25336 2655
L25336 2636
L25346 2608
L25355 2598
" />
<path d="M25355 2523
L25346 2514
L25336 2495
L25336 2448
L25346 2430
L25355 2420
L25374 2411
L25393 2411
L25421 2420
L25533 2533
L25533 2411
" />
<path d="M25402 2242
L25533 2242
" />
<path d="M25327 2289
L25468 2336
L25468 2214
" />
<path d="M2274 5196
L2274 4999
L2321 4999
L2349 5008
L2368 5027
L2377 5046
L2386 5083
L2386 5111
L2377 5149
L2368 5168
L2349 5186
L2321 5196
L2274 5196
" />
<path d="M2574 5196
L2461 5196
" />
<path d="M2518 5196
L2518 4999
L2499 5027
L2480 5046
L2461 5055
" />
<path d="M799 6236
L799 6039
L846 6039
L874 6048
L893 6067
L902 6086
L911 6123
L911 6151
L902 6189
L893 6208
L874 6226
L846 6236
L799 6236
" />
<path d="M986 6058
L996 6048
L1014 6039
L1061 6039
L1080 6048
L1089 6058
L1099 6076
L1099 6095
L1089 6123
L977 6236
L1099 6236
" />
</g>
<g style="fill:#008484; fill-opacity:0.0; 
stroke:#008484; stroke-width:59.0551; stroke-opacity:1; 
stroke-linecap:round; stroke-linejoin:round;">
<path d="M3213 8119
L3082 8119
" />
<path d="M3082 8325
L3082 7931
L3269 7931
" />
<path d="M3625 8325
L3400 8325
" />
<path d="M3513 8325
L3513 7931
L3475 7987
L3438 8025
L3400 8044
" />
<path d="M2722 8597
L2329 8597
L2329 8447
L2347 8409
L2366 8390
L2404 8372
L2460 8372
L2497 8390
L2516 8409
L2535 8447
L2535 8597
" />
<path d="M2329 8259
L2329 8034
" />
<path d="M2722 8147
L2329 8147
" />
<path d="M2685 7678
L2704 7697
L2722 7753
L2722 7791
L2704 7847
L2666 7884
L2629 7903
L2554 7922
L2497 7922
L2422 7903
L2385 7884
L2347 7847
L2329 7791
L2329 7753
L2347 7697
L2366 7678
" />
</g>
<g style="fill:#008484; fill-opacity:0.0; 
stroke:#008484; stroke-width:49.2126; stroke-opacity:1; 
stroke-linecap:round; stroke-linejoin:round;">
<path d="M7586 8611
L7493 8611
L7493 8414
" />
<path d="M7755 8611
L7643 8611
" />
<path d="M7699 8611
L7699 8414
L7680 8442
L7661 8461
L7643 8470
" />
<path d="M11011 11811
L10918 11811
L10918 11614
" />
<path d="M11068 11633
L11077 11623
L11096 11614
L11143 11614
L11161 11623
L11171 11633
L11180 11651
L11180 11670
L11171 11698
L11058 11811
L11180 11811
" />
</g>
<g style="fill:#008484; fill-opacity:0.0; 
stroke:#008484; stroke-width:59.0551; stroke-opacity:1; 
stroke-linecap:round; stroke-linejoin:round;">
<path d="M11154 7100
L10966 7100
L10966 6706
" />
<path d="M11247 6706
L11491 6706
L11360 6856
L11416 6856
L11454 6875
L11472 6894
L11491 6931
L11491 7025
L11472 7062
L11454 7081
L11416 7100
L11304 7100
L11266 7081
L11247 7062
" />
</g>
<g style="fill:#008484; fill-opacity:0.0; 
stroke:#008484; stroke-width:49.2126; stroke-opacity:1; 
stroke-linecap:round; stroke-linejoin:round;">
<path d="M9786 13661
L9693 13661
L9693 13464
" />
<path d="M9936 13530
L9936 13661
" />
<path d="M9889 13455
L9843 13595
L9964 13595
" />
</g>
<g style="fill:#008484; fill-opacity:0.0; 
stroke:#008484; stroke-width:59.0551; stroke-opacity:1; 
stroke-linecap:round; stroke-linejoin:round;">
<path d="M15366 1762
L15366 1950
L14973 1950
" />
<path d="M14973 1444
L14973 1631
L15160 1650
L15141 1631
L15123 1594
L15123 1500
L15141 1462
L15160 1444
L15198 1425
L15291 1425
L15329 1444
L15348 1462
L15366 1500
L15366 1594
L15348 1631
L15329 1650
" />
<path d="M14379 2587
L14379 2344
L14529 2475
L14529 2419
L14547 2381
L14566 2362
L14604 2344
L14697 2344
L14735 2362
L14754 2381
L14772 2419
L14772 2531
L14754 2569
L14735 2587
" />
<path d="M14379 2212
L14379 1969
L14529 2100
L14529 2044
L14547 2006
L14566 1987
L14604 1969
L14697 1969
L14735 1987
L14754 2006
L14772 2044
L14772 2156
L14754 2194
L14735 2212
" />
<path d="M14379 1725
L14379 1687
L14397 1650
L14416 1631
L14454 1612
L14529 1594
L14622 1594
L14697 1612
L14735 1631
L14754 1650
L14772 1687
L14772 1725
L14754 1762
L14735 1781
L14697 1800
L14622 1819
L14529 1819
L14454 1800
L14416 1781
L14397 1762
L14379 1725
" />
<path d="M14510 1256
L14772 1256
" />
<path d="M14510 1425
L14716 1425
L14754 1406
L14772 1369
L14772 1312
L14754 1275
L14735 1256
" />
<path d="M14772 1069
L14379 1069
" />
<path d="M14566 1069
L14566 844
" />
<path d="M14772 844
L14379 844
" />
<path d="M15391 11712
L15391 11900
L14998 11900
" />
<path d="M14998 11412
L14998 11487
L15016 11525
L15035 11544
L15091 11581
L15166 11600
L15316 11600
L15354 11581
L15373 11562
L15391 11525
L15391 11450
L15373 11412
L15354 11394
L15316 11375
L15223 11375
L15185 11394
L15166 11412
L15148 11450
L15148 11525
L15166 11562
L15185 11581
L15223 11600
" />
<path d="M14404 12537
L14404 12294
L14554 12425
L14554 12369
L14572 12331
L14591 12312
L14629 12294
L14722 12294
L14760 12312
L14779 12331
L14797 12369
L14797 12481
L14779 12519
L14760 12537
" />
<path d="M14404 12162
L14404 11919
L14554 12050
L14554 11994
L14572 11956
L14591 11937
L14629 11919
L14722 11919
L14760 11937
L14779 11956
L14797 11994
L14797 12106
L14779 12144
L14760 12162
" />
<path d="M14404 11675
L14404 11637
L14422 11600
L14441 11581
L14479 11562
L14554 11544
L14647 11544
L14722 11562
L14760 11581
L14779 11600
L14797 11637
L14797 11675
L14779 11712
L14760 11731
L14722 11750
L14647 11769
L14554 11769
L14479 11750
L14441 11731
L14422 11712
L14404 11675
" />
<path d="M14535 11206
L14797 11206
" />
<path d="M14535 11375
L14741 11375
L14779 11356
L14797 11319
L14797 11262
L14779 11225
L14760 11206
" />
<path d="M14797 11019
L14404 11019
" />
<path d="M14591 11019
L14591 10794
" />
<path d="M14797 10794
L14404 10794
" />
</g>
<g style="fill:#008484; fill-opacity:0.0; 
stroke:#008484; stroke-width:49.2126; stroke-opacity:1; 
stroke-linecap:round; stroke-linejoin:round;">
<path d="M25561 4086
L25468 4086
L25468 3889
" />
<path d="M25608 3889
L25739 3889
L25655 4086
" />
<path d="M24808 3555
L24808 3648
L24611 3648
" />
<path d="M24696 3461
L24686 3480
L24677 3489
L24658 3498
L24649 3498
L24630 3489
L24621 3480
L24611 3461
L24611 3423
L24621 3405
L24630 3395
L24649 3386
L24658 3386
L24677 3395
L24686 3405
L24696 3423
L24696 3461
L24705 3480
L24714 3489
L24733 3498
L24771 3498
L24789 3489
L24799 3480
L24808 3461
L24808 3423
L24799 3405
L24789 3395
L24771 3386
L24733 3386
L24714 3395
L24705 3405
L24696 3423
" />
</g>
<g style="fill:#008484; fill-opacity:0.0; 
stroke:#008484; stroke-width:59.0551; stroke-opacity:1; 
stroke-linecap:round; stroke-linejoin:round;">
<path d="M15263 5619
L15319 5637
L15338 5656
L15357 5694
L15357 5750
L15338 5787
L15319 5806
L15282 5825
L15132 5825
L15132 5431
L15263 5431
L15301 5450
L15319 5469
L15338 5506
L15338 5544
L15319 5581
L15301 5600
L15263 5619
L15132 5619
" />
<path d="M15525 5825
L15525 5431
L15619 5431
L15675 5450
L15713 5487
L15732 5525
L15750 5600
L15750 5656
L15732 5731
L15713 5769
L15675 5806
L15619 5825
L15525 5825
" />
<path d="M16125 5825
L15900 5825
" />
<path d="M16013 5825
L16013 5431
L15975 5487
L15938 5525
L15900 5544
" />
<path d="M16257 5431
L16500 5431
L16369 5581
L16425 5581
L16463 5600
L16482 5619
L16500 5656
L16500 5750
L16482 5787
L16463 5806
L16425 5825
L16313 5825
L16275 5806
L16257 5787
" />
<path d="M16857 5431
L16669 5431
L16650 5619
L16669 5600
L16707 5581
L16800 5581
L16838 5600
L16857 5619
L16875 5656
L16875 5750
L16857 5787
L16838 5806
L16800 5825
L16707 5825
L16669 5806
L16650 5787
" />
<path d="M15313 8619
L15369 8637
L15388 8656
L15407 8694
L15407 8750
L15388 8787
L15369 8806
L15332 8825
L15182 8825
L15182 8431
L15313 8431
L15351 8450
L15369 8469
L15388 8506
L15388 8544
L15369 8581
L15351 8600
L15313 8619
L15182 8619
" />
<path d="M15575 8825
L15575 8431
L15669 8431
L15725 8450
L15763 8487
L15782 8525
L15800 8600
L15800 8656
L15782 8731
L15763 8769
L15725 8806
L15669 8825
L15575 8825
" />
<path d="M16175 8825
L15950 8825
" />
<path d="M16063 8825
L16063 8431
L16025 8487
L15988 8525
L15950 8544
" />
<path d="M16307 8431
L16550 8431
L16419 8581
L16475 8581
L16513 8600
L16532 8619
L16550 8656
L16550 8750
L16532 8787
L16513 8806
L16475 8825
L16363 8825
L16325 8806
L16307 8787
" />
<path d="M16907 8431
L16719 8431
L16700 8619
L16719 8600
L16757 8581
L16850 8581
L16888 8600
L16907 8619
L16925 8656
L16925 8750
L16907 8787
L16888 8806
L16850 8825
L16757 8825
L16719 8806
L16700 8787
" />
</g>
<g style="fill:#008484; fill-opacity:0.0; 
stroke:#008484; stroke-width:49.2126; stroke-opacity:1; 
stroke-linecap:round; stroke-linejoin:round;">
<path d="M1661 5636
L1596 5542
" />
<path d="M1549 5636
L1549 5439
L1624 5439
L1643 5448
L1652 5458
L1661 5476
L1661 5505
L1652 5523
L1643 5533
L1624 5542
L1549 5542
" />
<path d="M1736 5458
L1746 5448
L1764 5439
L1811 5439
L1830 5448
L1839 5458
L1849 5476
L1849 5495
L1839 5523
L1727 5636
L1849 5636
" />
<path d="M2061 7336
L1996 7242
" />
<path d="M1949 7336
L1949 7139
L2024 7139
L2043 7148
L2052 7158
L2061 7176
L2061 7205
L2052 7223
L2043 7233
L2024 7242
L1949 7242
" />
<path d="M2127 7139
L2249 7139
L2183 7214
L2211 7214
L2230 7223
L2239 7233
L2249 7251
L2249 7298
L2239 7317
L2230 7326
L2211 7336
L2155 7336
L2136 7326
L2127 7317
" />
</g>
<g style="fill:#008484; fill-opacity:0.0; 
stroke:#008484; stroke-width:59.0551; stroke-opacity:1; 
stroke-linecap:round; stroke-linejoin:round;">
<path d="M10454 7100
L10322 6912
" />
<path d="M10229 7100
L10229 6706
L10379 6706
L10416 6725
L10435 6744
L10454 6781
L10454 6837
L10435 6875
L10416 6894
L10379 6912
L10229 6912
" />
<path d="M10791 6837
L10791 7100
" />
<path d="M10697 6687
L10604 6969
L10847 6969
" />
</g>
<g style="fill:#008484; fill-opacity:0.0; 
stroke:#008484; stroke-width:49.2126; stroke-opacity:1; 
stroke-linecap:round; stroke-linejoin:round;">
<path d="M1963 3430
L1869 3495
" />
<path d="M1963 3542
L1766 3542
L1766 3467
L1776 3448
L1785 3439
L1804 3430
L1832 3430
L1851 3439
L1860 3448
L1869 3467
L1869 3542
" />
<path d="M1766 3251
L1766 3345
L1860 3355
L1851 3345
L1841 3326
L1841 3280
L1851 3261
L1860 3251
L1879 3242
L1926 3242
L1944 3251
L1954 3261
L1963 3280
L1963 3326
L1954 3345
L1944 3355
" />
<path d="M9083 13670
L9018 13576
" />
<path d="M8971 13670
L8971 13473
L9046 13473
L9065 13482
L9074 13492
L9083 13510
L9083 13539
L9074 13557
L9065 13567
L9046 13576
L8971 13576
" />
<path d="M9252 13473
L9215 13473
L9196 13482
L9186 13492
L9168 13520
L9158 13557
L9158 13632
L9168 13651
L9177 13660
L9196 13670
L9233 13670
L9252 13660
L9261 13651
L9271 13632
L9271 13585
L9261 13567
L9252 13557
L9233 13548
L9196 13548
L9177 13557
L9168 13567
L9158 13585
" />
<path d="M14083 4680
L13989 4745
" />
<path d="M14083 4792
L13886 4792
L13886 4717
L13896 4698
L13905 4689
L13924 4680
L13952 4680
L13971 4689
L13980 4698
L13989 4717
L13989 4792
" />
<path d="M13886 4614
L13886 4483
L14083 4567
" />
<path d="M14083 3055
L13989 3120
" />
<path d="M14083 3167
L13886 3167
L13886 3092
L13896 3073
L13905 3064
L13924 3055
L13952 3055
L13971 3064
L13980 3073
L13989 3092
L13989 3167
" />
<path d="M13971 2942
L13961 2961
L13952 2970
L13933 2980
L13924 2980
L13905 2970
L13896 2961
L13886 2942
L13886 2905
L13896 2886
L13905 2876
L13924 2867
L13933 2867
L13952 2876
L13961 2886
L13971 2905
L13971 2942
L13980 2961
L13989 2970
L14008 2980
L14046 2980
L14064 2970
L14074 2961
L14083 2942
L14083 2905
L14074 2886
L14064 2876
L14046 2867
L14008 2867
L13989 2876
L13980 2886
L13971 2905
" />
<path d="M21461 3061
L21396 2967
" />
<path d="M21349 3061
L21349 2864
L21424 2864
L21443 2873
L21452 2883
L21461 2901
L21461 2930
L21452 2948
L21443 2958
L21424 2967
L21349 2967
" />
<path d="M21555 3061
L21593 3061
L21611 3051
L21621 3042
L21639 3014
L21649 2976
L21649 2901
L21639 2883
L21630 2873
L21611 2864
L21574 2864
L21555 2873
L21546 2883
L21536 2901
L21536 2948
L21546 2967
L21555 2976
L21574 2986
L21611 2986
L21630 2976
L21639 2967
L21649 2948
" />
<path d="M14458 8573
L14364 8639
" />
<path d="M14458 8686
L14261 8686
L14261 8611
L14271 8592
L14280 8583
L14299 8573
L14327 8573
L14346 8583
L14355 8592
L14364 8611
L14364 8686
" />
<path d="M14458 8386
L14458 8498
" />
<path d="M14458 8442
L14261 8442
L14290 8461
L14308 8480
L14318 8498
" />
<path d="M14261 8264
L14261 8245
L14271 8226
L14280 8217
L14299 8208
L14336 8198
L14383 8198
L14421 8208
L14439 8217
L14449 8226
L14458 8245
L14458 8264
L14449 8283
L14439 8292
L14421 8301
L14383 8311
L14336 8311
L14299 8301
L14280 8292
L14271 8283
L14261 8264
" />
<path d="M14733 10398
L14639 10464
" />
<path d="M14733 10511
L14536 10511
L14536 10436
L14546 10417
L14555 10408
L14574 10398
L14602 10398
L14621 10408
L14630 10417
L14639 10436
L14639 10511
" />
<path d="M14733 10211
L14733 10323
" />
<path d="M14733 10267
L14536 10267
L14565 10286
L14583 10305
L14593 10323
" />
<path d="M14733 10023
L14733 10136
" />
<path d="M14733 10080
L14536 10080
L14565 10098
L14583 10117
L14593 10136
" />
<path d="M21368 9436
L21302 9342
" />
<path d="M21255 9436
L21255 9239
L21330 9239
L21349 9248
L21358 9258
L21368 9276
L21368 9305
L21358 9323
L21349 9333
L21330 9342
L21255 9342
" />
<path d="M21555 9436
L21443 9436
" />
<path d="M21499 9436
L21499 9239
L21480 9267
L21461 9286
L21443 9295
" />
<path d="M21630 9258
L21639 9248
L21658 9239
L21705 9239
L21724 9248
L21733 9258
L21743 9276
L21743 9295
L21733 9323
L21621 9436
L21743 9436
" />
</g>
<g style="fill:#008484; fill-opacity:0.0; 
stroke:#008484; stroke-width:59.0551; stroke-opacity:1; 
stroke-linecap:round; stroke-linejoin:round;">
<path d="M20922 2406
L20979 2425
L21072 2425
L21110 2406
L21129 2387
L21147 2350
L21147 2312
L21129 2275
L21110 2256
L21072 2237
L20997 2219
L20960 2200
L20941 2181
L20922 2144
L20922 2106
L20941 2069
L20960 2050
L20997 2031
L21091 2031
L21147 2050
" />
<path d="M21316 2425
L21316 2031
L21466 2031
L21504 2050
L21522 2069
L21541 2106
L21541 2162
L21522 2200
L21504 2219
L21466 2237
L21316 2237
" />
<path d="M21916 2425
L21691 2425
" />
<path d="M21804 2425
L21804 2031
L21766 2087
L21729 2125
L21691 2144
" />
<path d="M20538 4556
L20594 4575
L20688 4575
L20726 4556
L20744 4537
L20763 4500
L20763 4462
L20744 4425
L20726 4406
L20688 4387
L20613 4369
L20576 4350
L20557 4331
L20538 4294
L20538 4256
L20557 4219
L20576 4200
L20613 4181
L20707 4181
L20763 4200
" />
<path d="M21007 4181
L21082 4181
L21119 4200
L21157 4237
L21175 4312
L21175 4444
L21157 4519
L21119 4556
L21082 4575
L21007 4575
L20969 4556
L20932 4519
L20913 4444
L20913 4312
L20932 4237
L20969 4200
L21007 4181
" />
<path d="M21344 4181
L21344 4500
L21363 4537
L21382 4556
L21419 4575
L21494 4575
L21532 4556
L21550 4537
L21569 4500
L21569 4181
" />
<path d="M21700 4181
L21925 4181
" />
<path d="M21813 4575
L21813 4181
" />
<path d="M22057 4575
L22057 4181
" />
<path d="M22057 4369
L22282 4369
" />
<path d="M22282 4575
L22282 4181
" />
<path d="M15122 3556
L15179 3575
L15272 3575
L15310 3556
L15329 3537
L15347 3500
L15347 3462
L15329 3425
L15310 3406
L15272 3387
L15197 3369
L15160 3350
L15141 3331
L15122 3294
L15122 3256
L15141 3219
L15160 3200
L15197 3181
L15291 3181
L15347 3200
" />
<path d="M15516 3575
L15516 3181
L15666 3181
L15704 3200
L15722 3219
L15741 3256
L15741 3312
L15722 3350
L15704 3369
L15666 3387
L15516 3387
" />
<path d="M15891 3219
L15910 3200
L15947 3181
L16041 3181
L16079 3200
L16097 3219
L16116 3256
L16116 3294
L16097 3350
L15872 3575
L16116 3575
" />
<path d="M15072 4575
L15072 4181
L15297 4575
L15297 4181
" />
<path d="M15560 4181
L15635 4181
L15672 4200
L15710 4237
L15729 4312
L15729 4444
L15710 4519
L15672 4556
L15635 4575
L15560 4575
L15522 4556
L15485 4519
L15466 4444
L15466 4312
L15485 4237
L15522 4200
L15560 4181
" />
<path d="M16122 4575
L15991 4387
" />
<path d="M15897 4575
L15897 4181
L16047 4181
L16085 4200
L16104 4219
L16122 4256
L16122 4312
L16104 4350
L16085 4369
L16047 4387
L15897 4387
" />
<path d="M16235 4181
L16460 4181
" />
<path d="M16347 4575
L16347 4181
" />
<path d="M16591 4575
L16591 4181
" />
<path d="M16591 4369
L16816 4369
" />
<path d="M16816 4575
L16816 4181
" />
<path d="M15047 9956
L15104 9975
L15197 9975
L15235 9956
L15254 9937
L15272 9900
L15272 9862
L15254 9825
L15235 9806
L15197 9787
L15122 9769
L15085 9750
L15066 9731
L15047 9694
L15047 9656
L15066 9619
L15085 9600
L15122 9581
L15216 9581
L15272 9600
" />
<path d="M15441 9975
L15441 9581
L15591 9581
L15629 9600
L15647 9619
L15666 9656
L15666 9712
L15647 9750
L15629 9769
L15591 9787
L15441 9787
" />
<path d="M16004 9712
L16004 9975
" />
<path d="M15910 9562
L15816 9844
L16060 9844
" />
<path d="M15054 10319
L15185 10319
" />
<path d="M15241 10525
L15054 10525
L15054 10131
L15241 10131
" />
<path d="M15391 10412
L15579 10412
" />
<path d="M15354 10525
L15485 10131
L15616 10525
" />
<path d="M15729 10506
L15785 10525
L15879 10525
L15916 10506
L15935 10487
L15954 10450
L15954 10412
L15935 10375
L15916 10356
L15879 10337
L15804 10319
L15766 10300
L15747 10281
L15729 10244
L15729 10206
L15747 10169
L15766 10150
L15804 10131
L15897 10131
L15954 10150
" />
<path d="M16066 10131
L16291 10131
" />
<path d="M16178 10525
L16178 10131
" />
</g>
<g style="fill:#008484; fill-opacity:0.0; 
stroke:#008484; stroke-width:49.2126; stroke-opacity:1; 
stroke-linecap:round; stroke-linejoin:round;">
<path d="M3092 13504
L3120 13514
L3167 13514
L3186 13504
L3195 13495
L3204 13476
L3204 13457
L3195 13439
L3186 13429
L3167 13420
L3129 13410
L3111 13401
L3101 13392
L3092 13373
L3092 13354
L3101 13335
L3111 13326
L3129 13317
L3176 13317
L3204 13326
" />
<path d="M3270 13317
L3317 13514
L3354 13373
L3392 13514
L3439 13317
" />
<path d="M3617 13514
L3504 13514
" />
<path d="M3561 13514
L3561 13317
L3542 13345
L3523 13364
L3504 13373
" />
</g>
<g style="fill:#008484; fill-opacity:0.0; 
stroke:#008484; stroke-width:59.0551; stroke-opacity:1; 
stroke-linecap:round; stroke-linejoin:round;">
<path d="M1258 12301
L1623 12301
L1426 12526
L1511 12526
L1567 12554
L1595 12582
L1623 12639
L1623 12779
L1595 12835
L1567 12864
L1511 12892
L1342 12892
L1286 12864
L1258 12835
" />
<path d="M3186 12357
L3214 12329
L3270 12301
L3411 12301
L3467 12329
L3495 12357
L3523 12414
L3523 12470
L3495 12554
L3158 12892
L3523 12892
" />
<path d="M5423 12892
L5086 12892
" />
<path d="M5254 12892
L5254 12301
L5198 12385
L5142 12442
L5086 12470
" />
<path d="M27759 2705
L27759 2944
L27773 2972
L27787 2986
L27815 3000
L27872 3000
L27900 2986
L27914 2972
L27928 2944
L27928 2705
" />
<path d="M28223 3000
L28054 3000
" />
<path d="M28139 3000
L28139 2705
L28111 2747
L28083 2775
L28054 2789
" />
</g>
<g style="fill:#008484; fill-opacity:0.0; 
stroke:#008484; stroke-width:49.2126; stroke-opacity:1; 
stroke-linecap:round; stroke-linejoin:round;">
<path d="M32550 4612
L32550 4706
" />
<path d="M32485 4509
L32550 4612
L32616 4509
" />
<path d="M32785 4706
L32672 4706
" />
<path d="M32729 4706
L32729 4509
L32710 4537
L32691 4556
L32672 4565
" />
<path d="M31354 3548
L31364 3538
L31382 3529
L31429 3529
L31448 3538
L31457 3548
L31467 3566
L31467 3585
L31457 3613
L31345 3726
L31467 3726
" />
<path d="M31636 3595
L31636 3726
" />
<path d="M31589 3520
L31542 3660
L31664 3660
" />
<path d="M31832 3529
L31739 3529
L31729 3623
L31739 3613
L31757 3604
L31804 3604
L31823 3613
L31832 3623
L31842 3641
L31842 3688
L31832 3707
L31823 3716
L31804 3726
L31757 3726
L31739 3716
L31729 3707
" />
<path d="M31964 3529
L31982 3529
L32001 3538
L32010 3548
L32020 3566
L32029 3604
L32029 3651
L32020 3688
L32010 3707
L32001 3716
L31982 3726
L31964 3726
L31945 3716
L31935 3707
L31926 3688
L31917 3651
L31917 3604
L31926 3566
L31935 3548
L31945 3538
L31964 3529
" />
<path d="M32104 3670
L32198 3670
" />
<path d="M32085 3726
L32151 3529
L32217 3726
" />
<path d="M32254 3529
L32367 3529
" />
<path d="M32310 3726
L32310 3529
" />
<path d="M32535 3726
L32423 3726
" />
<path d="M32479 3726
L32479 3529
L32460 3557
L32442 3576
L32423 3585
" />
<path d="M32648 3613
L32629 3604
L32620 3595
L32610 3576
L32610 3566
L32620 3548
L32629 3538
L32648 3529
L32685 3529
L32704 3538
L32714 3548
L32723 3566
L32723 3576
L32714 3595
L32704 3604
L32685 3613
L32648 3613
L32629 3623
L32620 3632
L32610 3651
L32610 3688
L32620 3707
L32629 3716
L32648 3726
L32685 3726
L32704 3716
L32714 3707
L32723 3688
L32723 3651
L32714 3632
L32704 3623
L32685 3613
" />
<path d="M32798 3670
L32892 3670
" />
<path d="M32779 3726
L32845 3529
L32910 3726
" />
<path d="M33079 3726
L32967 3726
" />
<path d="M33023 3726
L33023 3529
L33004 3557
L32985 3576
L32967 3585
" />
<path d="M33201 3529
L33220 3529
L33238 3538
L33248 3548
L33257 3566
L33267 3604
L33267 3651
L33257 3688
L33248 3707
L33238 3716
L33220 3726
L33201 3726
L33182 3716
L33173 3707
L33163 3688
L33154 3651
L33154 3604
L33163 3566
L33173 3548
L33182 3538
L33201 3529
" />
<path d="M33388 3529
L33407 3529
L33426 3538
L33435 3548
L33445 3566
L33454 3604
L33454 3651
L33445 3688
L33435 3707
L33426 3716
L33407 3726
L33388 3726
L33370 3716
L33360 3707
L33351 3688
L33342 3651
L33342 3604
L33351 3566
L33360 3548
L33370 3538
L33388 3529
" />
<path d="M26769 10257
L26769 10416
L26779 10435
L26788 10444
L26807 10454
L26844 10454
L26863 10444
L26872 10435
L26882 10416
L26882 10257
" />
<path d="M27060 10322
L27060 10454
" />
<path d="M27013 10247
L26966 10388
L27088 10388
" />
<path d="M27106 7329
L27265 7329
L27284 7319
L27294 7310
L27303 7291
L27303 7254
L27294 7235
L27284 7226
L27265 7216
L27106 7216
" />
<path d="M27125 7132
L27115 7122
L27106 7104
L27106 7057
L27115 7038
L27125 7029
L27144 7019
L27162 7019
L27190 7029
L27303 7141
L27303 7019
" />
<path d="M26811 8472
L26971 8472
L26989 8462
L26999 8453
L27008 8434
L27008 8397
L26999 8378
L26989 8369
L26971 8359
L26811 8359
" />
<path d="M26811 8284
L26811 8162
L26886 8228
L26886 8200
L26896 8181
L26905 8172
L26924 8162
L26971 8162
L26989 8172
L26999 8181
L27008 8200
L27008 8256
L26999 8275
L26989 8284
" />
</g>
<g style="fill:#008484; fill-opacity:0.0; 
stroke:#008484; stroke-width:59.0551; stroke-opacity:1; 
stroke-linecap:round; stroke-linejoin:round;">
<path d="M2687 5229
L2687 5468
L2701 5496
L2715 5510
L2744 5524
L2800 5524
L2828 5510
L2842 5496
L2856 5468
L2856 5229
" />
<path d="M3123 5229
L3067 5229
L3039 5243
L3025 5257
L2997 5299
L2983 5355
L2983 5468
L2997 5496
L3011 5510
L3039 5524
L3095 5524
L3123 5510
L3137 5496
L3151 5468
L3151 5397
L3137 5369
L3123 5355
L3095 5341
L3039 5341
L3011 5355
L2997 5369
L2983 5397
" />
</g>
<g style="fill:#008484; fill-opacity:0.0; 
stroke:#008484; stroke-width:29.5276; stroke-opacity:1; 
stroke-linecap:round; stroke-linejoin:round;">
<path d="M9329 7779
L9329 7874
L9335 7886
L9340 7891
L9352 7897
L9374 7897
L9385 7891
L9391 7886
L9397 7874
L9397 7779
" />
<path d="M9509 7779
L9453 7779
L9447 7835
L9453 7829
L9464 7824
L9492 7824
L9504 7829
L9509 7835
L9515 7846
L9515 7874
L9509 7886
L9504 7891
L9492 7897
L9464 7897
L9453 7891
L9447 7886
" />
<path d="M9354 12285
L9354 12381
L9360 12392
L9365 12398
L9377 12404
L9399 12404
L9410 12398
L9416 12392
L9422 12381
L9422 12285
" />
<path d="M9467 12285
L9545 12285
L9495 12404
" />
</g>
<g style="fill:#008484; fill-opacity:0.0; 
stroke:#008484; stroke-width:59.0551; stroke-opacity:1; 
stroke-linecap:round; stroke-linejoin:round;">
<path d="M10766 8062
L10747 8081
L10691 8100
L10654 8100
L10597 8081
L10560 8044
L10541 8006
L10522 7931
L10522 7875
L10541 7800
L10560 7762
L10597 7725
L10654 7706
L10691 7706
L10747 7725
L10766 7744
" />
<path d="M11141 8100
L10916 8100
" />
<path d="M11029 8100
L11029 7706
L10991 7762
L10954 7800
L10916 7819
" />
<path d="M11385 7706
L11422 7706
L11460 7725
L11479 7744
L11497 7781
L11516 7856
L11516 7950
L11497 8025
L11479 8062
L11460 8081
L11422 8100
L11385 8100
L11347 8081
L11329 8062
L11310 8025
L11291 7950
L11291 7856
L11310 7781
L11329 7744
L11347 7725
L11385 7706
" />
</g>
<g style="fill:#008484; fill-opacity:0.0; 
stroke:#008484; stroke-width:49.2126; stroke-opacity:1; 
stroke-linecap:round; stroke-linejoin:round;">
<path d="M29116 2089
L29036 2169
" />
<path d="M29076 2129
L28937 1990
L28944 2023
L28944 2049
L28937 2069
" />
<path d="M29096 1831
L29070 1857
L29063 1877
L29063 1890
L29070 1923
L29089 1957
L29143 2010
L29162 2016
L29176 2016
L29196 2010
L29222 1983
L29229 1963
L29229 1950
L29222 1930
L29189 1897
L29169 1890
L29156 1890
L29136 1897
L29109 1923
L29103 1943
L29103 1957
L29109 1976
" />
<path d="M29308 1897
L29169 1758
L29315 1811
L29262 1665
L29401 1804
" />
<path d="M29467 1738
L29328 1599
" />
<path d="M29394 1665
L29474 1585
" />
<path d="M29547 1658
L29408 1519
" />
<path d="M29507 1512
L29580 1440
L29600 1605
L29673 1532
" />
<path d="M28086 6861
L28021 6767
" />
<path d="M27974 6861
L27974 6664
L28049 6664
L28068 6673
L28077 6683
L28086 6701
L28086 6730
L28077 6748
L28068 6758
L28049 6767
L27974 6767
" />
<path d="M28274 6861
L28161 6861
" />
<path d="M28218 6861
L28218 6664
L28199 6692
L28180 6711
L28161 6720
" />
<path d="M26518 6211
L26452 6117
" />
<path d="M26405 6211
L26405 6014
L26480 6014
L26499 6023
L26508 6033
L26518 6051
L26518 6080
L26508 6098
L26499 6108
L26480 6117
L26405 6117
" />
<path d="M26705 6211
L26593 6211
" />
<path d="M26649 6211
L26649 6014
L26630 6042
L26611 6061
L26593 6070
" />
<path d="M26771 6014
L26893 6014
L26827 6089
L26855 6089
L26874 6098
L26883 6108
L26893 6126
L26893 6173
L26883 6192
L26874 6201
L26855 6211
L26799 6211
L26780 6201
L26771 6192
" />
<path d="M26319 6594
L26253 6500
" />
<path d="M26206 6594
L26206 6397
L26281 6397
L26300 6406
L26309 6416
L26319 6435
L26319 6463
L26309 6481
L26300 6491
L26281 6500
L26206 6500
" />
<path d="M26506 6594
L26394 6594
" />
<path d="M26450 6594
L26450 6397
L26431 6425
L26412 6444
L26394 6453
" />
<path d="M26675 6463
L26675 6594
" />
<path d="M26628 6388
L26581 6528
L26703 6528
" />
<path d="M33378 10382
L33181 10382
L33181 10307
L33191 10288
L33200 10279
L33219 10270
L33247 10270
L33266 10279
L33275 10288
L33284 10307
L33284 10382
" />
<path d="M33378 10082
L33378 10195
" />
<path d="M33378 10138
L33181 10138
L33210 10157
L33228 10176
L33238 10195
" />
<path d="M33378 7747
L33181 7747
L33181 7672
L33191 7653
L33200 7644
L33219 7635
L33247 7635
L33266 7644
L33275 7653
L33284 7672
L33284 7747
" />
<path d="M33200 7560
L33191 7550
L33181 7531
L33181 7485
L33191 7466
L33200 7456
L33219 7447
L33238 7447
L33266 7456
L33378 7569
L33378 7447
" />
<path d="M31638 13276
L31499 13137
L31552 13084
L31572 13077
L31585 13077
L31605 13084
L31625 13104
L31631 13124
L31631 13137
L31625 13157
L31572 13210
" />
<path d="M31625 13011
L31711 12925
L31718 13024
L31737 13004
L31757 12998
L31771 12998
L31790 13004
L31824 13037
L31830 13057
L31830 13071
L31824 13090
L31784 13130
L31764 13137
L31751 13137
" />
<path d="M23679 13611
L23679 13414
L23754 13414
L23773 13423
L23782 13433
L23791 13451
L23791 13480
L23782 13498
L23773 13508
L23754 13517
L23679 13517
" />
<path d="M23960 13480
L23960 13611
" />
<path d="M23913 13405
L23866 13545
L23988 13545
" />
<path d="M24799 1386
L24799 1189
L24874 1189
L24893 1198
L24902 1208
L24911 1226
L24911 1255
L24902 1273
L24893 1283
L24874 1292
L24799 1292
" />
<path d="M25089 1189
L24996 1189
L24986 1283
L24996 1273
L25014 1264
L25061 1264
L25080 1273
L25089 1283
L25099 1301
L25099 1348
L25089 1367
L25080 1376
L25061 1386
L25014 1386
L24996 1376
L24986 1367
" />
</g>
<g style="fill:#008484; fill-opacity:0.0; 
stroke:#008484; stroke-width:275.591; stroke-opacity:1; 
stroke-linecap:round; stroke-linejoin:round;">
<circle cx="19451.2" cy="9772.24" r="433.071" /> 
</g>
<g style="fill:#008484; fill-opacity:0.0; 
stroke:#008484; stroke-width:59.0551; stroke-opacity:1; 
stroke-linecap:round; stroke-linejoin:round;">
<circle cx="21419.7" cy="9772.24" r="3151.36" /> 
<path d="M4444 2294
L1894 2294
" />
<path d="M1614.57 1947.24 A316.651 316.651 0.0 0 0 1896.85 2294.88 " />
<path d="M1614 129
L1614 1947
" />
<path d="M4724 129
L4724 1947
" />
<path d="M4442.52 2294.88 A316.651 316.651 0.0 0 0 4724.8 1947.24 " />
<path d="M4724 129
L1614 129
" />
<path d="M29865 4454
L29826 4454
" />
<path d="M30062 4454
L30023 4454
" />
<path d="M30023 4139
L30062 4139
" />
<path d="M29826 4139
L29865 4139
" />
<path d="M29629 4139
L29669 4139
" />
<path d="M29629 4454
L29669 4454
" />
<path d="M30259 4454
L30220 4454
" />
<path d="M30259 4139
L30220 4139
" />
<path d="M30180 4257
L30180 4336
" />
<path d="M30180 4336
L30102 4336
" />
<path d="M30102 4336
L30102 4257
" />
<path d="M30102 4257
L30141 4257
" />
<path d="M30141 4257
L30141 4297
" />
<path d="M30141 4297
L30141 4257
" />
<path d="M30141 4257
L30180 4257
" />
<path d="M30259 4139
L30259 4454
" />
<path d="M29629 4139
L29629 4454
" />
<path d="M6419 6922
L6419 3922
" />
<path d="M6419 3922
L4144 3922
" />
<path d="M4144 3922
L4144 6922
" />
<path d="M4144 6922
L6419 6922
" />
<path d="M25969 9247
L25969 10147
" />
<path d="M25969 10147
L25469 10147
" />
<path d="M25469 10147
L25469 9247
" />
<path d="M25469 9247
L25969 9247
" />
<path d="M27619 8822
L27619 7922
" />
<path d="M27619 7922
L28119 7922
" />
<path d="M28119 7922
L28119 8822
" />
<path d="M28119 8822
L27619 8822
" />
<path d="M8969 9522
L9869 9522
" />
<path d="M9869 9522
L9869 10022
" />
<path d="M9869 10022
L8969 10022
" />
<path d="M8969 10022
L8969 9522
" />
<path d="M26694 7547
L25794 7547
" />
<path d="M25794 7547
L25794 7047
" />
<path d="M25794 7047
L26694 7047
" />
<path d="M26694 7047
L26694 7547
" />
<path d="M26194 7697
L26194 8597
" />
<path d="M26194 8597
L25694 8597
" />
<path d="M25694 8597
L25694 7697
" />
<path d="M25694 7697
L26194 7697
" />
<path d="M3344 4122
L2444 4122
" />
<path d="M2444 4122
L2444 3622
" />
<path d="M2444 3622
L3344 3622
" />
<path d="M3344 3622
L3344 4122
" />
<path d="M9869 10947
L8969 10947
" />
<path d="M8969 10947
L8969 10447
" />
<path d="M8969 10447
L9869 10447
" />
<path d="M9869 10447
L9869 10947
" />
<path d="M9869 7622
L8969 7622
" />
<path d="M8969 7622
L8969 7122
" />
<path d="M8969 7122
L9869 7122
" />
<path d="M9869 7122
L9869 7622
" />
<path d="M3544 6872
L2644 6872
" />
<path d="M2644 6872
L2644 6372
" />
<path d="M2644 6372
L3544 6372
" />
<path d="M3544 6372
L3544 6872
" />
<path d="M9084 12977
L8184 12977
" />
<path d="M8184 12977
L8184 12477
" />
<path d="M8184 12477
L9084 12477
" />
<path d="M9084 12477
L9084 12977
" />
<path d="M26244 3447
L26244 3647
" />
<path d="M26244 3647
L26544 3647
" />
<path d="M26544 3647
L26544 3447
" />
<path d="M26244 3247
L26244 3047
" />
<path d="M26244 3047
L26544 3047
" />
<path d="M26544 3047
L26544 3247
" />
<path d="M26494 5447
L26494 5247
" />
<path d="M26494 5247
L26194 5247
" />
<path d="M26194 5247
L26194 5447
" />
<path d="M26494 5647
L26494 5847
" />
<path d="M26494 5847
L26194 5847
" />
<path d="M26194 5847
L26194 5647
" />
<path d="M14844 3247
L14844 4147
" />
<path d="M14844 4147
L14344 4147
" />
<path d="M14344 4147
L14344 3247
" />
<path d="M14344 3247
L14844 3247
" />
<path d="M29094 2697
L29094 2897
" />
<path d="M29094 2897
L29394 2897
" />
<path d="M29394 2897
L29394 2697
" />
<path d="M29094 2497
L29094 2297
" />
<path d="M29094 2297
L29394 2297
" />
<path d="M29394 2297
L29394 2497
" />
<path d="M30244 4947
L30444 4947
" />
<path d="M30444 4947
L30444 4647
" />
<path d="M30444 4647
L30244 4647
" />
<path d="M30044 4947
L29844 4947
" />
<path d="M29844 4947
L29844 4647
" />
<path d="M29844 4647
L30044 4647
" />
<path d="M27809 2324
L27950 2465
" />
<path d="M27950 2465
L28162 2253
" />
<path d="M28162 2253
L28021 2111
" />
<path d="M27667 2182
L27526 2041
" />
<path d="M27526 2041
L27738 1829
" />
<path d="M27738 1829
L27880 1970
" />
<path d="M30044 5047
L29844 5047
" />
<path d="M29844 5047
L29844 5347
" />
<path d="M29844 5347
L30044 5347
" />
<path d="M30244 5047
L30444 5047
" />
<path d="M30444 5047
L30444 5347
" />
<path d="M30444 5347
L30244 5347
" />
<path d="M10794 13097
L10794 13997
" />
<path d="M10794 13997
L10294 13997
" />
<path d="M10294 13997
L10294 13097
" />
<path d="M10294 13097
L10794 13097
" />
<path d="M13769 9947
L13769 9047
" />
<path d="M13769 9047
L14269 9047
" />
<path d="M14269 9047
L14269 9947
" />
<path d="M14269 9947
L13769 9947
" />
<path d="M29380 420
L29238 279
" />
<path d="M29238 279
L29026 491
" />
<path d="M29026 491
L29167 632
" />
<path d="M29521 561
L29662 703
" />
<path d="M29662 703
L29450 915
" />
<path d="M29450 915
L29309 774
" />
<path d="M28180 1670
L28038 1529
" />
<path d="M28038 1529
L27826 1741
" />
<path d="M27826 1741
L27967 1882
" />
<path d="M28321 1811
L28462 1953
" />
<path d="M28462 1953
L28250 2165
" />
<path d="M28250 2165
L28109 2024
" />
<path d="M29864 3437
L29664 3437
" />
<path d="M29664 3437
L29664 3737
" />
<path d="M29664 3737
L29864 3737
" />
<path d="M30064 3437
L30264 3437
" />
<path d="M30264 3437
L30264 3737
" />
<path d="M30264 3737
L30064 3737
" />
<path d="M25294 3197
L25294 3397
" />
<path d="M25294 3397
L25594 3397
" />
<path d="M25594 3397
L25594 3197
" />
<path d="M25294 2997
L25294 2797
" />
<path d="M25294 2797
L25594 2797
" />
<path d="M25594 2797
L25594 2997
" />
<path d="M1298 4989
L1298 4861
" />
<path d="M1298 4861
L1101 4861
" />
<path d="M1101 4989
L1101 4861
" />
<path d="M1298 4989
L1101 4989
" />
<path d="M1298 5234
L1298 5175
" />
<path d="M1298 5175
L1199 5175
" />
<path d="M1199 5234
L1199 5175
" />
<path d="M1298 5234
L1199 5234
" />
<path d="M1298 5039
L1298 4980
" />
<path d="M1298 4980
L1199 4980
" />
<path d="M1199 5039
L1199 4980
" />
<path d="M1298 5039
L1199 5039
" />
<path d="M1298 5185
L1298 5029
" />
<path d="M1298 5029
L1229 5029
" />
<path d="M1229 5185
L1229 5029
" />
<path d="M1298 5185
L1229 5185
" />
<path d="M1887 4989
L1887 4861
" />
<path d="M1887 4861
L1690 4861
" />
<path d="M1690 4989
L1690 4861
" />
<path d="M1887 4989
L1690 4989
" />
<path d="M1887 5353
L1887 5225
" />
<path d="M1887 5225
L1690 5225
" />
<path d="M1690 5353
L1690 5225
" />
<path d="M1887 5353
L1690 5353
" />
<path d="M1789 5039
L1789 4980
" />
<path d="M1789 4980
L1690 4980
" />
<path d="M1690 5039
L1690 4980
" />
<path d="M1789 5039
L1690 5039
" />
<path d="M1789 5234
L1789 5175
" />
<path d="M1789 5175
L1690 5175
" />
<path d="M1690 5234
L1690 5175
" />
<path d="M1789 5234
L1690 5234
" />
<path d="M1759 5185
L1759 5029
" />
<path d="M1759 5029
L1690 5029
" />
<path d="M1690 5185
L1690 5029
" />
<path d="M1759 5185
L1690 5185
" />
<path d="M1494 5146
L1494 5068
" />
<path d="M1494 5068
L1416 5068
" />
<path d="M1416 5146
L1416 5068
" />
<path d="M1494 5146
L1416 5146
" />
<path d="M1298 5343
L1298 5225
" />
<path d="M1298 5225
L1180 5225
" />
<path d="M1180 5343
L1180 5225
" />
<path d="M1298 5343
L1180 5343
" />
<path d="M1130 5353
L1130 5264
" />
<path d="M1130 5264
L1101 5264
" />
<path d="M1101 5353
L1101 5264
" />
<path d="M1130 5353
L1101 5353
" />
<path d="M1288 4881
L1700 4881
" />
<path d="M1690 5333
L1130 5333
" />
<circle cx="1160.69" cy="5284.24" r="28.2843" /> 
<path d="M1101.69 5244.24 A137 137 0.0 0 0 1101.69 4970.24 " />
<path d="M1887.69 4970.24 A137 137 0.0 0 0 1887.69 5244.24 " />
<path d="M1298 6454
L1298 6326
" />
<path d="M1298 6326
L1101 6326
" />
<path d="M1101 6454
L1101 6326
" />
<path d="M1298 6454
L1101 6454
" />
<path d="M1298 6699
L1298 6640
" />
<path d="M1298 6640
L1199 6640
" />
<path d="M1199 6699
L1199 6640
" />
<path d="M1298 6699
L1199 6699
" />
<path d="M1298 6504
L1298 6445
" />
<path d="M1298 6445
L1199 6445
" />
<path d="M1199 6504
L1199 6445
" />
<path d="M1298 6504
L1199 6504
" />
<path d="M1298 6650
L1298 6494
" />
<path d="M1298 6494
L1229 6494
" />
<path d="M1229 6650
L1229 6494
" />
<path d="M1298 6650
L1229 6650
" />
<path d="M1887 6454
L1887 6326
" />
<path d="M1887 6326
L1690 6326
" />
<path d="M1690 6454
L1690 6326
" />
<path d="M1887 6454
L1690 6454
" />
<path d="M1887 6818
L1887 6690
" />
<path d="M1887 6690
L1690 6690
" />
<path d="M1690 6818
L1690 6690
" />
<path d="M1887 6818
L1690 6818
" />
<path d="M1789 6504
L1789 6445
" />
<path d="M1789 6445
L1690 6445
" />
<path d="M1690 6504
L1690 6445
" />
<path d="M1789 6504
L1690 6504
" />
<path d="M1789 6699
L1789 6640
" />
<path d="M1789 6640
L1690 6640
" />
<path d="M1690 6699
L1690 6640
" />
<path d="M1789 6699
L1690 6699
" />
<path d="M1759 6650
L1759 6494
" />
<path d="M1759 6494
L1690 6494
" />
<path d="M1690 6650
L1690 6494
" />
<path d="M1759 6650
L1690 6650
" />
<path d="M1494 6611
L1494 6533
" />
<path d="M1494 6533
L1416 6533
" />
<path d="M1416 6611
L1416 6533
" />
<path d="M1494 6611
L1416 6611
" />
<path d="M1298 6808
L1298 6690
" />
<path d="M1298 6690
L1180 6690
" />
<path d="M1180 6808
L1180 6690
" />
<path d="M1298 6808
L1180 6808
" />
<path d="M1130 6818
L1130 6729
" />
<path d="M1130 6729
L1101 6729
" />
<path d="M1101 6818
L1101 6729
" />
<path d="M1130 6818
L1101 6818
" />
<path d="M1288 6346
L1700 6346
" />
<path d="M1690 6798
L1130 6798
" />
<circle cx="1160.69" cy="6749.24" r="28.2843" /> 
<path d="M1101.69 6709.24 A137 137 0.0 0 0 1101.69 6435.24 " />
<path d="M1887.69 6435.24 A137 137 0.0 0 0 1887.69 6709.24 " />
<circle cx="2744.69" cy="7172.24" r="70.7106" /> 
<path d="M3894 7822
L3894 7222
" />
<path d="M3894 7222
L2794 7222
" />
<path d="M2794 7222
L2794 7822
" />
<path d="M2794 8422
L2794 9022
" />
<path d="M2794 9022
L3894 9022
" />
<path d="M3894 9022
L3894 8422
" />
<path d="M11119 7222
L10919 7222
" />
<path d="M10919 7222
L10919 7522
" />
<path d="M10919 7522
L11119 7522
" />
<path d="M11319 7222
L11519 7222
" />
<path d="M11519 7222
L11519 7522
" />
<path d="M11519 7522
L11319 7522
" />
<path d="M9744 13097
L9544 13097
" />
<path d="M9544 13097
L9544 13397
" />
<path d="M9544 13397
L9744 13397
" />
<path d="M9944 13097
L10144 13097
" />
<path d="M10144 13097
L10144 13397
" />
<path d="M10144 13397
L9944 13397
" />
<circle cx="16194.7" cy="847.244" r="70.7106" /> 
<path d="M14294 897
L13644 897
" />
<path d="M13644 897
L13644 2497
" />
<path d="M13644 2497
L14294 2497
" />
<path d="M15494 2497
L16144 2497
" />
<path d="M16144 2497
L16144 897
" />
<path d="M16144 897
L15494 897
" />
<circle cx="16219.7" cy="10797.2" r="70.7106" /> 
<path d="M14319 10847
L13669 10847
" />
<path d="M13669 10847
L13669 12447
" />
<path d="M13669 12447
L14319 12447
" />
<path d="M15519 12447
L16169 12447
" />
<path d="M16169 12447
L16169 10847
" />
<path d="M16169 10847
L15519 10847
" />
<path d="M25694 3822
L25894 3822
" />
<path d="M25894 3822
L25894 3522
" />
<path d="M25894 3522
L25694 3522
" />
<path d="M25494 3822
L25294 3822
" />
<path d="M25294 3822
L25294 3522
" />
<path d="M25294 3522
L25494 3522
" />
<path d="M24894 3597
L24894 3797
" />
<path d="M24894 3797
L25194 3797
" />
<path d="M25194 3797
L25194 3597
" />
<path d="M24894 3397
L24894 3197
" />
<path d="M24894 3197
L25194 3197
" />
<path d="M25194 3197
L25194 3397
" />
<path d="M17219 5347
L14769 5347
" />
<path d="M14769 5347
L14769 4697
" />
<path d="M14769 4697
L17219 4697
" />
<path d="M17219 4697
L17219 5347
" />
<path d="M17219 8297
L14769 8297
" />
<path d="M14769 8297
L14769 7647
" />
<path d="M14769 7647
L17219 7647
" />
<path d="M17219 7647
L17219 8297
" />
<path d="M1194 5672
L2094 5672
" />
<path d="M2094 5672
L2094 6172
" />
<path d="M2094 6172
L1194 6172
" />
<path d="M1194 6172
L1194 5672
" />
<path d="M1844 7472
L944 7472
" />
<path d="M944 7472
L944 6972
" />
<path d="M944 6972
L1844 6972
" />
<path d="M1844 6972
L1844 7472
" />
<path d="M10619 7522
L10819 7522
" />
<path d="M10819 7522
L10819 7222
" />
<path d="M10819 7222
L10619 7222
" />
<path d="M10419 7522
L10219 7522
" />
<path d="M10219 7522
L10219 7222
" />
<path d="M10219 7222
L10419 7222
" />
<path d="M2124 3622
L2124 4522
" />
<path d="M2124 4522
L1624 4522
" />
<path d="M1624 4522
L1624 3622
" />
<path d="M1624 3622
L2124 3622
" />
<path d="M9219 13397
L9419 13397
" />
<path d="M9419 13397
L9419 13097
" />
<path d="M9419 13097
L9219 13097
" />
<path d="M9019 13397
L8819 13397
" />
<path d="M8819 13397
L8819 13097
" />
<path d="M8819 13097
L9019 13097
" />
<path d="M14244 4872
L14244 5772
" />
<path d="M14244 5772
L13744 5772
" />
<path d="M13744 5772
L13744 4872
" />
<path d="M13744 4872
L14244 4872
" />
<path d="M14244 3247
L14244 4147
" />
<path d="M14244 4147
L13744 4147
" />
<path d="M13744 4147
L13744 3247
" />
<path d="M13744 3247
L14244 3247
" />
<path d="M21044 3147
L21944 3147
" />
<path d="M21944 3147
L21944 3647
" />
<path d="M21944 3647
L21044 3647
" />
<path d="M21044 3647
L21044 3147
" />
<path d="M14119 8122
L14119 7222
" />
<path d="M14119 7222
L14619 7222
" />
<path d="M14619 7222
L14619 8122
" />
<path d="M14619 8122
L14119 8122
" />
<path d="M14394 9947
L14394 9047
" />
<path d="M14394 9047
L14894 9047
" />
<path d="M14894 9047
L14894 9947
" />
<path d="M14894 9947
L14394 9947
" />
<path d="M21044 9522
L21944 9522
" />
<path d="M21944 9522
L21944 10022
" />
<path d="M21944 10022
L21044 10022
" />
<path d="M21044 10022
L21044 9522
" />
</g>
<g style="fill:#008484; fill-opacity:0.0; 
stroke:#008484; stroke-width:275.591; stroke-opacity:1; 
stroke-linecap:round; stroke-linejoin:round;">
<circle cx="19451.2" cy="3397.24" r="433.071" /> 
</g>
<g style="fill:#008484; fill-opacity:0.0; 
stroke:#008484; stroke-width:59.0551; stroke-opacity:1; 
stroke-linecap:round; stroke-linejoin:round;">
<circle cx="21419.7" cy="3397.24" r="3151.36" /> 
</g>
<g style="fill:#008484; fill-opacity:0.0; 
stroke:#008484; stroke-width:275.591; stroke-opacity:1; 
stroke-linecap:round; stroke-linejoin:round;">
<circle cx="13076.2" cy="3397.24" r="433.071" /> 
</g>
<g style="fill:#008484; fill-opacity:0.0; 
stroke:#008484; stroke-width:59.0551; stroke-opacity:1; 
stroke-linecap:round; stroke-linejoin:round;">
<circle cx="15044.7" cy="3397.24" r="3151.36" /> 
</g>
<g style="fill:#008484; fill-opacity:0.0; 
stroke:#008484; stroke-width:275.591; stroke-opacity:1; 
stroke-linecap:round; stroke-linejoin:round;">
<circle cx="13082.1" cy="9787.19" r="433.071" /> 
</g>
<g style="fill:#008484; fill-opacity:0.0; 
stroke:#008484; stroke-width:59.0551; stroke-opacity:1; 
stroke-linecap:round; stroke-linejoin:round;">
<circle cx="15050.6" cy="9787.19" r="3151.36" /> 
</g>
<g style="fill:#008484; fill-opacity:0.0; 
stroke:#008484; stroke-width:100; stroke-opacity:1; 
stroke-linecap:round; stroke-linejoin:round;">
<path d="M4754 11225
L4754 11125
" />
<path d="M4754 11125
L5654 11125
" />
<path d="M5654 11125
L5654 11225
" />
<path d="M5654 11225
L5554 11225
" />
<path d="M5554 11225
L5554 12125
" />
<path d="M5554 12125
L5654 12125
" />
<path d="M5654 12125
L5454 12125
" />
<path d="M5454 12125
L5454 11225
" />
<path d="M5454 11225
L5554 11225
" />
<path d="M5554 11225
L5354 11225
" />
<path d="M5354 11225
L5354 12125
" />
<path d="M5354 12125
L5454 12125
" />
<path d="M5454 12125
L5254 12125
" />
<path d="M5254 12125
L5254 11225
" />
<path d="M5254 11225
L5154 11225
" />
<path d="M5154 11225
L5154 12125
" />
<path d="M5154 12125
L5054 12125
" />
<path d="M5054 12125
L5054 11225
" />
<path d="M5054 11225
L4954 11225
" />
<path d="M4954 11225
L4954 12125
" />
<path d="M4954 12125
L5254 12125
" />
<path d="M5254 12125
L5254 11225
" />
<path d="M5254 11225
L5354 11225
" />
<path d="M5354 11225
L5054 11225
" />
<path d="M5054 11225
L4854 11225
" />
<path d="M4854 11225
L4854 12125
" />
<path d="M4854 12125
L4954 12125
" />
<path d="M4954 12125
L4754 12125
" />
<path d="M4754 12125
L4754 11225
" />
<path d="M4754 11225
L4854 11225
" />
<path d="M4854 11225
L4754 11225
" />
<path d="M5654 12125
L5654 11225
" />
</g>
<g style="fill:#008484; fill-opacity:0.0; 
stroke:#008484; stroke-width:59.0551; stroke-opacity:1; 
stroke-linecap:round; stroke-linejoin:round;">
<path d="M5754 12225
L5754 11025
" />
<path d="M5754 11025
L954 11025
" />
<path d="M954 11025
L954 12225
" />
<path d="M954 12225
L5754 12225
" />
<path d="M29175 3266
L28978 3266
" />
<path d="M29175 3266
L29175 3462
" />
<path d="M29175 5628
L28978 5628
" />
<path d="M29175 5628
L29175 5431
" />
<path d="M26813 5628
L27010 5628
" />
<path d="M26813 5628
L26813 5431
" />
</g>
<g style="fill:#008484; fill-opacity:0.0; 
stroke:#008484; stroke-width:39.3701; stroke-opacity:1; 
stroke-linecap:round; stroke-linejoin:round;">
<circle cx="26931.7" cy="3384.25" r="55.6776" /> 
</g>
<g style="fill:#008484; fill-opacity:0.0; 
stroke:#008484; stroke-width:59.0551; stroke-opacity:1; 
stroke-linecap:round; stroke-linejoin:round;">
<path d="M26813 3266
L27010 3266
" />
<path d="M26813 3266
L26813 3462
" />
<path d="M32172 4166
L32388 4166
" />
<path d="M32388 4166
L32388 4127
" />
<path d="M32388 4127
L32172 4127
" />
<path d="M32172 4127
L32172 4166
" />
</g>
<g style="fill:#008484; fill-opacity:0.0; 
stroke:#008484; stroke-width:39.3701; stroke-opacity:1; 
stroke-linecap:round; stroke-linejoin:round;">
<path d="M33136 3851
L32152 3851
" />
<path d="M32152 4442
L33136 4442
" />
</g>
<g style="fill:#008484; fill-opacity:0.0; 
stroke:#008484; stroke-width:59.0551; stroke-opacity:1; 
stroke-linecap:round; stroke-linejoin:round;">
<path d="M26329 10187
L26329 10109
" />
<path d="M26329 10187
L27510 10187
" />
<path d="M27510 10187
L27510 10109
" />
<path d="M26329 9006
L26329 9085
" />
<path d="M27510 9006
L27510 9095
" />
<path d="M26329 9006
L27510 9006
" />
<path d="M27450 7375
L27450 7415
" />
<path d="M27450 7179
L27450 7218
" />
<path d="M26938 7001
L26938 6962
" />
<path d="M26938 6962
L27450 6962
" />
<path d="M27450 6962
L27450 7001
" />
<path d="M26938 7218
L26938 7179
" />
<path d="M26938 7415
L26938 7375
" />
<path d="M26938 7631
L26938 7592
" />
<path d="M26938 7592
L26938 7631
" />
<path d="M26938 7631
L27450 7631
" />
<path d="M27450 7631
L27450 7592
" />
</g>
<g style="fill:#008484; fill-opacity:0.0; 
stroke:#008484; stroke-width:9.84252; stroke-opacity:1; 
stroke-linecap:round; stroke-linejoin:round;">
<circle cx="26796.3" cy="8696.26" r="40.5819" /> 
</g>
<g style="fill:#008484; fill-opacity:0.0; 
stroke:#008484; stroke-width:29.5276; stroke-opacity:1; 
stroke-linecap:round; stroke-linejoin:round;">
<path d="M27288 8105
L27288 8026
" />
<path d="M27288 8361
L27288 8282
" />
<path d="M27288 8617
L27288 8538
" />
<path d="M26500 8794
L26500 8814
" />
<path d="M26500 8814
L27288 8814
" />
<path d="M27288 8814
L27288 8794
" />
<path d="M26500 8538
L26500 8617
" />
<path d="M26500 8282
L26500 8361
" />
<path d="M26500 8026
L26500 8105
" />
<path d="M27288 7830
L27288 7849
" />
<path d="M27288 7830
L26500 7830
" />
<path d="M26500 7830
L26500 7849
" />
</g>
<g style="fill:#008484; fill-opacity:0.0; 
stroke:#008484; stroke-width:59.0551; stroke-opacity:1; 
stroke-linecap:round; stroke-linejoin:round;">
<path d="M2263 5115
L3326 5115
" />
<path d="M3326 5115
L3326 5626
" />
<path d="M3326 5626
L2263 5626
" />
<path d="M2263 5626
L2263 5115
" />
<path d="M8829 8099
L8829 7981
" />
<path d="M8829 7981
L10010 7981
" />
<path d="M10010 7981
L10010 8099
" />
<path d="M8829 9162
L8829 9044
" />
<path d="M8829 9162
L10010 9162
" />
<path d="M10010 9162
L10010 9044
" />
<path d="M10035 12094
L10035 12212
" />
<path d="M10035 12212
L8854 12212
" />
<path d="M8854 12212
L8854 12094
" />
<path d="M10035 11031
L10035 11149
" />
<path d="M10035 11031
L8854 11031
" />
<path d="M8854 11031
L8854 11149
" />
<path d="M12119 7222
L12119 8122
" />
<path d="M12119 8122
L11619 8122
" />
<path d="M11619 8122
L11619 7222
" />
<path d="M11619 7222
L12119 7222
" />
<path d="M29031 1617
L29128 1714
" />
<path d="M29128 1714
L28739 2104
" />
<path d="M28739 2104
L28377 1742
" />
<path d="M28377 1742
L28530 1589
" />
<path d="M29031 1617
L29114 1533
" />
<path d="M28502 1561
L28530 1589
" />
<path d="M29059 1004
L29086 1032
" />
<path d="M28474 1060
L28558 977
" />
<path d="M27594 6872
L27594 7072
" />
<path d="M27594 7072
L27894 7072
" />
<path d="M27894 7072
L27894 6872
" />
<path d="M27594 6672
L27594 6472
" />
<path d="M27594 6472
L27894 6472
" />
<path d="M27894 6472
L27894 6672
" />
<path d="M27169 5972
L26969 5972
" />
<path d="M26969 5972
L26969 6272
" />
<path d="M26969 6272
L27169 6272
" />
<path d="M27369 5972
L27569 5972
" />
<path d="M27569 5972
L27569 6272
" />
<path d="M27569 6272
L27369 6272
" />
<path d="M26969 6372
L26769 6372
" />
<path d="M26769 6372
L26769 6672
" />
<path d="M26769 6672
L26969 6672
" />
<path d="M27169 6372
L27369 6372
" />
<path d="M27369 6372
L27369 6672
" />
<path d="M27369 6672
L27169 6672
" />
</g>
<g style="fill:#008484; fill-opacity:0.0; 
stroke:#008484; stroke-width:50; stroke-opacity:1; 
stroke-linecap:round; stroke-linejoin:round;">
<path d="M32489 9737
L33089 9737
" />
</g>
<g style="fill:#008484; fill-opacity:0.0; 
stroke:#008484; stroke-width:100; stroke-opacity:1; 
stroke-linecap:round; stroke-linejoin:round;">
<path d="M32489 11337
L33089 11337
" />
<path d="M33089 11337
L33089 9137
" />
<path d="M33089 9137
L32489 9137
" />
<path d="M32489 9137
L32489 11337
" />
</g>
<g style="fill:#008484; fill-opacity:0.0; 
stroke:#008484; stroke-width:50; stroke-opacity:1; 
stroke-linecap:round; stroke-linejoin:round;">
<path d="M32489 7102
L33089 7102
" />
</g>
<g style="fill:#008484; fill-opacity:0.0; 
stroke:#008484; stroke-width:100; stroke-opacity:1; 
stroke-linecap:round; stroke-linejoin:round;">
<path d="M32489 8702
L33089 8702
" />
<path d="M33089 8702
L33089 6502
" />
<path d="M33089 6502
L32489 6502
" />
<path d="M32489 6502
L32489 8702
" />
</g>
<g style="fill:#008484; fill-opacity:0.0; 
stroke:#008484; stroke-width:50; stroke-opacity:1; 
stroke-linecap:round; stroke-linejoin:round;">
<path d="M31819 11838
L32243 12262
" />
</g>
<g style="fill:#008484; fill-opacity:0.0; 
stroke:#008484; stroke-width:100; stroke-opacity:1; 
stroke-linecap:round; stroke-linejoin:round;">
<path d="M29981 13676
L30405 14100
" />
<path d="M30405 14100
L32668 11838
" />
<path d="M32668 11838
L32243 11413
" />
<path d="M32243 11413
L29981 13676
" />
</g>
<g style="fill:#008484; fill-opacity:0.0; 
stroke:#008484; stroke-width:50; stroke-opacity:1; 
stroke-linecap:round; stroke-linejoin:round;">
<path d="M24324 12722
L24324 13322
" />
</g>
<g style="fill:#008484; fill-opacity:0.0; 
stroke:#008484; stroke-width:100; stroke-opacity:1; 
stroke-linecap:round; stroke-linejoin:round;">
<path d="M22724 12722
L22724 13322
" />
<path d="M22724 13322
L24924 13322
" />
<path d="M24924 13322
L24924 12722
" />
<path d="M24924 12722
L22724 12722
" />
</g>
<g style="fill:#008484; fill-opacity:0.0; 
stroke:#008484; stroke-width:50; stroke-opacity:1; 
stroke-linecap:round; stroke-linejoin:round;">
<path d="M23184 502
L23184 1027
" />
</g>
<g style="fill:#008484; fill-opacity:0.0; 
stroke:#008484; stroke-width:100; stroke-opacity:1; 
stroke-linecap:round; stroke-linejoin:round;">
<path d="M27209 1052
L27209 502
" />
<path d="M27209 502
L22659 502
" />
<path d="M22659 502
L22659 1052
" />
<path d="M22659 1052
L27209 1052
" />
</g>
<g style="fill:#840000; fill-opacity:0.0; 
stroke:#840000; stroke-width:39.3701; stroke-opacity:1; 
stroke-linecap:round; stroke-linejoin:round;">
</g>
<g style="fill:#840000; fill-opacity:1.0; 
stroke:#840000; stroke-width:39.3701; stroke-opacity:1; 
stroke-linecap:round; stroke-linejoin:round;">
<circle cx="23388.2" cy="9772.24" r="354.331" /> 
<circle cx="19451.2" cy="9772.24" r="354.331" /> 
</g>
<g style="fill:#840000; fill-opacity:1.0; 
stroke:#840000; stroke-width:393.701; stroke-opacity:1; 
stroke-linecap:round; stroke-linejoin:round;">
</g>
<g style="fill:#840000; fill-opacity:0.0; 
stroke:#840000; stroke-width:393.701; stroke-opacity:1; 
stroke-linecap:round; stroke-linejoin:round;">
<path d="M5118 1133
L5118 661
" />
<path d="M1220 1133
L1220 661
" />
<path d="M5118 2668
L5118 2275
" />
<path d="M1220 2668
L1220 2275
" />
</g>
<g style="fill:#840000; fill-opacity:0.0; 
stroke:#840000; stroke-width:39.3701; stroke-opacity:1; 
stroke-linecap:round; stroke-linejoin:round;">
</g>
<g style="fill:#840000; fill-opacity:1.0; 
stroke:#840000; stroke-width:39.3701; stroke-opacity:1; 
stroke-linecap:round; stroke-linejoin:round;">
<circle cx="5494.69" cy="4922.24" r="216.535" /> 
<circle cx="5494.69" cy="5922.24" r="216.535" /> 
<circle cx="15108.9" cy="5022.24" r="196.85" /> 
<circle cx="15994.7" cy="5022.24" r="196.85" /> 
<circle cx="16880.5" cy="5022.24" r="196.85" /> 
<circle cx="15108.9" cy="7972.24" r="196.85" /> 
<circle cx="15994.7" cy="7972.24" r="196.85" /> 
<circle cx="16880.5" cy="7972.24" r="196.85" /> 
<circle cx="23388.2" cy="3397.24" r="354.331" /> 
<circle cx="19451.2" cy="3397.24" r="354.331" /> 
<circle cx="17013.2" cy="3397.24" r="354.331" /> 
<circle cx="13076.2" cy="3397.24" r="354.331" /> 
<circle cx="17019.1" cy="9787.19" r="354.331" /> 
<circle cx="13082.1" cy="9787.19" r="354.331" /> 
<circle cx="5205.32" cy="10025" r="541.339" /> 
<circle cx="3354.92" cy="10025" r="541.339" /> 
<circle cx="1504.53" cy="10025" r="541.339" /> 
<circle cx="5955.32" cy="13777" r="541.339" /> 
<circle cx="754.528" cy="13777" r="541.339" /> 
<circle cx="32789.7" cy="10987.2" r="196.85" /> 
<circle cx="32789.7" cy="10487.2" r="196.85" /> 
<circle cx="32789.7" cy="9987.24" r="196.85" /> 
<polyline style="fill-rule:evenodd;"
points="32986,9684
32592,9684
32592,9290
32986,9290
32986,9684
" /> 
<circle cx="32789.7" cy="8352.24" r="196.85" /> 
<circle cx="32789.7" cy="7852.24" r="196.85" /> 
<circle cx="32789.7" cy="7352.24" r="196.85" /> 
<polyline style="fill-rule:evenodd;"
points="32986,7049
32592,7049
32592,6655
32986,6655
32986,7049
" /> 
<circle cx="30440.8" cy="13641.1" r="196.85" /> 
<circle cx="30794.4" cy="13287.6" r="196.85" /> 
<circle cx="31147.9" cy="12934" r="196.85" /> 
<circle cx="31501.5" cy="12580.5" r="196.85" /> 
<circle cx="31855" cy="12226.9" r="196.85" /> 
<polyline style="fill-rule:evenodd;"
points="32208,12151
31930,11873
32208,11594
32486,11873
32208,12151
" /> 
<circle cx="23074.7" cy="13022.2" r="196.85" /> 
<circle cx="23574.7" cy="13022.2" r="196.85" /> 
<circle cx="24074.7" cy="13022.2" r="196.85" /> 
<polyline style="fill-rule:evenodd;"
points="24377,13219
24377,12825
24771,12825
24771,13219
24377,13219
" /> 
<circle cx="26934.7" cy="777.244" r="196.85" /> 
<circle cx="26434.7" cy="777.244" r="196.85" /> 
<circle cx="25934.7" cy="777.244" r="196.85" /> 
<circle cx="25434.7" cy="777.244" r="196.85" /> 
<circle cx="24934.7" cy="777.244" r="196.85" /> 
<circle cx="24434.7" cy="777.244" r="196.85" /> 
<circle cx="23934.7" cy="777.244" r="196.85" /> 
<circle cx="23434.7" cy="777.244" r="196.85" /> 
<polyline style="fill-rule:evenodd;"
points="23131,580
23131,974
22737,974
22737,580
23131,580
" /> 
</g> 
</svg>
