<?xml version="1.0" standalone="no"?>
 <!DOCTYPE svg PUBLIC "-//W3C//DTD SVG 1.1//EN" 
 "http://www.w3.org/Graphics/SVG/1.1/DTD/svg11.dtd"> 
<svg xmlns="http://www.w3.org/2000/svg" version="1.1" 
    width="6.34746cm" height="2.94132cm" viewBox="0 0 24990 11580 ">
<title>SVG Picture created as weather_station-B_Cu.svg date 2015/04/19 11:02:50 </title>
  <desc>Picture generated by PCBNEW </desc>
<g style="fill:#000000; fill-opacity:1;stroke:#000000; stroke-opacity:1;
stroke-linecap:round; stroke-linejoin:round; "
 transform="translate(0 0) scale(1 1)">
</g>
<g style="fill:#C2C200; fill-opacity:0.0; 
stroke:#C2C200; stroke-width:39.3701; stroke-opacity:1; 
stroke-linecap:round; stroke-linejoin:round;">
<path d="M1322 3899
L1322 10904
" />
<path d="M1322 769
L1327 769
" />
<path d="M1332 769
L1322 769
" />
<path d="M1322 769
L1332 769
" />
<path d="M1322 19
L1322 769
" />
<path d="M3137 3899
L1322 3899
" />
<path d="M3132 769
L1322 769
" />
<path d="M3502 3534
L3502 1134
" />
<path d="M3137.95 3899.69 A365 365 0.0 0 0 3502.95 3534.69 " />
<path d="M3502.95 1134.69 A365 365 0.0 0 0 3137.95 769.685 " />
<path d="M1842 10904
L1827 10904
" />
<path d="M1322 10904
L1842 10904
" />
<path d="M1322 10889
L1322 10904
" />
<path d="M1912 10904
L1922 10904
" />
<path d="M1827 10904
L1912 10904
" />
<path d="M24837 10904
L1827 10904
" />
<path d="M24837 10724
L24837 10904
" />
<path d="M24572 10904
L24592 10904
" />
<path d="M24837 1439
L24837 10729
" />
<path d="M24837 1454
L24837 1374
" />
<path d="M24837 1404
L24837 1454
" />
<path d="M24837 19
L24477 19
" />
<path d="M24837 29
L24837 19
" />
<path d="M24837 1354
L24837 29
" />
<path d="M24837 1359
L24837 1394
" />
<path d="M24837 1394
L24837 1359
" />
<path d="M2222 19
L24487 19
" />
<path d="M1322 19
L2217 19
" />
</g>
<g style="fill:#008400; fill-opacity:0.0; 
stroke:#008400; stroke-width:150; stroke-opacity:1; 
stroke-linecap:round; stroke-linejoin:round;">
<path d="M4160 9658
L4018 10237
" />
<path d="M4018 10237
L3908 9819
" />
<path d="M3908 9819
L3786 10241
" />
<path d="M3786 10241
L3652 9670
" />
<path d="M4719 9930
L4408 9926
" />
<path d="M4408 9926
L4404 9930
" />
<path d="M4404 9930
L4404 9926
" />
<path d="M4388 9646
L4388 10253
" />
<path d="M4738 9642
L4738 10260
" />
<path d="M4738 10260
L4734 10256
" />
<path d="M4955 9682
L5093 9650
" />
<path d="M5093 9650
L5219 9646
" />
<path d="M5219 9646
L5313 9725
" />
<path d="M5313 9725
L5325 9831
" />
<path d="M5325 9831
L5230 9926
" />
<path d="M5230 9926
L5077 9977
" />
<path d="M5077 9977
L5006 10040
" />
<path d="M5006 10040
L4990 10158
" />
<path d="M4990 10158
L5081 10245
" />
<path d="M5081 10245
L5207 10256
" />
<path d="M5207 10256
L5345 10213
" />
<path d="M5754 9642
L5852 9650
" />
<path d="M5852 9650
L5947 9745
" />
<path d="M5947 9745
L5982 9938
" />
<path d="M5982 9938
L5971 10075
" />
<path d="M5971 10075
L5892 10201
" />
<path d="M5892 10201
L5793 10249
" />
<path d="M5793 10249
L5671 10221
" />
<path d="M5671 10221
L5585 10150
" />
<path d="M5585 10150
L5557 9969
" />
<path d="M5557 9969
L5577 9808
" />
<path d="M5577 9808
L5620 9697
" />
<path d="M5620 9697
L5762 9646
" />
<path d="M5518 8965
L5620 9186
" />
<path d="M5620 9186
L5408 9390
" />
<path d="M5408 9390
L5203 9284
" />
<path d="M5203 9284
L5093 9347
" />
<path d="M4526 9339
L4396 9264
" />
<path d="M4396 9264
L4223 9394
" />
<path d="M4223 9394
L4037 9201
" />
<path d="M4037 9201
L4148 9012
" />
<path d="M4148 9012
L4073 8827
" />
<path d="M4073 8827
L3833 8753
" />
<path d="M3833 8753
L3833 8485
" />
<path d="M3833 8485
L4053 8430
" />
<path d="M4053 8430
L4132 8205
" />
<path d="M4132 8205
L4026 8020
" />
<path d="M4026 8020
L4211 7819
" />
<path d="M4211 7819
L4415 7922
" />
<path d="M4415 7922
L4600 7843
" />
<path d="M4600 7843
L4667 7630
" />
<path d="M4667 7630
L4939 7623
" />
<path d="M4939 7623
L5022 7839
" />
<path d="M5022 7839
L5187 7906
" />
<path d="M5187 7906
L5404 7800
" />
<path d="M5404 7800
L5608 8008
" />
<path d="M5608 8008
L5510 8221
" />
<path d="M5510 8221
L5577 8410
" />
<path d="M5577 8410
L5793 8449
" />
<path d="M5793 8449
L5797 8725
" />
<path d="M5797 8725
L5577 8804
" />
<path d="M5577 8804
L5522 8961
" />
<path d="M4679 8953
L4561 8894
" />
<path d="M4561 8894
L4482 8816
" />
<path d="M4482 8816
L4423 8658
" />
<path d="M4423 8658
L4423 8501
" />
<path d="M4423 8501
L4482 8363
" />
<path d="M4482 8363
L4660 8225
" />
<path d="M4660 8225
L4837 8205
" />
<path d="M4837 8205
L4994 8245
" />
<path d="M4994 8245
L5152 8382
" />
<path d="M5152 8382
L5211 8560
" />
<path d="M5211 8560
L5191 8756
" />
<path d="M5191 8756
L5093 8875
" />
<path d="M5093 8875
L4955 8953
" />
<path d="M4955 8953
L5093 9347
" />
<path d="M4679 8953
L4522 9347
" />
</g>
<g style="fill:#840000; fill-opacity:0.0; 
stroke:#840000; stroke-width:39.3701; stroke-opacity:1; 
stroke-linecap:round; stroke-linejoin:round;">
</g>
<g style="fill:#840000; fill-opacity:1.0; 
stroke:#840000; stroke-width:39.3701; stroke-opacity:1; 
stroke-linecap:round; stroke-linejoin:round;">
<polyline style="fill-rule:evenodd;"
points="17308,3084
17308,3845
16547,3845
16547,3084
17308,3084
" /> 
</g>
<g style="fill:#840000; fill-opacity:1.0; 
stroke:#840000; stroke-width:800; stroke-opacity:1; 
stroke-linecap:round; stroke-linejoin:round;">
</g>
<g style="fill:#840000; fill-opacity:0.0; 
stroke:#840000; stroke-width:800; stroke-opacity:1; 
stroke-linecap:round; stroke-linejoin:round;">
<path d="M15927 3464
L15927 3464
" />
</g>
<g style="fill:#008400; fill-opacity:0.0; 
stroke:#008400; stroke-width:39.3701; stroke-opacity:1; 
stroke-linecap:round; stroke-linejoin:round;">
</g>
<g style="fill:#008400; fill-opacity:1.0; 
stroke:#008400; stroke-width:39.3701; stroke-opacity:1; 
stroke-linecap:round; stroke-linejoin:round;">
<polyline style="fill-rule:evenodd;"
points="6672,1910
6672,1499
6883,1499
6883,1910
6672,1910
" /> 
<polyline style="fill-rule:evenodd;"
points="7272,1910
7272,1499
7483,1499
7483,1910
7272,1910
" /> 
</g>
<g style="fill:#840000; fill-opacity:1.0; 
stroke:#840000; stroke-width:39.3701; stroke-opacity:1; 
stroke-linecap:round; stroke-linejoin:round;">
<circle cx="6673.34" cy="6444.69" r="541.339" /> 
<circle cx="4822.95" cy="6444.69" r="541.339" /> 
<circle cx="2972.55" cy="6444.69" r="541.339" /> 
<circle cx="7423.34" cy="10196.7" r="541.339" /> 
<circle cx="2222.55" cy="10196.7" r="541.339" /> 
</g>
<g style="fill:#840000; fill-opacity:1.0; 
stroke:#840000; stroke-width:393.701; stroke-opacity:1; 
stroke-linecap:round; stroke-linejoin:round;">
</g>
<g style="fill:#840000; fill-opacity:0.0; 
stroke:#840000; stroke-width:393.701; stroke-opacity:1; 
stroke-linecap:round; stroke-linejoin:round;">
<path d="M1856 4283
L2329 4283
" />
<path d="M1856 385
L2329 385
" />
<path d="M3470 4283
L3864 4283
" />
</g>
<g style="fill:#008400; fill-opacity:0.0; 
stroke:#008400; stroke-width:39.3701; stroke-opacity:1; 
stroke-linecap:round; stroke-linejoin:round;">
</g>
<g style="fill:#008400; fill-opacity:1.0; 
stroke:#008400; stroke-width:39.3701; stroke-opacity:1; 
stroke-linecap:round; stroke-linejoin:round;">
<polyline style="fill-rule:evenodd;"
points="4081,1891
3687,1891
3687,1753
4081,1753
4081,1891
" /> 
<polyline style="fill-rule:evenodd;"
points="4081,2403
3687,2403
3687,2265
4081,2265
4081,2403
" /> 
<polyline style="fill-rule:evenodd;"
points="4081,2147
3687,2147
3687,2009
4081,2009
4081,2147
" /> 
<polyline style="fill-rule:evenodd;"
points="4081,2659
3687,2659
3687,2521
4081,2521
4081,2659
" /> 
<polyline style="fill-rule:evenodd;"
points="4081,2915
3687,2915
3687,2777
4081,2777
4081,2915
" /> 
</g>
<g style="fill:#840000; fill-opacity:1.0; 
stroke:#840000; stroke-width:393.701; stroke-opacity:1; 
stroke-linecap:round; stroke-linejoin:round;">
</g>
<g style="fill:#840000; fill-opacity:0.0; 
stroke:#840000; stroke-width:393.701; stroke-opacity:1; 
stroke-linecap:round; stroke-linejoin:round;">
<path d="M3470 385
L3864 385
" />
</g>
<g style="fill:#840000; fill-opacity:0.0; 
stroke:#840000; stroke-width:39.3701; stroke-opacity:1; 
stroke-linecap:round; stroke-linejoin:round;">
</g>
<g style="fill:#840000; fill-opacity:1.0; 
stroke:#840000; stroke-width:39.3701; stroke-opacity:1; 
stroke-linecap:round; stroke-linejoin:round;">
<circle cx="8982.95" cy="2224.69" r="216.535" /> 
<circle cx="8982.95" cy="1224.69" r="216.535" /> 
</g>
<g style="fill:#008400; fill-opacity:1.0; 
stroke:#008400; stroke-width:39.3701; stroke-opacity:1; 
stroke-linecap:round; stroke-linejoin:round;">
<polyline style="fill-rule:evenodd;"
points="6158,3325
5747,3325
5747,3114
6158,3114
6158,3325
" /> 
<polyline style="fill-rule:evenodd;"
points="6158,2725
5747,2725
5747,2514
6158,2514
6158,2725
" /> 
<polyline style="fill-rule:evenodd;"
points="5533,1209
5533,1620
5322,1620
5322,1209
5533,1209
" /> 
<polyline style="fill-rule:evenodd;"
points="4933,1209
4933,1620
4722,1620
4722,1209
4933,1209
" /> 
<polyline style="fill-rule:evenodd;"
points="6969,3436
6536,3436
6536,3003
6969,3003
6969,3436
" /> 
<polyline style="fill-rule:evenodd;"
points="6969,2610
6536,2610
6536,2177
6969,2177
6969,2610
" /> 
<polyline style="fill-rule:evenodd;"
points="7211,2180
7644,2180
7644,2613
7211,2613
7211,2180
" /> 
<polyline style="fill-rule:evenodd;"
points="7211,3006
7644,3006
7644,3439
7211,3439
7211,3006
" /> 
</g>
<g style="fill:#840000; fill-opacity:1.0; 
stroke:#840000; stroke-width:39.3701; stroke-opacity:1; 
stroke-linecap:round; stroke-linejoin:round;">
<polyline style="fill-rule:evenodd;"
points="14577,3969
15128,3969
15128,4520
14577,4520
14577,3969
" /> 
<circle cx="14852.9" cy="1244.69" r="275.591" /> 
<polyline style="fill-rule:evenodd;"
points="15533,7755
14982,7755
14982,7204
15533,7204
15533,7755
" /> 
<circle cx="15257.9" cy="10479.7" r="275.591" /> 
</g>
<g style="fill:#008400; fill-opacity:1.0; 
stroke:#008400; stroke-width:39.3701; stroke-opacity:1; 
stroke-linecap:round; stroke-linejoin:round;">
<polyline style="fill-rule:evenodd;"
points="6263,4564
6263,5525
5802,5525
5802,4564
6263,4564
" /> 
<polyline style="fill-rule:evenodd;"
points="5063,4564
5063,5525
4602,5525
4602,4564
5063,4564
" /> 
</g>
<g style="fill:#840000; fill-opacity:1.0; 
stroke:#840000; stroke-width:39.3701; stroke-opacity:1; 
stroke-linecap:round; stroke-linejoin:round;">
<circle cx="13677.1" cy="5079.69" r="196.85" /> 
<circle cx="14562.9" cy="5079.69" r="196.85" /> 
<circle cx="15448.8" cy="5079.69" r="196.85" /> 
<circle cx="13697.1" cy="6779.69" r="196.85" /> 
<circle cx="14582.9" cy="6779.69" r="196.85" /> 
<circle cx="15468.8" cy="6779.69" r="196.85" /> 
</g>
<g style="fill:#008400; fill-opacity:1.0; 
stroke:#008400; stroke-width:39.3701; stroke-opacity:1; 
stroke-linecap:round; stroke-linejoin:round;">
<polyline style="fill-rule:evenodd;"
points="6727,4065
6727,3654
6938,3654
6938,4065
6727,4065
" /> 
<polyline style="fill-rule:evenodd;"
points="7327,4065
7327,3654
7538,3654
7538,4065
7327,4065
" /> 
<polyline style="fill-rule:evenodd;"
points="6473,3654
6473,4065
6262,4065
6262,3654
6473,3654
" /> 
<polyline style="fill-rule:evenodd;"
points="5873,3654
5873,4065
5662,4065
5662,3654
5873,3654
" /> 
<polyline style="fill-rule:evenodd;"
points="4585,2316
4585,1922
4782,1922
4782,2316
4585,2316
" /> 
<polyline style="fill-rule:evenodd;"
points="4959,2316
4959,1922
5156,1922
5156,2316
4959,2316
" /> 
<polyline style="fill-rule:evenodd;"
points="5333,2316
5333,1922
5530,1922
5530,2316
5333,2316
" /> 
<polyline style="fill-rule:evenodd;"
points="4585,3418
4585,3025
4782,3025
4782,3418
4585,3418
" /> 
<polyline style="fill-rule:evenodd;"
points="5333,3418
5333,3025
5530,3025
5530,3418
5333,3418
" /> 
</g>
<g style="fill:#840000; fill-opacity:1.0; 
stroke:#840000; stroke-width:39.3701; stroke-opacity:1; 
stroke-linecap:round; stroke-linejoin:round;">
<circle cx="24322.9" cy="9099.69" r="196.85" /> 
<circle cx="24322.9" cy="8599.69" r="196.85" /> 
<circle cx="24322.9" cy="8099.69" r="196.85" /> 
<polyline style="fill-rule:evenodd;"
points="24519,7796
24126,7796
24126,7402
24519,7402
24519,7796
" /> 
<circle cx="24317.9" cy="6684.69" r="196.85" /> 
<circle cx="24317.9" cy="6184.69" r="196.85" /> 
<circle cx="24317.9" cy="5684.69" r="196.85" /> 
<polyline style="fill-rule:evenodd;"
points="24514,5381
24121,5381
24121,4987
24514,4987
24514,5381
" /> 
<circle cx="21772.9" cy="10384.7" r="196.85" /> 
<circle cx="22272.9" cy="10384.7" r="196.85" /> 
<circle cx="22772.9" cy="10384.7" r="196.85" /> 
<circle cx="23272.9" cy="10384.7" r="196.85" /> 
<circle cx="23772.9" cy="10384.7" r="196.85" /> 
<polyline style="fill-rule:evenodd;"
points="24076,10581
24076,10187
24469,10187
24469,10581
24076,10581
" /> 
<circle cx="16852.9" cy="10379.7" r="196.85" /> 
<circle cx="17352.9" cy="10379.7" r="196.85" /> 
<circle cx="17852.9" cy="10379.7" r="196.85" /> 
<polyline style="fill-rule:evenodd;"
points="18156,10576
18156,10182
18549,10182
18549,10576
18156,10576
" /> 
<circle cx="19362.9" cy="534.685" r="196.85" /> 
<circle cx="18862.9" cy="534.685" r="196.85" /> 
<circle cx="18362.9" cy="534.685" r="196.85" /> 
<circle cx="17862.9" cy="534.685" r="196.85" /> 
<circle cx="17362.9" cy="534.685" r="196.85" /> 
<circle cx="16862.9" cy="534.685" r="196.85" /> 
<circle cx="16362.9" cy="534.685" r="196.85" /> 
<circle cx="15862.9" cy="534.685" r="196.85" /> 
<polyline style="fill-rule:evenodd;"
points="15559,337
15559,731
15166,731
15166,337
15559,337
" /> 
<polyline style="fill-rule:evenodd;"
points="12272,3840
12272,3079
13033,3079
13033,3840
12272,3840
" /> 
</g>
<g style="fill:#840000; fill-opacity:1.0; 
stroke:#840000; stroke-width:800; stroke-opacity:1; 
stroke-linecap:round; stroke-linejoin:round;">
</g>
<g style="fill:#840000; fill-opacity:0.0; 
stroke:#840000; stroke-width:800; stroke-opacity:1; 
stroke-linecap:round; stroke-linejoin:round;">
<path d="M13652 3459
L13652 3459
" />
</g>
<g style="fill:#840000; fill-opacity:0.0; 
stroke:#840000; stroke-width:39.3701; stroke-opacity:1; 
stroke-linecap:round; stroke-linejoin:round;">
</g>
<g style="fill:#840000; fill-opacity:1.0; 
stroke:#840000; stroke-width:39.3701; stroke-opacity:1; 
stroke-linecap:round; stroke-linejoin:round;">
<polyline style="fill-rule:evenodd;"
points="17668,8014
17668,8775
16907,8775
16907,8014
17668,8014
" /> 
</g>
<g style="fill:#840000; fill-opacity:1.0; 
stroke:#840000; stroke-width:800; stroke-opacity:1; 
stroke-linecap:round; stroke-linejoin:round;">
</g>
<g style="fill:#840000; fill-opacity:0.0; 
stroke:#840000; stroke-width:800; stroke-opacity:1; 
stroke-linecap:round; stroke-linejoin:round;">
<path d="M16287 8394
L16287 8394
" />
</g>
<g style="fill:#840000; fill-opacity:0.0; 
stroke:#840000; stroke-width:39.3701; stroke-opacity:1; 
stroke-linecap:round; stroke-linejoin:round;">
</g>
<g style="fill:#840000; fill-opacity:1.0; 
stroke:#840000; stroke-width:39.3701; stroke-opacity:1; 
stroke-linecap:round; stroke-linejoin:round;">
<polyline style="fill-rule:evenodd;"
points="12717,8785
12717,8024
13478,8024
13478,8785
12717,8785
" /> 
</g>
<g style="fill:#840000; fill-opacity:1.0; 
stroke:#840000; stroke-width:800; stroke-opacity:1; 
stroke-linecap:round; stroke-linejoin:round;">
</g>
<g style="fill:#840000; fill-opacity:0.0; 
stroke:#840000; stroke-width:800; stroke-opacity:1; 
stroke-linecap:round; stroke-linejoin:round;">
<path d="M14097 8404
L14097 8404
" />
</g>
<g style="fill:#C2C2C2; fill-opacity:0.0; 
stroke:#C2C2C2; stroke-width:39.3701; stroke-opacity:1; 
stroke-linecap:round; stroke-linejoin:round;">
</g>
<g style="fill:#C2C2C2; fill-opacity:1.0; 
stroke:#C2C2C2; stroke-width:39.3701; stroke-opacity:1; 
stroke-linecap:round; stroke-linejoin:round;">
<circle cx="8222.95" cy="9424.69" r="155.315" /> 
<circle cx="7777.95" cy="9429.69" r="80.315" /> 
<circle cx="9497.95" cy="9244.69" r="80.315" /> 
<circle cx="9152.95" cy="9244.69" r="80.315" /> 
<circle cx="9147.95" cy="8694.69" r="80.315" /> 
<circle cx="9322.95" cy="8969.69" r="80.315" /> 
<circle cx="9497.95" cy="8694.69" r="80.315" /> 
<circle cx="10092.9" cy="6664.69" r="80.315" /> 
<circle cx="9747.95" cy="6664.69" r="80.315" /> 
<circle cx="9747.95" cy="6114.69" r="80.315" /> 
<circle cx="9922.95" cy="6389.69" r="80.315" /> 
<circle cx="10092.9" cy="6114.69" r="80.315" /> 
<circle cx="20557.9" cy="1974.69" r="80.315" /> 
<circle cx="20372.9" cy="1789.69" r="80.315" /> 
<circle cx="20497.9" cy="7349.69" r="80.315" /> 
<circle cx="19572.9" cy="8519.69" r="80.315" /> 
<circle cx="19782.9" cy="8309.69" r="80.315" /> 
<circle cx="19572.9" cy="8784.69" r="80.315" /> 
<circle cx="21902.9" cy="8764.69" r="80.315" /> 
<circle cx="21632.9" cy="8489.69" r="80.315" /> 
<circle cx="21632.9" cy="8764.69" r="80.315" /> 
<circle cx="21902.9" cy="8489.69" r="80.315" /> 
<circle cx="18682.9" cy="8999.69" r="155.315" /> 
<circle cx="18682.9" cy="9409.69" r="155.315" /> 
<circle cx="22787.9" cy="2834.69" r="80.315" /> 
<circle cx="22527.9" cy="3094.69" r="80.315" /> 
<circle cx="20162.9" cy="4329.69" r="80.315" /> 
<circle cx="20662.9" cy="3829.69" r="80.315" /> 
<circle cx="21162.9" cy="4329.69" r="80.315" /> 
<circle cx="20662.9" cy="4829.69" r="80.315" /> 
<circle cx="21162.9" cy="4829.69" r="155.315" /> 
<circle cx="20162.9" cy="4829.69" r="155.315" /> 
<circle cx="20162.9" cy="3829.69" r="155.315" /> 
<circle cx="20662.9" cy="4329.69" r="155.315" /> 
<circle cx="21162.9" cy="3829.69" r="155.315" /> 
<circle cx="5962.95" cy="2229.69" r="155.315" /> 
<circle cx="4822.95" cy="904.685" r="155.315" /> 
<circle cx="4832.95" cy="494.685" r="155.315" /> 
<circle cx="5247.95" cy="494.685" r="155.315" /> 
<circle cx="5247.95" cy="904.685" r="155.315" /> 
<circle cx="5972.95" cy="1819.69" r="155.315" /> 
<circle cx="6832.95" cy="4269.69" r="155.315" /> 
<circle cx="6367.95" cy="4269.69" r="155.315" /> 
<circle cx="9607.95" cy="4959.69" r="155.315" /> 
<circle cx="9607.95" cy="4584.69" r="155.315" /> 
<circle cx="9982.95" cy="4584.69" r="155.315" /> 
<circle cx="9982.95" cy="4959.69" r="155.315" /> 
<circle cx="9042.95" cy="6309.69" r="80.315" /> 
<circle cx="8887.95" cy="6154.69" r="80.315" /> 
<circle cx="8887.95" cy="6459.65" r="80.315" /> 
<circle cx="8672.95" cy="6459.65" r="80.315" /> 
<circle cx="8672.95" cy="6154.69" r="80.315" /> 
<circle cx="10752.9" cy="6469.69" r="80.315" /> 
<circle cx="10967.9" cy="6469.69" r="80.315" /> 
<circle cx="10192.9" cy="9049.69" r="80.315" /> 
<circle cx="10347.9" cy="8894.73" r="80.315" /> 
<circle cx="10347.9" cy="9204.65" r="80.315" /> 
<circle cx="8452.95" cy="8889.69" r="80.315" /> 
<circle cx="8222.95" cy="8889.69" r="80.315" /> 
<circle cx="10572.9" cy="8897.41" r="80.315" /> 
<circle cx="10572.9" cy="9204.65" r="80.315" /> 
<circle cx="10967.9" cy="6049.69" r="155.315" /> 
<circle cx="9922.95" cy="9794.69" r="80.315" /> 
<circle cx="9922.95" cy="10044.7" r="80.315" /> 
<circle cx="11107.9" cy="10044.7" r="80.315" /> 
<circle cx="11522.9" cy="10459.7" r="80.315" /> 
<circle cx="11522.9" cy="10044.7" r="80.315" /> 
<circle cx="11222.9" cy="4064.69" r="155.315" /> 
<circle cx="10787.9" cy="4064.69" r="155.315" /> 
<circle cx="11222.9" cy="3629.69" r="155.315" /> 
<circle cx="10787.9" cy="3629.69" r="155.315" /> 
<circle cx="8167.95" cy="7994.69" r="155.315" /> 
<circle cx="8587.95" cy="7994.69" r="155.315" /> 
<circle cx="10642.9" cy="7359.69" r="155.315" /> 
<circle cx="11057.9" cy="7359.69" r="155.315" /> 
<circle cx="23327.9" cy="5074.69" r="155.315" /> 
<circle cx="23327.9" cy="4629.69" r="155.315" /> 
<circle cx="22722.9" cy="2289.69" r="155.315" /> 
<circle cx="22987.9" cy="2024.69" r="155.315" /> 
<circle cx="21547.9" cy="904.685" r="155.315" /> 
<circle cx="21547.9" cy="529.685" r="155.315" /> 
<circle cx="18347.9" cy="2504.69" r="80.315" /> 
<circle cx="18347.9" cy="2284.69" r="80.315" /> 
<circle cx="21532.9" cy="9204.69" r="155.315" /> 
<circle cx="21537.9" cy="9589.69" r="155.315" /> 
<circle cx="19192.9" cy="5924.69" r="80.315" /> 
<circle cx="19467.9" cy="5924.69" r="80.315" /> 
<circle cx="19192.9" cy="6194.69" r="80.315" /> 
<circle cx="19257.9" cy="10429.7" r="155.315" /> 
<circle cx="19677.9" cy="10429.7" r="155.315" /> 
<circle cx="19257.9" cy="10009.7" r="155.315" /> 
<circle cx="19677.9" cy="10009.7" r="155.315" /> 
<circle cx="20732.9" cy="6949.69" r="80.315" /> 
<circle cx="21122.9" cy="7319.69" r="80.315" /> 
<circle cx="20927.9" cy="7139.69" r="80.315" /> 
<circle cx="19692.9" cy="7379.69" r="80.315" /> 
<circle cx="19692.9" cy="7839.69" r="80.315" /> 
<circle cx="19692.9" cy="7614.69" r="80.315" /> 
<circle cx="10172.9" cy="10174.7" r="80.315" /> 
<circle cx="10372.9" cy="10044.7" r="80.315" /> 
<circle cx="10642.9" cy="10044.7" r="80.315" /> 
<circle cx="19402.9" cy="2944.69" r="80.315" /> 
<circle cx="19247.9" cy="2729.69" r="80.315" /> 
<circle cx="18662.9" cy="3149.69" r="80.315" /> 
<circle cx="21837.9" cy="3144.69" r="80.315" /> 
<circle cx="12552.9" cy="5934.69" r="80.315" /> 
<circle cx="9442.95" cy="6979.69" r="80.315" /> 
</g>
<g style="fill:#008400; fill-opacity:1.0; 
stroke:#008400; stroke-width:100; stroke-opacity:1; 
stroke-linecap:round; stroke-linejoin:round;">
</g>
<g style="fill:#008400; fill-opacity:0.0; 
stroke:#008400; stroke-width:100; stroke-opacity:1; 
stroke-linecap:round; stroke-linejoin:round;">
<path d="M4420 1414
L4827 1414
" />
<path d="M4012 1822
L4420 1414
" />
<path d="M3884 1822
L4012 1822
" />
</g>
<g style="fill:#008400; fill-opacity:0.0; 
stroke:#008400; stroke-width:200; stroke-opacity:1; 
stroke-linecap:round; stroke-linejoin:round;">
<path d="M5952 2239
L5962 2229
" />
<path d="M5952 2619
L5952 2239
" />
<path d="M5057 1644
L4827 1414
" />
<path d="M5057 2119
L5057 1644
" />
<path d="M4827 909
L4822 904
" />
<path d="M4827 1414
L4827 909
" />
<path d="M4822 504
L4832 494
" />
<path d="M4822 904
L4822 504
" />
<path d="M4832 494
L5247 494
" />
<path d="M5247 494
L5247 904
" />
<path d="M5962 1829
L5972 1819
" />
<path d="M5962 2229
L5962 1829
" />
<path d="M6367 3859
L6832 3859
" />
<path d="M6832 3859
L6832 4269
" />
<path d="M6832 4269
L6367 4269
" />
<path d="M6367 4269
L6367 3859
" />
</g>
<g style="fill:#008400; fill-opacity:0.0; 
stroke:#008400; stroke-width:60; stroke-opacity:1; 
stroke-linecap:round; stroke-linejoin:round;">
<path d="M8672 6459
L8672 6459
" />
<path d="M10347 8894
L10347 8894
" />
<path d="M11222 4064
L11222 4059
" />
<path d="M10642 7359
L10642 7354
" />
</g>
<g style="fill:#008400; fill-opacity:0.0; 
stroke:#008400; stroke-width:200; stroke-opacity:1; 
stroke-linecap:round; stroke-linejoin:round;">
<path d="M5427 1314
L5427 1414
" />
<path d="M5752 989
L5427 1314
" />
<path d="M8413 989
L5752 989
" />
<path d="M8648 1224
L8413 989
" />
<path d="M8982 1224
L8648 1224
" />
<path d="M5431 1418
L5427 1414
" />
<path d="M5431 2119
L5431 1418
" />
</g>
<g style="fill:#008400; fill-opacity:0.0; 
stroke:#008400; stroke-width:400; stroke-opacity:1; 
stroke-linecap:round; stroke-linejoin:round;">
<path d="M9652 1224
L8982 1224
" />
<path d="M10087 1659
L9652 1224
" />
<path d="M10087 3084
L10087 1659
" />
<path d="M8122 5049
L10087 3084
" />
<path d="M6687 5049
L8122 5049
" />
<path d="M6682 5044
L6687 5049
" />
<path d="M6032 5044
L6682 5044
" />
</g>
<g style="fill:#008400; fill-opacity:0.0; 
stroke:#008400; stroke-width:200; stroke-opacity:1; 
stroke-linecap:round; stroke-linejoin:round;">
<path d="M6752 3219
L5952 3219
" />
<path d="M5434 3219
L5431 3222
" />
<path d="M5952 3219
L5434 3219
" />
</g>
<g style="fill:#008400; fill-opacity:0.0; 
stroke:#008400; stroke-width:100; stroke-opacity:1; 
stroke-linecap:round; stroke-linejoin:round;">
<path d="M5431 3123
L5431 3222
" />
<path d="M5154 2846
L5431 3123
" />
<path d="M3884 2846
L5154 2846
" />
</g>
<g style="fill:#008400; fill-opacity:0.0; 
stroke:#008400; stroke-width:60; stroke-opacity:1; 
stroke-linecap:round; stroke-linejoin:round;">
<path d="M21832 3149
L21837 3144
" />
<path d="M18662 3149
L21832 3149
" />
</g>
<g style="fill:#008400; fill-opacity:0.0; 
stroke:#008400; stroke-width:200; stroke-opacity:1; 
stroke-linecap:round; stroke-linejoin:round;">
<path d="M6752 1729
L6777 1704
" />
<path d="M6752 2393
L6752 1729
" />
</g>
<g style="fill:#008400; fill-opacity:0.0; 
stroke:#008400; stroke-width:60; stroke-opacity:1; 
stroke-linecap:round; stroke-linejoin:round;">
<path d="M4683 2119
L4683 2420
" />
<path d="M7377 1404
L7377 1704
" />
<path d="M7297 1324
L7377 1404
" />
<path d="M6047 1324
L7297 1324
" />
<path d="M5652 1719
L6047 1324
" />
<path d="M5652 2394
L5652 1719
" />
<path d="M5572 2474
L5652 2394
" />
<path d="M4737 2474
L5572 2474
" />
<path d="M4683 2420
L4737 2474
" />
<path d="M7377 1604
L7377 1704
" />
</g>
<g style="fill:#008400; fill-opacity:0.0; 
stroke:#008400; stroke-width:200; stroke-opacity:1; 
stroke-linecap:round; stroke-linejoin:round;">
<path d="M7377 2346
L7427 2396
" />
<path d="M7377 1704
L7377 2346
" />
</g>
<g style="fill:#008400; fill-opacity:0.0; 
stroke:#008400; stroke-width:60; stroke-opacity:1; 
stroke-linecap:round; stroke-linejoin:round;">
<path d="M7427 3854
L7432 3859
" />
<path d="M7427 3222
L7427 3854
" />
</g>
<g style="fill:#008400; fill-opacity:0.0; 
stroke:#008400; stroke-width:400; stroke-opacity:1; 
stroke-linecap:round; stroke-linejoin:round;">
<path d="M4832 6434
L4822 6444
" />
<path d="M4832 5044
L4832 6434
" />
</g>
<g style="fill:#008400; fill-opacity:0.0; 
stroke:#008400; stroke-width:200; stroke-opacity:1; 
stroke-linecap:round; stroke-linejoin:round;">
<path d="M5321 3859
L5767 3859
" />
<path d="M4905 3859
L5321 3859
" />
<path d="M4683 3638
L4905 3859
" />
<path d="M4683 3222
L4683 3638
" />
</g>
<g style="fill:#008400; fill-opacity:0.0; 
stroke:#008400; stroke-width:60; stroke-opacity:1; 
stroke-linecap:round; stroke-linejoin:round;">
<path d="M12552 5934
L11507 6979
" />
<path d="M11507 6979
L9442 6979
" />
</g>
<g style="fill:#008400; fill-opacity:1.0; 
stroke:#008400; stroke-width:100; stroke-opacity:1; 
stroke-linecap:round; stroke-linejoin:round;">
<polyline style="fill-rule:evenodd;"
points="24568,9929
24489,9913
24056,9913
23961,9931
23936,9947
23866,9918
23680,9918
23522,9983
23366,9918
23180,9918
23022,9983
22866,9918
22680,9918
22522,9983
22366,9918
22253,9918
22253,8695
22224,8627
22252,8559
22253,8420
22199,8291
22101,8193
21972,8139
21833,8139
21767,8166
21702,8139
21563,8139
21434,8192
21336,8291
21283,8419
21282,8558
21311,8627
21283,8694
21282,8833
21336,8962
21434,9061
21563,9114
21702,9114
21767,9087
21833,9114
21972,9114
22100,9061
22199,8963
22252,8834
22253,8695
22253,9918
22180,9918
22022,9983
21866,9918
21680,9918
21509,9988
21377,10120
21306,10291
21306,10477
21371,10635
20848,10635
20848,7280
20794,7151
20696,7053
20567,6999
20428,6999
20299,7052
20201,7151
20148,7279
20147,7418
20201,7547
20299,7646
20428,7699
20567,7699
20695,7646
20794,7548
20847,7419
20848,7280
20848,10635
20133,10635
20133,8240
20079,8111
19981,8013
19852,7959
19713,7959
19584,8012
19486,8111
19453,8190
19374,8222
19276,8321
19223,8449
19222,8588
19248,8652
19223,8714
19222,8853
19276,8982
19374,9081
19503,9134
19642,9134
19770,9081
19869,8983
19922,8854
19923,8715
19896,8652
19902,8639
19980,8606
20079,8508
20132,8379
20133,8240
20133,10635
19108,10635
19108,9325
19058,9204
19107,9084
19108,8915
19043,8759
18924,8639
18767,8574
18598,8574
18442,8639
18322,8758
18258,8914
18257,9083
18307,9204
18258,9324
18257,9493
18322,9650
18441,9769
18598,9834
18767,9834
18923,9770
19043,9650
19107,9494
19108,9325
19108,10635
18816,10635
18824,10596
18824,10163
18805,10067
18750,9984
18667,9927
18569,9908
18136,9908
18041,9926
18016,9942
17946,9913
17942,9913
17942,8794
17942,7994
17924,7899
17869,7815
17815,7778
17815,6177
17702,5904
17582,5785
17582,3864
17582,3064
17564,2969
17509,2885
17426,2829
17327,2809
16527,2809
16432,2828
16348,2883
16308,2943
16189,2864
15940,2814
15915,2814
15666,2864
15455,3005
15314,3215
15265,3464
15314,3713
15455,3924
15666,4065
15915,4114
15940,4114
16189,4065
16308,3985
16346,4043
16429,4099
16527,4119
17327,4119
17423,4101
17507,4046
17563,3962
17582,3864
17582,5785
17493,5696
17221,5582
16926,5582
16653,5695
16444,5903
16331,6176
16330,6471
16443,6744
16652,6953
16924,7066
17219,7066
17492,6954
17701,6745
17814,6472
17815,6177
17815,7778
17786,7759
17687,7739
16887,7739
16792,7758
16708,7813
16668,7873
16549,7794
16300,7744
16275,7744
16026,7794
15935,7855
15935,6687
15915,6638
15915,4987
15844,4815
15713,4684
15541,4613
15388,4613
15403,4539
15403,3949
15384,3854
15329,3770
15246,3714
15148,3694
14557,3694
14462,3713
14378,3768
14322,3851
14315,3885
14315,3459
14266,3210
14125,3000
13914,2859
13665,2809
13640,2809
13391,2859
13272,2938
13234,2880
13151,2824
13052,2804
12252,2804
12157,2823
12073,2878
12017,2961
11998,3059
11998,3859
12016,3955
12071,4038
12154,4094
12252,4114
13052,4114
13148,4096
13232,4041
13272,3980
13391,4060
13640,4109
13665,4109
13914,4060
14125,3919
14266,3708
14315,3459
14315,3885
14302,3949
14302,4539
14321,4635
14341,4666
14299,4683
14167,4815
14120,4929
14072,4815
13941,4684
13770,4613
13584,4613
13413,4683
13281,4815
13210,4986
13210,5172
13281,5343
13412,5474
13583,5546
13769,5546
13941,5475
14072,5344
14120,5229
14167,5343
14298,5474
14469,5546
14655,5546
14826,5475
14958,5344
15005,5229
15053,5343
15184,5474
15355,5546
15541,5546
15712,5475
15844,5344
15915,5172
15915,4987
15915,6638
15864,6515
15733,6384
15561,6313
15376,6313
15204,6383
15073,6515
15025,6629
14978,6515
14847,6384
14676,6313
14490,6313
14319,6383
14187,6515
14140,6629
14092,6515
13961,6384
13790,6313
13604,6313
13433,6383
13301,6515
13230,6686
13230,6872
13301,7043
13432,7174
13603,7246
13789,7246
13961,7175
14092,7044
14140,6929
14187,7043
14318,7174
14489,7246
14675,7246
14707,7232
14707,7774
14726,7870
14781,7954
14864,8010
14962,8029
15553,8029
15648,8011
15732,7956
15788,7873
15808,7774
15808,7184
15794,7113
15864,7044
15935,6872
15935,6687
15935,7855
15815,7935
15674,8145
15625,8394
15674,8643
15815,8854
16026,8995
16275,9044
16300,9044
16549,8995
16668,8915
16706,8973
16789,9029
16887,9049
17687,9049
17783,9031
17867,8976
17923,8892
17942,8794
17942,9913
17760,9913
17602,9978
17446,9913
17260,9913
17102,9978
16946,9913
16760,9913
16589,9983
16457,10115
16386,10286
16386,10472
16453,10635
15783,10635
15803,10588
15803,10371
15720,10171
15567,10017
15366,9934
15149,9934
14949,10017
14795,10170
14760,10255
14760,8404
14711,8155
14570,7945
14359,7804
14110,7754
14085,7754
13836,7804
13717,7883
13679,7825
13596,7769
13497,7749
12903,7749
12903,5865
12849,5736
12751,5638
12622,5584
12483,5584
12354,5637
12256,5736
12203,5864
12202,5888
11648,6443
11648,3980
11592,3847
11647,3714
11648,3545
11583,3389
11464,3269
11307,3204
11138,3204
11005,3259
10872,3204
10703,3204
10547,3269
10427,3388
10363,3544
10362,3713
10418,3847
10363,3979
10362,4148
10427,4305
10546,4424
10703,4489
10872,4489
11005,4434
11138,4489
11307,4489
11463,4425
11583,4305
11647,4149
11648,3980
11648,6443
11391,6699
11232,6699
11264,6668
11317,6539
11318,6400
11288,6329
11328,6290
11392,6134
11393,5965
11328,5809
11209,5689
11052,5624
10883,5624
10727,5689
10607,5808
10543,5964
10542,6133
10558,6171
10554,6172
10456,6271
10403,6399
10402,6498
10389,6466
10312,6389
10389,6313
10442,6184
10443,6045
10389,5916
10291,5818
10162,5764
10023,5764
9920,5807
9817,5764
9678,5764
9549,5817
9451,5916
9398,6044
9397,6183
9451,6312
9527,6389
9451,6466
9398,6594
9397,6629
9393,6629
9393,6240
9339,6111
9241,6013
9201,5996
9184,5956
9086,5858
8957,5804
8818,5804
8780,5820
8742,5804
8603,5804
8474,5857
8376,5956
8323,6084
8322,6223
8357,6307
8323,6389
8322,6528
8376,6657
8474,6756
8603,6809
8742,6809
8780,6793
8818,6809
8957,6809
9085,6756
9184,6658
9198,6624
9240,6606
9339,6508
9392,6379
9393,6240
9393,6629
9373,6629
9244,6682
9146,6781
9093,6909
9092,7048
9146,7177
9244,7276
9373,7329
9512,7329
9640,7276
9657,7259
10224,7259
10218,7274
10217,7443
10282,7600
10401,7719
10558,7784
10727,7784
10850,7733
10973,7784
11142,7784
11298,7720
11418,7600
11482,7444
11483,7275
11476,7259
11507,7259
11615,7238
11615,7238
11705,7177
12598,6284
12622,6284
12750,6231
12849,6133
12902,6004
12903,5865
12903,7749
12697,7749
12602,7768
12518,7823
12462,7906
12443,8004
12443,8804
12461,8900
12516,8983
12599,9039
12697,9059
13497,9059
13593,9041
13677,8986
13717,8925
13836,9005
14085,9054
14110,9054
14359,9005
14570,8864
14711,8653
14760,8404
14760,10255
14712,10370
14712,10587
14732,10635
11829,10635
11872,10529
11873,10390
11819,10261
11810,10252
11819,10243
11872,10114
11873,9975
11819,9846
11721,9748
11592,9694
11453,9694
11324,9747
11315,9757
11306,9748
11177,9694
11038,9694
10923,9742
10923,9135
10888,9050
10922,8967
10923,8828
10869,8699
10771,8600
10642,8547
10503,8547
10463,8563
10417,8544
10278,8544
10149,8597
10051,8696
10034,8736
9994,8752
9896,8851
9843,8979
9842,9118
9896,9247
9994,9346
10034,9362
10051,9402
10149,9501
10278,9554
10417,9554
10460,9536
10503,9554
10642,9554
10770,9501
10869,9403
10922,9274
10923,9135
10923,9742
10909,9747
10811,9846
10758,9974
10757,10113
10811,10242
10909,10341
11038,10394
11173,10394
11172,10528
11216,10635
10273,10635
10273,9975
10250,9919
10272,9864
10273,9725
10219,9596
10121,9498
9992,9444
9853,9444
9750,9487
9794,9443
9847,9314
9848,9175
9794,9046
9717,8969
9794,8893
9847,8764
9848,8625
9794,8496
9696,8398
9567,8344
9428,8344
9322,8388
9217,8344
9078,8344
9013,8371
9013,7910
8948,7754
8829,7634
8672,7569
8503,7569
8377,7621
8252,7569
8083,7569
7927,7634
7807,7753
7743,7909
7742,8078
7807,8235
7926,8354
8083,8419
8252,8419
8378,8367
8503,8419
8672,8419
8828,8355
8948,8235
9012,8079
9013,7910
9013,8371
8949,8397
8851,8496
8798,8624
8797,8763
8851,8892
8930,8972
8856,9046
8803,9174
8802,9313
8856,9442
8954,9541
9083,9594
9222,9594
9325,9552
9428,9594
9567,9594
9670,9552
9626,9596
9573,9724
9572,9863
9595,9919
9573,9974
9572,10113
9626,10242
9724,10341
9853,10394
9992,10394
10120,10341
10219,10243
10272,10114
10273,9975
10273,10635
8119,10635
8234,10358
8234,10036
8157,9849
8307,9849
8463,9785
8583,9665
8647,9509
8648,9340
8594,9210
8650,9186
8749,9088
8802,8959
8803,8820
8749,8691
8651,8593
8522,8539
8383,8539
8337,8558
8292,8539
8153,8539
8024,8592
7926,8691
7873,8819
7872,8958
7926,9087
7942,9104
7931,9114
7847,9079
7708,9079
7579,9132
7481,9231
7428,9359
7427,9385
7262,9385
6964,9508
6736,9736
6612,10034
6612,10357
6726,10635
6306,10635
6306,9964
6302,9922
6302,9880
6267,9687
6254,9655
6248,9621
6231,9596
6221,9569
6197,9544
6177,9515
6082,9420
6040,9392
6001,9361
5988,9357
5977,9350
5927,9340
5906,9334
5918,9316
5920,9307
5925,9299
5934,9245
5945,9192
5944,9183
5945,9173
5933,9121
5923,9068
5918,9059
5916,9050
5907,9031
5907,9031
5916,9026
5926,9024
5970,8993
6016,8966
6022,8957
6031,8952
6060,8907
6091,8864
6094,8854
6099,8845
6109,8793
6122,8741
6121,8731
6122,8720
6118,8444
6112,8413
6111,8380
6098,8351
6092,8320
6073,8294
6060,8264
6038,8242
6020,8216
5993,8198
5969,8176
5940,8164
5913,8147
5903,8145
5904,8144
5905,8139
5907,8135
5920,8078
5933,8021
5932,8016
5933,8011
5923,7954
5913,7895
5911,7891
5910,7887
5878,7838
5847,7787
5843,7785
5840,7781
5636,7573
5634,7571
5634,6284
5510,5985
5282,5757
5282,5757
5282,5695
5318,5642
5337,5544
5337,4544
5319,4449
5264,4365
5181,4309
5082,4289
4582,4289
4487,4308
4403,4363
4347,4446
4328,4544
4328,5544
4346,5640
4382,5695
4382,5748
4364,5756
4135,5984
4012,6282
4011,6605
4134,6903
4362,7131
4660,7255
4983,7255
5281,7132
5510,6904
5633,6606
5634,6284
5634,7571
5627,7566
5620,7557
5575,7530
5532,7501
5520,7499
5510,7493
5459,7486
5408,7475
5396,7477
5384,7476
5334,7489
5283,7499
5273,7505
5262,7508
5246,7516
5243,7507
5238,7499
5236,7491
5205,7446
5175,7399
5168,7394
5163,7388
5117,7358
5072,7326
5063,7324
5056,7320
5002,7310
4948,7298
4939,7300
4931,7298
4659,7305
4649,7308
4639,7306
4588,7321
4535,7333
4527,7339
4517,7342
4475,7376
4432,7406
4426,7415
4418,7421
4393,7468
4364,7514
4362,7524
4359,7530
4358,7529
4340,7524
4323,7514
4279,7507
4236,7495
4217,7497
4198,7494
4154,7505
4110,7510
4093,7520
4075,7524
4039,7551
3999,7573
3988,7588
3972,7599
3787,7800
3783,7807
3783,6284
3660,5985
3432,5757
3134,5633
2811,5633
2513,5756
2285,5984
2161,6282
2161,6605
2284,6903
2512,7131
2810,7255
3133,7255
3431,7132
3659,6904
3783,6606
3783,6284
3783,7807
3780,7812
3769,7821
3747,7866
3721,7908
3719,7922
3713,7935
3709,7985
3702,8034
3705,8047
3704,8062
3720,8109
3732,8157
3740,8168
3742,8176
3733,8180
3709,8185
3676,8207
3640,8224
3624,8242
3604,8255
3582,8288
3555,8318
3547,8341
3533,8361
3525,8400
3512,8437
3513,8461
3508,8485
3508,8753
3511,8768
3510,8784
3524,8830
3533,8878
3542,8890
3546,8905
3577,8943
3604,8983
3616,8992
3626,9003
3669,9027
3709,9053
3724,9056
3738,9064
3744,9066
3740,9071
3730,9115
3716,9156
3717,9176
3713,9195
3720,9239
3723,9283
3731,9301
3735,9320
3759,9357
3766,9372
3705,9349
3578,9354
3463,9406
3376,9499
3332,9618
3336,9744
3470,10315
3488,10356
3502,10398
3514,10413
3523,10431
3555,10461
3584,10495
3601,10504
3615,10517
3657,10533
3696,10553
3716,10555
3734,10562
3778,10560
3823,10564
3841,10558
3861,10558
3901,10539
3908,10537
3941,10553
3958,10554
3975,10559
4021,10556
4068,10558
4084,10553
4101,10551
4143,10531
4187,10515
4195,10507
4264,10553
4388,10578
4513,10553
4558,10523
4614,10560
4614,10560
4738,10585
4863,10560
4863,10560
4919,10523
4931,10533
4949,10539
4964,10548
5009,10556
5053,10569
5179,10580
5242,10573
5304,10566
5442,10523
5498,10493
5530,10507
5576,10532
5588,10533
5599,10538
5721,10566
5767,10567
5813,10574
5830,10569
5848,10570
5891,10553
5935,10542
6034,10494
6056,10477
6081,10466
6106,10439
6135,10417
6149,10394
6168,10374
6247,10248
6252,10234
6261,10223
6274,10176
6292,10129
6291,10115
6295,10101
6306,9964
6306,10635
2918,10635
3033,10358
3033,10036
2910,9737
2682,9509
2384,9385
2061,9385
1763,9508
1592,9679
1592,4643
1672,4696
1843,4730
2342,4730
2513,4696
2658,4599
2755,4454
2789,4283
2766,4169
3034,4169
3011,4283
3045,4454
3142,4599
3287,4696
3458,4730
3877,4730
4048,4696
4193,4599
4290,4454
4324,4283
4290,4112
4193,3967
4048,3870
3877,3836
3691,3836
3699,3824
3739,3726
3767,3587
3767,3560
3772,3534
3772,3189
4100,3189
4196,3171
4234,3146
4310,3146
4310,3438
4329,3533
4333,3540
4333,3638
4360,3772
4436,3886
4657,4107
4771,4183
4905,4209
5321,4209
5426,4209
5461,4263
5544,4319
5640,4339
5603,4363
5547,4446
5528,4544
5528,5544
5546,5640
5601,5723
5684,5779
5782,5799
6171,5799
5986,5984
5862,6282
5862,6605
5985,6903
6213,7131
6511,7255
6833,7255
7132,7132
7360,6904
7484,6606
7484,6284
7361,5985
7133,5757
6835,5633
6520,5633
6537,5544
6537,5494
6662,5494
6687,5499
8122,5499
8295,5465
8441,5367
9182,4626
9182,4668
9225,4772
9183,4874
9182,5043
9247,5200
9366,5319
9523,5384
9692,5384
9795,5342
9898,5384
10067,5384
10223,5320
10343,5200
10407,5044
10408,4875
10365,4772
10407,4669
10408,4500
10343,4344
10224,4224
10067,4159
9898,4159
9795,4202
9692,4159
9649,4159
10406,3402
10503,3256
10537,3084
10537,1659
10503,1487
10406,1341
9971,906
9825,808
9652,774
9167,774
9080,738
8886,738
8724,805
8661,742
8547,666
8413,639
5752,639
5638,662
5672,579
5673,410
5622,289
14897,289
14891,318
14891,699
14744,699
14544,782
14390,935
14307,1135
14307,1352
14390,1553
14543,1706
14744,1789
14960,1790
15161,1707
15314,1553
15398,1353
15398,1136
15344,1006
15579,1006
15674,987
15698,971
15769,1001
15955,1001
16113,936
16269,1001
16455,1001
16613,936
16769,1001
16955,1001
17113,936
17269,1001
17455,1001
17613,936
17769,1001
17955,1001
18113,936
18269,1001
18455,1001
18613,936
18769,1001
18955,1001
19113,936
19269,1001
19455,1001
19626,930
19758,799
19829,627
19829,442
19766,289
21187,289
21123,444
21122,613
21165,717
21123,819
21122,988
21187,1145
21306,1264
21463,1329
21632,1329
21788,1265
21908,1145
21972,989
21973,820
21930,717
21972,614
21973,445
21908,289
23112,289
23112,1616
23072,1599
22903,1599
22747,1664
22627,1783
22585,1886
22482,1929
22362,2048
22298,2204
22297,2373
22362,2530
22481,2649
22485,2651
22443,2750
22329,2797
22231,2896
22178,3024
22177,3051
22134,2946
22036,2848
21907,2794
21768,2794
21639,2847
21618,2869
20908,2869
20908,1905
20854,1776
20756,1678
20695,1652
20669,1591
20571,1493
20442,1439
20303,1439
20174,1492
20076,1591
20023,1719
20022,1858
20076,1987
20174,2086
20235,2111
20261,2172
20359,2271
20488,2324
20627,2324
20755,2271
20854,2173
20907,2044
20908,1905
20908,2869
18877,2869
18861,2853
18732,2799
18698,2799
18698,2435
18681,2394
18697,2354
18698,2215
18644,2086
18546,1988
18417,1934
18278,1934
18149,1987
18051,2086
17998,2214
17997,2353
18014,2394
17998,2434
17997,2573
18051,2702
18149,2801
18278,2854
18417,2854
18545,2801
18644,2703
18697,2574
18698,2435
18698,2799
18593,2799
18464,2852
18366,2951
18313,3079
18312,3218
18366,3347
18464,3446
18593,3499
18732,3499
18860,3446
18877,3429
20018,3429
19922,3469
19802,3588
19738,3744
19737,3913
19802,4070
19865,4133
19813,4259
19812,4398
19865,4526
19802,4588
19738,4744
19737,4913
19802,5070
19921,5189
20078,5254
20247,5254
20403,5190
20466,5127
20593,5179
20732,5179
20859,5127
20921,5189
21078,5254
21247,5254
21403,5190
21523,5070
21587,4914
21588,4745
21523,4589
21460,4526
21512,4399
21513,4260
21460,4133
21523,4070
21587,3914
21588,3745
21523,3589
21404,3469
21307,3429
21627,3429
21639,3441
21768,3494
21907,3494
22035,3441
22134,3343
22187,3214
22187,3188
22231,3292
22329,3391
22458,3444
22597,3444
22597,3444
22597,3854
22192,3854
22192,4444
22944,4444
22903,4544
22902,4713
22960,4852
22903,4989
22902,5158
22967,5315
23086,5434
23243,5499
23412,5499
23568,5435
23688,5315
23752,5159
23753,4990
23695,4852
23752,4714
23753,4545
23711,4444
24568,4444
24568,4720
24534,4713
24101,4713
24006,4731
23922,4786
23866,4869
23846,4968
23846,5401
23865,5496
23880,5520
23851,5591
23851,5777
23916,5934
23851,6091
23851,6277
23916,6434
23851,6591
23851,6777
23922,6948
24053,7079
24169,7128
24106,7128
24011,7146
23927,7201
23871,7284
23851,7383
23851,7816
23870,7911
23885,7935
23856,8006
23856,8192
23921,8349
23856,8506
23856,8692
23925,8859
23910,8862
23851,9037
23863,9223
23910,9337
23997,9354
24252,9099
24246,9094
24274,9066
24371,9066
24399,9094
24393,9099
24399,9105
24328,9175
24322,9170
24068,9425
24085,9511
24261,9571
24446,9559
24560,9511
24568,9472
24568,9929
" /> 
</g>
<g style="fill:#FFFFFF; fill-opacity:1.0; 
stroke:#FFFFFF; stroke-width:39.3701; stroke-opacity:1; 
stroke-linecap:round; stroke-linejoin:round;">
<circle cx="8222.95" cy="9424.69" r="105.315" /> 
<circle cx="7777.95" cy="9429.69" r="45.315" /> 
<circle cx="9497.95" cy="9244.69" r="45.315" /> 
<circle cx="9152.95" cy="9244.69" r="45.315" /> 
<circle cx="9147.95" cy="8694.69" r="45.315" /> 
<circle cx="9322.95" cy="8969.69" r="45.315" /> 
<circle cx="9497.95" cy="8694.69" r="45.315" /> 
<circle cx="10092.9" cy="6664.69" r="45.315" /> 
<circle cx="9747.95" cy="6664.69" r="45.315" /> 
<circle cx="9747.95" cy="6114.69" r="45.315" /> 
<circle cx="9922.95" cy="6389.69" r="45.315" /> 
<circle cx="10092.9" cy="6114.69" r="45.315" /> 
<circle cx="20557.9" cy="1974.69" r="45.315" /> 
<circle cx="20372.9" cy="1789.69" r="45.315" /> 
<circle cx="20497.9" cy="7349.69" r="45.315" /> 
<circle cx="19572.9" cy="8519.69" r="45.315" /> 
<circle cx="19782.9" cy="8309.69" r="45.315" /> 
<circle cx="19572.9" cy="8784.69" r="45.315" /> 
<circle cx="21902.9" cy="8764.69" r="45.315" /> 
<circle cx="21632.9" cy="8489.69" r="45.315" /> 
<circle cx="21632.9" cy="8764.69" r="45.315" /> 
<circle cx="21902.9" cy="8489.69" r="45.315" /> 
<circle cx="18682.9" cy="8999.69" r="105.315" /> 
<circle cx="18682.9" cy="9409.69" r="105.315" /> 
</g>
<g style="fill:#FFFFFF; fill-opacity:1.0; 
stroke:#FFFFFF; stroke-width:0.0393701; stroke-opacity:1; 
stroke-linecap:round; stroke-linejoin:round;">
<circle cx="22787.9" cy="2834.69" r="-19.6654" /> 
</g>
<g style="fill:#FFFFFF; fill-opacity:1.0; 
stroke:#FFFFFF; stroke-width:39.3701; stroke-opacity:1; 
stroke-linecap:round; stroke-linejoin:round;">
</g>
<g style="fill:#FFFFFF; fill-opacity:1.0; 
stroke:#FFFFFF; stroke-width:0.0393701; stroke-opacity:1; 
stroke-linecap:round; stroke-linejoin:round;">
<circle cx="22527.9" cy="3094.69" r="-19.6654" /> 
</g>
<g style="fill:#FFFFFF; fill-opacity:1.0; 
stroke:#FFFFFF; stroke-width:39.3701; stroke-opacity:1; 
stroke-linecap:round; stroke-linejoin:round;">
</g>
<g style="fill:#FFFFFF; fill-opacity:1.0; 
stroke:#FFFFFF; stroke-width:0.0393701; stroke-opacity:1; 
stroke-linecap:round; stroke-linejoin:round;">
<circle cx="20162.9" cy="4329.69" r="-19.6654" /> 
</g>
<g style="fill:#FFFFFF; fill-opacity:1.0; 
stroke:#FFFFFF; stroke-width:39.3701; stroke-opacity:1; 
stroke-linecap:round; stroke-linejoin:round;">
</g>
<g style="fill:#FFFFFF; fill-opacity:1.0; 
stroke:#FFFFFF; stroke-width:0.0393701; stroke-opacity:1; 
stroke-linecap:round; stroke-linejoin:round;">
<circle cx="20662.9" cy="3829.69" r="-19.6654" /> 
</g>
<g style="fill:#FFFFFF; fill-opacity:1.0; 
stroke:#FFFFFF; stroke-width:39.3701; stroke-opacity:1; 
stroke-linecap:round; stroke-linejoin:round;">
</g>
<g style="fill:#FFFFFF; fill-opacity:1.0; 
stroke:#FFFFFF; stroke-width:0.0393701; stroke-opacity:1; 
stroke-linecap:round; stroke-linejoin:round;">
<circle cx="21162.9" cy="4329.69" r="-19.6654" /> 
</g>
<g style="fill:#FFFFFF; fill-opacity:1.0; 
stroke:#FFFFFF; stroke-width:39.3701; stroke-opacity:1; 
stroke-linecap:round; stroke-linejoin:round;">
</g>
<g style="fill:#FFFFFF; fill-opacity:1.0; 
stroke:#FFFFFF; stroke-width:0.0393701; stroke-opacity:1; 
stroke-linecap:round; stroke-linejoin:round;">
<circle cx="20662.9" cy="4829.69" r="-19.6654" /> 
</g>
<g style="fill:#FFFFFF; fill-opacity:1.0; 
stroke:#FFFFFF; stroke-width:39.3701; stroke-opacity:1; 
stroke-linecap:round; stroke-linejoin:round;">
<circle cx="21162.9" cy="4829.69" r="105.315" /> 
<circle cx="20162.9" cy="4829.69" r="105.315" /> 
<circle cx="20162.9" cy="3829.69" r="105.315" /> 
<circle cx="20662.9" cy="4329.69" r="105.315" /> 
<circle cx="21162.9" cy="3829.69" r="105.315" /> 
<circle cx="5962.95" cy="2229.69" r="105.315" /> 
<circle cx="4822.95" cy="904.685" r="105.315" /> 
<circle cx="4832.95" cy="494.685" r="105.315" /> 
<circle cx="5247.95" cy="494.685" r="105.315" /> 
<circle cx="5247.95" cy="904.685" r="105.315" /> 
<circle cx="5972.95" cy="1819.69" r="105.315" /> 
<circle cx="6832.95" cy="4269.69" r="105.315" /> 
<circle cx="6367.95" cy="4269.69" r="105.315" /> 
<circle cx="9607.95" cy="4959.69" r="105.315" /> 
<circle cx="9607.95" cy="4584.69" r="105.315" /> 
<circle cx="9982.95" cy="4584.69" r="105.315" /> 
<circle cx="9982.95" cy="4959.69" r="105.315" /> 
<circle cx="9042.95" cy="6309.69" r="45.315" /> 
<circle cx="8887.95" cy="6154.69" r="45.315" /> 
<circle cx="8887.95" cy="6459.65" r="45.315" /> 
<circle cx="8672.95" cy="6459.65" r="45.315" /> 
<circle cx="8672.95" cy="6154.69" r="45.315" /> 
<circle cx="10752.9" cy="6469.69" r="45.315" /> 
<circle cx="10967.9" cy="6469.69" r="45.315" /> 
<circle cx="10192.9" cy="9049.69" r="45.315" /> 
<circle cx="10347.9" cy="8894.73" r="45.315" /> 
<circle cx="10347.9" cy="9204.65" r="45.315" /> 
<circle cx="8452.95" cy="8889.69" r="45.315" /> 
<circle cx="8222.95" cy="8889.69" r="45.315" /> 
<circle cx="10572.9" cy="8897.41" r="45.315" /> 
<circle cx="10572.9" cy="9204.65" r="45.315" /> 
<circle cx="10967.9" cy="6049.69" r="105.315" /> 
<circle cx="9922.95" cy="9794.69" r="45.315" /> 
<circle cx="9922.95" cy="10044.7" r="45.315" /> 
<circle cx="11107.9" cy="10044.7" r="45.315" /> 
<circle cx="11522.9" cy="10459.7" r="45.315" /> 
<circle cx="11522.9" cy="10044.7" r="45.315" /> 
<circle cx="11222.9" cy="4064.69" r="105.315" /> 
<circle cx="10787.9" cy="4064.69" r="105.315" /> 
<circle cx="11222.9" cy="3629.69" r="105.315" /> 
<circle cx="10787.9" cy="3629.69" r="105.315" /> 
<circle cx="8167.95" cy="7994.69" r="105.315" /> 
<circle cx="8587.95" cy="7994.69" r="105.315" /> 
<circle cx="10642.9" cy="7359.69" r="105.315" /> 
<circle cx="11057.9" cy="7359.69" r="105.315" /> 
<circle cx="23327.9" cy="5074.69" r="105.315" /> 
<circle cx="23327.9" cy="4629.69" r="105.315" /> 
<circle cx="22722.9" cy="2289.69" r="105.315" /> 
<circle cx="22987.9" cy="2024.69" r="105.315" /> 
<circle cx="21547.9" cy="904.685" r="105.315" /> 
<circle cx="21547.9" cy="529.685" r="105.315" /> 
<circle cx="18347.9" cy="2504.69" r="45.315" /> 
<circle cx="18347.9" cy="2284.69" r="45.315" /> 
<circle cx="21532.9" cy="9204.69" r="105.315" /> 
<circle cx="21537.9" cy="9589.69" r="105.315" /> 
<circle cx="19192.9" cy="5924.69" r="45.315" /> 
<circle cx="19467.9" cy="5924.69" r="45.315" /> 
<circle cx="19192.9" cy="6194.69" r="45.315" /> 
<circle cx="19257.9" cy="10429.7" r="105.315" /> 
<circle cx="19677.9" cy="10429.7" r="105.315" /> 
<circle cx="19257.9" cy="10009.7" r="105.315" /> 
<circle cx="19677.9" cy="10009.7" r="105.315" /> 
</g>
<g style="fill:#FFFFFF; fill-opacity:1.0; 
stroke:#FFFFFF; stroke-width:0.0393701; stroke-opacity:1; 
stroke-linecap:round; stroke-linejoin:round;">
<circle cx="20732.9" cy="6949.69" r="-19.6654" /> 
</g>
<g style="fill:#FFFFFF; fill-opacity:1.0; 
stroke:#FFFFFF; stroke-width:39.3701; stroke-opacity:1; 
stroke-linecap:round; stroke-linejoin:round;">
</g>
<g style="fill:#FFFFFF; fill-opacity:1.0; 
stroke:#FFFFFF; stroke-width:0.0393701; stroke-opacity:1; 
stroke-linecap:round; stroke-linejoin:round;">
<circle cx="21122.9" cy="7319.69" r="-19.6654" /> 
</g>
<g style="fill:#FFFFFF; fill-opacity:1.0; 
stroke:#FFFFFF; stroke-width:39.3701; stroke-opacity:1; 
stroke-linecap:round; stroke-linejoin:round;">
</g>
<g style="fill:#FFFFFF; fill-opacity:1.0; 
stroke:#FFFFFF; stroke-width:0.0393701; stroke-opacity:1; 
stroke-linecap:round; stroke-linejoin:round;">
<circle cx="20927.9" cy="7139.69" r="-19.6654" /> 
</g>
<g style="fill:#FFFFFF; fill-opacity:1.0; 
stroke:#FFFFFF; stroke-width:39.3701; stroke-opacity:1; 
stroke-linecap:round; stroke-linejoin:round;">
</g>
<g style="fill:#FFFFFF; fill-opacity:1.0; 
stroke:#FFFFFF; stroke-width:0.0393701; stroke-opacity:1; 
stroke-linecap:round; stroke-linejoin:round;">
<circle cx="19692.9" cy="7379.69" r="-19.6654" /> 
</g>
<g style="fill:#FFFFFF; fill-opacity:1.0; 
stroke:#FFFFFF; stroke-width:39.3701; stroke-opacity:1; 
stroke-linecap:round; stroke-linejoin:round;">
</g>
<g style="fill:#FFFFFF; fill-opacity:1.0; 
stroke:#FFFFFF; stroke-width:0.0393701; stroke-opacity:1; 
stroke-linecap:round; stroke-linejoin:round;">
<circle cx="19692.9" cy="7839.69" r="-19.6654" /> 
</g>
<g style="fill:#FFFFFF; fill-opacity:1.0; 
stroke:#FFFFFF; stroke-width:39.3701; stroke-opacity:1; 
stroke-linecap:round; stroke-linejoin:round;">
</g>
<g style="fill:#FFFFFF; fill-opacity:1.0; 
stroke:#FFFFFF; stroke-width:0.0393701; stroke-opacity:1; 
stroke-linecap:round; stroke-linejoin:round;">
<circle cx="19692.9" cy="7614.69" r="-19.6654" /> 
</g>
<g style="fill:#FFFFFF; fill-opacity:1.0; 
stroke:#FFFFFF; stroke-width:39.3701; stroke-opacity:1; 
stroke-linecap:round; stroke-linejoin:round;">
<circle cx="10172.9" cy="10174.7" r="45.315" /> 
<circle cx="10372.9" cy="10044.7" r="45.315" /> 
<circle cx="10642.9" cy="10044.7" r="45.315" /> 
<circle cx="19402.9" cy="2944.69" r="45.315" /> 
<circle cx="19247.9" cy="2729.69" r="45.315" /> 
<circle cx="18662.9" cy="3149.69" r="45.315" /> 
<circle cx="21837.9" cy="3144.69" r="45.315" /> 
<circle cx="12552.9" cy="5934.69" r="45.315" /> 
<circle cx="9442.95" cy="6979.69" r="45.315" /> 
<circle cx="17072.9" cy="6324.69" r="472.315" /> 
<circle cx="16927.9" cy="3464.69" r="180.315" /> 
<circle cx="15927.9" cy="3464.69" r="180.315" /> 
<circle cx="6673.34" cy="6444.69" r="344.488" /> 
<circle cx="4822.95" cy="6444.69" r="344.488" /> 
<circle cx="2972.55" cy="6444.69" r="344.488" /> 
<circle cx="7423.34" cy="10196.7" r="344.488" /> 
<circle cx="2222.55" cy="10196.7" r="344.488" /> 
</g>
<g style="fill:#FFFFFF; fill-opacity:1.0; 
stroke:#FFFFFF; stroke-width:236.22; stroke-opacity:1; 
stroke-linecap:round; stroke-linejoin:round;">
</g>
<g style="fill:#FFFFFF; fill-opacity:0.0; 
stroke:#FFFFFF; stroke-width:236.22; stroke-opacity:1; 
stroke-linecap:round; stroke-linejoin:round;">
<path d="M1856 4283
L2329 4283
" />
<path d="M1856 385
L2329 385
" />
<path d="M3490 4283
L3844 4283
" />
<path d="M3490 385
L3844 385
" />
</g>
<g style="fill:#FFFFFF; fill-opacity:0.0; 
stroke:#FFFFFF; stroke-width:39.3701; stroke-opacity:1; 
stroke-linecap:round; stroke-linejoin:round;">
</g>
<g style="fill:#FFFFFF; fill-opacity:1.0; 
stroke:#FFFFFF; stroke-width:39.3701; stroke-opacity:1; 
stroke-linecap:round; stroke-linejoin:round;">
<circle cx="8982.95" cy="2224.69" r="127.953" /> 
<circle cx="8982.95" cy="1224.69" r="127.953" /> 
<circle cx="14852.9" cy="4244.69" r="157.48" /> 
<circle cx="14852.9" cy="1244.69" r="157.48" /> 
<circle cx="15257.9" cy="7479.69" r="157.48" /> 
<circle cx="15257.9" cy="10479.7" r="157.48" /> 
<circle cx="13677.1" cy="5079.69" r="127.953" /> 
<circle cx="14562.9" cy="5079.69" r="127.953" /> 
<circle cx="15448.8" cy="5079.69" r="127.953" /> 
<circle cx="13697.1" cy="6779.69" r="127.953" /> 
<circle cx="14582.9" cy="6779.69" r="127.953" /> 
<circle cx="15468.8" cy="6779.69" r="127.953" /> 
<circle cx="24322.9" cy="9099.69" r="118.11" /> 
<circle cx="24322.9" cy="8599.69" r="118.11" /> 
<circle cx="24322.9" cy="8099.69" r="118.11" /> 
<circle cx="24322.9" cy="7599.69" r="118.11" /> 
<circle cx="24317.9" cy="6684.69" r="118.11" /> 
<circle cx="24317.9" cy="6184.69" r="118.11" /> 
<circle cx="24317.9" cy="5684.69" r="118.11" /> 
<circle cx="24317.9" cy="5184.69" r="118.11" /> 
<circle cx="21772.9" cy="10384.7" r="118.11" /> 
<circle cx="22272.9" cy="10384.7" r="118.11" /> 
<circle cx="22772.9" cy="10384.7" r="118.11" /> 
<circle cx="23272.9" cy="10384.7" r="118.11" /> 
<circle cx="23772.9" cy="10384.7" r="118.11" /> 
<circle cx="24272.9" cy="10384.7" r="118.11" /> 
<circle cx="16852.9" cy="10379.7" r="118.11" /> 
<circle cx="17352.9" cy="10379.7" r="118.11" /> 
<circle cx="17852.9" cy="10379.7" r="118.11" /> 
<circle cx="18352.9" cy="10379.7" r="118.11" /> 
<circle cx="19362.9" cy="534.685" r="118.11" /> 
<circle cx="18862.9" cy="534.685" r="118.11" /> 
<circle cx="18362.9" cy="534.685" r="118.11" /> 
<circle cx="17862.9" cy="534.685" r="118.11" /> 
<circle cx="17362.9" cy="534.685" r="118.11" /> 
<circle cx="16862.9" cy="534.685" r="118.11" /> 
<circle cx="16362.9" cy="534.685" r="118.11" /> 
<circle cx="15862.9" cy="534.685" r="118.11" /> 
<circle cx="15362.9" cy="534.685" r="118.11" /> 
<circle cx="12652.9" cy="3459.69" r="180.315" /> 
<circle cx="13652.9" cy="3459.69" r="180.315" /> 
<circle cx="17287.9" cy="8394.69" r="180.315" /> 
<circle cx="16287.9" cy="8394.69" r="180.315" /> 
<circle cx="13097.9" cy="8404.69" r="180.315" /> 
<circle cx="14097.9" cy="8404.69" r="180.315" /> 
</g> 
</svg>
